<?xml version="1.0" encoding="UTF-8"?>
<svg width="24px" height="24px" viewBox="0 0 24 24" version="1.1" xmlns="http://www.w3.org/2000/svg" xmlns:xlink="http://www.w3.org/1999/xlink">
    <title>进入实验</title>
    <g id="网站-pc" stroke="none" stroke-width="1" fill="none" fill-rule="evenodd">
        <g id="支持" transform="translate(-676.000000, -416.000000)" fill="#005FE8" fill-rule="nonzero">
            <g id="进入实验" transform="translate(676.000000, 416.000000)">
                <rect id="矩形" opacity="0" x="0" y="0" width="24" height="24"></rect>
                <path d="M12.0001772,0 C5.37279049,0 0.000354398437,5.37243609 0.000354398437,11.9998228 C0.000354398437,18.6272095 5.37279049,24 12.0001772,24 C18.6275639,24 24,18.6275639 24,12.0001772 C24,8.81756493 22.7358721,5.76527199 20.4854586,3.51479203 C18.2350451,1.26431206 15.1827895,0 12.0001772,0 Z M12.0001772,22.3194081 C6.30097905,22.3194081 1.68094627,17.6993753 1.68094627,12.0001772 C1.68094627,6.30097908 6.30097905,1.68059187 12.0001772,1.68059187 C17.6993754,1.68059187 22.3194081,6.30097905 22.3194081,12.0001772 C22.3194081,17.6993311 17.6993311,22.3194081 12.0001772,22.3194081 Z" id="形状"></path>
                <path d="M17.6724405,12.0001772 C17.6979544,12.1071247 17.6979544,12.2185741 17.6724405,12.3255216 C17.6370507,12.4046954 17.5843717,12.4749341 17.518274,12.5310769 L13.7839011,16.2310725 C13.4502582,16.5440072 12.9285143,16.5358087 12.6048685,16.2125455 C12.2812226,15.8892823 12.2724068,15.3675485 12.5849466,15.0335356 L14.7432774,12.8581934 L7.18805653,12.8581934 C6.8779335,12.8645028 6.58862936,12.7026638 6.43171785,12.4350916 C6.27480633,12.1675194 6.27480633,11.8360247 6.43171785,11.5684525 C6.58862936,11.3008803 6.8779335,11.1390413 7.18805653,11.1453506 L14.7432774,11.1453506 L12.5335578,8.97000841 C12.2044064,8.63846118 12.2050608,8.10325258 12.5350219,7.77251121 C12.864983,7.44176984 13.4001886,7.43985134 13.7325123,7.76821868 L17.3641076,11.3831569 C17.4344674,11.4422314 17.4877039,11.5190878 17.518274,11.6057236 C17.6089729,11.7181074 17.6628079,11.855727 17.6724405,11.9998228 L17.6724405,12.0001772 Z" id="路径"></path>
            </g>
        </g>
    </g>
</svg>