<?xml version="1.0" encoding="UTF-8"?>
<svg width="346px" height="296px" viewBox="0 0 346 296" version="1.1" xmlns="http://www.w3.org/2000/svg" xmlns:xlink="http://www.w3.org/1999/xlink">
    <title>doc-banner</title>
    <defs>
        <polygon id="path-1" points="0 0 24.2962649 0 24.2962649 66.620935 0 66.620935"></polygon>
        <polygon id="path-3" points="0 0 59.0045679 0 59.0045679 34.3197713 0 34.3197713"></polygon>
    </defs>
    <g id="网站-pc" stroke="none" stroke-width="1" fill="none" fill-rule="evenodd">
        <g id="支持" transform="translate(-1182.000000, -111.000000)">
            <g id="doc-banner" transform="translate(1182.000000, 111.000000)">
                <polygon id="Fill-1" fill="#E0E0E0" points="0.000879198171 198.999561 25 213 25 161.000439 0 147"></polygon>
                <polygon id="Fill-2" fill="#EBEBEB" points="24 160.277586 58.9991384 140 59 192.72155 24 213"></polygon>
                <polygon id="Fill-3" fill="#F5F5F5" points="0 145.999699 24.2946202 160 59 140.000301 34.7062342 126"></polygon>
                <polygon id="Fill-4" fill="#E0E0E0" points="28.0008422 162.166782 55.3708528 146 56 146.372244 55.9991578 165.834079 28.6291472 182 28 181.627756"></polygon>
                <polygon id="Fill-5" fill="#F5F5F5" points="28.0008308 163.335695 55 147 54.9991692 166.665175 28 183"></polygon>
                <g id="编组">
                    <path d="M39.290608,160.217611 L44.012361,157.470756 C44.6258642,157.114379 45.1223063,157.277073 45.1223063,157.83488 C45.1223063,158.392687 44.6258642,159.132986 44.012361,159.489363 L39.290608,162.236219 C38.6771048,162.592596 38.1798083,162.429902 38.1806617,161.872956 C38.1806617,161.314288 38.6779592,160.573988 39.290608,160.217611" id="Fill-6" fill="#E0E0E0"></path>
                    <polygon id="Fill-8" fill="#E0E0E0" points="27.1295731 187.482069 54.8970016 171.331488 54.8952927 190.77382 55.5344297 191.145692 27.7670012 207.296273 27.1287187 206.923541"></polygon>
                    <polygon id="Fill-10" fill="#F5F5F5" points="27.7679412 187.854457 55.5353696 171.703015 55.5345152 191.145347 27.7670867 207.295929"></polygon>
                    <path d="M38.6518982,184.81811 L43.3736512,182.072115 C43.9871544,181.715738 44.4835964,181.878432 44.4835964,182.435379 C44.4835964,182.993186 43.9871544,183.733485 43.3736512,184.090723 L38.6510437,186.837578 C38.0383949,187.193955 37.5410985,187.030401 37.5419518,186.473454 C37.5419518,185.915647 38.0392494,185.174487 38.6518982,184.81811" id="Fill-12" fill="#E0E0E0"></path>
                    <g transform="translate(0.000000, 91.214375)">
                        <mask id="mask-2" fill="white">
                            <use xlink:href="#path-1"></use>
                        </mask>
                        <g id="Clip-15"></g>
                        <polygon id="Fill-14" fill="#E0E0E0" mask="url(#mask-2)" points="24.2962649 66.620935 -0.000341784516 52.4889606 -0.000341784516 0 24.2954105 14.1319743"></polygon>
                    </g>
                    <polygon id="Fill-16" fill="#EBEBEB" points="24.2958377 105.346263 59.0049097 85.1584664 59.0049097 137.647427 24.2966922 157.835224"></polygon>
                    <g transform="translate(0.000000, 71.026320)">
                        <mask id="mask-4" fill="white">
                            <use xlink:href="#path-3"></use>
                        </mask>
                        <g id="Clip-19"></g>
                        <polygon id="Fill-18" fill="#F5F5F5" mask="url(#mask-4)" points="59.0045679 14.1319743 24.2954959 34.3197713 -0.000256338387 20.1886577 34.7079612 0"></polygon>
                    </g>
                    <polygon id="Fill-20" fill="#E0E0E0" points="27.7670867 107.364613 55.5345152 91.2140308 56.1727978 91.5859022 56.1719433 111.028235 28.4053693 127.177956 27.7662322 126.806084"></polygon>
                    <path d="M39.2894117,104.700653 L44.0111648,101.954658 C44.624668,101.597421 45.12111,101.760975 45.12111,102.317922 C45.12111,102.875729 44.624668,103.616889 44.0111648,103.973266 L39.2885573,106.719261 C38.6759085,107.075638 38.1794665,106.912944 38.1794665,106.355998 C38.1794665,105.79819 38.676763,105.05703 39.2894117,104.700653" id="Fill-22" fill="#E0E0E0"></path>
                    <polygon id="Fill-24" fill="#E0E0E0" points="27.1282914 131.965456 54.8957199 115.814874 54.8948655 135.257206 55.533148 135.629078 27.766574 151.778799 27.127437 151.406927"></polygon>
                    <polygon id="Fill-26" fill="#F5F5F5" points="27.7670867 132.337413 55.5336607 116.186831 55.5328063 135.629164 27.7662322 151.778885"></polygon>
                    <path d="M38.6506165,129.301496 L43.3723695,126.555502 C43.9858727,126.198264 44.4823148,126.361819 44.4823148,126.918765 C44.4823148,127.476572 43.9858727,128.217732 43.3723695,128.574109 L38.649762,131.320104 C38.0371133,131.676481 37.5406712,131.513787 37.5406712,130.956841 C37.5406712,130.399034 38.0379677,129.657873 38.6506165,129.301496" id="Fill-28" fill="#E0E0E0"></path>
                    <polygon id="Fill-30" fill="#E0E0E0" points="27.7666595 107.364182 55.5340879 91.2136004 55.5332335 110.655933 27.765805 126.805654"></polygon>
                    <polygon id="Fill-32" fill="#E0E0E0" points="69.4174604 100.818987 54.218303 91.9810156 54.218303 109.108621 69.4166059 117.947453"></polygon>
                    <polygon id="Fill-34" fill="#EBEBEB" points="38.179552 129.571361 38.179552 105.345489 44.1377105 101.868663 45.1211955 103.326881 62.4753042 93.2329826 62.4761587 115.439387"></polygon>
                    <polygon id="Fill-36" fill="#F5F5F5" points="38.179552 129.571361 39.9141084 108.37383 64.2107151 94.2427168 62.4761587 115.439387"></polygon>
                    <polygon id="Fill-38" fill="#EBEBEB" points="41.6504591 116.969741 28.4037458 109.2646 28.4028913 126.393066 41.6496047 134.097346"></polygon>
                    <polygon id="Fill-40" fill="#F5F5F5" points="41.6504591 115.439387 69.4170332 99.2888052 69.4161787 118.731138 41.6496047 134.880859"></polygon>
                    <path d="M52.5339889,112.403815 L57.255742,109.656959 C57.8692452,109.300582 58.3656872,109.463276 58.3656872,110.021083 C58.3656872,110.578029 57.8692452,111.31919 57.255742,111.675566 L52.5339889,114.422422 C51.9204857,114.778799 51.4240437,114.616105 51.4240437,114.058298 C51.4240437,113.501352 51.9213402,112.760191 52.5339889,112.403815" id="Fill-42" fill="#E0E0E0"></path>
                    <polygon id="Fill-44" fill="#E0E0E0" points="41.6504591 115.439387 40.7250776 114.90224 40.7250776 134.34285 41.6504591 134.880859"></polygon>
                    <polygon id="Fill-46" fill="#EBEBEB" points="40.7249921 114.901809 68.4924206 98.7512272 69.4169477 99.2892356 41.6503737 115.438957"></polygon>
                    <polygon id="Fill-48" fill="#E0E0E0" points="311.290928 181.547966 286.994321 167.416852 286.994321 114.927031 311.290928 129.059005"></polygon>
                    <polygon id="Fill-50" fill="#EBEBEB" points="311.290928 129.05935 345.999146 108.871553 346 161.359653 311.290928 181.54831"></polygon>
                    <polygon id="Fill-52" fill="#F5F5F5" points="345.999231 108.871467 311.291013 129.059264 286.994407 114.927289 321.702624 94.7394923"></polygon>
                    <polygon id="Fill-54" fill="#E0E0E0" points="314.762177 131.077785 342.528751 114.927203 343.167034 115.299075 343.166179 134.741407 315.399605 150.891128 314.761323 150.519257"></polygon>
                    <polygon id="Fill-56" fill="#F5F5F5" points="315.400545 131.449742 343.167119 115.299161 343.166265 134.741493 315.399691 150.891214"></polygon>
                    <path d="M326.284929,128.41374 L331.005828,125.667745 C331.619331,125.310507 332.115773,125.473201 332.115773,126.031008 C332.115773,126.588815 331.619331,127.329115 331.005828,127.686352 L326.284075,130.432347 C325.670572,130.788724 325.17413,130.62603 325.17413,130.069084 C325.17413,129.511277 325.671426,128.770116 326.284929,128.41374" id="Fill-58" fill="#E0E0E0"></path>
                    <polygon id="Fill-60" fill="#E0E0E0" points="314.123894 155.678628 341.890468 139.528046 341.889614 158.970379 342.527897 159.34225 314.761323 175.491971 314.12304 175.119239"></polygon>
                    <polygon id="Fill-62" fill="#F5F5F5" points="314.762177 156.050586 342.528751 139.900004 342.527897 159.342336 314.761323 175.492057"></polygon>
                    <path d="M325.645707,153.014669 L330.36746,150.267813 C330.980109,149.911436 331.477405,150.07413 331.477405,150.631937 C331.477405,151.188883 330.980109,151.930044 330.36746,152.287281 L325.644852,155.033276 C325.031349,155.389653 324.534907,155.226959 324.534907,154.670013 C324.535762,154.112206 325.032204,153.371045 325.645707,153.014669" id="Fill-64" fill="#E0E0E0"></path>
                    <polygon id="Fill-66" fill="#3D1282" points="79.8312073 108.251939 79.8312073 241.492087 215.194965 162.759507 215.19411 41.631865 114.540279 100.176648 111.069458 90.0827498"></polygon>
                    <polygon id="Fill-68" fill="#3D1282" points="79.8312073 108.251939 79.8312073 241.492087 215.194965 162.759507 215.19411 41.631865 114.540279 100.176648 111.069458 90.0827498"></polygon>
                    <polygon id="Fill-70" fill="#E0E0E0" points="79.8312073 241.492174 86.7719964 120.364531 222.134899 41.6310903 215.194965 162.759593"></polygon>
                    <polygon id="Fill-72" fill="#5521D6" points="79.8312073 241.492174 90.2428181 122.383139 225.606575 43.6505586 215.194965 162.759593"></polygon>
                    <polygon id="Fill-74" fill="#5521D6" points="79.8312073 241.492174 90.2428181 122.383139 225.606575 43.6505586 215.194965 162.759593"></polygon>
                    <polygon id="Fill-76" fill="#3B36DA" points="100.657078 120.364273 100.657078 253.605282 236.020835 174.872702 236.019981 53.7441988 135.36615 112.289843 131.895328 102.195084"></polygon>
                    <polygon id="Fill-78" fill="#3B36DA" points="100.657078 120.364273 100.657078 253.605282 236.020835 174.872702 236.019981 53.7441988 135.36615 112.289843 131.895328 102.195084"></polygon>
                    <polygon id="Fill-80" fill="#E0E0E0" points="100.657078 253.604938 107.597867 132.477295 242.96077 53.7438545 236.020835 174.872358"></polygon>
                    <polygon id="Fill-82" fill="#2847D1" points="100.657078 253.604938 111.068689 134.495903 246.431591 55.762462 236.020835 174.872358"></polygon>
                    <polygon id="Fill-84" fill="#2847D1" points="100.657078 253.604938 111.068689 134.495903 246.431591 55.762462 236.020835 174.872358"></polygon>
                    <path d="M215.194965,296 C190.898358,281.868026 168.357669,266.504227 158.067392,248.47535 L189.304788,230.306161 L215.194965,296 Z" id="Fill-86" fill="#E0E0E0"></path>
                    <polygon id="Fill-88" fill="#3A64FB" points="124.951634 134.495817 124.951634 267.736826 260.315391 189.003385 260.314537 67.8757427 159.660706 126.420526 156.18903 116.326628"></polygon>
                    <polygon id="Fill-90" fill="#3A64FB" points="124.951634 134.495817 124.951634 267.736826 260.315391 189.003385 260.314537 67.8757427 159.660706 126.420526 156.18903 116.326628"></polygon>
                    <path d="M163.949332,173.8906 C163.608402,173.8906 163.557135,173.493765 163.557135,173.257041 L163.557135,59.6090069 C163.557135,58.8110328 164.137314,57.7987162 164.823446,57.3992988 L262.519132,0.576142439 C262.683189,0.480592147 262.837846,0.430664967 262.966015,0.430664967 C263.3078,0.430664967 263.358213,0.827499965 263.358213,1.06422366 L263.358213,114.712258 C263.358213,115.510232 262.778888,116.522549 262.091902,116.921105 L164.396216,173.745122 C164.232159,173.839812 164.077502,173.8906 163.949332,173.8906" id="Fill-92" fill="#FFFFFF"></path>
                    <path d="M262.966357,0 C262.767268,0 262.543399,0.0654218219 262.305859,0.203151973 L164.610173,57.0271691 C163.792453,57.5023382 163.130246,58.6584106 163.130246,59.6096095 L163.130246,173.256783 C163.130246,173.9308 163.463486,174.320748 163.949674,174.320748 C164.147909,174.320748 164.372633,174.255327 164.610173,174.117596 L262.305859,117.29444 C263.123578,116.819271 263.785786,115.662338 263.785786,114.712 L263.785786,1.06396542 C263.785786,0.389948491 263.451691,0 262.966357,0 M262.909963,0.870282393 C262.920216,0.911601439 262.931324,0.975301634 262.931324,1.06396542 L262.931324,114.712 C262.931324,115.352445 262.428901,116.228753 261.878628,116.548976 L164.182942,173.372132 C164.104332,173.418616 164.044519,173.440136 164.006069,173.451327 C163.994961,173.410008 163.984707,173.346308 163.984707,173.256783 L163.984707,59.6096095 C163.984707,58.9683035 164.486276,58.0928562 165.037403,57.7726336 L262.733089,0.94947723 C262.8117,0.902993304 262.871512,0.880612155 262.909963,0.870282393" id="Fill-94" fill="#27DEBF"></path>
                    <path d="M262.966357,0 C262.767268,0 262.543399,0.0654218219 262.305859,0.203151973 L164.610173,57.0271691 C163.792453,57.5023382 163.130246,58.6584106 163.130246,59.6096095 L163.130246,173.256783 C163.130246,173.9308 163.463486,174.320748 163.949674,174.320748 C164.147909,174.320748 164.372633,174.255327 164.610173,174.117596 L262.305859,117.29444 C263.123578,116.819271 263.785786,115.662338 263.785786,114.712 L263.785786,1.06396542 C263.785786,0.389948491 263.451691,0 262.966357,0 M262.909963,0.870282393 C262.920216,0.911601439 262.931324,0.975301634 262.931324,1.06396542 L262.931324,114.712 C262.931324,115.352445 262.428901,116.228753 261.878628,116.548976 L164.182942,173.372132 C164.104332,173.418616 164.044519,173.440136 164.006069,173.451327 C163.994961,173.410008 163.984707,173.346308 163.984707,173.256783 L163.984707,59.6096095 C163.984707,58.9683035 164.486276,58.0928562 165.037403,57.7726336 L262.733089,0.94947723 C262.8117,0.902993304 262.871512,0.880612155 262.909963,0.870282393" id="Fill-96" fill="#FFFFFF"></path>
                    <polygon id="Fill-98" fill="#27DEBF" points="173.543309 63.9439773 208.251527 43.7561804 208.251527 84.1317743 173.543309 104.319571"></polygon>
                    <polygon id="Fill-100" fill="#FFFFFF" points="173.543309 63.9439773 208.251527 43.7561804 208.251527 84.1317743 173.543309 104.319571"></polygon>
                    <path d="M215.193256,41.7372286 C215.19411,42.851982 216.187849,43.1782303 217.414001,42.4654767 L251.153259,22.8406518 C252.378556,22.1278983 253.373149,20.6455775 253.373149,19.5308241 C253.373149,18.4160707 252.378556,18.0898224 251.153259,18.8034367 L217.414001,38.4274009 C216.186994,39.1401544 215.193256,40.6224751 215.193256,41.7372286" id="Fill-102" fill="#455A64"></path>
                    <path d="M215.193256,53.8499928 C215.19411,54.9647462 216.187849,55.2909945 217.414001,54.578241 L251.153259,34.953416 C252.378556,34.2406625 253.373149,32.7583417 253.373149,31.6435883 C253.373149,30.5288349 252.378556,30.2025866 251.153259,30.9153402 L217.414001,50.5401651 C216.186994,51.2529186 215.193256,52.7352394 215.193256,53.8499928" id="Fill-104" fill="#455A64"></path>
                    <path d="M215.193256,65.962757 C215.19411,67.0775104 216.187849,67.4037587 217.414001,66.6910052 L251.153259,47.0661803 C252.378556,46.3534267 253.373149,44.871106 253.373149,43.7563526 C253.373149,42.6415992 252.378556,42.3153509 251.153259,43.0281044 L217.414001,62.6529293 C216.186994,63.3656829 215.193256,64.8480036 215.193256,65.962757" id="Fill-106" fill="#455A64"></path>
                    <path d="M215.193256,78.0755213 C215.19411,79.1902747 216.187849,79.516523 217.414001,78.8037694 L251.153259,59.1789445 C252.378556,58.466191 253.373149,56.9838702 253.373149,55.8691168 C253.373149,54.7543634 252.378556,54.4281151 251.153259,55.1408686 L217.414001,74.7656936 C216.186994,75.4784471 215.193256,76.9607678 215.193256,78.0755213" id="Fill-108" fill="#455A64"></path>
                    <path d="M173.543309,114.418032 C173.543309,115.532785 174.537048,115.859034 175.7632,115.145419 L251.153174,71.2921391 C252.379325,70.5793856 253.373064,69.0970649 253.373064,67.9823114 C253.373064,66.867558 252.379325,66.5413097 251.153174,67.2540633 L175.7632,111.107343 C174.537048,111.820958 173.543309,113.303279 173.543309,114.418032" id="Fill-110" fill="#455A64"></path>
                    <path d="M173.543309,126.53071 C173.543309,127.645464 174.537048,127.971712 175.7632,127.258097 L251.153174,83.4048173 C252.379325,82.6920638 253.373064,81.209743 253.373064,80.0949896 C253.373064,78.9793754 252.379325,78.6539879 251.153174,79.3667414 L175.7632,123.220022 C174.537048,123.933636 173.543309,125.415957 173.543309,126.53071" id="Fill-112" fill="#455A64"></path>
                    <path d="M173.543309,138.643474 C173.543309,139.758228 174.537048,140.084476 175.7632,139.370862 L251.153174,95.5175815 C252.379325,94.804828 253.373064,93.3225072 253.373064,92.2077538 C253.373064,91.0921396 252.379325,90.7667521 251.153174,91.4803665 L175.7632,135.333647 C174.537048,136.0464 173.543309,137.528721 173.543309,138.643474" id="Fill-114" fill="#455A64"></path>
                    <polygon id="Fill-116" fill="#337DFF" points="124.952488 267.736912 149.248241 160.740383 284.610289 82.0078032 260.315391 189.003471"></polygon>
                    <g transform="translate(158.067050, 150.952504)" fill="#2847D1">
                        <polygon id="Fill-118" points="0 18.1683286 0 97.5232769 31.2382502 79.3532267 31.2382502 0"></polygon>
                        <polygon id="Fill-120" points="0 18.1683286 0 97.5232769 31.2382502 79.3532267 31.2382502 0"></polygon>
                    </g>
                    <path d="M215.223333,295.486439 C212.568521,293.494516 186.953481,273.767255 173.931491,245.592831 C160.07042,215.60209 160.083237,180.622075 160.087351,167.455073 L160.087351,167.045325 L252.94609,113.035307 C252.940963,126.321963 252.959761,161.351905 266.870391,191.448526 C279.589902,218.967871 304.225729,238.469599 308.132326,241.447153 L215.223333,295.486439 Z" id="Fill-122" fill="#FFFFFF"></path>
                    <path d="M253.373662,112.289499 L159.660294,166.796206 C159.660294,179.179868 159.400864,215.173061 173.544762,245.774118 C187.427194,275.812203 215.194623,296 215.194623,296 L308.908519,241.493293 C308.908519,241.493293 281.141091,221.304635 267.257804,191.26655 C253.113906,160.665493 253.373662,124.673161 253.373662,112.289499 L253.373662,112.289499 Z M252.519201,113.780427 C252.520055,127.620586 252.786647,161.995449 266.483662,191.630674 C278.775087,218.224644 302.154857,237.353641 307.363653,241.396882 L215.254435,294.972189 C211.653735,292.238245 186.999109,272.846701 174.318904,245.409994 C160.497992,215.507056 160.509955,180.596767 160.514876,167.454728 L160.514876,167.293756 L252.519201,113.780427 Z" id="Fill-124" fill="#27DEBF"></path>
                    <path d="M253.373662,112.289499 L159.660294,166.796206 C159.660294,179.179868 159.400864,215.173061 173.544762,245.774118 C187.427194,275.812203 215.194623,296 215.194623,296 L308.908519,241.493293 C308.908519,241.493293 281.141091,221.304635 267.257804,191.26655 C253.113906,160.665493 253.373662,124.673161 253.373662,112.289499 L253.373662,112.289499 Z M252.519201,113.780427 C252.520055,127.620586 252.786647,161.995449 266.483662,191.630674 C278.775087,218.224644 302.154857,237.353641 307.363653,241.396882 L215.254435,294.972189 C211.653735,292.238245 186.999109,272.846701 174.318904,245.409994 C160.497992,215.507056 160.509955,180.596767 160.514876,167.454728 L160.514876,167.293756 L252.519201,113.780427 Z" id="Fill-126" fill="#FFFFFF"></path>
                    <path d="M242.776377,130.565773 L213.138533,147.804423 C211.912381,148.517177 210.94513,149.979699 210.986145,151.070349 C211.028013,152.161861 212.062766,152.46745 213.288918,151.754696 L242.926762,134.516046 C244.15206,133.803292 245.105638,132.34077 245.064624,131.249259 C245.022756,130.158608 244.002529,129.85302 242.776377,130.565773" id="Fill-128" fill="#455A64"></path>
                    <path d="M243.40714,142.311659 L213.77015,159.550309 C212.543144,160.263062 211.615199,161.703203 211.705772,162.765447 C211.797199,163.827691 212.873821,164.109177 214.099118,163.396423 L243.737817,146.156912 C244.963114,145.444159 245.874824,144.0066 245.783397,142.944357 C245.693679,141.882113 244.633292,141.598044 243.40714,142.311659" id="Fill-130" fill="#455A64"></path>
                    <path d="M244.591253,153.735858 L214.953408,170.974508 C213.727256,171.687262 212.842035,173.102439 212.988147,174.131972 C213.13426,175.162366 214.254459,175.418888 215.480611,174.705274 L245.118455,157.466624 C246.344607,156.753009 247.211885,155.341275 247.066627,154.310882 C246.920514,153.280488 245.817405,153.022244 244.591253,153.735858" id="Fill-132" fill="#455A64"></path>
                    <path d="M246.367763,164.81513 L216.729919,182.052919 C215.503767,182.766533 214.664686,184.155886 214.865484,185.153569 C215.066283,186.152113 216.232622,186.380228 217.459629,185.667475 L247.097473,168.427964 C248.322771,167.71521 249.143908,166.331022 248.943109,165.332479 C248.741457,164.334796 247.593915,164.102376 246.367763,164.81513" id="Fill-134" fill="#455A64"></path>
                    <path d="M248.7776,175.525629 L219.139756,192.764279 C217.914459,193.477033 217.122373,194.838839 217.385547,195.800368 C217.647012,196.762757 218.864619,196.962466 220.090771,196.248852 L249.727761,179.010202 C250.954768,178.297448 251.724637,176.942528 251.463172,175.979278 C251.199998,175.016888 250.003752,174.812875 248.7776,175.525629" id="Fill-136" fill="#455A64"></path>
                    <path d="M251.862462,185.845319 L179.628013,227.859901 C178.401862,228.573516 177.663607,229.903473 177.995992,230.825404 C178.326669,231.747335 179.600671,231.913472 180.825968,231.200718 L253.060417,189.186136 C254.286569,188.472521 255.001753,187.150312 254.670222,186.22752 C254.337836,185.305589 253.088614,185.131704 251.862462,185.845319" id="Fill-138" fill="#455A64"></path>
                    <path d="M255.711725,195.700944 L183.477276,237.716388 C182.251124,238.429141 181.578663,239.722944 181.984532,240.601834 C182.388692,241.481586 183.718234,241.61329 184.944386,240.900536 L257.178835,198.885093 C258.404986,198.17234 259.063776,196.884563 258.658762,196.005672 C258.253747,195.125921 256.937876,194.988191 255.711725,195.700944" id="Fill-140" fill="#455A64"></path>
                    <path d="M260.422968,205.095948 L188.188519,247.110531 C186.962367,247.823284 186.351428,249.082654 186.837616,249.9142 C187.32295,250.746607 188.723412,250.836992 189.949564,250.124239 L262.183158,208.108795 C263.410164,207.396042 263.998034,206.150445 263.511845,205.317177 C263.025657,204.484771 261.64912,204.382334 260.422968,205.095948" id="Fill-142" fill="#455A64"></path>
                    <path d="M265.983631,213.973087 L193.749183,255.987669 C192.523031,256.700423 191.973612,257.926221 192.53243,258.716448 C193.092102,259.505814 194.548958,259.560045 195.774256,258.847292 L268.008704,216.831848 C269.234856,216.119095 269.766331,214.90793 269.206659,214.118564 C268.646987,213.329198 267.209783,213.259472 265.983631,213.973087" id="Fill-144" fill="#455A64"></path>
                    <path d="M272.286992,222.417322 L200.052543,264.432766 C198.826391,265.145519 198.329949,266.340328 198.954561,267.091819 C199.578317,267.843309 201.085587,267.869133 202.311739,267.155519 L274.547042,225.140936 C275.772339,224.428183 276.253401,223.247147 275.62879,222.495656 C275.005033,221.743305 273.512289,221.704569 272.286992,222.417322" id="Fill-146" fill="#455A64"></path>
                    <path d="M279.269479,230.463862 L207.035885,272.479306 C205.808878,273.192059 205.361995,274.358461 206.046418,275.075519 C206.729988,275.792577 208.284253,275.789133 209.510405,275.07638 L281.745707,233.062658 C282.971005,232.348183 283.404217,231.196414 282.720648,230.479357 C282.036224,229.762299 280.496485,229.751109 279.269479,230.463862" id="Fill-148" fill="#455A64"></path>
                    <path d="M286.906226,238.145675 L214.671778,280.160258 C213.445626,280.873011 213.046593,282.012728 213.789119,282.696214 C214.530792,283.3797 216.133761,283.34785 217.359913,282.634236 L289.594362,240.619653 C290.819659,239.9069 291.205021,238.781816 290.462494,238.09833 C289.720822,237.414845 288.132378,237.432061 286.906226,238.145675" id="Fill-150" fill="#455A64"></path>
                    <path d="M202.399663,154.051174 L168.322038,173.872265 C168.701419,186.305854 170.108717,204.252954 175.273935,222.317124 L209.35156,202.496033 C204.186342,184.431002 202.77819,166.485624 202.399663,154.051174" id="Fill-152" fill="#A1C7FF"></path>
                    <path d="M202.399663,154.051174 L168.322038,173.872265 C168.701419,186.305854 170.108717,204.252954 175.273935,222.317124 L209.35156,202.496033 C204.186342,184.431002 202.77819,166.485624 202.399663,154.051174" id="Fill-154" fill="#A1C7FF"></path>
                    <path d="M182.220534,171.117317 C182.220534,169.193399 181.597632,167.711939 180.555189,166.757297 L168.321867,173.87192 C168.421839,177.157645 168.597858,180.835901 168.891793,184.791339 C170.233297,185.013429 171.817468,184.768958 173.52041,183.970123 C178.325045,181.712209 182.220534,175.957671 182.220534,171.117317" id="Fill-156" fill="#6EA9FF"></path>
                    <path d="M182.220534,171.117317 C182.220534,169.193399 181.597632,167.711939 180.555189,166.757297 L168.321867,173.87192 C168.421839,177.157645 168.597858,180.835901 168.891793,184.791339 C170.233297,185.013429 171.817468,184.768958 173.52041,183.970123 C178.325045,181.712209 182.220534,175.957671 182.220534,171.117317" id="Fill-158" fill="#6EA9FF"></path>
                    <path d="M206.461772,190.618443 C206.461772,190.618443 206.460918,190.618443 206.460918,190.617582 C204.188051,187.729553 199.565415,178.822717 197.589901,174.941309 C197.239571,174.251797 196.238997,174.348208 196.011711,175.086786 C192.598138,186.121554 192.313602,197.684861 192.313602,197.684861 C189.574199,195.500977 187.604666,193.328284 185.080587,189.573416 C184.714023,189.028521 183.887759,189.173998 183.723703,189.811 C179.996543,204.26578 181.866104,218.482975 181.866104,218.482975 L209.35156,202.495947 C208.212563,198.510381 207.264111,194.535144 206.461772,190.618443" id="Fill-160" fill="#6EA9FF"></path>
                    <path d="M206.461772,190.618443 C206.461772,190.618443 206.460918,190.618443 206.460918,190.617582 C204.188051,187.729553 199.565415,178.822717 197.589901,174.941309 C197.239571,174.251797 196.238997,174.348208 196.011711,175.086786 C192.598138,186.121554 192.313602,197.684861 192.313602,197.684861 C189.574199,195.500977 187.604666,193.328284 185.080587,189.573416 C184.714023,189.028521 183.887759,189.173998 183.723703,189.811 C179.996543,204.26578 181.866104,218.482975 181.866104,218.482975 L209.35156,202.495947 C208.212563,198.510381 207.264111,194.535144 206.461772,190.618443" id="Fill-162" fill="#6EA9FF"></path>
                    <polygon id="Fill-164" fill="#455A64" points="200.219078 58.4817717 196.716641 78.9166221 185.525762 77.4058945 186.493012 71.6995621 193.432092 72.7222085 195.375137 61.5617622 182.170292 69.9564149 178.246606 95.6603044 182.875223 92.71374 185.070334 80.0787202 189.275138 80.6718207 187.732835 89.6199765 200.729191 81.3449768 204.840005 55.5438154"></polygon>
                </g>
            </g>
        </g>
    </g>
</svg>