<?xml version="1.0" encoding="UTF-8"?>
<svg width="24px" height="24px" viewBox="0 0 24 24" version="1.1" xmlns="http://www.w3.org/2000/svg" xmlns:xlink="http://www.w3.org/1999/xlink">
    <title>搜索小</title>
    <g id="网站-pc" stroke="none" stroke-width="1" fill="none" fill-rule="evenodd">
        <g id="支持" transform="translate(-901.000000, -269.000000)" fill="#005FE8" fill-rule="nonzero">
            <g id="搜索小" transform="translate(901.000000, 269.000000)">
                <rect id="矩形" opacity="0" x="0" y="0" width="24" height="24"></rect>
                <path d="M17.732,16.342 C17.782,16.377 17.831,16.416 17.875,16.462 L23.539,22.125 C23.92,22.506 23.926,23.145 23.536,23.535 C23.3497796,23.7233118 23.096169,23.8296137 22.8313317,23.8303685 C22.5664943,23.8311153 22.3122851,23.726253 22.125,23.539 L16.461,17.875 C16.4171956,17.8312061 16.3776822,17.7833212 16.343,17.732 C14.5562938,19.2018263 12.3135891,20.0037267 10,20 C4.47700001,20 0,15.523 0,10 C0,4.47700001 4.47700001,0 10,0 C15.523,0 20,4.47700001 20,10 C20,12.407 19.15,14.616 17.732,16.342 Z M10,18 C14.418278,18 18,14.418278 18,9.99999999 C18,5.581722 14.418278,1.99999999 10,1.99999999 C5.58172201,1.99999999 2,5.581722 2,9.99999999 C2,14.418278 5.58172201,18 10,18 Z" id="形状"></path>
            </g>
        </g>
    </g>
</svg>