<?xml version="1.0" encoding="UTF-8"?>
<svg width="24px" height="24px" viewBox="0 0 24 24" version="1.1" xmlns="http://www.w3.org/2000/svg" xmlns:xlink="http://www.w3.org/1999/xlink">
    <title>平台教程</title>
    <g id="网站-pc" stroke="none" stroke-width="1" fill="none" fill-rule="evenodd">
        <g id="支持" transform="translate(-300.000000, -1749.000000)" fill-rule="nonzero">
            <g id="平台教程" transform="translate(300.000000, 1749.000000)">
                <rect id="矩形" fill="#000000" opacity="0" x="0" y="0" width="24" height="24"></rect>
                <path d="M20,2.50000001 C20.276,2.50000001 20.5,2.71300001 20.5,2.97499999 L20.5,21.025 C20.4929111,21.2941564 20.269166,21.5067142 20,21.5001548 L3.99999999,21.5001548 C3.73083402,21.5067142 3.5070889,21.2941564 3.49999999,21.025 L3.49999999,2.97499999 C3.49999999,2.71299998 3.72399998,2.50000001 3.99999999,2.50000001 L20,2.50000001 Z M18.5,4.5 L5.50000001,4.5 L5.50000001,19.5 L18.5,19.5 L18.5,4.5 Z M16.962,2.50000001 L16.962,11.366 L13.628,10.202 L10.295,11.366 L10.295,2.50000001 L16.962,2.50000001 Z M14.961,4.5 L12.295,4.5 L12.295,8.54800001 L13.628,8.08399999 L14.961,8.54800001 L14.961,4.5 L14.961,4.5 Z" id="形状" fill="#005FE8"></path>
            </g>
        </g>
    </g>
</svg>