<?xml version="1.0" encoding="UTF-8"?>
<svg width="24px" height="24px" viewBox="0 0 24 24" version="1.1" xmlns="http://www.w3.org/2000/svg" xmlns:xlink="http://www.w3.org/1999/xlink">
    <title>视频</title>
    <g id="网站-pc" stroke="none" stroke-width="1" fill="none" fill-rule="evenodd">
        <g id="支持" transform="translate(-300.000000, -901.000000)" fill="#005FE8" fill-rule="nonzero">
            <g id="视频" transform="translate(300.000000, 901.000000)">
                <rect id="矩形" opacity="0" x="0" y="0" width="24" height="24"></rect>
                <path d="M4.85004966,4.85004966 C4.5340022,4.85004966 4.23089922,4.97559901 4.00741992,5.19907831 C3.78394062,5.42255761 3.65839125,5.72566058 3.65839125,6.04170804 L3.65839125,17.958292 C3.65839125,18.2743394 3.78394062,18.5774424 4.00741992,18.8009217 C4.23089922,19.024401 4.5340022,19.1499503 4.85004966,19.1499503 L19.1499503,19.1499503 C19.4659978,19.1499503 19.7691008,19.024401 19.9925801,18.8009217 C20.2160594,18.5774424 20.3416088,18.2743394 20.3416088,17.958292 L20.3416088,6.04170804 C20.3416088,5.72566058 20.2160594,5.42255761 19.9925801,5.19907831 C19.7691008,4.97559901 19.4659978,4.85004966 19.1499503,4.85004966 L4.85004966,4.85004966 Z M4.85004966,2.46673287 L19.1499503,2.46673287 C21.1243546,2.46673287 22.7249255,4.06730377 22.7249255,6.04170804 L22.7249255,17.958292 C22.7249255,19.9326962 21.1243546,21.5332671 19.1499503,21.5332671 L4.85004966,21.5332671 C2.87564539,21.5332671 1.27507448,19.9326962 1.27507448,17.958292 L1.27507448,6.04170804 C1.27507448,4.06730377 2.87564539,2.46673287 4.85004966,2.46673287 Z" id="形状"></path>
                <path d="M15.2770606,13.1082423 L11.4637537,15.6464747 C11.0986449,15.8869265 10.6311847,15.908152 10.2457872,15.7017779 C9.86038974,15.4954038 9.61893723,15.0945669 9.61668321,14.6573982 L9.61668321,9.61668321 C9.61893723,9.17951455 9.86038974,8.77867766 10.2457872,8.57230352 C10.6311847,8.36592938 11.0986449,8.38715497 11.4637537,8.62760674 L15.2770606,11.1658391 C15.6064701,11.3872036 15.8040555,11.7580367 15.8040555,12.1549156 C15.8040555,12.5517945 15.6064701,12.9226275 15.2770606,13.1439921 L15.2770606,13.1082423 Z" id="路径"></path>
            </g>
        </g>
    </g>
</svg>