<?xml version="1.0" encoding="UTF-8"?>
<svg width="738px" height="451px" viewBox="0 0 738 451" version="1.1" xmlns="http://www.w3.org/2000/svg" xmlns:xlink="http://www.w3.org/1999/xlink">
    <title>dongtai</title>
    <defs>
        <rect id="path-1" x="0" y="0" width="738" height="451"></rect>
    </defs>
    <g id="网站-pc" stroke="none" stroke-width="1" fill="none" fill-rule="evenodd">
        <g id="关于我们" transform="translate(-889.000000, -2576.000000)">
            <g id="dongtai" transform="translate(889.000000, 2576.000000)">
                <mask id="mask-2" fill="white">
                    <use xlink:href="#path-1"></use>
                </mask>
                <g id="蒙版"></g>
                <g id="编组-4" mask="url(#mask-2)">
                    <g transform="translate(6.000000, 2.000000)">
                        <g id="编组" opacity="0.40218099" transform="translate(503.500000, 329.000000) rotate(-360.000000) translate(-503.500000, -329.000000) translate(282.000000, 0.000000)">
                            <polygon id="Fill-1" fill="#E6E6E6" points="6.38530841e-13 658 4 658 4 149 6.38530841e-13 149"></polygon>
                            <polygon id="Fill-2" fill="#E6E6E6" points="13 653 17 653 17 144 13 144"></polygon>
                            <polygon id="Fill-3" fill="#E6E6E6" points="24 646 28 646 28 137 24 137"></polygon>
                            <polygon id="Fill-4" fill="#E6E6E6" points="37 641 41 641 41 132 37 132"></polygon>
                            <polygon id="Fill-5" fill="#E6E6E6" points="48 634 52 634 52 125 48 125"></polygon>
                            <polygon id="Fill-6" fill="#E6E6E6" points="60 628 64 628 64 119 60 119"></polygon>
                            <polygon id="Fill-7" fill="#E6E6E6" points="71 623 75 623 75 114 71 114"></polygon>
                            <polygon id="Fill-8" fill="#E6E6E6" points="83 617 87 617 87 108 83 108"></polygon>
                            <polygon id="Fill-9" fill="#E6E6E6" points="95 611 99 611 99 102 95 102"></polygon>
                            <polygon id="Fill-10" fill="#E6E6E6" points="106 605 110 605 110 96 106 96"></polygon>
                            <polygon id="Fill-11" fill="#E6E6E6" points="119 600 123 600 123 91 119 91"></polygon>
                            <polygon id="Fill-12" fill="#E6E6E6" points="130 594 134 594 134 85 130 85"></polygon>
                            <polygon id="Fill-13" fill="#E6E6E6" points="143 588 147 588 147 79 143 79"></polygon>
                            <polygon id="Fill-14" fill="#E6E6E6" points="154 582 158 582 158 73 154 73"></polygon>
                            <polygon id="Fill-15" fill="#E6E6E6" points="166 577 170 577 170 68 166 68"></polygon>
                            <polygon id="Fill-16" fill="#E6E6E6" points="178 572 182 572 182 63 178 63"></polygon>
                            <polygon id="Fill-17" fill="#E6E6E6" points="190 565 194 565 194 56 190 56"></polygon>
                            <polygon id="Fill-18" fill="#E6E6E6" points="202 560 206 560 206 51 202 51"></polygon>
                            <polygon id="Fill-19" fill="#E6E6E6" points="214 554 218 554 218 45 214 45"></polygon>
                            <polygon id="Fill-20" fill="#E6E6E6" points="226 549 230 549 230 40 226 40"></polygon>
                            <polygon id="Fill-21" fill="#E6E6E6" points="237 542 241 542 241 33 237 33"></polygon>
                            <polygon id="Fill-22" fill="#E6E6E6" points="249 537 253 537 253 28 249 28"></polygon>
                            <polygon id="Fill-23" fill="#E6E6E6" points="261 531 265 531 265 22 261 22"></polygon>
                            <polygon id="Fill-24" fill="#E6E6E6" points="273 526 277 526 277 17 273 17"></polygon>
                            <polygon id="Fill-25" fill="#E6E6E6" points="285 519 289 519 289 10 285 10"></polygon>
                            <polygon id="Fill-26" fill="#E6E6E6" points="297 514 301 514 301 5 297 5"></polygon>
                            <polygon id="Fill-27" fill="#E6E6E6" points="308 509 312 509 312 0 308 0"></polygon>
                            <polygon id="Fill-28" fill="#E6E6E6" points="317 519 321 519 321 10 317 10"></polygon>
                            <polygon id="Fill-29" fill="#E6E6E6" points="326 528 330 528 330 19 326 19"></polygon>
                            <polygon id="Fill-30" fill="#E6E6E6" points="335 539 339 539 339 30 335 30"></polygon>
                            <polygon id="Fill-31" fill="#E6E6E6" points="343 549 347 549 347 40 343 40"></polygon>
                            <polygon id="Fill-32" fill="#E6E6E6" points="352 559 356 559 356 50 352 50"></polygon>
                            <polygon id="Fill-33" fill="#E6E6E6" points="360 568 364 568 364 59 360 59"></polygon>
                            <polygon id="Fill-34" fill="#E6E6E6" points="369 579 373 579 373 70 369 70"></polygon>
                            <polygon id="Fill-35" fill="#E6E6E6" points="379 588 383 588 383 79 379 79"></polygon>
                            <polygon id="Fill-36" fill="#E6E6E6" points="387 599 391 599 391 90 387 90"></polygon>
                            <polygon id="Fill-37" fill="#E6E6E6" points="396 609 400 609 400 100 396 100"></polygon>
                            <polygon id="Fill-38" fill="#E6E6E6" points="405 618 409 618 409 109 405 109"></polygon>
                            <polygon id="Fill-39" fill="#E6E6E6" points="413 628 417 628 417 119 413 119"></polygon>
                            <polygon id="Fill-40" fill="#E6E6E6" points="421 639 425 639 425 130 421 130"></polygon>
                            <polygon id="Fill-41" fill="#E6E6E6" points="430 649 434 649 434 140 430 140"></polygon>
                            <polygon id="Fill-42" fill="#E6E6E6" points="439 658 443 658 443 149 439 149"></polygon>
                        </g>
                        <g id="编组备份" opacity="0.08" transform="translate(134.500000, 378.000000) rotate(-360.000000) translate(-134.500000, -378.000000) translate(0.000000, 178.000000)">
                            <polygon id="Fill-1" fill="#005FE8" points="6.67922364e-13 400 3 400 3 91 6.67922364e-13 91"></polygon>
                            <polygon id="Fill-2" fill="#005FE8" points="7 396 10 396 10 87 7 87"></polygon>
                            <polygon id="Fill-3" fill="#005FE8" points="15 393 18 393 18 84 15 84"></polygon>
                            <polygon id="Fill-4" fill="#005FE8" points="21 388 24 388 24 79 21 79"></polygon>
                            <polygon id="Fill-5" fill="#005FE8" points="29 386 32 386 32 77 29 77"></polygon>
                            <polygon id="Fill-6" fill="#005FE8" points="36 382 39 382 39 73 36 73"></polygon>
                            <polygon id="Fill-7" fill="#005FE8" points="43 378 46 378 46 69 43 69"></polygon>
                            <polygon id="Fill-8" fill="#005FE8" points="50 375 53 375 53 66 50 66"></polygon>
                            <polygon id="Fill-9" fill="#005FE8" points="57 371 60 371 60 62 57 62"></polygon>
                            <polygon id="Fill-10" fill="#005FE8" points="64 368 67 368 67 59 64 59"></polygon>
                            <polygon id="Fill-11" fill="#005FE8" points="71 364 74 364 74 55 71 55"></polygon>
                            <polygon id="Fill-12" fill="#005FE8" points="79 362 82 362 82 53 79 53"></polygon>
                            <polygon id="Fill-13" fill="#005FE8" points="86 357 89 357 89 48 86 48"></polygon>
                            <polygon id="Fill-14" fill="#005FE8" points="94 354 97 354 97 45 94 45"></polygon>
                            <polygon id="Fill-15" fill="#005FE8" points="101 350 104 350 104 41 101 41"></polygon>
                            <polygon id="Fill-16" fill="#005FE8" points="108 348 111 348 111 39 108 39"></polygon>
                            <polygon id="Fill-17" fill="#005FE8" points="116 343 119 343 119 34 116 34"></polygon>
                            <polygon id="Fill-18" fill="#005FE8" points="122 340 125 340 125 31 122 31"></polygon>
                            <polygon id="Fill-19" fill="#005FE8" points="130 336 133 336 133 27 130 27"></polygon>
                            <polygon id="Fill-20" fill="#005FE8" points="136 333 139 333 139 24 136 24"></polygon>
                            <polygon id="Fill-21" fill="#005FE8" points="144 330 147 330 147 21 144 21"></polygon>
                            <polygon id="Fill-22" fill="#005FE8" points="151 325 154 325 154 16 151 16"></polygon>
                            <polygon id="Fill-23" fill="#005FE8" points="158 323 161 323 161 14 158 14"></polygon>
                            <polygon id="Fill-24" fill="#005FE8" points="165 318 168 318 168 9 165 9"></polygon>
                            <polygon id="Fill-25" fill="#005FE8" points="172 316 175 316 175 7 172 7"></polygon>
                            <polygon id="Fill-26" fill="#005FE8" points="179 312 182 312 182 3 179 3"></polygon>
                            <polygon id="Fill-27" fill="#005FE8" points="186 309 189 309 189 0 186 0"></polygon>
                            <polygon id="Fill-28" fill="#005FE8" points="193 316 196 316 196 7 193 7"></polygon>
                            <polygon id="Fill-29" fill="#005FE8" points="197 322 200 322 200 13 197 13"></polygon>
                            <polygon id="Fill-30" fill="#005FE8" points="202 327 205 327 205 18 202 18"></polygon>
                            <polygon id="Fill-31" fill="#005FE8" points="208 333 211 333 211 24 208 24"></polygon>
                            <polygon id="Fill-32" fill="#005FE8" points="213 339 216 339 216 30 213 30"></polygon>
                            <polygon id="Fill-33" fill="#005FE8" points="218 345 221 345 221 36 218 36"></polygon>
                            <polygon id="Fill-34" fill="#005FE8" points="224 351 227 351 227 42 224 42"></polygon>
                            <polygon id="Fill-35" fill="#005FE8" points="229 357 232 357 232 48 229 48"></polygon>
                            <polygon id="Fill-36" fill="#005FE8" points="234 363 237 363 237 54 234 54"></polygon>
                            <polygon id="Fill-37" fill="#005FE8" points="240 370 243 370 243 61 240 61"></polygon>
                            <polygon id="Fill-38" fill="#005FE8" points="245 376 248 376 248 67 245 67"></polygon>
                            <polygon id="Fill-39" fill="#005FE8" points="250 382 253 382 253 73 250 73"></polygon>
                            <polygon id="Fill-40" fill="#005FE8" points="255 387 258 387 258 78 255 78"></polygon>
                            <polygon id="Fill-41" fill="#005FE8" points="260 393 263 393 263 84 260 84"></polygon>
                            <polygon id="Fill-42" fill="#005FE8" points="266 400 269 400 269 91 266 91"></polygon>
                        </g>
                    </g>
                </g>
            </g>
        </g>
    </g>
</svg>