<?xml version="1.0" encoding="UTF-8"?>
<svg width="685px" height="340px" viewBox="0 0 685 340" version="1.1" xmlns="http://www.w3.org/2000/svg" xmlns:xlink="http://www.w3.org/1999/xlink">
    <title>box</title>
    <g id="网站-pc" stroke="none" stroke-width="1" fill="none" fill-rule="evenodd">
        <g id="下载" transform="translate(-856.000000, -105.000000)" stroke="#005FE8">
            <g id="box" transform="translate(857.000000, 106.000000)">
                <g id="编组" opacity="0.508858817" transform="translate(210.000000, 0.000000)">
                    <path d="M133.44899,139.610315 L68.4489898,172.271903 C67.955503,172.519873 67.3544333,172.320843 67.1064631,171.827356 C67.0364582,171.688039 67,171.534282 67,171.378366 L67,106.283539 C67,105.905484 67.2132013,105.559748 67.5510068,105.390004 L132.551007,72.7281057 C133.044493,72.4801336 133.645563,72.6791618 133.893535,73.1726477 C133.963541,73.3119656 134,73.4657232 134,73.6216408 L134,138.716778 C134,139.094834 133.786797,139.440571 133.44899,139.610315 Z" id="Stroke-1"></path>
                    <path d="M132.228446,73.2756052 L67.9494122,105.772714 C67.6666264,105.91568 67.332816,105.91616 67.04962,105.774008 L2.77411512,73.5105542 C2.28052334,73.262793 2.08123828,72.6618077 2.32899947,72.1682159 C2.42514408,71.9766759 2.58028135,71.8210913 2.77154378,71.7243956 L67.0502725,39.2272869 C67.3330581,39.0843203 67.6668684,39.0838394 67.9500648,39.2259907 L132.225875,71.4894449 C132.719467,71.7372052 132.918753,72.3381901 132.670993,72.8317824 C132.574848,73.0233238 132.41971,73.1789093 132.228446,73.2756052 Z" id="Stroke-3"></path>
                    <path d="M132.228446,55.2756052 L67.9494122,87.7727139 C67.6666264,87.9156801 67.332816,87.9161603 67.04962,87.7740084 L2.77411512,55.5105542 C2.28052334,55.262793 2.08123828,54.6618077 2.32899947,54.1682159 C2.42514408,53.9766759 2.58028135,53.8210913 2.77154378,53.7243956 L67.0502725,21.2272869 C67.3330581,21.0843203 67.6668684,21.0838394 67.9500648,21.2259907 L132.225875,53.4894449 C132.719467,53.7372052 132.918753,54.3381901 132.670993,54.8317824 C132.574848,55.0233238 132.41971,55.1789093 132.228446,55.2756052 Z" id="Stroke-3备份" opacity="0.228399368"></path>
                    <path d="M132.228446,34.2756052 L67.9494122,66.7727139 C67.6666264,66.9156801 67.332816,66.9161603 67.04962,66.7740084 L2.77411512,34.5105542 C2.28052334,34.262793 2.08123828,33.6618077 2.32899947,33.1682159 C2.42514408,32.9766759 2.58028135,32.8210913 2.77154378,32.7243956 L67.0502725,0.227286915 C67.3330581,0.0843202672 67.6668684,0.0838393989 67.9500648,0.225990725 L132.225875,32.4894449 C132.719467,32.7372052 132.918753,33.3381901 132.670993,33.8317824 C132.574848,34.0233238 132.41971,34.1789093 132.228446,34.2756052 Z" id="Stroke-3备份-2" opacity="0.147088914"></path>
                    <path d="M0.551010241,139.610315 L65.5510102,172.271903 C66.044497,172.519873 66.6455667,172.320843 66.8935369,171.827356 C66.9635418,171.688039 67,171.534282 67,171.378366 L67,106.283539 C67,105.905484 66.7867987,105.559748 66.4489932,105.390004 L1.44899316,72.7281057 C0.955507302,72.4801336 0.354436884,72.6791618 0.106464808,73.1726477 C0.0364588417,73.3119656 -1.9094407e-17,73.4657232 0,73.6216408 L0,138.716778 C1.09699189e-14,139.094834 0.213202854,139.440571 0.551010241,139.610315 Z" id="Stroke-5"></path>
                </g>
                <g id="编组备份" opacity="0.508858817" transform="translate(0.000000, 106.000000)">
                    <path d="M65.4508154,50.6107512 L34.4508154,66.2672673 C33.9578365,66.5162457 33.3563612,66.3184443 33.1073828,65.8254654 C33.0367819,65.6856752 33,65.5312572 33,65.3746501 L33,34.2820217 C33,33.9047026 33.2123804,33.5595086 33.5491812,33.3894062 L64.5491812,17.7327414 C65.0421592,17.4837611 65.6436352,17.6815602 65.8926155,18.1745381 C65.9632175,18.3143292 66,18.4687485 66,18.6253569 L66,49.718134 C66,50.0954543 65.787618,50.4406494 65.4508154,50.6107512 Z" id="Stroke-1"></path>
                    <path d="M65.1799027,17.3405579 L33.9414601,32.7817466 C33.6630683,32.9193559 33.3365444,32.9198193 33.0577631,32.7830008 L1.82263507,17.4536193 C1.3268404,17.2102963 1.12217169,16.611123 1.3654947,16.1153283 C1.46262805,15.9174095 1.62244491,15.7571381 1.820087,15.659443 L33.0583813,0.218254245 C33.3367728,0.0806444391 33.6632968,0.0801804075 33.9420782,0.2169984 L65.1773546,15.5463799 C65.6731497,15.789702 65.8778196,16.3888749 65.6344975,16.88467 C65.5373639,17.0825901 65.3775461,17.2428625 65.1799027,17.3405579 Z" id="Stroke-3"></path>
                    <path d="M0.549184645,50.6107512 L31.5491846,66.2672673 C32.0421635,66.5162457 32.6436388,66.3184443 32.8926172,65.8254654 C32.9632181,65.6856752 33,65.5312572 33,65.3746501 L33,34.2820217 C33,33.9047026 32.7876196,33.5595086 32.4508188,33.3894062 L1.45081877,17.7327414 C0.957840834,17.4837611 0.356364824,17.6815602 0.107384494,18.1745381 C0.0367824814,18.3143292 -1.91789996e-17,18.4687485 0,18.6253569 L0,49.718134 C-2.17423763e-15,50.0954543 0.212381969,50.4406494 0.549184645,50.6107512 Z" id="Stroke-5"></path>
                </g>
                <g id="编组" opacity="0.596028646" transform="translate(400.000000, 55.000000)" stroke-linecap="round" stroke-linejoin="round">
                    <g>
                        <polygon id="Stroke-1" points="283 212.250151 141.499698 283 141.499698 141.500302 283 70.7497817"></polygon>
                        <polygon id="Stroke-3" points="283 70.2446799 141.499698 140.994529 6.71766866e-05 70.7498489 141.499698 0"></polygon>
                        <polygon id="Stroke-5" points="0 212.250151 141.500302 283 141.500302 141.500302 0 70.7497817"></polygon>
                    </g>
                    <polygon id="Stroke-7" points="152.899233 105 226 72.447651 208.547571 63.5738255 150.132229 88.5510067 129.384057 52.0221477 145.674465 45.0463087 158.331379 67.795302 190.272212 54.2812081 140.553263 29 68 61.7208054 85.4437168 70.6127517 121.737772 55.2838926 129.453752 69.0395973 103.769336 79.9550336"></polygon>
                </g>
            </g>
        </g>
    </g>
</svg>