<?xml version="1.0" encoding="UTF-8"?>
<svg width="24px" height="24px" viewBox="0 0 24 24" version="1.1" xmlns="http://www.w3.org/2000/svg" xmlns:xlink="http://www.w3.org/1999/xlink">
    <title>下载</title>
    <g id="网站-pc" stroke="none" stroke-width="1" fill="none" fill-rule="evenodd">
        <g id="下载" transform="translate(-300.000000, -381.000000)" fill="#000000" fill-rule="nonzero">
            <g transform="translate(300.000000, 381.000000)">
                <rect id="矩形" opacity="0" x="0" y="0" width="24" height="24"></rect>
                <path d="M19.429119,20.9560558 L4.45755778,20.9560558 C2.80402287,20.9560558 1.46333187,19.6157725 1.46333187,17.9618539 L1.46333187,14.2189276 C1.46333187,13.8056158 1.7986965,13.470491 2.21174445,13.470491 L3.7091452,13.470491 C4.12245698,13.470491 4.45755778,13.8056158 4.45755778,14.2189276 L4.45755778,16.4647409 C4.45755778,17.2916762 5.12778337,17.9618779 5.95467075,17.9618779 L17.9320061,17.9618779 C18.7589175,17.9618779 19.4291191,17.2916763 19.4291191,16.4647409 L19.4291191,14.2189276 C19.4291191,13.8056158 19.7642439,13.470491 20.1777955,13.470491 L21.6749324,13.470491 C22.0882442,13.470491 22.423369,13.8056158 22.423369,14.2189276 L22.423369,17.9618779 C22.423369,19.6157725 21.0829418,20.9560558 19.429119,20.9560558 L19.429119,20.9560558 Z M5.8579443,6.26975709 C6.16078697,5.96696238 6.65211785,5.96696238 6.95498452,6.26975709 L10.4464893,9.76128584 L10.4464893,2.22406008 C10.4464893,1.8107483 10.781662,1.47528773 11.1949258,1.47528773 L12.6920148,1.47528773 C13.1053985,1.47528773 13.4407392,1.8107483 13.4407392,2.22406008 L13.4407392,9.76128584 L16.9322439,6.26975709 C17.2350866,5.96696238 17.7262016,5.96696238 18.0290443,6.26975709 L19.1262524,7.36706112 C19.4290951,7.66992778 19.4290951,8.16099483 19.1262524,8.46410133 L12.9436282,14.6467975 C12.9168864,14.6734674 12.4358685,14.967508 11.9518526,14.967724 C11.4625604,14.9679637 10.9703181,14.6737792 10.9435523,14.6467975 L4.76066428,8.46410133 C4.45779762,8.16097085 4.45779762,7.66992778 4.76066428,7.36706112 L5.8579443,6.26975709 L5.8579443,6.26975709 Z" id="形状"></path>
            </g>
        </g>
    </g>
</svg>