<?xml version="1.0" encoding="UTF-8"?>
<svg width="510px" height="362px" viewBox="0 0 510 362" version="1.1" xmlns="http://www.w3.org/2000/svg" xmlns:xlink="http://www.w3.org/1999/xlink">
    <title>安全审计</title>
    <defs>
        <linearGradient x1="80.5879599%" y1="0%" x2="21.2787478%" y2="97.5187142%" id="linearGradient-1">
            <stop stop-color="#0098F5" offset="0%"></stop>
            <stop stop-color="#005FE8" offset="100%"></stop>
        </linearGradient>
        <linearGradient x1="-22.5411717%" y1="44.9243779%" x2="94.2678881%" y2="44.9243779%" id="linearGradient-2">
            <stop stop-color="#B0C8FF" stop-opacity="0" offset="0%"></stop>
            <stop stop-color="#739DFF" offset="100%"></stop>
        </linearGradient>
    </defs>
    <g id="网站-pc" stroke="none" stroke-width="1" fill="none" fill-rule="evenodd">
        <g id="gateway" transform="translate(-323.000000, -1685.000000)">
            <g id="安全审计" transform="translate(323.000000, 1685.968133)">
                <path d="M255.937359,21.9931457 C251.821994,24.868777 173.555801,79.1172784 125.443548,79.1172784 L125.443548,244.070752 C125.443548,244.070752 193.163386,335.032846 255.937359,335.206594 L255.937359,335.210499 C255.968625,335.210499 255.997937,335.210499 256.027249,335.210499 C256.058515,335.210499 256.08978,335.210499 256.119092,335.210499 L256.119092,335.206594 C318.893066,335.032846 386.612903,244.070752 386.612903,244.070752 L386.612903,79.1172784 C338.500651,79.1172784 255.937359,21.9931457 255.937359,21.9931457" id="Fill-3" fill="#FFFFFF"></path>
                <path d="M248.739779,27.1278564 C244.624414,30.0034877 166.35822,84.2519891 118.245968,84.2519891 L118.245968,249.205463 C118.245968,249.205463 185.965805,340.167557 248.739779,340.341305 L248.739779,340.345209 C248.771045,340.345209 248.800356,340.345209 248.829668,340.345209 C248.860934,340.345209 248.8922,340.345209 248.921511,340.345209 L248.921511,340.341305 C311.695485,340.167557 379.415323,249.205463 379.415323,249.205463 L379.415323,84.2519891 C331.30307,84.2519891 248.739779,27.1278564 248.739779,27.1278564 Z" id="Stroke-5" fill="url(#linearGradient-1)" opacity="0.0955512637"></path>
                <path d="M255.937359,21.9931457 C251.821994,24.868777 173.555801,79.1172784 125.443548,79.1172784 L125.443548,244.070752 C125.443548,244.070752 193.163386,335.032846 255.937359,335.206594 L255.937359,335.210499 C255.968625,335.210499 255.997937,335.210499 256.027249,335.210499 C256.058515,335.210499 256.08978,335.210499 256.119092,335.210499 L256.119092,335.206594 C318.893066,335.032846 386.612903,244.070752 386.612903,244.070752 L386.612903,79.1172784 C338.500651,79.1172784 255.937359,21.9931457 255.937359,21.9931457 Z" id="Stroke-5" fill="url(#linearGradient-1)"></path>
                <path d="M288.646148,44.4672229 C305.529158,36.1324129 322.919655,28.6924016 340.96175,23.0975877 C349.982795,20.3203003 359.136469,17.9032379 368.455419,16.2372926 C373.106247,15.3612073 377.805117,14.7457144 382.517435,14.2413572 C387.239359,13.8136451 391.988182,13.5947913 396.742747,13.667192 C406.21726,13.9231332 415.858951,15.2022849 424.727538,19.0223207 C429.139722,20.9265921 433.326908,23.4612969 436.923796,26.7126937 C440.520685,29.9525936 443.488823,33.9072726 445.599452,38.251005 C446.810502,40.3624988 447.454367,42.7039801 448.307801,44.9630487 C448.617238,46.1242097 448.867072,47.3026212 449.149591,48.4733653 L449.549337,50.2342739 L449.766435,52.0220245 L450.19294,55.5956102 L450.281067,59.1826383 C450.436588,61.5797305 450.109541,63.9519545 450.015127,66.3356553 C449.168359,75.8436731 446.568213,85.0529236 443.308648,93.9192402 C436.645321,111.665299 426.855985,127.961103 416.182326,143.4522 C405.318339,158.849421 393.348933,173.430459 380.59325,187.273846 C355.076116,214.958705 326.792596,240.06658 296.565563,262.56291 C266.296239,284.9711 234.131442,305.057079 199.763733,320.782089 C182.565465,328.574655 164.850109,335.342126 146.533147,340.201161 C137.367941,342.587566 128.04705,344.45854 118.601261,345.518992 C109.167008,346.567947 99.5732489,346.825545 90.0757524,345.554045 C80.6051653,344.363022 71.1501265,341.244348 63.2949171,335.45442 C59.5115192,332.417649 56.0550048,328.888398 53.5194679,324.719072 C50.9435538,320.582325 49.2713018,315.943467 48.3161836,311.225985 C46.4194095,301.745031 47.216208,292.028157 49.2491923,282.784466 C51.2937152,273.506282 54.5379061,264.569069 58.4395939,255.97479 C66.2448944,238.759406 76.4264125,222.770153 87.6422095,207.654574 C98.8906905,192.538993 111.386849,178.40629 124.473189,164.894368 L124.665432,165.078302 C111.829009,178.818224 99.7577169,193.261307 88.7072581,208.432439 C77.6952508,223.607401 67.7425178,239.634957 60.2063888,256.752594 C56.4373641,265.298958 53.3392975,274.151847 51.4389849,283.247984 C49.5444429,292.311546 48.9091676,301.735234 50.807909,310.702659 C51.7515133,315.171042 53.4026458,319.476492 55.7997838,323.325832 C58.1680803,327.205833 61.3939063,330.474508 64.9273847,333.310105 C72.2846768,338.707265 81.2744586,341.705261 90.4489717,342.83691 C99.6388585,344.049035 109.023055,343.78954 118.28812,342.742516 C127.564721,341.680162 136.752953,339.811116 145.829712,337.51861 C163.96786,332.799469 181.594765,326.16997 198.725731,318.503875 C232.941536,303.001152 265.292775,283.48617 295.698575,261.392217 C310.864951,250.286801 325.539202,238.505026 339.648266,226.083305 C346.729712,219.903101 353.578547,213.464237 360.360097,206.956397 C367.05706,200.364254 373.611764,193.624579 379.910783,186.653072 C386.265554,179.733297 392.349259,172.570194 398.238796,165.257647 C404.101419,157.92211 409.641067,150.341333 414.957708,142.614948 C425.379513,127.056807 434.84778,110.713128 441.234236,93.1587083 C444.409197,84.4112004 446.9132,75.3571665 447.694576,66.1308287 C447.77168,63.8256916 448.085263,61.5186179 447.922043,59.2192501 L447.824291,55.7663534 L447.399695,52.3518082 L447.188358,50.6426193 L446.803985,48.9717685 C446.540687,47.8604235 446.310073,46.7375787 446.025626,45.6319839 C445.222168,43.499377 444.63597,41.2728597 443.497968,39.2878255 C441.533436,35.1855156 438.770994,31.4569246 435.397112,28.3875428 C432.02323,25.304748 428.066746,22.8734954 423.850661,21.0266915 C415.378118,17.3215903 405.990214,16.0040936 396.696427,15.7078975 C392.028382,15.6029147 387.356462,15.8255941 382.692223,16.1689905 C378.033743,16.6081939 373.379099,17.1585338 368.759039,17.965635 C359.505468,19.497444 350.380645,21.7842056 341.369223,24.4311938 C323.354066,29.7788218 305.798272,36.7034027 288.763406,44.7067317 L288.646148,44.4672229 Z" id="Fill-103" fill="#FF9D00" transform="translate(248.780922, 180.031829) rotate(4.000000) translate(-248.780922, -180.031829) "></path>
                <path d="M504.858871,196.574102 C504.858871,210.7533 493.350941,222.246863 479.154019,222.246863 C464.957097,222.246863 453.447581,210.7533 453.447581,196.574102 C453.447581,182.394904 464.957097,170.899756 479.154019,170.899756 C493.350941,170.899756 504.858871,182.394904 504.858871,196.574102" id="Fill-105" stroke="#005FE8" fill="#FFFFFF"></path>
                <path d="M76.0887097,304.403185 C76.0887097,321.418222 62.2791932,335.210499 45.2428873,335.210499 C28.2065815,335.210499 14.3951613,321.418222 14.3951613,304.403185 C14.3951613,287.388148 28.2065815,273.59397 45.2428873,273.59397 C62.2791932,273.59397 76.0887097,287.388148 76.0887097,304.403185" id="Fill-105备份-2" stroke="#005FE8" fill="#FFFFFF"></path>
                <path d="M45.2419355,180.142933 C45.2419355,192.620627 35.1149567,202.734963 22.6216658,202.734963 C10.1283748,202.734963 0,192.620627 0,180.142933 C0,167.665239 10.1283748,157.549508 22.6216658,157.549508 C35.1149567,157.549508 45.2419355,167.665239 45.2419355,180.142933" id="Fill-105备份-4" fill="#005FE8"></path>
                <path d="M427.741935,196.060076 C427.741935,200.313836 424.289556,203.761905 420.03048,203.761905 C415.771403,203.761905 412.318548,200.313836 412.318548,196.060076 C412.318548,191.806317 415.771403,188.357773 420.03048,188.357773 C424.289556,188.357773 427.741935,191.806317 427.741935,196.060076" id="Fill-105备份-5" fill="#4A02BC"></path>
                <path d="M227.237903,350.614821 C227.237903,354.017828 224.476,356.776284 221.068739,356.776284 C217.661478,356.776284 214.899194,354.017828 214.899194,350.614821 C214.899194,347.211813 217.661478,344.452978 221.068739,344.452978 C224.476,344.452978 227.237903,347.211813 227.237903,350.614821" id="Fill-105备份-9" fill="#005FE8" opacity="0.363605318"></path>
                <path d="M412.318548,310.56468 C412.318548,324.743877 400.810618,336.237441 386.613696,336.237441 C372.416775,336.237441 360.907258,324.743877 360.907258,310.56468 C360.907258,296.385482 372.416775,284.890334 386.613696,284.890334 C400.810618,284.890334 412.318548,296.385482 412.318548,310.56468" id="Fill-105备份-3" stroke="#005FE8" fill="#FFFFFF"></path>
                <path d="M510,118.526151 C510,126.466501 503.555559,132.902897 495.605283,132.902897 C487.655007,132.902897 481.209677,126.466501 481.209677,118.526151 C481.209677,110.5858 487.655007,104.148517 495.605283,104.148517 C503.555559,104.148517 510,110.5858 510,118.526151" id="Fill-105备份-6" fill="#005FE8" opacity="0.363605318"></path>
                <path d="M162.459677,331.103364 C162.459677,342.446722 153.253333,351.641573 141.895796,351.641573 C130.538259,351.641573 121.330645,342.446722 121.330645,331.103364 C121.330645,319.760006 130.538259,310.563887 141.895796,310.563887 C153.253333,310.563887 162.459677,319.760006 162.459677,331.103364" id="Fill-105备份-7" stroke="#005FE8" fill="#FFFFFF"></path>
                <path d="M85.3427419,97.9873712 C85.3427419,107.062058 77.9776665,114.417938 68.8916367,114.417938 C59.8056069,114.417938 52.4395161,107.062058 52.4395161,97.9873712 C52.4395161,88.9126846 59.8056069,81.5557899 68.8916367,81.5557899 C77.9776665,81.5557899 85.3427419,88.9126846 85.3427419,97.9873712" id="Fill-105备份-8" stroke="#005FE8" fill="#FFFFFF" opacity="0.252353487"></path>
                <path d="M481.209677,55.883187 C481.209677,72.8982243 467.400161,86.6905006 450.363855,86.6905006 C433.327549,86.6905006 419.516129,72.8982243 419.516129,55.883187 C419.516129,38.8681497 433.327549,25.0739721 450.363855,25.0739721 C467.400161,25.0739721 481.209677,38.8681497 481.209677,55.883187" id="Fill-105备份" stroke="#005FE8" fill="#FFFFFF"></path>
                <path d="M124.666112,36.5100917 L115.670136,35.3993469 L119.942561,22.3836337 C120.224816,21.5258784 119.153694,20.8777431 118.524048,21.523469 L100.27879,40.2447003 C100.172643,40.3555338 100.136456,40.5169653 100.187117,40.6615308 C100.237779,40.8060963 100.365638,40.9097015 100.517621,40.9289769 L109.51601,42.0397218 L105.241172,55.0578444 C104.96133,55.9131903 106.032451,56.5613255 106.659685,55.9155997 L124.907356,37.1943684 C125.015915,37.0835348 125.049689,36.9221034 124.999028,36.7775379 C124.948367,36.6329724 124.818095,36.5293671 124.666112,36.5100917" id="Fill-137" fill="#4A02BC"></path>
                <g id="编组-4" transform="translate(169.000000, 172.031867)" fill="url(#linearGradient-2)">
                    <polygon id="多边形备份-23" points="21.5 0 40.1195462 10.5 40.1195462 31.5 21.5 42 2.88045382 31.5 2.88045382 10.5"></polygon>
                    <polygon id="多边形备份-24" points="42.5 40 61.1195462 50.5 61.1195462 71.5 42.5 82 23.8804538 71.5 23.8804538 50.5"></polygon>
                    <polygon id="多边形备份-25" points="106.5 0 125.119546 10.5 125.119546 31.5 106.5 42 87.8804538 31.5 87.8804538 10.5"></polygon>
                    <polygon id="多边形备份-26" points="127.5 40 146.119546 50.5 146.119546 71.5 127.5 82 108.880454 71.5 108.880454 50.5"></polygon>
                    <polygon id="多边形备份-27" points="64.5 0 83.1195462 10.5 83.1195462 31.5 64.5 42 45.8804538 31.5 45.8804538 10.5"></polygon>
                    <polygon id="多边形备份-28" points="84.5 40 103.119546 50.5 103.119546 71.5 84.5 82 65.8804538 71.5 65.8804538 50.5"></polygon>
                    <polygon id="多边形备份-29" points="148.5 0 167.119546 10.5 167.119546 31.5 148.5 42 129.880454 31.5 129.880454 10.5"></polygon>
                </g>
                <g id="Gateway-logo备份-3" transform="translate(185.080645, 97.986864)" fill="#FFFFFF" fill-rule="nonzero">
                    <g id="编组" transform="translate(49.354839, 0.000000)">
                        <polygon id="路径" points="0 12.4686277 2.71620059 0.314864336 5.87457338 0.314864336 3.22154024 12.5316006"></polygon>
                        <polygon id="路径" points="5.5587361 12.5316006 8.33810415 0 8.65394143 0 15.4128592 7.17890685 16.9288781 0.503782937 19.8977485 0.503782937 17.055213 13.0983564 16.8025432 13.0983564 9.980458 5.91944951 8.52760652 12.5316006"></polygon>
                        <polygon id="路径" points="19.7082462 12.6575463 22.4244468 0.503782937 30.6993835 0.566755804 30.1308764 3.02269762 25.0143125 2.95972476 24.4458054 5.35269371 29.0570296 5.41566657 28.4885225 7.87160839 23.8772982 7.80863552 22.8034515 12.5945734"></polygon>
                        <polygon id="路径" points="30.1308764 12.7205192 32.847077 0.629728671 36.0054497 0.629728671 33.2892491 12.783492"></polygon>
                        <polygon id="路径" points="35.5632776 12.783492 38.3426456 0.251891469 38.6584829 0.251891469 45.4174006 7.43079832 46.9334196 0.755674406 49.90229 0.755674406 47.0597545 13.3502478 46.8070847 13.3502478 40.3008367 6.17134098 38.7848178 12.783492"></polygon>
                        <polygon id="路径" points="49.6496202 12.9094378 52.3658208 0.755674406 55.5241935 0.755674406 52.807993 12.9094378"></polygon>
                    </g>
                    <g id="编组" transform="translate(50.383065, 15.404132)">
                        <path d="M3.50199082,0 L2.61057498,4.0759254 C3.56566338,3.18431672 4.90278715,2.67482604 6.36725604,2.73851238 C8.72314077,2.73851238 10.6333176,4.01223906 11.3337158,6.11388809 L8.8504859,6.11388809 C8.34110541,5.22227941 7.51336213,4.71278874 6.36725604,4.71278874 C4.45707923,4.71278874 3.11995546,6.05020176 3.11995546,8.15185079 C3.11995546,10.3171862 4.45707923,11.6545992 6.4309286,11.7182855 C8.08641517,11.7182855 9.1688487,10.7629905 9.4872115,9.29820481 L5.794203,9.29820481 L5.794203,7.64236012 L11.588406,7.70604645 L11.588406,9.55295015 C11.1426981,11.7182855 9.1688487,13.6925619 6.36725604,13.6925619 C4.01137131,13.6925619 2.10119449,12.3551489 1.33712377,10.3171862 L0,16.4310743 L63.4815427,16.3673879 L64.6276488,13.8199345 L61.3166757,5.54071109 L63.736233,5.54071109 L65.9011,11.4635402 L68.1933122,5.54071109 L70.4855244,5.54071109 L65.8374275,16.3037016 L72.4593737,16.3037016 L76.0887097,0 L3.50199082,0 L3.50199082,0 Z M21.3303077,13.6288755 L19.1654407,13.6288755 L19.1654407,12.4188352 C18.6560602,13.1193849 17.7009718,13.7562482 16.363848,13.7562482 C14.198981,13.7562482 12.5434944,11.9730309 12.5434944,9.29820481 C12.5434944,6.62337877 14.2626535,4.96753408 16.4275206,4.96753408 C17.7646444,4.96753408 18.7197328,5.60439742 19.2291132,6.3049471 L19.2291132,5.09490675 L21.3939803,5.09490675 L21.3303077,13.6288755 Z M27.8249089,7.00549677 L25.9147321,7.00549677 L25.8510595,11.0814222 C25.8510595,11.6545992 26.0420772,11.9093445 26.7424754,11.9093445 L27.7612363,11.9093445 L27.7612363,13.6925619 L26.4241126,13.6925619 C24.8322986,13.6925619 23.749865,12.9920122 23.749865,11.0177358 L23.8135376,6.94181044 L22.7947766,6.94181044 L22.7947766,5.15859308 L23.8135376,5.15859308 L23.8135376,3.05694405 L25.9784046,3.05694405 L25.9784046,5.15859308 L27.8885815,5.15859308 L27.8249089,7.00549677 Z M37.1847753,10.1898135 L31.0085369,10.1261272 C31.135882,11.3998538 31.9636253,12.1004035 33.0460588,12.1004035 C33.9374747,12.1004035 34.4468552,11.6545992 34.765218,11.0814222 L37.0574302,11.0814222 C36.6117222,12.6098942 35.1472533,13.8836209 33.0460588,13.8199345 C30.562829,13.8199345 28.8436699,12.1004035 28.8436699,9.42557748 C28.8436699,6.75075144 30.6265016,5.09490675 33.1097314,5.09490675 C35.5292887,5.09490675 37.2484478,6.81443777 37.2484478,9.29820481 C37.2484478,9.68032282 37.2484478,9.93506815 37.1847753,10.1898135 Z M48.0091105,13.8836209 L45.7168984,13.8836209 L44.2524295,7.96079179 L42.6606155,13.8836209 L40.3684033,13.8836209 L37.8851734,5.34965208 L40.0500405,5.34965208 L41.5145094,11.7819718 L43.169996,5.34965208 L45.4622081,5.34965208 L46.9903496,11.7819718 L48.518491,5.34965208 L50.556013,5.34965208 L48.0091105,13.8836209 Z M59.9158793,14.0109935 L57.7510123,14.0109935 L57.7510123,12.8009532 C57.2416318,13.5015029 56.2865434,14.1383662 54.9494196,14.1383662 C52.7845526,14.1383662 51.129066,12.3551489 51.129066,9.68032282 C51.129066,7.00549677 52.8482251,5.34965208 55.0130922,5.34965208 C56.350216,5.34965208 57.3053044,5.98651543 57.8146848,6.6870651 L57.8146848,5.47702475 L59.9795519,5.47702475 L59.9158793,14.0109935 Z" id="形状"></path>
                        <path d="M55.5861452,7.19655578 C54.4400391,7.19655578 53.3576056,8.02447812 53.3576056,9.61663648 C53.3576056,11.2087948 54.4400391,12.1640899 55.5861452,12.1640899 C56.7322513,12.1640899 57.8146848,11.2724812 57.8783574,9.68032282 C57.8146848,8.15185079 56.7322513,7.26024211 55.5861452,7.19655578 Z" id="路径"></path>
                        <path d="M33.0460588,6.87812411 C32.0272979,6.87812411 31.1995546,7.51498745 31.0085369,8.66134147 L35.0199082,8.7250278 C35.0199082,7.64236012 34.1284924,6.94181044 33.0460588,6.87812411 Z" id="路径"></path>
                        <path d="M17.0005736,6.87812411 C15.8544675,6.87812411 14.772034,7.70604645 14.772034,9.29820481 C14.772034,10.8903632 15.8544675,11.8456582 17.0005736,11.8456582 C18.1466797,11.8456582 19.2291132,10.9540495 19.2927858,9.36189114 C19.3564584,7.76973279 18.1466797,6.87812411 17.0005736,6.87812411 Z" id="路径"></path>
                    </g>
                    <g id="编组" transform="translate(125.443548, 15.404132)">
                        <polygon id="路径" points="4.43329243 16.4310743 0 16.4310743 3.60996669 0 8.10659187 0"></polygon>
                        <polygon id="路径" points="9.68991059 16.4310743 6.58660589 16.4310743 10.2599053 0 13.36321 0"></polygon>
                        <polygon id="路径" points="13.8065393 16.4310743 12.1598878 16.4310743 15.8331872 0 17.4798387 0"></polygon>
                    </g>
                    <polygon id="路径" points="36.5049793 0.0643135482 30.7075044 25.0179703 12.1046179 13.1842774 13.6973308 6.17410063 25.2285721 13.6344722 28.4777064 0.0643135482 6.49826857 0 0 31.8352064 7.70873036 31.8352064 11.3401157 16.3999548 18.3480524 20.9019032 15.7360033 31.8352064 37.33319 31.8352064 44.2137097 0.0643135482"></polygon>
                </g>
                <text id="LDAP/AD" font-family="PingFangSC-Regular, PingFang SC" font-size="10" font-weight="normal" fill="#005FE8">
                    <tspan x="428.419355" y="58.8552942">LDAP/AD </tspan>
                </text>
                <text id="身份-验证" font-family="PingFangSC-Regular, PingFang SC" font-size="12" font-weight="normal" line-spacing="15" fill="#005FE8">
                    <tspan x="467.153226" y="194.57331">身份</tspan>
                    <tspan x="467.153226" y="209.57331">验证</tspan>
                </text>
                <text id="访问-控制" font-family="PingFangSC-Regular, PingFang SC" font-size="12" font-weight="normal" line-spacing="15" fill="#005FE8">
                    <tspan x="33.2419355" y="300.34835">访问</tspan>
                    <tspan x="33.2419355" y="315.34835">控制</tspan>
                </text>
                <text id="审计-日志" font-family="PingFangSC-Regular, PingFang SC" font-size="12" font-weight="normal" line-spacing="15" fill="#005FE8">
                    <tspan x="374.612903" y="307.536945">审计</tspan>
                    <tspan x="374.612903" y="322.536945">日志</tspan>
                </text>
            </g>
        </g>
    </g>
</svg>