<?xml version="1.0" encoding="UTF-8"?>
<svg width="605px" height="360px" viewBox="0 0 605 360" version="1.1" xmlns="http://www.w3.org/2000/svg" xmlns:xlink="http://www.w3.org/1999/xlink">
    <title>索引重建</title>
    <defs>
        <linearGradient x1="93.9944314%" y1="47.5248044%" x2="8.6904401%" y2="52.3523622%" id="linearGradient-1">
            <stop stop-color="#0098F5" offset="0%"></stop>
            <stop stop-color="#005FE8" offset="100%"></stop>
        </linearGradient>
        <linearGradient x1="86.0185901%" y1="50%" x2="-42.0049924%" y2="50%" id="linearGradient-2">
            <stop stop-color="#4A02BC" offset="0%"></stop>
            <stop stop-color="#FFFFFF" offset="100%"></stop>
        </linearGradient>
        <linearGradient x1="96.8750852%" y1="50%" x2="0%" y2="50%" id="linearGradient-3">
            <stop stop-color="#B0C8FF" stop-opacity="0" offset="0%"></stop>
            <stop stop-color="#0087F2" offset="100%"></stop>
        </linearGradient>
        <linearGradient x1="0%" y1="44.9243779%" x2="94.2678881%" y2="44.9243779%" id="linearGradient-4">
            <stop stop-color="#B0C8FF" stop-opacity="0" offset="0%"></stop>
            <stop stop-color="#739DFF" offset="100%"></stop>
        </linearGradient>
        <linearGradient x1="91.1737162%" y1="35.5793403%" x2="18.0619291%" y2="68.2695439%" id="linearGradient-5">
            <stop stop-color="#0098F5" offset="0%"></stop>
            <stop stop-color="#005FE8" offset="100%"></stop>
        </linearGradient>
    </defs>
    <g id="网站-pc" stroke="none" stroke-width="1" fill="none" fill-rule="evenodd">
        <g id="gateway" transform="translate(-300.000000, -2838.000000)">
            <g id="索引重建" transform="translate(300.000000, 2838.000000)">
                <ellipse id="椭圆形备份-21" fill="#4A02BC" cx="130.971451" cy="6.92855699" rx="6.9326332" ry="6.92855699"></ellipse>
                <ellipse id="椭圆形备份-22" fill="#FF9D00" cx="25.6671197" cy="285.099126" rx="11.7321485" ry="11.7252503"></ellipse>
                <g id="编组-7" opacity="0.101616996" transform="translate(0.000000, 81.620422)">
                    <rect id="矩形备份-114" fill="url(#linearGradient-1)" transform="translate(77.411537, 63.487542) rotate(-180.000000) translate(-77.411537, -63.487542) " x="0" y="46.2638819" width="154.823074" height="34.4473205"></rect>
                    <rect id="矩形备份-117" fill="url(#linearGradient-2)" transform="translate(77.411537, 18.720000) rotate(-180.000000) translate(-77.411537, -18.720000) " x="0" y="0" width="154.823074" height="37.44"></rect>
                    <rect id="矩形备份-115" fill="url(#linearGradient-1)" transform="translate(77.411537, 103.863882) rotate(-180.000000) translate(-77.411537, -103.863882) " x="0" y="86.6402217" width="154.823074" height="34.4473205"></rect>
                    <rect id="矩形备份-116" fill="url(#linearGradient-1)" transform="translate(77.411537, 144.240222) rotate(-180.000000) translate(-77.411537, -144.240222) " x="0" y="127.016561" width="154.823074" height="34.4473205"></rect>
                </g>
                <rect id="矩形备份-135" fill="url(#linearGradient-1)" transform="translate(83.415067, 139.107964) rotate(-180.000000) translate(-83.415067, -139.107964) " x="6.00352992" y="121.884304" width="154.823074" height="34.4473205"></rect>
                <rect id="矩形备份-134" fill="url(#linearGradient-2)" transform="translate(83.415067, 94.340422) rotate(-180.000000) translate(-83.415067, -94.340422) " x="6.00352992" y="75.6204218" width="154.823074" height="37.44"></rect>
                <rect id="矩形备份-133" fill="url(#linearGradient-1)" transform="translate(83.415067, 179.484304) rotate(-180.000000) translate(-83.415067, -179.484304) " x="6.00352992" y="162.260643" width="154.823074" height="34.4473205"></rect>
                <rect id="矩形备份-132" fill="url(#linearGradient-1)" transform="translate(83.415067, 219.860643) rotate(-180.000000) translate(-83.415067, -219.860643) " x="6.00352992" y="202.636983" width="154.823074" height="34.4473205"></rect>
                <rect id="矩形备份-86" fill="#0087F2" x="318.923369" y="27.6480455" width="65.0607642" height="26.0360032"></rect>
                <rect id="矩形备份-95" fill="#0087F2" x="318.923369" y="136.535653" width="65.0607642" height="26.0360032"></rect>
                <rect id="矩形备份-104" fill="#0087F2" x="318.923369" y="241.454148" width="65.0607642" height="26.0360032"></rect>
                <rect id="矩形备份-89" fill="#0087F2" x="318.923369" y="58.0233826" width="65.0607642" height="26.0360032"></rect>
                <rect id="矩形备份-96" fill="#0087F2" x="318.923369" y="166.91099" width="65.0607642" height="26.0360032"></rect>
                <rect id="矩形备份-105" fill="#0087F2" x="318.923369" y="271.829485" width="65.0607642" height="26.0360032"></rect>
                <rect id="矩形备份-92" fill="#0087F2" x="318.923369" y="88.3987197" width="65.0607642" height="26.0360032"></rect>
                <rect id="矩形备份-97" fill="#0087F2" x="318.923369" y="197.286327" width="65.0607642" height="26.0360032"></rect>
                <rect id="矩形备份-106" fill="#0087F2" x="318.923369" y="302.204822" width="65.0607642" height="26.0360032"></rect>
                <rect id="矩形备份-87" fill="#0087F2" x="397.26184" y="27.6480455" width="97.2027757" height="26.0360032"></rect>
                <rect id="矩形备份-98" fill="#0087F2" x="397.26184" y="136.535653" width="97.2027757" height="26.0360032"></rect>
                <rect id="矩形备份-107" fill="#0087F2" x="397.26184" y="241.454148" width="97.2027757" height="26.0360032"></rect>
                <rect id="矩形备份-90" fill="#0087F2" x="397.26184" y="58.0233826" width="97.2027757" height="26.0360032"></rect>
                <rect id="矩形备份-99" fill="#0087F2" x="397.26184" y="166.91099" width="97.2027757" height="26.0360032"></rect>
                <rect id="矩形备份-108" fill="#0087F2" x="397.26184" y="271.829485" width="97.2027757" height="26.0360032"></rect>
                <rect id="矩形备份-93" fill="#0087F2" x="397.26184" y="88.3987197" width="97.2027757" height="26.0360032"></rect>
                <rect id="矩形备份-100" fill="#0087F2" x="397.26184" y="197.286327" width="97.2027757" height="26.0360032"></rect>
                <rect id="矩形备份-109" fill="#0087F2" x="397.26184" y="302.204822" width="97.2027757" height="26.0360032"></rect>
                <rect id="矩形备份-88" fill="url(#linearGradient-3)" x="507.797224" y="27.6480455" width="97.2027757" height="26.0360032"></rect>
                <rect id="矩形备份-101" fill="url(#linearGradient-3)" x="507.797224" y="136.535653" width="97.2027757" height="26.0360032"></rect>
                <rect id="矩形备份-110" fill="url(#linearGradient-3)" x="507.797224" y="241.454148" width="97.2027757" height="26.0360032"></rect>
                <rect id="矩形备份-91" fill="url(#linearGradient-3)" x="507.797224" y="58.0233826" width="97.2027757" height="26.0360032"></rect>
                <rect id="矩形备份-102" fill="url(#linearGradient-3)" x="507.797224" y="166.91099" width="97.2027757" height="26.0360032"></rect>
                <rect id="矩形备份-111" fill="url(#linearGradient-3)" x="507.797224" y="271.829485" width="97.2027757" height="26.0360032"></rect>
                <rect id="矩形备份-94" fill="url(#linearGradient-3)" x="507.797224" y="88.3987197" width="97.2027757" height="26.0360032"></rect>
                <rect id="矩形备份-103" fill="url(#linearGradient-3)" x="507.797224" y="197.286327" width="97.2027757" height="26.0360032"></rect>
                <rect id="矩形备份-112" fill="url(#linearGradient-3)" x="507.797224" y="302.204822" width="97.2027757" height="26.0360032"></rect>
                <path d="M169.410618,121.539183 C208.811037,117.79133 238.361352,109.824481 258.061561,97.6386372 C277.761771,85.452793 295.048494,62.8150963 309.921731,29.7255469 L309.921731,326.084386 C294.189763,292.758008 276.581016,270.120311 257.095489,258.171296 C237.609962,246.22228 208.381672,238.505496 169.410618,235.020942 L169.410618,201.27788 C206.003176,202.203531 233.447595,205.319621 251.743875,210.626149 C270.040154,215.932677 289.128636,227.670471 309.009321,245.839531 L309.009321,219.502887 C289.257888,210.147748 270.217876,204.072745 251.889283,201.27788 C233.560691,198.483015 206.067803,196.619221 169.410618,195.686497 L169.410618,121.539183 Z M309.574029,112.365822 C289.66244,130.999005 270.544284,143.036638 252.219563,148.47872 C233.894843,153.920801 206.407761,156.252132 169.75832,155.472712 L169.75832,161.206925 C206.472488,161.979092 234.008114,160.932046 252.365198,158.065787 C270.722283,155.199528 289.791893,148.969342 309.574029,139.375228 L309.574029,112.365822 Z" id="形状结合" fill="url(#linearGradient-4)" opacity="0.315221151"></path>
                <g id="重建" transform="translate(202.242919, 38.655458)" fill="#4A02BC" fill-rule="nonzero">
                    <rect id="矩形" opacity="0" x="0" y="0" width="37.3295634" height="37.3076146"></rect>
                    <path d="M2.13311791,35.1757509 L2.13311791,13.933252 L6.85645042,13.933252 L6.85645042,21.0140849 L11.5797829,21.0140849 L11.5797829,25.7346402 L25.7497805,25.7346402 L25.7497805,18.6538073 L30.473113,18.6538073 L30.473113,11.5729743 L35.1964455,11.5729743 L35.1964455,35.1757509 L2.13311791,35.1757509 Z M25.7497805,2.13186369 L30.473113,2.13186369 L30.473113,6.852419 L25.7497805,6.852419 L25.7497805,2.13186369 Z M18.6647817,6.852419 L23.3881142,6.852419 L23.3881142,11.5729743 L18.6647817,11.5729743 L18.6647817,6.852419 Z M11.5797829,11.5729743 L16.3031154,11.5729743 L16.3031154,16.2935296 L11.5797829,16.2935296 L11.5797829,11.5729743 Z M6.85645042,4.49214134 L11.5797829,4.49214134 L11.5797829,9.21269665 L6.85645042,9.21269665 L6.85645042,4.49214134 Z" id="形状"></path>
                </g>
                <ellipse id="椭圆形备份-18" fill="url(#linearGradient-5)" cx="130.712698" cy="318.84513" rx="41.1790826" ry="41.1548704"></ellipse>
                <g id="管理,流转,协作,循环,环形" transform="translate(110.176692, 296.258104)" fill="#FFFFFF" fill-rule="nonzero">
                    <rect id="矩形" opacity="0" x="0" y="0" width="44.3826145" height="44.3565187"></rect>
                    <path d="M40.8053495,17.5322255 C40.5795998,17.4572224 40.4102875,17.2630968 40.3538501,17.0248517 C38.213569,7.85241568 30.0996026,1.03154695 20.4184121,1.03154695 C19.7628696,1.03154695 19.1116685,1.06243057 18.4734913,1.12419782 C18.5776835,1.32714735 18.6775344,1.53892075 18.7687025,1.75510613 C19.055231,2.43895778 19.2419087,3.15810498 19.3330768,3.89048803 C19.6934081,3.86842832 20.0537394,3.85519248 20.4184121,3.85519248 C22.810491,3.85519248 25.1287671,4.33168266 27.3124617,5.26701524 C29.4223534,6.1714642 31.3151781,7.47298831 32.9431809,9.1274681 C34.5711838,10.7819479 35.8475381,12.7055564 36.7418544,14.8497623 C37.0197002,15.5159661 37.2584739,16.1998178 37.4494929,16.8880814 C37.5450024,17.2233893 37.3756901,17.576345 37.0587722,17.7175273 C35.235409,18.5425612 33.9633961,20.3999905 33.9633961,22.5574322 C33.9633961,24.7898769 35.3222358,26.7002496 37.2497912,27.4767521 C37.844555,27.7194091 38.4957561,27.8517675 39.1730053,27.8517675 C39.4768992,27.8517675 39.7764517,27.8252959 40.0673216,27.7723525 C42.5158379,27.3399818 44.3826145,25.1693043 44.3826145,22.5574322 C44.3826145,20.2191007 42.8848519,18.229313 40.8053495,17.5322255 Z M40.7532535,24.4369212 C40.3278021,24.8075247 39.7764517,25.0325339 39.1730053,25.0325339 C38.7128232,25.0325339 38.2830304,24.9001756 37.9140164,24.6751663 C37.2107192,24.2427956 36.7418544,23.4574692 36.7418544,22.5618441 C36.7418544,21.6044518 37.284522,20.770594 38.0703047,20.360283 C38.4002466,20.1882171 38.7779433,20.0911543 39.1730053,20.0911543 C39.8372305,20.0911543 40.4450182,20.3646949 40.8834937,20.8103015 C41.3263104,21.2559081 41.6041563,21.8779925 41.6041563,22.5618441 C41.6041563,23.3118749 41.2742144,23.9869027 40.7532535,24.4369212 Z M15.4823074,1.6403955 C16.0597058,2.38601439 16.4460851,3.29046335 16.55896,4.28315125 C16.5633013,4.28315125 16.571984,4.27873932 16.5763253,4.27873932 C16.4591091,3.2904634 16.0727298,2.38160246 15.4953314,1.63598356 C15.4909901,1.63598356 15.4866487,1.6403955 15.4823074,1.6403955 L15.4823074,1.6403955 Z" id="形状"></path>
                    <path d="M39.5835346,27.9166753 C39.8099252,27.8840602 40.0319623,27.8025226 40.2539992,27.6557546 L40.2539992,27.6394471 C40.0363159,27.7862151 39.8142789,27.8840602 39.5835346,27.9166753 Z M33.1096327,34.3217949 C31.4770078,35.9458263 29.5788093,37.2190668 27.4629275,38.1112014 C25.2730333,39.0336512 22.9481755,39.4970415 20.5493053,39.4970415 C19.678572,39.4970415 18.8208997,39.436411 17.9719347,39.31515 C17.6497634,39.2675118 17.4059581,39.0076667 17.3798361,38.6871912 C17.3624215,38.4793152 17.3406531,38.2584469 17.3101775,38.1155322 C16.8269205,35.742281 14.719746,33.9580119 12.1902658,33.9580119 C10.9277026,33.9580119 9.76962732,34.4040792 8.86841836,35.1446374 C8.1413561,35.742281 7.57973313,36.5261468 7.2619155,37.4269429 C7.07035419,37.9682867 6.96586618,38.552938 6.96586618,39.1635737 C6.97021984,42.021869 9.382151,44.3907894 12.2555708,44.3561434 C13.949147,44.3344897 15.4468083,43.5159778 16.3872002,42.2557295 C16.5439322,42.0435227 16.8051522,41.9395847 17.0663721,41.987223 C18.1983254,42.177776 19.3607543,42.281714 20.5493053,42.281714 C28.786442,42.281714 35.8916255,37.4615889 39.1699363,30.4977423 C38.1990687,30.4717578 37.2499694,30.2768741 36.3531141,29.913091 C35.5128565,31.5284609 34.4244399,33.0139083 33.1096327,34.3217949 Z M13.6530977,41.0907576 C13.2438531,41.3982409 12.7388278,41.5758017 12.1902658,41.5758017 C10.8711049,41.5758017 9.79139568,40.5277601 9.75221266,39.2242042 L9.75221266,39.1505815 C9.75221266,38.1328552 10.3834943,37.2623744 11.2759959,36.9029221 C11.5589842,36.7903226 11.8680945,36.7253613 12.1902658,36.7253613 C13.2917434,36.7253613 14.2277817,37.4572581 14.523831,38.4576614 C14.589136,38.6785297 14.628319,38.9123902 14.628319,39.1505815 C14.628319,39.9431088 14.2451963,40.6446904 13.6530977,41.0907576 L13.6530977,41.0907576 Z M16.6788959,4.57820158 C16.5613469,3.60378274 16.1782242,2.71597892 15.5991866,1.98408212 C14.6587946,0.797456534 13.2090238,0.0265829966 11.5763989,0.000598480283 C8.69862541,-0.0427090325 6.30410891,2.26991167 6.26927954,5.13253764 C6.26492589,5.60458942 6.32152353,6.05931824 6.43471888,6.49239323 C6.49567022,6.73058449 6.41730422,6.981768 6.24315757,7.15499805 C2.39016285,10.8707818 0,16.072013 0,21.8275802 C0,27.0201498 1.94608885,31.7623214 5.15474096,35.3698365 C5.52480262,34.6899087 5.98629123,34.0706114 6.54356055,33.5162753 C6.66546321,33.3950143 6.79171953,33.2780841 6.92232951,33.1654845 C5.79037627,31.8229519 4.87175265,30.3288431 4.17951971,28.7048117 C3.25218878,26.5264443 2.78634647,24.2138236 2.78634647,21.8275802 C2.78634647,19.4413367 3.25654244,17.128716 4.17951971,14.9503486 C5.00671633,13.001511 6.16479158,11.2388956 7.62762346,9.70147923 C7.64939177,9.67982549 7.67551379,9.64951024 7.71034315,9.61486424 C7.94544113,9.37667299 8.31985644,9.33769621 8.59849106,9.52391848 C9.43874868,10.0825853 10.4531529,10.4030608 11.5415695,10.3943993 C14.367099,10.3684148 16.6788958,8.0817786 16.7180788,5.27112166 C16.7224325,5.0329304 16.7093715,4.80340062 16.6788959,4.57820158 Z M13.9186714,5.42702867 C13.8011223,6.65696176 12.7562425,7.62271909 11.4936792,7.62271909 C11.0844346,7.62271909 10.7013119,7.52311185 10.3660796,7.34555106 C9.58677332,6.93846053 9.05562602,6.12861022 9.05562602,5.19749889 C9.05562602,5.08489939 9.06433337,4.97229989 9.07739438,4.86403109 C9.24283367,3.68173625 10.2615916,2.77227869 11.4936792,2.77227869 C11.8637408,2.77227869 12.2163878,2.85456294 12.5298518,3.00180847 C13.3570484,3.391576 13.9317324,4.22741083 13.9317324,5.19749889 C13.9317324,5.2754524 13.9273787,5.3534059 13.9186714,5.42702867 Z M39.239595,27.8343563 L39.5182901,27.8343563 L39.239595,27.8343563 L39.239595,27.8343563 Z" id="形状"></path>
                </g>
            </g>
        </g>
    </g>
</svg>