<?xml version="1.0" encoding="UTF-8"?>
<svg width="626px" height="360px" viewBox="0 0 626 360" version="1.1" xmlns="http://www.w3.org/2000/svg" xmlns:xlink="http://www.w3.org/1999/xlink">
    <title>备份</title>
    <defs>
        <linearGradient x1="54.4757669%" y1="0%" x2="45.7973781%" y2="97.5187142%" id="linearGradient-1">
            <stop stop-color="#0098F5" offset="0%"></stop>
            <stop stop-color="#005FE8" offset="100%"></stop>
        </linearGradient>
        <linearGradient x1="54.6504146%" y1="0%" x2="45.6333887%" y2="97.5187142%" id="linearGradient-2">
            <stop stop-color="#0098F5" offset="0%"></stop>
            <stop stop-color="#005FE8" offset="100%"></stop>
        </linearGradient>
        <linearGradient x1="93.9944314%" y1="49.0837112%" x2="8.6904401%" y2="50.8708173%" id="linearGradient-3">
            <stop stop-color="#0098F5" offset="0%"></stop>
            <stop stop-color="#005FE8" offset="100%"></stop>
        </linearGradient>
        <linearGradient x1="93.9130756%" y1="0%" x2="8.76683093%" y2="97.5187142%" id="linearGradient-4">
            <stop stop-color="#0098F5" offset="0%"></stop>
            <stop stop-color="#005FE8" offset="100%"></stop>
        </linearGradient>
        <linearGradient x1="-22.5411717%" y1="44.9243779%" x2="94.2678881%" y2="44.9243779%" id="linearGradient-5">
            <stop stop-color="#B0C8FF" stop-opacity="0" offset="0%"></stop>
            <stop stop-color="#739DFF" offset="100%"></stop>
        </linearGradient>
        <linearGradient x1="86.0185901%" y1="50%" x2="-42.0049924%" y2="50%" id="linearGradient-6">
            <stop stop-color="#4A02BC" offset="0%"></stop>
            <stop stop-color="#FFFFFF" offset="100%"></stop>
        </linearGradient>
        <linearGradient x1="93.9130756%" y1="0%" x2="8.76683093%" y2="97.5187142%" id="linearGradient-7">
            <stop stop-color="#0098F5" offset="0%"></stop>
            <stop stop-color="#005FE8" offset="100%"></stop>
        </linearGradient>
        <linearGradient x1="0%" y1="44.9243779%" x2="94.2678881%" y2="44.9243779%" id="linearGradient-8">
            <stop stop-color="#B0C8FF" stop-opacity="0" offset="0%"></stop>
            <stop stop-color="#739DFF" offset="49.4898656%"></stop>
            <stop stop-color="#739DFF" stop-opacity="0" offset="99.9966922%"></stop>
        </linearGradient>
        <linearGradient x1="0%" y1="44.9243779%" x2="94.2678881%" y2="44.9243779%" id="linearGradient-9">
            <stop stop-color="#B0C8FF" stop-opacity="0" offset="0%"></stop>
            <stop stop-color="#739DFF" offset="49.4898656%"></stop>
            <stop stop-color="#739DFF" stop-opacity="0" offset="99.9966922%"></stop>
        </linearGradient>
    </defs>
    <g id="网站-pc" stroke="none" stroke-width="1" fill="none" fill-rule="evenodd">
        <g id="gateway" transform="translate(-994.000000, -2262.000000)">
            <g id="备份" transform="translate(994.000000, 2262.000000)">
                <ellipse id="椭圆形备份-24" fill="#4A02BC" transform="translate(26.766560, 105.553723) scale(1, -1) translate(-26.766560, -105.553723) " cx="26.7665596" cy="105.553723" rx="6.27670556" ry="6.28251715"></ellipse>
                <path d="M278.331199,238.213547 L308.986085,238.213547 L331.868678,-3.24635246 L362.790346,-3.24635246" id="路径-11" stroke="#1679EB" stroke-dasharray="3" transform="translate(320.560772, 117.483597) rotate(-270.000000) translate(-320.560772, -117.483597) "></path>
                <path d="M281.709564,238.213547 L309.91206,238.213547 L330.964045,-3.24635246 L359.41198,-3.24635246" id="路径-11备份-3" stroke="#4A02BC" stroke-dasharray="3" transform="translate(320.560772, 117.483597) scale(1, -1) rotate(270.000000) translate(-320.560772, -117.483597) "></path>
                <line x1="122.77136" y1="81.8432519" x2="122.442914" y2="147.79165" id="路径-12备份" stroke="#006DEB"></line>
                <line x1="534.460489" y1="81.8432519" x2="534.224935" y2="159.832129" id="路径-12备份-2" stroke="#4A02BC"></line>
                <path d="M115.793606,-79.952396 L191.045286,-79.952396 C192.70214,-79.952396 194.045286,-78.6092503 194.045286,-76.952396 L194.045286,171.787798 C194.045286,173.444652 192.70214,174.787798 191.045286,174.787798 L115.793606,174.787798 C114.136752,174.787798 112.793606,173.444652 112.793606,171.787798 L112.793606,-76.952396 C112.793606,-78.6092503 114.136752,-79.952396 115.793606,-79.952396 Z" id="矩形备份-119" fill="url(#linearGradient-1)" opacity="0.1" transform="translate(153.419446, 47.417701) rotate(-90.000000) translate(-153.419446, -47.417701) "></path>
                <path d="M442.625664,-78.0471409 L517.877343,-78.0471409 C519.534198,-78.0471409 520.877343,-76.7039951 520.877343,-75.0471409 L520.877343,168.863855 C520.877343,170.520709 519.534198,171.863855 517.877343,171.863855 L442.625664,171.863855 C440.968809,171.863855 439.625664,170.520709 439.625664,168.863855 L439.625664,-75.0471409 C439.625664,-76.7039951 440.968809,-78.0471409 442.625664,-78.0471409 Z" id="矩形备份-120" fill="url(#linearGradient-2)" opacity="0.1" transform="translate(480.251503, 46.908357) rotate(-90.000000) translate(-480.251503, -46.908357) "></path>
                <path d="M122.070312,-86.2349132 L197.321992,-86.2349132 C198.978846,-86.2349132 200.321992,-84.8917674 200.321992,-83.2349132 L200.321992,165.505281 C200.321992,167.162135 198.978846,168.505281 197.321992,168.505281 L122.070312,168.505281 C120.413458,168.505281 119.070312,167.162135 119.070312,165.505281 L119.070312,-83.2349132 C119.070312,-84.8917674 120.413458,-86.2349132 122.070312,-86.2349132 Z" id="矩形备份-129" fill="url(#linearGradient-1)" transform="translate(159.696152, 41.135184) rotate(-90.000000) translate(-159.696152, -41.135184) "></path>
                <path d="M448.902369,-84.329658 L524.154049,-84.329658 C525.810903,-84.329658 527.154049,-82.9865123 527.154049,-81.329658 L527.154049,162.581338 C527.154049,164.238192 525.810903,165.581338 524.154049,165.581338 L448.902369,165.581338 C447.245515,165.581338 445.902369,164.238192 445.902369,162.581338 L445.902369,-81.329658 C445.902369,-82.9865123 447.245515,-84.329658 448.902369,-84.329658 Z" id="矩形备份-128" fill="url(#linearGradient-2)" transform="translate(486.528209, 40.625840) rotate(-90.000000) translate(-486.528209, -40.625840) "></path>
                <g id="编组-6" opacity="0.1" transform="translate(28.119622, 164.859103)">
                    <rect id="矩形" stroke="#0072ED" x="0.5" y="0.580491829" width="252.631844" height="166.698206" rx="3"></rect>
                    <rect id="矩形备份-113" stroke="#0072ED" x="329.237783" y="0.580491829" width="252.631844" height="166.698206" rx="3"></rect>
                    <rect id="矩形备份-83" fill="url(#linearGradient-3)" x="0" y="0" width="253.631844" height="34.3348342" rx="3"></rect>
                    <rect id="矩形备份-118" fill="url(#linearGradient-3)" x="328.737783" y="0" width="253.631844" height="34.3348342" rx="3"></rect>
                </g>
                <rect id="矩形备份-8" stroke="#0072ED" fill="#FFFFFF" x="33.8502099" y="160.204164" width="252.631844" height="166.698206" rx="3"></rect>
                <rect id="矩形备份-131" stroke="#0072ED" fill="#FFFFFF" x="362.587993" y="160.204164" width="252.631844" height="166.698206" rx="3"></rect>
                <rect id="矩形备份-84" fill="url(#linearGradient-3)" x="33.3502099" y="159.623672" width="253.631844" height="34.3348342" rx="3"></rect>
                <rect id="矩形备份-130" fill="url(#linearGradient-3)" x="362.087993" y="159.623672" width="253.631844" height="34.3348342" rx="3"></rect>
                <polygon id="多边形" fill="url(#linearGradient-4)" transform="translate(122.919345, 149.222268) rotate(-180.000000) translate(-122.919345, -149.222268) " points="122.919345 138.731068 131.996586 154.467867 113.842105 154.467867"></polygon>
                <polygon id="多边形备份-3" fill="url(#linearGradient-4)" transform="translate(441.175634, 149.222268) rotate(-180.000000) translate(-441.175634, -149.222268) " points="441.175634 138.731068 450.252875 154.467867 432.098393 154.467867"></polygon>
                <polygon id="多边形备份-4" fill="#4A02BC" transform="translate(534.556222, 149.222268) rotate(-180.000000) translate(-534.556222, -149.222268) " points="534.556222 138.731068 543.633462 154.467867 525.478981 154.467867"></polygon>
                <polygon id="多边形备份-5" fill="#4A02BC" transform="translate(200.101259, 149.222268) rotate(-180.000000) translate(-200.101259, -149.222268) " points="200.101259 138.731068 209.1785 154.467867 191.024019 154.467867"></polygon>
                <polygon id="多边形" fill="url(#linearGradient-5)" points="92.6343696 214.076955 112.300067 225.441463 112.300067 248.17048 92.6343696 259.534988 72.9686722 248.17048 72.9686722 225.441463"></polygon>
                <polygon id="多边形备份-14" fill="url(#linearGradient-5)" points="421.372153 214.076955 441.037851 225.441463 441.037851 248.17048 421.372153 259.534988 401.706456 248.17048 401.706456 225.441463"></polygon>
                <polygon id="多边形备份-9" fill="url(#linearGradient-5)" points="114.814268 256.363497 134.479966 267.728006 134.479966 290.457023 114.814268 301.821531 95.1485708 290.457023 95.1485708 267.728006"></polygon>
                <polygon id="多边形备份-15" fill="url(#linearGradient-5)" points="443.552052 256.363497 463.217749 267.728006 463.217749 290.457023 443.552052 301.821531 423.886354 290.457023 423.886354 267.728006"></polygon>
                <polygon id="多边形备份-7" fill="url(#linearGradient-6)" points="182.938243 214.076955 202.60394 225.441463 202.60394 248.17048 182.938243 259.534988 163.272545 248.17048 163.272545 225.441463"></polygon>
                <polygon id="多边形备份-16" fill="url(#linearGradient-6)" points="511.676026 214.076955 531.341724 225.441463 531.341724 248.17048 511.676026 259.534988 492.010329 248.17048 492.010329 225.441463"></polygon>
                <polygon id="多边形备份-10" fill="url(#linearGradient-5)" points="205.118141 256.363497 224.783839 267.728006 224.783839 290.457023 205.118141 301.821531 185.452444 290.457023 185.452444 267.728006"></polygon>
                <polygon id="多边形备份-17" fill="url(#linearGradient-5)" points="533.855925 256.363497 553.521622 267.728006 553.521622 290.457023 533.855925 301.821531 514.190227 290.457023 514.190227 267.728006"></polygon>
                <polygon id="多边形备份-6" fill="url(#linearGradient-6)" points="138.050353 214.076955 157.71605 225.441463 157.71605 248.17048 138.050353 259.534988 118.384655 248.17048 118.384655 225.441463"></polygon>
                <polygon id="多边形备份-18" fill="url(#linearGradient-6)" points="466.788136 214.076955 486.453833 225.441463 486.453833 248.17048 466.788136 259.534988 447.122439 248.17048 447.122439 225.441463"></polygon>
                <polygon id="多边形备份-11" fill="url(#linearGradient-6)" points="160.230251 256.363497 179.895949 267.728006 179.895949 290.457023 160.230251 301.821531 140.564554 290.457023 140.564554 267.728006"></polygon>
                <polygon id="多边形备份-19" fill="url(#linearGradient-6)" points="488.968035 256.363497 508.633732 267.728006 508.633732 290.457023 488.968035 301.821531 469.302337 290.457023 469.302337 267.728006"></polygon>
                <polygon id="多边形备份-8" fill="url(#linearGradient-5)" points="228.354226 214.076955 248.019923 225.441463 248.019923 248.17048 228.354226 259.534988 208.688528 248.17048 208.688528 225.441463"></polygon>
                <polygon id="多边形备份-20" fill="url(#linearGradient-5)" points="557.092009 214.076955 576.757707 225.441463 576.757707 248.17048 557.092009 259.534988 537.426312 248.17048 537.426312 225.441463"></polygon>
                <polygon id="多边形备份-12" fill="url(#linearGradient-5)" points="250.534124 256.363497 270.199822 267.728006 270.199822 290.457023 250.534124 301.821531 230.868427 290.457023 230.868427 267.728006"></polygon>
                <polygon id="多边形备份-21" fill="url(#linearGradient-5)" points="579.271908 256.363497 598.937605 267.728006 598.937605 290.457023 579.271908 301.821531 559.60621 290.457023 559.60621 267.728006"></polygon>
                <polygon id="多边形备份-13" fill="url(#linearGradient-5)" points="69.3982853 256.363497 89.0639828 267.728006 89.0639828 290.457023 69.3982853 301.821531 49.7325879 290.457023 49.7325879 267.728006"></polygon>
                <polygon id="多边形备份-22" fill="url(#linearGradient-5)" points="398.136069 256.363497 417.801766 267.728006 417.801766 290.457023 398.136069 301.821531 378.470371 290.457023 378.470371 267.728006"></polygon>
                <ellipse id="椭圆形" fill="url(#linearGradient-7)" cx="50.978178" cy="308.974621" rx="50.978178" ry="51.0253786"></ellipse>
                <text id="Cluster" font-family="PingFangSC-Light, PingFang SC" font-size="14" font-weight="300" fill="#FFFFFF">
                    <tspan x="136.868576" y="181.866649">Cluster</tspan>
                </text>
                <text id="Cluster" font-family="PingFangSC-Light, PingFang SC" font-size="14" font-weight="300" fill="#FFFFFF">
                    <tspan x="465.606359" y="181.866649">Cluster</tspan>
                </text>
                <ellipse id="椭圆形备份-23" fill="#FF9D00" cx="611.707053" cy="159.522805" rx="14.2929471" ry="14.3061809"></ellipse>
                <g id="Gateway-logo" transform="translate(107.673535, 27.142857)" fill="#FFFFFF" fill-rule="nonzero">
                    <g id="编组" transform="translate(40.973115, 0.000000)">
                        <polygon id="路径" points="0 10.6891465 2.28405306 0.269927942 4.9399287 0.269927942 2.70899316 10.7431321"></polygon>
                        <polygon id="路径" points="4.67434114 10.7431321 7.01151171 0 7.27709927 0 12.9606732 6.15435708 14.2354935 0.431884707 16.7320166 0.431884707 14.3417285 11.2290024 14.1292584 11.2290024 8.39256705 5.07464531 7.17086425 10.7431321"></polygon>
                        <polygon id="路径" points="16.572664 10.8511033 18.8567171 0.431884707 25.8151113 0.485870296 25.3370537 2.59130824 21.0345351 2.53732266 20.5564775 4.58877501 24.434056 4.6427606 23.9559983 6.74819855 20.0784199 6.69421296 19.1754222 10.7971177"></polygon>
                        <polygon id="路径" points="25.3370537 10.9050889 27.6211067 0.539855884 30.2769824 0.539855884 27.9929293 10.9590744"></polygon>
                        <polygon id="路径" points="29.9051598 10.9590744 32.2423304 0.215942354 32.5079179 0.215942354 38.1914918 6.37029943 39.4663121 0.647827061 41.9628352 0.647827061 39.5725471 11.4449447 39.3600771 11.4449447 33.8889733 5.29058766 32.6141529 10.9590744"></polygon>
                        <polygon id="路径" points="41.7503652 11.0670456 44.0344182 0.647827061 46.6902939 0.647827061 44.4062408 11.0670456"></polygon>
                    </g>
                    <g id="编组" transform="translate(41.925978, 13.352436)">
                        <path d="M2.93832692,0 L2.19038916,3.31223207 C2.99175105,2.5876813 4.11365769,2.1736523 5.34241259,2.22540592 C7.31910524,2.22540592 8.92182902,3.26047844 9.5094944,4.96834811 L7.4259535,4.96834811 C6.99856049,4.24379734 6.30404685,3.82976833 5.34241259,3.82976833 C3.73968881,3.82976833 2.61778217,4.91659448 2.61778217,6.62446414 C2.61778217,8.38408743 3.73968881,9.47091358 5.39583671,9.5226672 C6.78486398,9.5226672 7.69307412,8.74636281 7.96019475,7.55602941 L4.86159545,7.55602941 L4.86159545,6.21043513 L9.72319091,6.26218876 L9.72319091,7.76304391 C9.34922203,9.5226672 7.69307412,11.1270296 5.34241259,11.1270296 C3.36571993,11.1270296 1.76299615,10.0402035 1.12190664,8.38408743 L0,13.3524355 L53.2638535,13.3006819 L54.2254878,11.2305369 L51.4474332,4.50256547 L53.47755,4.50256547 L55.2939703,9.3156527 L57.2172388,4.50256547 L59.1405073,4.50256547 L55.2405461,13.2489283 L60.7966552,13.2489283 L63.8418304,0 L2.93832692,0 L2.93832692,0 Z M17.8970822,11.075276 L16.0806619,11.075276 L16.0806619,10.0919571 C15.6532689,10.661247 14.851907,11.1787832 13.7300003,11.1787832 C11.9135801,11.1787832 10.5245528,9.72968171 10.5245528,7.55602941 C10.5245528,5.38237711 11.9670042,4.03678284 13.7834245,4.03678284 C14.9053311,4.03678284 15.706693,4.5543191 16.134086,5.12360898 L16.134086,4.14029009 L17.9505063,4.14029009 L17.8970822,11.075276 Z M23.346343,5.69289887 L21.7436192,5.69289887 L21.6901951,9.00513094 C21.6901951,9.47091358 21.8504675,9.67792808 22.4381329,9.67792808 L23.2929189,9.67792808 L23.2929189,11.1270296 L22.1710122,11.1270296 C20.8354091,11.1270296 19.9271989,10.5577397 19.9271989,8.95337732 L19.9806231,5.64114524 L19.1258371,5.64114524 L19.1258371,4.19204371 L19.9806231,4.19204371 L19.9806231,2.48417405 L21.7970434,2.48417405 L21.7970434,4.19204371 L23.3997671,4.19204371 L23.346343,5.69289887 Z M31.1996895,8.28058018 L26.0175493,8.22882655 C26.1243975,9.26389907 26.8189112,9.83318896 27.7271213,9.83318896 C28.4750591,9.83318896 28.9024521,9.47091358 29.1695727,9.00513094 L31.0928413,9.00513094 C30.7188724,10.247218 29.4901175,11.2822905 27.7271213,11.2305369 C25.6435804,11.2305369 24.201129,9.83318896 24.201129,7.65953666 C24.201129,5.48588437 25.6970045,4.14029009 27.7805454,4.14029009 C29.8106622,4.14029009 31.2531136,5.53763799 31.2531136,7.55602941 C31.2531136,7.86655117 31.2531136,8.07356567 31.1996895,8.28058018 Z M40.2817909,11.2822905 L38.3585224,11.2822905 L37.1297675,6.46920326 L35.7941643,11.2822905 L33.8708958,11.2822905 L31.7873549,4.34730459 L33.6037752,4.34730459 L34.8325301,9.57442083 L36.2215573,4.34730459 L38.1448259,4.34730459 L39.4270049,9.57442083 L40.7091839,4.34730459 L42.4187559,4.34730459 L40.2817909,11.2822905 Z M50.2721024,11.3857977 L48.4556822,11.3857977 L48.4556822,10.4024788 C48.0282892,10.9717687 47.2269273,11.489305 46.1050206,11.489305 C44.2886003,11.489305 42.8995731,10.0402035 42.8995731,7.86655117 C42.8995731,5.69289887 44.3420245,4.34730459 46.1584447,4.34730459 C47.2803514,4.34730459 48.0817133,4.86484085 48.5091063,5.43413074 L48.5091063,4.45081184 L50.3255266,4.45081184 L50.2721024,11.3857977 Z" id="形状"></path>
                        <path d="M46.6392619,5.84815975 C45.6776276,5.84815975 44.7694175,6.52095689 44.7694175,7.81479754 C44.7694175,9.10863819 45.6776276,9.88494259 46.6392619,9.88494259 C47.6008961,9.88494259 48.5091063,9.16039182 48.5625304,7.86655117 C48.5091063,6.62446414 47.6008961,5.89991338 46.6392619,5.84815975 Z" id="路径"></path>
                        <path d="M27.7271213,5.58939162 C26.8723353,5.58939162 26.1778217,6.10692788 26.0175493,7.03849315 L29.3832692,7.09024678 C29.3832692,6.21043513 28.6353315,5.64114524 27.7271213,5.58939162 Z" id="路径"></path>
                        <path d="M14.2642416,5.58939162 C13.3026073,5.58939162 12.3943972,6.26218876 12.3943972,7.55602941 C12.3943972,8.84987006 13.3026073,9.62617445 14.2642416,9.62617445 C15.2258759,9.62617445 16.134086,8.90162369 16.1875101,7.60778304 C16.2409343,6.31394238 15.2258759,5.58939162 14.2642416,5.58939162 Z" id="路径"></path>
                    </g>
                    <g id="编组" transform="translate(104.814945, 13.352436)">
                        <polygon id="路径" points="3.62502282 13.3524355 0 13.3524355 2.95180429 0 6.62861315 0"></polygon>
                        <polygon id="路径" points="7.92326416 13.3524355 5.38574818 13.3524355 8.38933852 0 10.9268545 0"></polygon>
                        <polygon id="路径" points="11.2893568 13.3524355 9.94291973 13.3524355 12.9465101 0 14.2929471 0"></polygon>
                    </g>
                    <polygon id="路径" points="30.6824677 0.0539492345 25.8096849 20.9862522 10.1739422 11.0595931 11.5126188 5.17912651 21.2046374 11.4372377 23.9355376 0.0539492345 5.46180054 0 0 26.7048711 6.47919475 26.7048711 9.53137741 13.7570548 15.4215545 17.5335012 13.2261248 26.7048711 31.3785796 26.7048711 37.1616625 0.0539492345"></polygon>
                </g>
                <g id="Gateway-logo备份-2" transform="translate(426.882687, 27.142857)" fill="#FFFFFF" fill-rule="nonzero">
                    <g id="编组" transform="translate(40.973115, 0.000000)">
                        <polygon id="路径" points="0 10.6891465 2.28405306 0.269927942 4.9399287 0.269927942 2.70899316 10.7431321"></polygon>
                        <polygon id="路径" points="4.67434114 10.7431321 7.01151171 0 7.27709927 0 12.9606732 6.15435708 14.2354935 0.431884707 16.7320166 0.431884707 14.3417285 11.2290024 14.1292584 11.2290024 8.39256705 5.07464531 7.17086425 10.7431321"></polygon>
                        <polygon id="路径" points="16.572664 10.8511033 18.8567171 0.431884707 25.8151113 0.485870296 25.3370537 2.59130824 21.0345351 2.53732266 20.5564775 4.58877501 24.434056 4.6427606 23.9559983 6.74819855 20.0784199 6.69421296 19.1754222 10.7971177"></polygon>
                        <polygon id="路径" points="25.3370537 10.9050889 27.6211067 0.539855884 30.2769824 0.539855884 27.9929293 10.9590744"></polygon>
                        <polygon id="路径" points="29.9051598 10.9590744 32.2423304 0.215942354 32.5079179 0.215942354 38.1914918 6.37029943 39.4663121 0.647827061 41.9628352 0.647827061 39.5725471 11.4449447 39.3600771 11.4449447 33.8889733 5.29058766 32.6141529 10.9590744"></polygon>
                        <polygon id="路径" points="41.7503652 11.0670456 44.0344182 0.647827061 46.6902939 0.647827061 44.4062408 11.0670456"></polygon>
                    </g>
                    <g id="编组" transform="translate(41.925978, 13.352436)">
                        <path d="M2.93832692,0 L2.19038916,3.31223207 C2.99175105,2.5876813 4.11365769,2.1736523 5.34241259,2.22540592 C7.31910524,2.22540592 8.92182902,3.26047844 9.5094944,4.96834811 L7.4259535,4.96834811 C6.99856049,4.24379734 6.30404685,3.82976833 5.34241259,3.82976833 C3.73968881,3.82976833 2.61778217,4.91659448 2.61778217,6.62446414 C2.61778217,8.38408743 3.73968881,9.47091358 5.39583671,9.5226672 C6.78486398,9.5226672 7.69307412,8.74636281 7.96019475,7.55602941 L4.86159545,7.55602941 L4.86159545,6.21043513 L9.72319091,6.26218876 L9.72319091,7.76304391 C9.34922203,9.5226672 7.69307412,11.1270296 5.34241259,11.1270296 C3.36571993,11.1270296 1.76299615,10.0402035 1.12190664,8.38408743 L0,13.3524355 L53.2638535,13.3006819 L54.2254878,11.2305369 L51.4474332,4.50256547 L53.47755,4.50256547 L55.2939703,9.3156527 L57.2172388,4.50256547 L59.1405073,4.50256547 L55.2405461,13.2489283 L60.7966552,13.2489283 L63.8418304,0 L2.93832692,0 L2.93832692,0 Z M17.8970822,11.075276 L16.0806619,11.075276 L16.0806619,10.0919571 C15.6532689,10.661247 14.851907,11.1787832 13.7300003,11.1787832 C11.9135801,11.1787832 10.5245528,9.72968171 10.5245528,7.55602941 C10.5245528,5.38237711 11.9670042,4.03678284 13.7834245,4.03678284 C14.9053311,4.03678284 15.706693,4.5543191 16.134086,5.12360898 L16.134086,4.14029009 L17.9505063,4.14029009 L17.8970822,11.075276 Z M23.346343,5.69289887 L21.7436192,5.69289887 L21.6901951,9.00513094 C21.6901951,9.47091358 21.8504675,9.67792808 22.4381329,9.67792808 L23.2929189,9.67792808 L23.2929189,11.1270296 L22.1710122,11.1270296 C20.8354091,11.1270296 19.9271989,10.5577397 19.9271989,8.95337732 L19.9806231,5.64114524 L19.1258371,5.64114524 L19.1258371,4.19204371 L19.9806231,4.19204371 L19.9806231,2.48417405 L21.7970434,2.48417405 L21.7970434,4.19204371 L23.3997671,4.19204371 L23.346343,5.69289887 Z M31.1996895,8.28058018 L26.0175493,8.22882655 C26.1243975,9.26389907 26.8189112,9.83318896 27.7271213,9.83318896 C28.4750591,9.83318896 28.9024521,9.47091358 29.1695727,9.00513094 L31.0928413,9.00513094 C30.7188724,10.247218 29.4901175,11.2822905 27.7271213,11.2305369 C25.6435804,11.2305369 24.201129,9.83318896 24.201129,7.65953666 C24.201129,5.48588437 25.6970045,4.14029009 27.7805454,4.14029009 C29.8106622,4.14029009 31.2531136,5.53763799 31.2531136,7.55602941 C31.2531136,7.86655117 31.2531136,8.07356567 31.1996895,8.28058018 Z M40.2817909,11.2822905 L38.3585224,11.2822905 L37.1297675,6.46920326 L35.7941643,11.2822905 L33.8708958,11.2822905 L31.7873549,4.34730459 L33.6037752,4.34730459 L34.8325301,9.57442083 L36.2215573,4.34730459 L38.1448259,4.34730459 L39.4270049,9.57442083 L40.7091839,4.34730459 L42.4187559,4.34730459 L40.2817909,11.2822905 Z M50.2721024,11.3857977 L48.4556822,11.3857977 L48.4556822,10.4024788 C48.0282892,10.9717687 47.2269273,11.489305 46.1050206,11.489305 C44.2886003,11.489305 42.8995731,10.0402035 42.8995731,7.86655117 C42.8995731,5.69289887 44.3420245,4.34730459 46.1584447,4.34730459 C47.2803514,4.34730459 48.0817133,4.86484085 48.5091063,5.43413074 L48.5091063,4.45081184 L50.3255266,4.45081184 L50.2721024,11.3857977 Z" id="形状"></path>
                        <path d="M46.6392619,5.84815975 C45.6776276,5.84815975 44.7694175,6.52095689 44.7694175,7.81479754 C44.7694175,9.10863819 45.6776276,9.88494259 46.6392619,9.88494259 C47.6008961,9.88494259 48.5091063,9.16039182 48.5625304,7.86655117 C48.5091063,6.62446414 47.6008961,5.89991338 46.6392619,5.84815975 Z" id="路径"></path>
                        <path d="M27.7271213,5.58939162 C26.8723353,5.58939162 26.1778217,6.10692788 26.0175493,7.03849315 L29.3832692,7.09024678 C29.3832692,6.21043513 28.6353315,5.64114524 27.7271213,5.58939162 Z" id="路径"></path>
                        <path d="M14.2642416,5.58939162 C13.3026073,5.58939162 12.3943972,6.26218876 12.3943972,7.55602941 C12.3943972,8.84987006 13.3026073,9.62617445 14.2642416,9.62617445 C15.2258759,9.62617445 16.134086,8.90162369 16.1875101,7.60778304 C16.2409343,6.31394238 15.2258759,5.58939162 14.2642416,5.58939162 Z" id="路径"></path>
                    </g>
                    <g id="编组" transform="translate(104.814945, 13.352436)">
                        <polygon id="路径" points="3.62502282 13.3524355 0 13.3524355 2.95180429 0 6.62861315 0"></polygon>
                        <polygon id="路径" points="7.92326416 13.3524355 5.38574818 13.3524355 8.38933852 0 10.9268545 0"></polygon>
                        <polygon id="路径" points="11.2893568 13.3524355 9.94291973 13.3524355 12.9465101 0 14.2929471 0"></polygon>
                    </g>
                    <polygon id="路径" points="30.6824677 0.0539492345 25.8096849 20.9862522 10.1739422 11.0595931 11.5126188 5.17912651 21.2046374 11.4372377 23.9355376 0.0539492345 5.46180054 0 0 26.7048711 6.47919475 26.7048711 9.53137741 13.7570548 15.4215545 17.5335012 13.2261248 26.7048711 31.3785796 26.7048711 37.1616625 0.0539492345"></polygon>
                </g>
                <rect id="矩形备份-121" fill="url(#linearGradient-8)" opacity="0.1782539" transform="translate(322.712482, 20.261102) rotate(-180.000000) translate(-322.712482, -20.261102) " x="271.257873" y="18.3536116" width="102.909219" height="3.81498158"></rect>
                <rect id="矩形备份-123" fill="url(#linearGradient-9)" opacity="0.1782539" transform="translate(324.618209, 200.518982) rotate(-180.000000) translate(-324.618209, -200.518982) " x="269.352147" y="198.611491" width="110.532124" height="3.81498158"></rect>
                <rect id="矩形备份-125" fill="url(#linearGradient-9)" opacity="0.1782539" transform="translate(324.618209, 266.532951) rotate(-180.000000) translate(-324.618209, -266.532951) " x="269.352147" y="264.62546" width="110.532124" height="3.81498158"></rect>
                <rect id="矩形备份-122" fill="url(#linearGradient-8)" opacity="0.1782539" transform="translate(322.712482, 58.410918) rotate(-180.000000) translate(-322.712482, -58.410918) " x="271.257873" y="56.5034274" width="102.909219" height="3.81498158"></rect>
                <rect id="矩形备份-124" fill="url(#linearGradient-9)" opacity="0.1782539" transform="translate(324.618209, 233.151862) rotate(-180.000000) translate(-324.618209, -233.151862) " x="269.352147" y="231.244372" width="110.532124" height="3.81498158"></rect>
                <rect id="矩形备份-126" fill="url(#linearGradient-9)" opacity="0.1782539" transform="translate(324.618209, 299.914040) rotate(-180.000000) translate(-324.618209, -299.914040) " x="269.352147" y="298.006549" width="110.532124" height="3.81498158"></rect>
                <g id="搜索" transform="translate(24.000000, 281.000000)" fill="#FFFFFF" fill-rule="nonzero">
                    <rect id="矩形" opacity="0" x="0" y="0" width="55" height="55"></rect>
                    <path d="M36.876457,41.7200661 C27.1428998,48.9180998 13.5053386,47.3913881 5.60441289,38.2191911 C-2.2965128,29.0469941 -1.78667053,15.3337164 6.77352292,6.77352292 C15.3337164,-1.78667053 29.0469941,-2.2965128 38.2191911,5.60441289 C47.3913881,13.5053386 48.9180998,27.1428998 41.7200661,36.876457 L53.9960422,49.1485047 C55.3346526,50.4871152 55.3346526,52.6574316 53.9960421,53.9960421 C52.6574316,55.3346526 50.4871152,55.3346526 49.1485047,53.9960422 L36.876457,41.7200661 Z M36.1104361,35.568329 C42.9305246,28.4510969 42.750153,17.1700639 35.7060149,10.274506 C28.6618768,3.37894809 17.3795621,3.43907426 10.4093182,10.4093182 C3.43907426,17.3795621 3.37894809,28.6618768 10.274506,35.7060149 C17.1700639,42.750153 28.4510969,42.9305246 35.568329,36.1104361 C35.7284213,35.9102364 35.9102364,35.7284213 36.1104361,35.568329 L36.1104361,35.568329 Z" id="形状"></path>
                </g>
            </g>
        </g>
    </g>
</svg>