<?xml version="1.0" encoding="UTF-8"?>
<svg width="578px" height="360px" viewBox="0 0 578 360" version="1.1" xmlns="http://www.w3.org/2000/svg" xmlns:xlink="http://www.w3.org/1999/xlink">
    <title>限速限流</title>
    <defs>
        <linearGradient x1="0%" y1="44.9243779%" x2="94.2678881%" y2="44.9243779%" id="linearGradient-1">
            <stop stop-color="#B0C8FF" stop-opacity="0" offset="0%"></stop>
            <stop stop-color="#739DFF" offset="100%"></stop>
        </linearGradient>
        <linearGradient x1="91.1737162%" y1="35.56549%" x2="18.0619291%" y2="68.2870909%" id="linearGradient-2">
            <stop stop-color="#0098F5" offset="0%"></stop>
            <stop stop-color="#005FE8" offset="100%"></stop>
        </linearGradient>
        <linearGradient x1="-22.5411717%" y1="44.9243779%" x2="94.2678881%" y2="44.9243779%" id="linearGradient-3">
            <stop stop-color="#B0C8FF" stop-opacity="0" offset="0%"></stop>
            <stop stop-color="#739DFF" offset="100%"></stop>
        </linearGradient>
        <linearGradient x1="-22.5411717%" y1="44.9243779%" x2="94.2678881%" y2="44.9243779%" id="linearGradient-4">
            <stop stop-color="#B0C8FF" stop-opacity="0" offset="0%"></stop>
            <stop stop-color="#739DFF" offset="100%"></stop>
        </linearGradient>
        <linearGradient x1="-22.5411717%" y1="44.9243779%" x2="94.2678881%" y2="44.9243779%" id="linearGradient-5">
            <stop stop-color="#B0C8FF" stop-opacity="0" offset="0%"></stop>
            <stop stop-color="#739DFF" offset="100%"></stop>
        </linearGradient>
        <linearGradient x1="-22.5411717%" y1="44.9243779%" x2="94.2678881%" y2="44.9243779%" id="linearGradient-6">
            <stop stop-color="#B0C8FF" stop-opacity="0" offset="0%"></stop>
            <stop stop-color="#739DFF" offset="100%"></stop>
        </linearGradient>
        <linearGradient x1="-22.5411717%" y1="44.9243779%" x2="94.2678881%" y2="44.9243779%" id="linearGradient-7">
            <stop stop-color="#B0C8FF" stop-opacity="0" offset="0%"></stop>
            <stop stop-color="#739DFF" offset="100%"></stop>
        </linearGradient>
        <linearGradient x1="-22.5411717%" y1="44.9243779%" x2="94.2678881%" y2="44.9243779%" id="linearGradient-8">
            <stop stop-color="#B0C8FF" stop-opacity="0" offset="0%"></stop>
            <stop stop-color="#739DFF" offset="100%"></stop>
        </linearGradient>
        <linearGradient x1="-22.5411717%" y1="44.9243779%" x2="94.2678881%" y2="44.9243779%" id="linearGradient-9">
            <stop stop-color="#B0C8FF" stop-opacity="0" offset="0%"></stop>
            <stop stop-color="#739DFF" offset="100%"></stop>
        </linearGradient>
        <linearGradient x1="-22.5411717%" y1="44.9243779%" x2="94.2678881%" y2="44.9243779%" id="linearGradient-10">
            <stop stop-color="#B0C8FF" stop-opacity="0" offset="0%"></stop>
            <stop stop-color="#739DFF" offset="100%"></stop>
        </linearGradient>
        <linearGradient x1="86.0185901%" y1="50%" x2="-42.0049924%" y2="50%" id="linearGradient-11">
            <stop stop-color="#4A02BC" offset="0%"></stop>
            <stop stop-color="#FFFFFF" offset="100%"></stop>
        </linearGradient>
        <linearGradient x1="-22.5411717%" y1="44.9243779%" x2="94.2678881%" y2="44.9243779%" id="linearGradient-12">
            <stop stop-color="#B0C8FF" stop-opacity="0" offset="0%"></stop>
            <stop stop-color="#739DFF" offset="100%"></stop>
        </linearGradient>
        <linearGradient x1="86.0185901%" y1="50%" x2="-42.0049924%" y2="50%" id="linearGradient-13">
            <stop stop-color="#4A02BC" offset="0%"></stop>
            <stop stop-color="#FFFFFF" offset="100%"></stop>
        </linearGradient>
        <linearGradient x1="-22.5411717%" y1="44.9243779%" x2="94.2678881%" y2="44.9243779%" id="linearGradient-14">
            <stop stop-color="#B0C8FF" stop-opacity="0" offset="0%"></stop>
            <stop stop-color="#739DFF" offset="100%"></stop>
        </linearGradient>
        <linearGradient x1="56.565348%" y1="0%" x2="43.835319%" y2="97.5187142%" id="linearGradient-15">
            <stop stop-color="#0098F5" offset="0%"></stop>
            <stop stop-color="#005FE8" offset="100%"></stop>
        </linearGradient>
        <linearGradient x1="0%" y1="44.9243779%" x2="94.2678881%" y2="44.9243779%" id="linearGradient-16">
            <stop stop-color="#B0C8FF" stop-opacity="0" offset="0%"></stop>
            <stop stop-color="#739DFF" offset="100%"></stop>
        </linearGradient>
    </defs>
    <g id="网站-pc" stroke="none" stroke-width="1" fill="none" fill-rule="evenodd">
        <g id="gateway" transform="translate(-1042.000000, -3398.000000)">
            <g id="限速限流" transform="translate(1042.000000, 3398.000000)">
                <rect id="矩形" fill="url(#linearGradient-1)" opacity="0.1782539" transform="translate(385.996034, 181.887105) rotate(-180.000000) translate(-385.996034, -181.887105) " x="193.992067" y="54.1357283" width="384.007933" height="255.502753"></rect>
                <ellipse id="椭圆形备份-17" fill="url(#linearGradient-2)" cx="123.790855" cy="33.1207273" rx="33.1243095" ry="33.1207273"></ellipse>
                <ellipse id="椭圆形备份-19" fill="#4A02BC" cx="429.844989" cy="27.198952" rx="6.49696017" ry="6.49625754"></ellipse>
                <ellipse id="椭圆形备份-20" fill="#FF9D00" cx="330.001736" cy="339.893197" rx="14.992985" ry="14.9913636"></ellipse>
                <rect id="矩形备份-43" fill="url(#linearGradient-3)" transform="translate(432.682121, 158.627166) rotate(-180.000000) translate(-432.682121, -158.627166) " x="329.549879" y="149.921146" width="206.264484" height="17.4120395"></rect>
                <rect id="矩形备份-57" fill="url(#linearGradient-4)" transform="translate(337.964150, 276.551715) rotate(-180.000000) translate(-337.964150, -276.551715) " x="261.877471" y="267.845696" width="152.173356" height="17.4120395"></rect>
                <rect id="矩形备份-45" fill="url(#linearGradient-5)" transform="translate(334.153049, 128.636928) rotate(-180.000000) translate(-334.153049, -128.636928) " x="261.877471" y="119.930909" width="144.551156" height="17.4120395"></rect>
                <rect id="矩形备份-58" fill="url(#linearGradient-6)" transform="translate(462.312221, 187.469052) rotate(-180.000000) translate(-462.312221, -187.469052) " x="415.843176" y="178.763032" width="92.9380902" height="17.4120395"></rect>
                <rect id="矩形备份-47" fill="url(#linearGradient-7)" transform="translate(463.238177, 128.345358) rotate(-180.000000) translate(-463.238177, -128.345358) " x="440.521824" y="119.639339" width="45.4327058" height="17.4120395"></rect>
                <rect id="矩形备份-82" fill="url(#linearGradient-7)" transform="translate(284.593824, 158.619655) rotate(-180.000000) translate(-284.593824, -158.619655) " x="261.877471" y="149.913636" width="45.4327058" height="17.4120395"></rect>
                <rect id="矩形备份-59" fill="url(#linearGradient-8)" transform="translate(347.917220, 246.444409) rotate(-180.000000) translate(-347.917220, -246.444409) " x="307.171256" y="237.738389" width="81.491927" height="17.4120395"></rect>
                <rect id="矩形备份-60" fill="url(#linearGradient-9)" transform="translate(274.716497, 246.444409) rotate(-180.000000) translate(-274.716497, -246.444409) " x="261.722577" y="237.738389" width="25.9878407" height="17.4120395"></rect>
                <rect id="矩形备份-52" fill="url(#linearGradient-10)" transform="translate(416.951473, 99.577641) rotate(-180.000000) translate(-416.951473, -99.577641) " x="370.384658" y="90.8716213" width="93.1336309" height="17.4120395"></rect>
                <rect id="矩形备份-80" fill="url(#linearGradient-11)" transform="translate(462.782371, 217.676691) rotate(-180.000000) translate(-462.782371, -217.676691) " x="447.789578" y="208.970672" width="29.9855858" height="17.4120395"></rect>
                <rect id="矩形备份-53" fill="url(#linearGradient-12)" transform="translate(298.742867, 99.653625) rotate(-180.000000) translate(-298.742867, -99.653625) " x="261.877471" y="90.9476056" width="73.7307911" height="17.4120395"></rect>
                <rect id="矩形备份-81" fill="url(#linearGradient-13)" transform="translate(342.399256, 217.585685) rotate(-180.000000) translate(-342.399256, -217.585685) " x="261.877471" y="208.879666" width="161.04357" height="17.4120395"></rect>
                <rect id="矩形备份-54" fill="url(#linearGradient-14)" transform="translate(345.567650, 187.394884) rotate(-180.000000) translate(-345.567650, -187.394884) " x="287.353682" y="178.688864" width="116.427937" height="17.4120395"></rect>
                <polygon id="矩形" fill="url(#linearGradient-15)" opacity="0.10059393" points="157.187929 59.931882 256.010864 59.931882 235.838937 78.1683402 235.838937 297.979566 256.010864 315.747895 157.187929 315.747895"></polygon>
                <polygon id="矩形备份-9" fill="url(#linearGradient-15)" points="162.967929 54.1525071 261.790864 54.1525071 241.618937 72.3889653 241.618937 292.200191 261.790864 309.96852 162.967929 309.96852"></polygon>
                <path d="M0,4.20497145 C50.1618406,55.4110159 104.469764,81.0140381 162.92377,81.0140381 L162.92377,287.38815 C104.469764,287.38815 50.1618406,311.5921 0,360 L0,4.20497145 Z" id="形状结合" fill="url(#linearGradient-16)"></path>
                <g id="流量" transform="translate(93.602730, 3.533026)" fill="#FFFFFF" fill-rule="nonzero">
                    <rect id="矩形" opacity="0" x="0.782350787" y="-0.497848199" width="59.6237572" height="59.6173091"></rect>
                    <path d="M35.3056995,52.4953154 C34.7399116,52.4953154 34.1741237,52.1184677 33.9855277,51.3647722 L25.8759012,17.4484776 L19.6522344,41.9435793 C19.4636384,42.5088509 18.8978505,43.0741224 18.3320626,43.0741224 C17.7662747,43.0741224 17.2004868,42.6972747 17.0118908,42.1320031 L13.6171635,31.7686909 L5.13034504,31.7686909 C4.37596118,31.7686909 3.62157732,31.2034193 3.62157732,30.2613 C3.62157732,29.3191807 4.18736521,28.7539091 5.13034504,28.7539091 L14.5601433,28.7539091 C15.1259312,28.7539091 15.6917191,29.1307569 15.8803151,29.6960284 L18.1434666,36.4792874 L24.5557295,11.0420664 C24.7443254,10.4767948 25.3101133,9.91152322 25.8759012,9.91152322 C26.4416891,9.91152322 27.007477,10.2883709 27.196073,11.0420664 L35.3056995,44.7699372 L41.5293663,18.5790207 C41.7179623,18.0137492 42.2837502,17.4484776 42.8495381,17.4484776 C43.415326,17.4484776 43.9811139,17.8253253 44.1697098,18.3905969 L47.5644372,28.7539091 L54.165296,28.7539091 C54.9196799,28.7539091 55.6740637,29.3191807 55.6740637,30.2613 C55.6740637,31.2034193 55.1082758,31.7686909 54.165296,31.7686909 L46.6214574,31.7686909 C46.0556695,31.7686909 45.4898816,31.3918432 45.3012856,30.8265716 L43.038134,24.2317365 L36.6258712,51.3647722 C36.6258712,51.9300438 35.8714874,52.4953154 35.3056995,52.4953154 Z" id="路径"></path>
                </g>
                <g id="速度" transform="translate(484.773182, 284.043758)" fill="#4A02BC" fill-rule="nonzero">
                    <rect id="矩形" opacity="0" x="0" y="0" width="40.9808257" height="40.9763937"></rect>
                    <path d="M20.4904128,40.9763937 C9.22068578,40.9763937 0,31.7567051 0,20.4881969 C0,9.21968859 9.22068578,0 20.4904128,0 C31.7601399,0 40.9808257,9.21968859 40.9808257,20.4881969 C40.9808257,31.7567051 31.7601399,40.9763937 20.4904128,40.9763937 Z M20.4904128,3.41469946 C11.0989736,3.41469946 3.41506879,11.0977733 3.41506879,20.4881969 C3.41506879,29.8786204 11.0989736,37.5616943 20.4904128,37.5616943 C29.8818521,37.5616943 37.5657569,29.8786204 37.5657569,20.4881969 C37.5657569,11.0977733 29.8818521,3.41469946 20.4904128,3.41469946 Z" id="形状"></path>
                    <path d="M33.2785471,22.9867575 C32.2554963,22.9867575 31.5734625,22.2713801 31.5734625,21.1983141 C31.5734625,14.7599179 26.6287173,9.57343219 20.4904128,9.57343219 C14.3521084,9.57343219 9.40736316,14.7599179 9.40736316,21.1983141 C9.40736316,22.2713801 8.72532932,22.9867575 7.70227858,22.9867575 C6.67922784,22.9867575 5.997194,22.2713801 5.997194,21.1983141 C5.997194,12.7926303 12.4765153,5.99654543 20.4904128,5.99654543 C28.5043103,5.99654543 34.9836317,12.7926302 34.9836317,21.1983141 C34.9836317,22.2713801 34.3015978,22.9867575 33.2785471,22.9867575 Z" id="路径"></path>
                    <path d="M20.7185162,27.9838787 L20.2100382,27.9838787 C19.3625748,27.8026162 18.8540968,26.7150414 19.0235894,25.8087292 L21.7354723,15.2955067 C21.904965,14.3891945 22.9219211,13.8454071 23.7693845,14.0266695 C24.6168479,14.207932 25.1253259,15.2955067 24.9558333,16.201819 L22.413443,26.7150414 C22.0744577,27.4400913 21.396487,27.9838787 20.7185162,27.9838787 L20.7185162,27.9838787 Z" id="路径"></path>
                </g>
            </g>
        </g>
    </g>
</svg>