<svg xml:space="preserve" viewBox="0 0 1024 1024" y="0" x="0" xmlns="http://www.w3.org/2000/svg" id="图层_1" version="1.1"><style>.st2{fill:#231815}.st3{fill:#4a02bc}.st4{fill:#ff9d00}</style><circle r="225.5" cy="734.5" cx="290.5" fill="#005fe8"/><path d="M477.2 129c40.2 0 72.9 32.7 72.9 72.9V267h208.6v208.6H824c40.2 0 72.9 32.7 72.9 72.9s-32.7 72.9-72.9 72.9h-65.3V830H610v-6.6c0-17.9-3.5-35.2-10.4-51.6-6.7-15.8-16.2-29.9-28.4-42.1-12.1-12.1-26.3-21.7-42.1-28.4-16.4-6.9-33.7-10.4-51.6-10.4h-.5c-17.9 0-35.2 3.5-51.6 10.4-15.8 6.7-29.9 16.2-42.1 28.4-12.1 12.1-21.7 26.3-28.4 42.1-6.9 16.4-10.4 33.7-10.4 51.6v6.6H195.7V680.1h6.1c17.9 0 35.3-3.5 51.7-10.5 15.8-6.7 30-16.2 42.2-28.4 12.2-12.2 21.7-26.4 28.4-42.2 6.9-16.4 10.5-33.8 10.5-51.7s-3.5-35.3-10.5-51.7c-6.7-15.8-16.2-30-28.4-42.2-12.2-12.2-26.4-21.7-42.2-28.4-16.4-6.9-33.8-10.5-51.7-10.5h-6.1V267h208.6v-65.1c0-40.2 32.7-72.9 72.9-72.9m0-64c-75.6 0-136.9 61.3-136.9 136.9v1.1H131.7v275.7h70.1c38 0 68.7 30.8 68.7 68.7s-30.8 68.7-68.7 68.7h-70.1V894h276.8v-70.6c0-37.8 30.6-68.5 68.5-68.5h.5c37.8 0 68.5 30.6 68.5 68.5V894h276.8V685.4h1.3c75.6 0 136.9-61.3 136.9-136.9s-61.3-136.9-136.9-136.9h-1.3V203H614.1v-1.1c0-75.6-61.3-136.9-136.9-136.9z" fill="#424242"/></svg>