<svg xml:space="preserve" viewBox="0 0 1024 1024" y="0" x="0" xmlns="http://www.w3.org/2000/svg" id="图层_1" version="1.1"><style>.st2{fill:#231815}.st3{fill:#4a02bc}.st4{fill:#ff9d00}</style><path d="M543 64c-229.8 0-416 186.2-416 416s186.2 416 416 416 416-186.2 416-416S772.8 64 543 64zm248.9 664.9c-32.3 32.3-70 57.7-111.9 75.5-43.4 18.3-89.4 27.6-137 27.6s-93.6-9.3-137-27.6c-41.9-17.7-79.6-43.1-111.9-75.5s-57.7-70-75.5-111.9c-18.3-43.4-27.6-89.4-27.6-137s9.3-93.6 27.6-137c17.7-41.9 43.1-79.6 75.5-111.9s70-57.7 111.9-75.5c43.4-18.3 89.4-27.6 137-27.6s93.6 9.3 137 27.6c41.9 17.7 79.6 43.1 111.9 75.5s57.7 70 75.5 111.9c18.3 43.4 27.6 89.4 27.6 137s-9.3 93.6-27.6 137c-17.8 41.9-43.2 79.6-75.5 111.9z" fill="#424242"/><path d="M750.9 428.1c10.8 27 16.8 55.5 17.9 84.7l64-2.4c-1.4-36.6-8.9-72.3-22.5-106.1l-59.4 23.8zM598.6 200.4l-18.4 61.3c60.1 18 111.3 57.6 144 111.5l54.7-33.3c-41-67.4-105.1-116.9-180.3-139.5z" fill="#424242"/><circle r="288" cy="672" cx="352" fill="#005fe8"/></svg>