<?xml version="1.0" encoding="UTF-8"?>
<svg width="615px" height="360px" viewBox="0 0 615 360" version="1.1" xmlns="http://www.w3.org/2000/svg" xmlns:xlink="http://www.w3.org/1999/xlink">
    <title>编组 22</title>
    <defs>
        <linearGradient x1="0%" y1="44.9243779%" x2="94.2678881%" y2="44.9243779%" id="linearGradient-1">
            <stop stop-color="#B0C8FF" stop-opacity="0" offset="0%"></stop>
            <stop stop-color="#739DFF" offset="100%"></stop>
        </linearGradient>
        <linearGradient x1="-22.5411717%" y1="44.9243779%" x2="94.2678881%" y2="44.9243779%" id="linearGradient-2">
            <stop stop-color="#B0C8FF" stop-opacity="0" offset="0%"></stop>
            <stop stop-color="#739DFF" offset="100%"></stop>
        </linearGradient>
        <linearGradient x1="-22.5411717%" y1="44.9243779%" x2="94.2678881%" y2="44.9243779%" id="linearGradient-3">
            <stop stop-color="#B0C8FF" stop-opacity="0" offset="0%"></stop>
            <stop stop-color="#739DFF" offset="100%"></stop>
        </linearGradient>
        <linearGradient x1="-22.5411717%" y1="44.9243779%" x2="94.2678881%" y2="44.9243779%" id="linearGradient-4">
            <stop stop-color="#B0C8FF" stop-opacity="0" offset="0%"></stop>
            <stop stop-color="#739DFF" offset="100%"></stop>
        </linearGradient>
        <linearGradient x1="-22.5411717%" y1="44.9243779%" x2="94.2678881%" y2="44.9243779%" id="linearGradient-5">
            <stop stop-color="#B0C8FF" stop-opacity="0" offset="0%"></stop>
            <stop stop-color="#739DFF" offset="100%"></stop>
        </linearGradient>
        <linearGradient x1="-22.5411717%" y1="44.9243779%" x2="94.2678881%" y2="44.9243779%" id="linearGradient-6">
            <stop stop-color="#B0C8FF" stop-opacity="0" offset="0%"></stop>
            <stop stop-color="#739DFF" offset="100%"></stop>
        </linearGradient>
        <linearGradient x1="-22.5411717%" y1="44.9243779%" x2="94.2678881%" y2="44.9243779%" id="linearGradient-7">
            <stop stop-color="#B0C8FF" stop-opacity="0" offset="0%"></stop>
            <stop stop-color="#739DFF" offset="100%"></stop>
        </linearGradient>
        <linearGradient x1="93.9944314%" y1="28.4782588%" x2="8.6904401%" y2="70.4537094%" id="linearGradient-8">
            <stop stop-color="#0098F5" offset="0%"></stop>
            <stop stop-color="#005FE8" offset="100%"></stop>
        </linearGradient>
        <linearGradient x1="93.9944314%" y1="49.9627648%" x2="8.6904401%" y2="50.0353874%" id="linearGradient-9">
            <stop stop-color="#0098F5" offset="0%"></stop>
            <stop stop-color="#005FE8" offset="100%"></stop>
        </linearGradient>
        <linearGradient x1="-22.5411717%" y1="44.9243779%" x2="94.2678881%" y2="44.9243779%" id="linearGradient-10">
            <stop stop-color="#B0C8FF" stop-opacity="0" offset="0%"></stop>
            <stop stop-color="#739DFF" offset="100%"></stop>
        </linearGradient>
        <linearGradient x1="0%" y1="44.9243779%" x2="94.2678881%" y2="44.9243779%" id="linearGradient-11">
            <stop stop-color="#B0C8FF" stop-opacity="0" offset="0%"></stop>
            <stop stop-color="#739DFF" offset="100%"></stop>
        </linearGradient>
        <linearGradient x1="93.9506211%" y1="0%" x2="8.7315768%" y2="97.5187142%" id="linearGradient-12">
            <stop stop-color="#0098F5" offset="0%"></stop>
            <stop stop-color="#005FE8" offset="100%"></stop>
        </linearGradient>
        <linearGradient x1="93.9411154%" y1="0%" x2="8.74050239%" y2="97.5187142%" id="linearGradient-13">
            <stop stop-color="#0098F5" offset="0%"></stop>
            <stop stop-color="#005FE8" offset="100%"></stop>
        </linearGradient>
    </defs>
    <g id="页面-1" stroke="none" stroke-width="1" fill="none" fill-rule="evenodd">
        <g id="Console" transform="translate(-300.000000, -4184.000000)">
            <g id="编组-22" transform="translate(300.000000, 4184.000000)">
                <ellipse id="椭圆形" fill="url(#linearGradient-1)" opacity="0.1782539" cx="338.67839" cy="180" rx="180.881049" ry="180"></ellipse>
                <rect id="矩形备份-141" fill="url(#linearGradient-2)" transform="translate(198.124218, 168.389451) rotate(-180.000000) translate(-198.124218, -168.389451) " x="113.853967" y="156.732737" width="168.540502" height="23.3134269"></rect>
                <rect id="矩形备份-151" fill="url(#linearGradient-3)" transform="translate(146.531143, 39.654549) rotate(-180.000000) translate(-146.531143, -39.654549) " x="54.1742429" y="27.9978356" width="184.7138" height="23.3134269"></rect>
                <rect id="矩形备份-142" fill="url(#linearGradient-4)" transform="translate(239.102972, 129.560606) rotate(-180.000000) translate(-239.102972, -129.560606) " x="145.29914" y="117.903892" width="187.607664" height="23.3134269"></rect>
                <rect id="矩形备份-150" fill="url(#linearGradient-4)" transform="translate(232.212682, 90.940135) rotate(-180.000000) translate(-232.212682, -90.940135) " x="138.40885" y="79.2834217" width="187.607664" height="23.3134269"></rect>
                <rect id="矩形备份-153" fill="url(#linearGradient-5)" transform="translate(63.527904, 129.560606) rotate(-180.000000) translate(-63.527904, -129.560606) " x="0" y="117.903892" width="127.055809" height="23.3134269"></rect>
                <rect id="矩形备份-149" fill="url(#linearGradient-6)" transform="translate(84.538314, 91.228914) rotate(-180.000000) translate(-84.538314, -91.228914) " x="55.1468528" y="79.5722006" width="58.7829227" height="23.3134269"></rect>
                <rect id="矩形备份-152" fill="url(#linearGradient-7)" transform="translate(285.597668, 39.277229) rotate(-180.000000) translate(-285.597668, -39.277229) " x="259.22301" y="27.6205159" width="52.7493176" height="23.3134269"></rect>
                <path d="M185.410823,89.3706294 L510.8389,89.3706294 C515.809463,89.3706294 519.8389,93.4000666 519.8389,98.3706294 L519.8389,314.685315 L519.8389,314.685315 L176.410823,314.685315 L176.410823,98.3706294 C176.410823,93.4000666 180.44026,89.3706294 185.410823,89.3706294 Z" id="矩形" fill="url(#linearGradient-8)"></path>
                <rect id="矩形" fill="url(#linearGradient-9)" x="139.929452" y="314.685315" width="415.132841" height="11.3286713" rx="2"></rect>
                <path d="M307.240567,314.685315 L387.751178,314.685315 C387.751178,318.161233 384.93339,320.979021 381.457472,320.979021 L313.534273,320.979021 C310.058355,320.979021 307.240567,318.161233 307.240567,314.685315 L307.240567,314.685315 L307.240567,314.685315 Z" id="矩形" fill="url(#linearGradient-10)"></path>
                <rect id="矩形" fill="#FFFFFF" x="186.47465" y="99.4405594" width="323.300424" height="206.433566"></rect>
                <rect id="矩形" fill="url(#linearGradient-11)" opacity="0.283022926" x="201.570389" y="119.58042" width="292.687022" height="45.3146853" rx="3"></rect>
                <rect id="矩形备份-154" fill="url(#linearGradient-11)" opacity="0.283022926" x="201.570389" y="180" width="292.687022" height="45.3146853" rx="3"></rect>
                <rect id="矩形备份-164" fill="url(#linearGradient-11)" opacity="0.283022926" x="201.570389" y="240.41958" width="292.687022" height="45.3146853" rx="3"></rect>
                <rect id="矩形" fill="#DEE8FF" x="209.476619" y="127.709502" width="108.669163" height="9.24696745"></rect>
                <rect id="矩形备份-155" fill="#DEE8FF" x="209.476619" y="188.129083" width="108.669163" height="9.24696745"></rect>
                <rect id="矩形备份-165" fill="#DEE8FF" x="209.476619" y="248.548663" width="108.669163" height="9.24696745"></rect>
                <rect id="矩形备份-44" fill="#DEE8FF" x="209.476619" y="147.744599" width="68.5925923" height="4.62348372"></rect>
                <rect id="矩形备份-156" fill="#DEE8FF" x="209.476619" y="208.164179" width="68.5925923" height="4.62348372"></rect>
                <rect id="矩形备份-166" fill="#DEE8FF" x="209.476619" y="268.583759" width="68.5925923" height="4.62348372"></rect>
                <rect id="矩形备份-46" fill="#DEE8FF" x="325.852815" y="147.744599" width="39.576067" height="4.62348372"></rect>
                <rect id="矩形备份-162" fill="#DEE8FF" x="325.852815" y="208.164179" width="39.576067" height="4.62348372"></rect>
                <rect id="矩形备份-167" fill="#DEE8FF" x="325.852815" y="268.583759" width="39.576067" height="4.62348372"></rect>
                <rect id="矩形备份-48" fill="#DEE8FF" x="371.054109" y="147.744599" width="39.576067" height="4.62348372"></rect>
                <rect id="矩形备份-163" fill="#DEE8FF" x="371.054109" y="208.164179" width="39.576067" height="4.62348372"></rect>
                <rect id="矩形备份-168" fill="#DEE8FF" x="371.054109" y="268.583759" width="39.576067" height="4.62348372"></rect>
                <ellipse id="椭圆形备份-31" fill="url(#linearGradient-12)" cx="557.755796" cy="74.9895388" rx="57.2442036" ry="57.2727273"></ellipse>
                <g id="高效" transform="translate(555.062293, 200.139860)" fill="#005FE8" fill-rule="nonzero">
                    <rect id="矩形" opacity="0" x="0" y="0" width="51.5771105" height="51.6083916"></rect>
                    <path d="M25.7936035,50.3486551 C25.2928723,50.3552133 24.8102428,50.1608033 24.4528155,49.8085666 C23.9010166,49.2694098 23.7521068,48.437345 24.0824321,47.7389713 C26.6624528,42.1050788 25.4209393,35.449394 20.9852858,31.1353424 C18.0985954,28.3273927 14.2348113,26.7614675 10.2160171,26.7707432 C8.05317299,26.7683918 5.91295892,27.2127935 3.92838802,28.076329 C3.2123042,28.3981735 2.37376395,28.2561585 1.80238712,27.71627 C1.25058826,27.1771132 1.10167845,26.3450485 1.43200368,25.6466748 C2.39091405,23.5992489 3.70588562,21.7400645 5.31510355,20.1565192 C8.91773277,16.6435389 13.7482069,14.6890135 18.7696521,14.712487 L19.6015333,14.712487 C22.6483893,9.46335991 27.3738029,5.40368601 33.0094135,3.19357531 C36.2502555,1.92061733 39.6987575,1.26470875 43.178661,1.2590479 C45.2949853,1.24890583 47.4050865,1.49038154 49.4648086,1.97874817 C50.1463364,2.12507367 50.6848218,2.64938771 50.8515241,3.32896939 C53.014426,12.2664775 50.2642087,21.6838345 43.6371957,28.0324375 C41.8755912,29.7551843 39.8844279,31.2240634 37.7206907,32.3970368 C38.0069312,40.0623581 33.5591121,47.111872 26.5351111,50.125478 C26.3199827,50.2809576 26.0591688,50.3595352 25.7943442,50.3486551 L25.7936035,50.3486551 Z M10.1226805,23.0816265 C15.1447141,23.0504613 19.9770577,25.0061739 23.574266,28.5256588 C26.3344119,31.2035886 28.1928406,34.6803642 28.890009,38.4704283 C29.2434138,40.3858556 29.2747124,42.3472156 28.9826049,44.2730317 C29.1670558,44.1376376 29.30632,43.9576082 29.4907709,43.8266776 C32.7676876,40.6693136 34.3913968,36.1581285 33.8820369,31.626332 C33.7885265,30.8423854 34.222101,30.0907062 34.9457781,29.7821456 C37.1847664,28.7019045 39.2306579,27.2575947 41.0008064,25.5075611 C46.399783,20.3310923 48.8184298,12.7594119 47.4254774,5.39484495 C46.0225521,5.13906657 44.5984996,5.018499 43.1727349,5.034786 C37.0526362,5.00135091 31.1627249,7.37552612 26.7640081,11.6490099 C25.0045715,13.3729739 23.5230803,15.3614817 22.3727421,17.543116 C22.0000142,18.2294372 21.2506631,18.6208544 20.4771197,18.5332781 C19.9222853,18.4886427 19.3215234,18.4432634 18.7733559,18.4432634 C14.7502329,18.4124444 10.878398,19.9815246 8.00334651,22.8078627 C7.83819039,22.961039 7.68467059,23.126403 7.54407107,23.3025718 C8.39632895,23.1350191 9.26408575,23.0601947 10.1323105,23.0793947 L10.1256436,23.0793947 L10.1226805,23.0816265 Z M7.58110938,47.6913608 C6.99426352,47.6913608 6.40779556,47.6614585 5.82401041,47.6013455 C5.00439066,47.4788055 4.35366587,46.8453556 4.20617558,46.0264594 C4.16024805,45.7564152 3.23577097,38.959186 7.99667961,34.2821389 C10.2612039,32.0778936 12.1568263,31.0832678 14.051708,31.0832678 C16.316973,31.0832678 17.8881395,32.6127745 18.7185392,33.4229073 C19.5489389,34.23304 21.0297318,35.672532 21.1223276,37.7875065 C21.2149235,39.6770722 20.151923,41.6120173 17.8385082,43.9070214 C14.4650559,47.1914437 9.98119405,47.6868967 7.5766648,47.6868967 L7.58110938,47.6913608 Z M14.0524487,34.7790798 C13.5931733,34.7790798 12.570915,35.049124 10.6782557,36.8940544 C9.1898997,38.3960572 8.26003016,40.3656129 8.04408871,42.4734807 C7.95801304,42.9791251 7.91169557,43.4907883 7.9055653,44.0037314 C9.75748248,43.9583521 12.8961117,43.5082783 15.2087858,41.3040329 C17.1503357,39.4144672 17.4310863,38.3796696 17.381455,37.9742313 C17.161574,37.2221656 16.7091161,36.5598667 16.0895576,36.0831777 C15.119153,35.0930155 14.5643186,34.7783359 14.0539303,34.7783359 L14.0524487,34.7790798 Z M37.9495877,19.4817806 C34.9059448,19.385143 32.5069616,16.84599 32.5706125,13.788518 C32.6342633,10.731046 35.1368248,8.29480548 38.18183,8.32600467 C41.2268352,8.35720385 43.6793801,10.8442145 43.6809009,13.9023543 C43.6321825,17.0317809 41.067237,19.5293977 37.9510692,19.4817806 L37.9495877,19.4817806 Z M37.9495877,12.0581679 C36.9203686,12.0477806 36.0752489,12.8725939 36.0561876,13.9060739 C36.0927391,14.9319546 36.9288997,15.746073 37.9510692,15.7510042 C38.9796954,15.7618331 39.8252242,14.9389151 39.8466916,13.9060739 C39.8417931,12.8833783 39.013137,12.0578486 37.9947745,12.0611436 L37.9532916,12.0611436 L37.9495877,12.0581679 Z" id="形状"></path>
                </g>
                <ellipse id="椭圆形备份-30" fill="#FF9D00" cx="39.0396733" cy="286.273713" rx="10.0638264" ry="10.0699301"></ellipse>
                <g id="代码" transform="translate(525.159764, 46.240103)" fill="#FFFFFF" fill-rule="nonzero">
                    <rect id="矩形" opacity="0" x="-0.288950463" y="0.33332358" width="64.1568936" height="64.1958042"></rect>
                    <path d="M59.7434819,28.2080271 L47.3707247,15.5374368 L43.24689,19.7611807 L55.6190206,32.4311294 L43.24689,45.1017198 L47.3707247,49.3248221 L59.7434819,36.6548734 L63.8679431,32.4311294 L59.7434819,28.2080271 Z M16.2076414,15.5374368 L3.83488424,28.2080271 L-0.288950463,32.4311294 L3.83488424,36.6548734 L16.2076414,49.3248221 L20.3314761,45.1017198 L7.95934547,32.4311294 L20.3314761,19.7611807 L16.2076414,15.5374368 Z M21.2165781,60.4223678 L36.7365943,2.8508061 L42.3578408,4.43995528 L26.8378247,62.0116453 L21.2165781,60.4223678 Z" id="形状"></path>
                </g>
                <g id="设置" transform="translate(55.644906, 201.398601)" fill="#4A02BC" fill-rule="nonzero">
                    <rect id="矩形" opacity="0" x="0" y="0" width="74.22072" height="74.2657343"></rect>
                    <path d="M37.6961821,50.7022721 C42.9501147,50.7292664 47.7008724,47.5761312 49.7255834,42.7180388 C51.7502944,37.8599465 50.6485279,32.2576909 46.9357986,28.5325583 C43.2230694,24.8074256 37.6336506,23.6961422 32.7828222,25.7186756 C27.9319938,27.741209 24.7791129,32.4975592 24.7993099,37.7622378 C24.8086083,44.8983546 30.5746072,50.6836165 37.6961821,50.7022721 L37.6961821,50.7022721 Z M7.54787359,37.7622378 C7.54686517,35.6164704 7.74875611,33.4754337 8.15084348,31.3678322 C11.8246197,30.9542209 15.0645095,28.766909 16.8268556,25.5104895 C18.7068755,22.1055609 18.8683732,18.0100895 17.2623311,14.4671328 C20.4661286,11.3424055 24.329902,8.97926303 28.5679454,7.55244755 C30.5928178,10.7283927 34.0942186,12.6503334 37.8552981,12.6503334 C41.6163777,12.6503334 45.1177785,10.7283927 47.1426509,7.55244755 C51.3692383,9.01317335 55.2153117,11.4046667 58.398018,14.551049 C56.8402309,18.0841668 57.0389193,22.1469225 58.9339879,25.5104895 C60.6695416,28.6282228 63.7757048,30.7384965 67.3085169,31.2 C68.2109965,35.8080217 68.1310872,40.5551681 67.0740301,45.1300699 C63.6230725,45.7217547 60.6344709,47.8687789 58.9674859,50.9538461 C57.2534617,54.0328049 56.948234,57.7030067 58.1300331,61.0237762 C54.820894,64.2049457 50.8268794,66.5821254 46.4559395,67.972028 C44.3748467,65.2814402 41.1687241,63.7067891 37.7715529,63.7067891 C34.3743816,63.7067891 31.1682591,65.2814402 29.0871662,67.972028 C24.7871235,66.5953207 20.8573817,64.2533316 17.5973123,61.1244755 C18.8515247,57.7581699 18.5699219,54.0101212 16.8268556,50.8699301 C15.1225481,47.6951748 12.0139765,45.5209667 8.45232654,45.0125874 C7.88606199,42.6364163 7.58274958,40.2049684 7.54787359,37.7622378 Z" id="形状"></path>
                </g>
            </g>
        </g>
    </g>
</svg>