<?xml version="1.0" encoding="UTF-8"?>
<svg width="557px" height="360px" viewBox="0 0 557 360" version="1.1" xmlns="http://www.w3.org/2000/svg" xmlns:xlink="http://www.w3.org/1999/xlink">
    <title>编组 3</title>
    <defs>
        <linearGradient x1="79.63362%" y1="0%" x2="22.1748467%" y2="97.5187142%" id="linearGradient-1">
            <stop stop-color="#0098F5" offset="0%"></stop>
            <stop stop-color="#005FE8" offset="100%"></stop>
        </linearGradient>
        <linearGradient x1="93.9944314%" y1="0%" x2="8.6904401%" y2="97.5187142%" id="linearGradient-2">
            <stop stop-color="#0098F5" offset="0%"></stop>
            <stop stop-color="#005FE8" offset="100%"></stop>
        </linearGradient>
        <linearGradient x1="86.0185901%" y1="50%" x2="-42.0049924%" y2="50%" id="linearGradient-3">
            <stop stop-color="#4A02BC" offset="0%"></stop>
            <stop stop-color="#FFFFFF" offset="100%"></stop>
        </linearGradient>
        <linearGradient x1="-22.5411717%" y1="44.9243779%" x2="94.2678881%" y2="44.9243779%" id="linearGradient-4">
            <stop stop-color="#B0C8FF" stop-opacity="0" offset="0%"></stop>
            <stop stop-color="#739DFF" offset="100%"></stop>
        </linearGradient>
        <linearGradient x1="-22.5411717%" y1="44.9243779%" x2="94.2678881%" y2="44.9243779%" id="linearGradient-5">
            <stop stop-color="#B0C8FF" stop-opacity="0" offset="0%"></stop>
            <stop stop-color="#739DFF" offset="100%"></stop>
        </linearGradient>
        <linearGradient x1="-22.5411717%" y1="44.9243779%" x2="94.2678881%" y2="44.9243779%" id="linearGradient-6">
            <stop stop-color="#B0C8FF" stop-opacity="0" offset="0%"></stop>
            <stop stop-color="#739DFF" offset="100%"></stop>
        </linearGradient>
        <linearGradient x1="-22.5411717%" y1="44.9243779%" x2="94.2678881%" y2="44.9243779%" id="linearGradient-7">
            <stop stop-color="#B0C8FF" stop-opacity="0" offset="0%"></stop>
            <stop stop-color="#739DFF" offset="100%"></stop>
        </linearGradient>
        <linearGradient x1="-22.5411717%" y1="44.9243779%" x2="94.2678881%" y2="44.9243779%" id="linearGradient-8">
            <stop stop-color="#B0C8FF" stop-opacity="0" offset="0%"></stop>
            <stop stop-color="#739DFF" offset="100%"></stop>
        </linearGradient>
    </defs>
    <g id="页面-1" stroke="none" stroke-width="1" fill="none" fill-rule="evenodd">
        <g id="首页" transform="translate(-1063.000000, -4494.000000)">
            <g id="编组-3" transform="translate(1063.000000, 4494.000000)">
                <path d="M270.312654,135.045769 C292.55394,135.045769 310.88265,151.878169 313.666093,173.673632 L339.872472,173.673632 C336.773923,136.778902 306.576191,107.788311 269.734959,107.788311 C232.893726,107.788311 202.722254,136.778902 199.623704,173.673632 L226.985474,173.673632 C229.7164,151.878169 248.071369,135.045769 270.312654,135.045769 Z M334.883282,189.718244 L200.595283,189.718244 C184.367285,189.718244 171.211577,202.874301 171.211577,219.10273 L171.211577,313.663529 C171.211577,329.891958 184.367285,343.048014 200.595283,343.048014 L334.909541,343.048014 C351.163798,343.048014 364.293247,329.891958 364.293247,313.663529 L364.293247,219.12899 C364.293247,202.90056 351.11128,189.718244 334.883282,189.718244 Z M280.238517,268.91718 L280.238517,290.26623 C280.238517,297.487619 274.382783,303.317248 267.187846,303.317248 C259.966649,303.317248 254.137174,297.461359 254.137174,290.26623 L254.137174,269.232295 C250.618482,265.844808 248.412734,261.118081 248.412734,255.839902 C248.412734,245.572401 256.763064,237.22185 267.030292,237.22185 C277.297521,237.22185 285.64785,245.572401 285.64785,255.839902 C285.595332,260.934264 283.547138,265.555952 280.238517,268.91718 L280.238517,268.91718 Z" id="形状" fill="url(#linearGradient-1)" opacity="0.1"></path>
                <path d="M275.936392,129.422031 C298.177678,129.422031 316.506388,146.254431 319.289831,168.049894 L345.49621,168.049894 C342.397661,131.155165 312.199929,102.164573 275.358697,102.164573 C238.517464,102.164573 208.345992,131.155165 205.247442,168.049894 L232.609212,168.049894 C235.340138,146.254431 253.695107,129.422031 275.936392,129.422031 Z M340.50702,184.094506 L206.219021,184.094506 C189.991023,184.094506 176.835315,197.250563 176.835315,213.478992 L176.835315,308.039791 C176.835315,324.26822 189.991023,337.424276 206.219021,337.424276 L340.533279,337.424276 C356.787536,337.424276 369.916985,324.26822 369.916985,308.039791 L369.916985,213.505252 C369.916985,197.276823 356.735018,184.094506 340.50702,184.094506 Z M285.862255,263.293442 L285.862255,284.642492 C285.862255,291.863881 280.006521,297.69351 272.811584,297.69351 C265.590387,297.69351 259.760912,291.837621 259.760912,284.642492 L259.760912,263.608557 C256.24222,260.22107 254.036472,255.494343 254.036472,250.216164 C254.036472,239.948663 262.386802,231.598112 272.65403,231.598112 C282.921259,231.598112 291.271588,239.948663 291.271588,250.216164 C291.21907,255.310526 289.170876,259.932214 285.862255,263.293442 L285.862255,263.293442 Z" id="形状" fill="url(#linearGradient-1)"></path>
                <polyline id="路径-4" stroke="#FF9D00" points="214.326902 50.5963752 214.326902 112.474759 272.43886 170.586718 272.43886 247.272935"></polyline>
                <polyline id="路径-5" stroke="#FF9D00" points="151.192023 131.220552 186.39743 166.425959 186.39743 244.844384"></polyline>
                <polyline id="路径-6" stroke="#FF9D00" points="397.098385 137.483925 333.533678 201.048631 333.533678 262.608271"></polyline>
                <polygon id="多边形" fill="url(#linearGradient-2)" points="118.723357 74.9831725 151.192023 93.7289657 151.192023 131.220552 118.723357 149.966345 86.2546904 131.220552 86.2546904 93.7289657"></polygon>
                <polygon id="多边形备份-2" fill="url(#linearGradient-2)" points="438.339129 64.6729863 479.736679 88.5738726 479.736679 136.375645 438.339129 160.276531 396.94158 136.375645 396.94158 88.5738726"></polygon>
                <polygon id="多边形备份" fill="url(#linearGradient-2)" points="214.326902 0 246.795568 18.7457931 246.795568 56.2373794 214.326902 74.9831725 181.858235 56.2373794 181.858235 18.7457931"></polygon>
                <polygon id="多边形备份-32" fill="url(#linearGradient-2)" opacity="0.1" points="113.099619 80.6069105 145.568285 99.3527036 145.568285 136.84429 113.099619 155.590083 80.6309524 136.84429 80.6309524 99.3527036"></polygon>
                <polygon id="多边形备份-31" fill="url(#linearGradient-2)" opacity="0.1" points="432.715392 70.2967243 474.112941 94.1976105 474.112941 141.999383 432.715392 165.900269 391.317842 141.999383 391.317842 94.1976105"></polygon>
                <polygon id="多边形备份-30" fill="url(#linearGradient-2)" opacity="0.1" points="208.703164 5.62373794 241.17183 24.3695311 241.17183 61.8611173 208.703164 80.6069105 176.234497 61.8611173 176.234497 24.3695311"></polygon>
                <text id="Active-Directory" font-family="PingFangSC-Regular, PingFang SC" font-size="16" font-weight="normal" fill="#FFFFFF">
                    <tspan x="409.025578" y="106.537469">Active</tspan>
                    <tspan x="409.025578" y="128.537469">Directory</tspan>
                </text>
                <text id="SSO" font-family="PingFangSC-Regular, PingFang SC" font-size="16" font-weight="normal" fill="#FFFFFF">
                    <tspan x="101.754712" y="118.474759">SSO</tspan>
                </text>
                <text id="LDAP" font-family="PingFangSC-Regular, PingFang SC" font-size="16" font-weight="normal" fill="#FFFFFF">
                    <tspan x="193.326902" y="43.4915863">LDAP</tspan>
                </text>
                <rect id="矩形" fill="url(#linearGradient-3)" x="41.335794" y="217.4512" width="164.617987" height="21.5576621"></rect>
                <rect id="矩形备份-12" fill="url(#linearGradient-4)" x="82.0718073" y="254.942787" width="115.365088" height="21.5576621"></rect>
                <rect id="矩形备份-16" fill="url(#linearGradient-5)" x="396.098609" y="263.378394" width="74.8753428" height="21.5576621"></rect>
                <rect id="矩形备份-21" fill="url(#linearGradient-5)" x="482.124657" y="263.378394" width="74.8753428" height="21.5576621"></rect>
                <rect id="矩形备份-19" fill="url(#linearGradient-6)" x="25.3816279" y="254.942787" width="36.2594684" height="21.5576621"></rect>
                <rect id="矩形备份-25" fill="url(#linearGradient-7)" x="0" y="290.559794" width="23.9312492" height="21.5576621"></rect>
                <rect id="矩形备份-13" fill="url(#linearGradient-8)" x="32.6335216" y="290.559794" width="108.053216" height="21.5576621"></rect>
                <rect id="矩形备份-17" fill="url(#linearGradient-5)" x="396.098609" y="298.9954" width="74.8753428" height="21.5576621"></rect>
                <rect id="矩形备份-22" fill="url(#linearGradient-5)" x="482.124657" y="298.9954" width="74.8753428" height="21.5576621"></rect>
                <rect id="矩形备份-14" fill="url(#linearGradient-8)" x="21.755681" y="181.834193" width="108.053216" height="21.5576621"></rect>
                <rect id="矩形备份-18" fill="url(#linearGradient-5)" x="396.098609" y="190.2698" width="74.8753428" height="21.5576621"></rect>
                <rect id="矩形备份-23" fill="url(#linearGradient-5)" x="482.124657" y="190.2698" width="74.8753428" height="21.5576621"></rect>
                <rect id="矩形备份-20" fill="url(#linearGradient-5)" x="396.098609" y="225.886807" width="74.8753428" height="21.5576621"></rect>
                <rect id="矩形备份-24" fill="url(#linearGradient-5)" x="482.124657" y="225.886807" width="74.8753428" height="21.5576621"></rect>
                <circle id="椭圆形" fill="url(#linearGradient-2)" cx="175.898026" cy="325.239511" r="34.6797173"></circle>
                <g id="226角色、群体" transform="translate(151.528495, 301.807269)" fill="#FFFFFF" fill-rule="nonzero">
                    <rect id="矩形" opacity="0" x="0" y="0" width="45.9271932" height="45.9271932"></rect>
                    <path d="M30.7020943,20.5911031 C34.4805432,21.047873 37.6112581,17.9207565 37.1074649,14.266598 C36.7835978,11.736796 34.7324398,9.73403602 32.1774887,9.41781077 C28.3990397,8.96104095 25.2323397,12.0530212 25.7361329,15.7423159 C26.0599999,18.2721179 28.1471431,20.2748779 30.7020943,20.5911031 L30.7020943,20.5911031 Z M16.0201213,20.5911031 C19.7985703,21.047873 22.9292851,17.9207565 22.4254919,14.266598 C22.1016249,11.736796 20.0144816,9.73403602 17.4595305,9.41781077 C13.6810815,8.96104095 10.5143815,12.0530212 11.0181747,15.7423159 C11.3780269,18.2721179 13.4291849,20.2748779 16.0201213,20.5911031 L16.0201213,20.5911031 Z M16.5239145,23.4371304 C12.2776576,23.4371304 3.74915863,25.580435 3.74915863,29.8319078 L3.74915863,36.7888635 C3.74915863,37.175361 4.07302568,37.4915863 4.46886318,37.4915863 L28.5789659,37.4915863 C28.9748034,37.4915863 29.2986704,37.175361 29.2986704,36.7888635 L29.2986704,29.8319078 C29.2986704,25.580435 20.7701714,23.4371304 16.5239145,23.4371304 Z M31.0259614,23.4371304 C30.486183,23.4371304 29.8744341,23.4722666 29.2267,23.5425389 C31.3858136,25.0533929 32.8971932,27.1264251 32.8971932,29.8319078 L32.8971932,36.7888635 C32.8971932,37.175361 33.2210603,37.4915863 33.6168978,37.4915863 L43.3329093,37.4915863 C43.7287468,37.4915863 44.0526139,37.175361 44.0526139,36.7888635 L44.0526139,29.8319078 C44.0526139,25.580435 35.3801739,23.4371304 31.0259614,23.4371304 L31.0259614,23.4371304 Z" id="形状"></path>
                </g>
                <g id="变更" transform="translate(315.554184, 41.240745)" fill="#4A02BC" fill-rule="nonzero">
                    <rect id="矩形" opacity="0" x="0" y="0" width="40.3034552" height="40.3034552"></rect>
                    <path d="M31.7688168,20.4053605 C31.7696021,21.1720987 31.6965944,21.9370668 31.5508423,22.6892777 L33.8580005,23.1567695 C34.034149,22.2506403 34.1227814,21.3291034 34.1226316,20.4053605 C34.1253353,16.6800854 32.6744379,13.1066184 30.0897331,10.4726004 C27.5050283,7.83858231 23.9986966,6.36024179 20.3435814,6.36342013 L20.3435814,8.76081909 C26.653475,8.76103975 31.7686003,13.9743493 31.7688168,20.4053605 L31.7688168,20.4053605 Z M8.9183459,20.4053605 C8.91778856,19.3806418 9.04960129,18.3603078 9.31038637,17.3706595 L7.03851184,16.7477366 C5.91911427,20.9675196 6.79242987,25.4779402 9.400745,28.9479826 C12.0090601,32.4180249 16.0546175,34.4515595 20.3435814,34.4484978 L20.3435814,32.0511005 C17.3132486,32.0509946 14.4070774,30.8239639 12.2644189,28.6399525 C10.1217603,26.4559411 8.91813794,23.4938601 8.9183459,20.4053605 L8.9183459,20.4053605 Z M7.95745471,4.68644828 L17.5608781,4.68644828 C17.8745105,4.68644828 18.0313267,4.84627454 18.0313267,5.16592705 L18.0313267,14.9536869 C18.0313267,15.2733394 17.8745105,15.4331657 17.5608781,15.4331657 L7.95745471,15.4331657 C7.64382233,15.4331657 7.48700614,15.2733394 7.48700614,14.9536869 L7.48700614,5.16592705 C7.48700614,4.84627454 7.64382233,4.68644828 7.95745471,4.68644828 L7.95745471,4.68644828 Z M22.6813187,24.7834012 L34.2092687,24.7834012 C34.5229011,24.7834012 34.6797173,24.9432274 34.6797173,25.2628799 L34.6797173,37.0121075 C34.6797173,37.33176 34.5229011,37.4915863 34.2092687,37.4915863 L22.6813187,37.4915863 C22.3676863,37.4915863 22.2108701,37.33176 22.2108701,37.0121075 L22.2108701,25.2628799 C22.2108701,24.9432274 22.3676863,24.7834012 22.6813187,24.7834012 L22.6813187,24.7834012 Z" id="形状"></path>
                </g>
                <circle id="椭圆形备份-28" fill="#4A02BC" cx="494.619725" cy="167.781623" r="6.09238277"></circle>
                <circle id="椭圆形备份-27" fill="#FF9D00" cx="33.5763452" cy="102.05361" r="14.0593449"></circle>
            </g>
        </g>
    </g>
</svg>