<?xml version="1.0" encoding="UTF-8"?>
<svg width="587px" height="360px" viewBox="0 0 587 360" version="1.1" xmlns="http://www.w3.org/2000/svg" xmlns:xlink="http://www.w3.org/1999/xlink">
    <title>编组 8</title>
    <defs>
        <linearGradient x1="0%" y1="50%" x2="94.2678881%" y2="49.7412014%" id="linearGradient-1">
            <stop stop-color="#B0C8FF" stop-opacity="0" offset="0%"></stop>
            <stop stop-color="#739DFF" offset="100%"></stop>
        </linearGradient>
        <linearGradient x1="0%" y1="50%" x2="94.2678881%" y2="49.7211878%" id="linearGradient-2">
            <stop stop-color="#B0C8FF" stop-opacity="0" offset="0%"></stop>
            <stop stop-color="#739DFF" offset="100%"></stop>
        </linearGradient>
        <linearGradient x1="0%" y1="50%" x2="94.2678881%" y2="49.9822194%" id="linearGradient-3">
            <stop stop-color="#B0C8FF" stop-opacity="0" offset="0%"></stop>
            <stop stop-color="#739DFF" offset="100%"></stop>
        </linearGradient>
        <linearGradient x1="0%" y1="50%" x2="94.2678881%" y2="49.9551902%" id="linearGradient-4">
            <stop stop-color="#B0C8FF" stop-opacity="0" offset="0%"></stop>
            <stop stop-color="#739DFF" offset="100%"></stop>
        </linearGradient>
        <linearGradient x1="0%" y1="50%" x2="94.2678881%" y2="49.9661569%" id="linearGradient-5">
            <stop stop-color="#B0C8FF" stop-opacity="0" offset="0%"></stop>
            <stop stop-color="#739DFF" offset="100%"></stop>
        </linearGradient>
        <linearGradient x1="0%" y1="50%" x2="94.2678881%" y2="49.926911%" id="linearGradient-6">
            <stop stop-color="#B0C8FF" stop-opacity="0" offset="0%"></stop>
            <stop stop-color="#739DFF" offset="100%"></stop>
        </linearGradient>
        <linearGradient x1="-43.013937%" y1="67.3688532%" x2="74.8005229%" y2="67.3688532%" id="linearGradient-7">
            <stop stop-color="#B0C8FF" stop-opacity="0" offset="0%"></stop>
            <stop stop-color="#B0C8FF" stop-opacity="0.0105162125" offset="0%"></stop>
            <stop stop-color="#739DFF" offset="100%"></stop>
        </linearGradient>
        <linearGradient x1="-43.013937%" y1="67.3688532%" x2="74.8005229%" y2="67.3688532%" id="linearGradient-8">
            <stop stop-color="#B0C8FF" stop-opacity="0" offset="0%"></stop>
            <stop stop-color="#B0C8FF" stop-opacity="0.0105162125" offset="0%"></stop>
            <stop stop-color="#739DFF" offset="100%"></stop>
        </linearGradient>
        <linearGradient x1="-43.013937%" y1="67.3688532%" x2="74.8005229%" y2="67.3688532%" id="linearGradient-9">
            <stop stop-color="#B0C8FF" stop-opacity="0" offset="0%"></stop>
            <stop stop-color="#B0C8FF" stop-opacity="0.0105162125" offset="0%"></stop>
            <stop stop-color="#739DFF" offset="100%"></stop>
        </linearGradient>
        <linearGradient x1="93.9944314%" y1="0%" x2="8.6904401%" y2="97.5187142%" id="linearGradient-10">
            <stop stop-color="#0098F5" offset="0%"></stop>
            <stop stop-color="#005FE8" offset="100%"></stop>
        </linearGradient>
        <linearGradient x1="60.7982996%" y1="31.2137557%" x2="8.6904401%" y2="97.5187142%" id="linearGradient-11">
            <stop stop-color="#0098F5" offset="0%"></stop>
            <stop stop-color="#0097F5" offset="24.0840332%"></stop>
            <stop stop-color="#005FE8" offset="100%"></stop>
        </linearGradient>
        <linearGradient x1="83.3281847%" y1="-16.3157921%" x2="54.2063769%" y2="46.3459093%" id="linearGradient-12">
            <stop stop-color="#B0C8FF" stop-opacity="0" offset="0%"></stop>
            <stop stop-color="#739DFF" offset="100%"></stop>
        </linearGradient>
        <linearGradient x1="83.3281847%" y1="-16.3157921%" x2="54.2063769%" y2="46.3459093%" id="linearGradient-13">
            <stop stop-color="#005FE8" stop-opacity="0" offset="0%"></stop>
            <stop stop-color="#005FE8" offset="100%"></stop>
        </linearGradient>
    </defs>
    <g id="页面-1" stroke="none" stroke-width="1" fill="none" fill-rule="evenodd">
        <g id="首页" transform="translate(-1033.000000, -5694.000000)">
            <g id="编组-8" transform="translate(1033.000000, 5694.000000)">
                <path d="M202.459966,44.1630094 L290.785985,44.1630094 C297.899897,44.1630094 303.666862,49.9299748 303.666862,57.0438871 C303.666862,64.1577995 297.899897,69.9247649 290.785985,69.9247649 L202.459966,69.9247649 C195.346053,69.9247649 189.579088,64.1577995 189.579088,57.0438871 C189.579088,49.9299748 195.346053,44.1630094 202.459966,44.1630094 Z" id="矩形备份-28" fill="url(#linearGradient-1)" transform="translate(246.622975, 57.043887) rotate(-90.000000) translate(-246.622975, -57.043887) "></path>
                <path d="M25.4312096,229.932361 L70.5142817,229.932361 C74.3253062,229.932361 77.4147519,233.021807 77.4147519,236.832831 C77.4147519,240.643856 74.3253062,243.733302 70.5142817,243.733302 L25.4312096,243.733302 C21.6201852,243.733302 18.5307394,240.643856 18.5307394,236.832831 C18.5307394,233.021807 21.6201852,229.932361 25.4312096,229.932361 Z" id="矩形备份-42" fill="url(#linearGradient-2)" transform="translate(47.972746, 236.832831) rotate(-90.000000) translate(-47.972746, -236.832831) "></path>
                <path d="M49.1401117,164.231191 L178.229453,164.231191 C180.438592,164.231191 182.229453,166.022052 182.229453,168.231191 L182.229453,168.34513 C182.229453,170.554269 180.438592,172.34513 178.229453,172.34513 L49.1401117,172.34513 C46.9309727,172.34513 45.1401117,170.554269 45.1401117,168.34513 L45.1401117,168.231191 C45.1401117,166.022052 46.9309727,164.231191 49.1401117,164.231191 Z" id="矩形备份-37" fill="url(#linearGradient-3)" transform="translate(113.684783, 168.288161) rotate(-90.000000) translate(-113.684783, -168.288161) "></path>
                <path d="M88.3985349,189.072884 L217.487877,189.072884 C219.697016,189.072884 221.487877,190.863745 221.487877,193.072884 L221.487877,193.186823 C221.487877,195.395962 219.697016,197.186823 217.487877,197.186823 L88.3985349,197.186823 C86.1893959,197.186823 84.3985349,195.395962 84.3985349,193.186823 L84.3985349,193.072884 C84.3985349,190.863745 86.1893959,189.072884 88.3985349,189.072884 Z" id="矩形备份-38" fill="url(#linearGradient-3)" transform="translate(152.943206, 193.129853) rotate(-90.000000) translate(-152.943206, -193.129853) "></path>
                <path d="M397.59657,187.609477 L521.805034,187.609477 C525.36199,187.609477 528.245473,190.49296 528.245473,194.049916 C528.245473,197.606872 525.36199,200.490355 521.805034,200.490355 L397.59657,200.490355 C394.039614,200.490355 391.156131,197.606872 391.156131,194.049916 C391.156131,190.49296 394.039614,187.609477 397.59657,187.609477 Z" id="矩形备份-39" fill="url(#linearGradient-4)" transform="translate(459.700802, 194.049916) rotate(-90.000000) translate(-459.700802, -194.049916) "></path>
                <path d="M496.446341,233.695925 L587.813112,233.695925 C590.022251,233.695925 591.813112,235.486786 591.813112,237.695925 L591.813112,237.809864 C591.813112,240.019002 590.022251,241.809864 587.813112,241.809864 L496.446341,241.809864 C494.237202,241.809864 492.446341,240.019002 492.446341,237.809864 L492.446341,237.695925 C492.446341,235.486786 494.237202,233.695925 496.446341,233.695925 Z" id="矩形备份-40" fill="url(#linearGradient-5)" transform="translate(542.129726, 237.752894) rotate(-90.000000) translate(-542.129726, -237.752894) "></path>
                <path d="M315.794303,40.4827586 L396.75982,40.4827586 C399.80864,40.4827586 402.280196,42.9543152 402.280196,46.0031348 C402.280196,49.0519544 399.80864,51.523511 396.75982,51.523511 L315.794303,51.523511 C312.745483,51.523511 310.273927,49.0519544 310.273927,46.0031348 C310.273927,42.9543152 312.745483,40.4827586 315.794303,40.4827586 Z" id="矩形备份-41" fill="url(#linearGradient-6)" transform="translate(356.277062, 46.003135) rotate(-90.000000) translate(-356.277062, -46.003135) "></path>
                <ellipse id="椭圆形" fill="url(#linearGradient-7)" opacity="0.1782539" cx="293.5" cy="305.464694" rx="168.371473" ry="17.1035535"></ellipse>
                <ellipse id="椭圆形" fill="url(#linearGradient-8)" opacity="0.1782539" cx="293.5" cy="310.065007" rx="235.53605" ry="30.362069"></ellipse>
                <ellipse id="椭圆形" fill="url(#linearGradient-9)" opacity="0.1782539" cx="293.5" cy="316.505446" rx="293.5" ry="43.2429467"></ellipse>
                <g id="员工渠道APP-指标" transform="translate(45.672589, 132.865747)" fill="#005FE8" fill-rule="nonzero">
                    <rect id="矩形" opacity="0" x="0" y="0" width="41.4028213" height="41.4028213"></rect>
                    <path d="M21.161442,34.0423197 C17.5547962,34.0423197 14.7210031,31.2085266 14.7210031,27.6018809 C14.7210031,23.9952351 17.5547962,21.161442 21.161442,21.161442 C24.7680878,21.161442 27.6018809,23.9952351 27.6018809,27.6018809 C27.6018809,31.2085266 24.7680878,34.0423197 21.161442,34.0423197 Z M21.161442,23.7376176 C18.9716928,23.7376176 17.2971787,25.4121317 17.2971787,27.6018809 C17.2971787,29.7916301 18.9716928,31.4661442 21.161442,31.4661442 C23.3511912,31.4661442 25.0257053,29.7916301 25.0257053,27.6018809 C25.0257053,25.4121317 23.3511912,23.7376176 21.161442,23.7376176 Z M35.937947,11.0559297 L37.7595607,12.8775434 L25.7369101,24.9001941 L23.9152964,23.0785803 L35.937947,11.0559297 Z M2.48416928,32.2389969 C2.09774295,30.6932915 1.84012539,29.1475862 1.84012539,27.6018809 C1.84012539,16.9107524 10.4703135,8.28056426 21.161442,8.28056426 C24.639279,8.28056426 28.117116,9.18222571 31.0797179,10.9855486 L29.7916301,13.1752978 C27.2154545,11.6295925 24.2528527,10.8567398 21.161442,10.8567398 C11.88721,10.8567398 4.41630094,18.3276489 4.41630094,27.6018809 C4.41630094,28.8899687 4.54510972,30.3068652 4.93153605,31.7237618 L2.48416928,32.2389969 Z M39.8387147,32.2389969 L37.391348,31.594953 C37.7777743,30.3068652 37.9065831,28.8899687 37.9065831,27.6018809 C37.9065831,24.639279 37.1337304,21.8054859 35.7168339,19.2293103 L37.9065831,17.9412226 C39.5810972,20.9038245 40.4827586,24.2528527 40.4827586,27.6018809 C40.4827586,29.1475862 40.2251411,30.6932915 39.8387147,32.2389969 Z" id="形状"></path>
                </g>
                <g id="指标" transform="translate(493.743122, 139.306186)" fill="#4A02BC" fill-rule="nonzero">
                    <rect id="矩形" opacity="0" x="0" y="0" width="34.9623824" height="34.9623824"></rect>
                    <path d="M10.580721,19.5513323 L4.83032914,19.5513323 C4.14028212,19.5513323 3.68025078,19.0913009 3.68025078,18.4012539 C3.68025078,17.7112069 4.14028212,17.2511755 4.83032914,17.2511755 L10.580721,17.2511755 C11.270768,17.2511755 11.7307994,17.7112069 11.7307994,18.4012539 C11.7307994,19.091301 11.270768,19.5513323 10.580721,19.5513323 Z M31.2821317,18.4012539 C31.2821317,17.7112069 30.8221003,17.2511755 30.1320533,17.2511755 L24.3816614,17.2511755 C23.6916144,17.2511755 23.2315831,17.7112069 23.2315831,18.4012539 C23.2315831,19.091301 23.6916144,19.5513323 24.3816614,19.5513323 L30.1320533,19.5513323 C30.8221003,19.5513323 31.2821317,18.9762931 31.2821317,18.4012539 Z M18.6312696,31.052116 L18.6312696,25.3017241 C18.6312696,24.6116771 18.1712382,24.1516457 17.4811912,24.1516457 C16.7911442,24.1516457 16.3311129,24.6116771 16.3311129,25.3017241 L16.3311129,31.052116 C16.3311129,31.742163 16.7911442,32.2021944 17.4811912,32.2021944 C18.1712382,32.2021944 18.6312696,31.6271552 18.6312696,31.052116 Z M18.6312696,11.5007837 L18.6312696,5.75039184 C18.6312696,5.06034482 18.1712382,4.60031348 17.4811912,4.60031348 C16.7911442,4.60031348 16.3311129,5.06034482 16.3311129,5.75039184 L16.3311129,11.5007837 C16.3311129,12.1908307 16.7911442,12.6508621 17.4811912,12.6508621 C18.1712382,12.6508621 18.6312696,12.0758229 18.6312696,11.5007837 Z M28.5219436,14.8360109 C29.0969828,14.6059953 29.3269984,13.9159482 29.0969828,13.3409091 C27.8318966,10.3507053 25.5317398,8.05054859 22.5415361,6.78546237 C21.9664969,6.55544669 21.2764498,6.78546237 21.0464342,7.36050157 C20.8164185,7.93554076 21.0464342,8.62558779 21.6214734,8.85560344 C24.0366379,9.89067397 25.8767633,11.8458072 26.9118338,14.1459639 C27.1418495,14.6059953 27.486873,14.8360109 27.9469044,14.8360109 C28.1769201,14.9510188 28.2919279,14.8360109 28.5219436,14.8360109 L28.5219436,14.8360109 Z M7.93554074,14.2609718 C8.97061127,11.8458072 10.9257445,10.0056818 13.3409091,8.85560344 C13.9159483,8.62558775 14.1459639,7.93554073 13.9159483,7.36050157 C13.6859326,6.78546237 12.9958856,6.55544672 12.4208464,6.78546237 C9.43064264,8.05054859 7.13048589,10.3507053 5.86539968,13.3409091 C5.63538399,13.9159483 5.86539968,14.6059953 6.44043887,14.8360109 C6.5554467,14.9510188 6.78546238,14.9510188 6.90047021,14.9510188 C7.36050154,14.9510188 7.82053292,14.7210031 7.93554074,14.2609718 L7.93554074,14.2609718 Z M13.9159483,29.3269984 C14.145964,28.7519592 13.9159483,28.0619122 13.3409091,27.8318965 C10.9257445,26.796826 9.08561913,24.8416928 8.0505486,22.4265282 C7.82053292,21.851489 7.13048589,21.6214733 6.5554467,21.851489 C5.9804075,22.0815047 5.75039185,22.7715517 5.98040753,23.3465909 C7.24549375,26.3367947 9.54565047,28.6369514 12.5358542,29.9020376 C12.6508621,30.0170454 12.8808778,30.0170454 12.9958856,30.0170454 C13.3409091,30.0170454 13.6859326,29.7870297 13.9159483,29.3269984 Z M22.5415361,30.0170454 C25.416732,28.7519592 27.8318966,26.4518025 29.0969828,23.4615987 C29.3269985,22.8865595 29.0969828,22.1965125 28.5219436,21.9664969 C27.9469044,21.7364812 27.2568574,21.9664969 27.0268417,22.5415361 C25.9917712,24.9567006 24.0366379,26.796826 21.6214734,27.9469044 C21.0464342,28.1769201 20.8164185,28.8669671 21.0464342,29.4420063 C21.2764498,29.9020376 21.6214734,30.1320533 22.0815047,30.1320533 C22.1965125,30.0170455 22.4265282,30.0170455 22.5415361,30.0170454 L22.5415361,30.0170454 Z" id="形状"></path>
                </g>
                <g id="消息" transform="translate(420.138106, 48.219979)" fill="#FF9D00" fill-rule="nonzero">
                    <rect id="矩形" opacity="0" x="0" y="0" width="44.1630094" height="44.1630094"></rect>
                    <path d="M2.76018809,41.4028213 L3.39343478,39.0831939 C3.41351587,39.0100893 5.37449462,31.6325168 3.37162257,21.4252674 L3.3473435,21.1785067 C3.3473435,11.0225687 11.8831472,2.76018809 22.3750824,2.76018809 C32.8668445,2.76018809 41.4028213,11.0226118 41.4028213,21.1785067 C41.4028213,31.3356532 32.8668878,39.5988537 22.3750824,39.5988537 L22.1494298,39.579175 C20.2185727,39.2363081 18.1821168,39.0627384 16.0978384,39.0627384 C9.85006692,39.0627384 5.09271023,40.6250378 5.04484453,40.6409188 L2.76018809,41.4028213 L2.76018809,41.4028213 Z M5.92473372,21.0572842 C7.38758033,28.6082968 6.81968372,34.6071085 6.31895489,37.6305948 C8.4158272,37.1329307 11.9225736,36.4935022 16.0978817,36.4935022 C18.2920867,36.4935022 20.4408929,36.6737609 22.4857881,37.0291428 C31.5055719,36.9714013 38.8262534,29.8829246 38.8262534,21.1785499 C38.8262534,12.4394354 31.4461076,5.32955377 22.3750391,5.32955377 C13.346037,5.32955377 5.9926805,12.3737534 5.92473372,21.0572842 Z M15.500729,21.7342575 C15.500729,22.7107701 14.7064874,23.5031401 13.7259764,23.5031401 C12.7462877,23.5031401 11.9519595,22.7107701 11.9519595,21.7342575 C11.9519595,20.7573997 12.7462444,19.9649866 13.7259764,19.9649866 C14.7064441,19.9649866 15.5008156,20.7573997 15.5008156,21.7342575 L15.500729,21.7342575 Z M13.7259764,23.9314109 C12.5105946,23.9314109 11.5225099,22.9457926 11.5225099,21.7342575 C11.5225099,20.5223773 12.5105513,19.5368021 13.7259764,19.5368021 C14.941315,19.5368021 15.9301354,20.5224204 15.9301354,21.7342575 C15.9301354,22.9457926 14.9412717,23.9313246 13.7259764,23.9313246 L13.7259764,23.9314109 L13.7259764,23.9314109 Z M13.7259764,20.3931711 C12.9844909,20.3931711 12.3814524,20.994882 12.3814524,21.7342575 C12.3814524,22.4736331 12.9844909,23.0749557 13.7259764,23.0749557 C14.4673321,23.0749557 15.0713227,22.4736331 15.0713227,21.7342575 C15.0712794,20.994882 14.4672888,20.3931711 13.7259764,20.3931711 Z M24.1481472,21.8342047 C24.1481472,22.8106741 23.3547279,23.6035188 22.3750824,23.6035188 C21.3945714,23.6035188 20.6002432,22.8106741 20.6002432,21.8342478 C20.6002432,20.8577784 21.3945714,20.0653221 22.3750824,20.0653221 C23.3547279,20.0653221 24.1481472,20.8578215 24.1481472,21.8342047 L24.1481472,21.8342047 Z M22.3751257,24.0317464 C21.1597439,24.0317464 20.1708801,23.0461281 20.1708801,21.8342047 C20.1708801,20.6227991 21.1597439,19.6371376 22.3751257,19.6371376 C23.5895554,19.6371376 24.5775968,20.6228423 24.5775968,21.8342047 C24.5775968,23.0461281 23.5895554,24.0317464 22.3751257,24.0317464 Z M22.3751257,20.4935929 C21.6335969,20.4935929 21.0297361,21.0948723 21.0297361,21.834291 C21.0297361,22.5736665 21.6335969,23.1752912 22.3751257,23.1752912 C23.1157023,23.1752912 23.7186976,22.5735802 23.7186976,21.8342047 C23.7186976,21.0948291 23.1157023,20.4935066 22.3751257,20.4935066 L22.3751257,20.4935929 L22.3751257,20.4935929 Z M32.7972532,21.6338357 C32.7972532,22.6103483 32.0030116,23.4028478 31.0233661,23.4028478 C30.0428551,23.4028478 29.2493492,22.6103483 29.2493492,21.6338357 C29.2493492,20.6574526 30.0428551,19.8645648 31.0233661,19.8645648 C32.0030116,19.8645648 32.7972532,20.6574526 32.7972532,21.6338357 Z M31.0233228,23.8310754 C29.8080708,23.8310754 28.8200294,22.8454139 28.8200294,21.6338789 C28.8200294,20.4220849 29.8080708,19.4364235 31.0233661,19.4364235 C32.2387047,19.4364235 33.2267028,20.4220849 33.2267028,21.6338789 C33.2267028,22.8454139 32.2386614,23.8310754 31.0233661,23.8310754 L31.0233228,23.8310754 Z M31.0233228,20.2927924 C30.2819239,20.2927924 29.6788854,20.8945465 29.6788854,21.6338789 C29.6788854,22.3732976 30.2819239,22.9746201 31.0234094,22.9746201 C31.7648949,22.9746201 32.3678468,22.3732976 32.3678468,21.633922 C32.3678036,20.8945465 31.7647651,20.2927924 31.0233228,20.2927924 Z" id="形状"></path>
                </g>
                <g id="红绿灯" transform="translate(157.000175, 55.580480) rotate(-90.000000) translate(-157.000175, -55.580480) translate(112.837166, 11.417471)" fill-rule="nonzero">
                    <rect id="矩形" fill="#000000" opacity="0" x="0" y="0" width="88.3260188" height="88.3260188"></rect>
                    <path d="M44.6230406,82.8056426 C34.7557989,82.8056426 26.6818182,74.7062767 26.6818182,64.8080116 L26.6818182,23.5180072 C26.6818182,13.6197422 34.7557989,5.52037618 44.6230406,5.52037618 C54.4902823,5.52037618 62.5642633,13.6197422 62.5642633,23.5180072 L62.5642633,64.8080116 C62.5659857,74.7062767 54.4920049,82.8056426 44.6230406,82.8056426 L44.6230406,82.8056426 Z" id="路径" fill="#0066EA"></path>
                    <path d="M35.8824451,23.4615987 C35.8824451,28.2888964 39.7957431,32.2021944 44.6230408,32.2021944 C49.4503384,32.2021944 53.3636364,28.2888964 53.3636364,23.4615987 C53.3636364,18.6343011 49.4503384,14.7210031 44.6230408,14.7210031 C39.7957431,14.7210031 35.8824451,18.6343011 35.8824451,23.4615987 L35.8824451,23.4615987 Z" id="路径" fill="#E95456"></path>
                    <path d="M35.8824451,44.6230408 C35.8824451,49.4503384 39.7957431,53.3636364 44.6230408,53.3636364 C49.4503384,53.3636364 53.3636364,49.4503384 53.3636364,44.6230408 C53.3636364,39.7957431 49.4503384,35.8824451 44.6230408,35.8824451 C39.7957431,35.8824451 35.8824451,39.7957431 35.8824451,44.6230408 L35.8824451,44.6230408 Z" id="路径" fill="#F5B443"></path>
                    <path d="M35.8824451,64.8644201 C35.8824451,69.6917177 39.7957431,73.6050157 44.6230408,73.6050157 C49.4503384,73.6050157 53.3636364,69.6917177 53.3636364,64.8644201 C53.3636364,60.0371224 49.4503384,56.1238245 44.6230408,56.1238245 C39.7957431,56.1238245 35.8824451,60.0371224 35.8824451,64.8644201 L35.8824451,64.8644201 Z" id="路径" fill="#35B387"></path>
                </g>
                <g id="紧急告警" opacity="0.104429699" transform="translate(168.960990, 77.661985)">
                    <rect id="矩形" fill="#005FE8" fill-rule="nonzero" opacity="0" x="0" y="0" width="239.216301" height="239.216301"></rect>
                    <path d="M120.528213,53.3636364 C161.90505,53.3636364 195.447604,86.832632 195.447604,128.11873 L195.447604,128.11873 L195.447604,210.349334 L221.669391,210.349334 C223.738233,210.349334 225.415361,212.022784 225.415361,214.087089 L225.415361,214.087089 L225.415361,229.038107 C225.415361,231.102412 223.738233,232.775862 221.669391,232.775862 L221.669391,232.775862 L19.3870354,232.775862 C17.3181935,232.775862 15.6410658,231.102412 15.6410658,229.038107 L15.6410658,229.038107 L15.6410658,214.087089 C15.6410658,212.022784 17.3181935,210.349334 19.3870354,210.349334 L19.3870354,210.349334 L45.6088222,210.349334 L45.6088222,128.11873 C45.6088222,86.832632 79.1513761,53.3636364 120.528213,53.3636364 Z M127.196732,102.757591 L88.7629092,147.515389 C88.2964287,148.07476 88.1943941,148.852554 88.5008413,149.513094 C88.8072884,150.173633 89.467352,150.598656 90.1961627,150.604732 L114.146582,150.604732 L109.658236,181.912586 C109.563884,182.728615 110.009795,183.511624 110.76022,183.847645 C111.510646,184.183665 112.392531,183.995207 112.939632,183.381908 L151.373454,138.624109 C151.839935,138.064739 151.94197,137.286944 151.635522,136.626405 C151.329075,135.965865 150.669012,135.540842 149.940201,135.534766 L125.989782,135.534766 L130.478128,104.226913 C130.572479,103.410884 130.126568,102.627874 129.376143,102.291854 C128.625718,101.955833 127.743833,102.144291 127.196732,102.757591 Z" id="形状结合" fill="url(#linearGradient-13)"></path>
                    <polygon id="路径" fill="#005FE8" fill-rule="nonzero" points="109.487461 8.28056426 131.568966 8.28056426 131.568966 37.7225705 109.487461 37.7225705"></polygon>
                    <polygon id="路径" fill="#005FE8" fill-rule="nonzero" points="50.6034483 29.5218485 69.8385669 18.4012539 84.645768 44.0831671 65.4106494 55.2037618"></polygon>
                    <polygon id="路径" fill="#005FE8" fill-rule="nonzero" points="10.1206897 77.1990684 21.2412843 57.9639498 46.9231975 72.771151 35.8026029 92.0062696"></polygon>
                    <polygon id="路径" fill="#005FE8" fill-rule="nonzero" points="192.293103 72.7711511 217.975017 57.9639498 229.095611 77.1990683 203.413698 92.0062696"></polygon>
                    <polygon id="路径" fill="#005FE8" fill-rule="nonzero" points="154.570533 44.0831671 169.377734 18.4012539 188.612853 29.5218485 173.805652 55.2037618 154.570533 44.0831671"></polygon>
                </g>
                <g id="紧急告警" transform="translate(174.481366, 77.661985)">
                    <rect id="矩形" fill="#005FE8" fill-rule="nonzero" opacity="0" x="0" y="0" width="239.216301" height="239.216301"></rect>
                    <path d="M120.528213,53.3636364 C161.90505,53.3636364 195.447604,86.832632 195.447604,128.11873 L195.447604,128.11873 L195.447604,210.349334 L221.669391,210.349334 C223.738233,210.349334 225.415361,212.022784 225.415361,214.087089 L225.415361,214.087089 L225.415361,229.038107 C225.415361,231.102412 223.738233,232.775862 221.669391,232.775862 L221.669391,232.775862 L19.3870354,232.775862 C17.3181935,232.775862 15.6410658,231.102412 15.6410658,229.038107 L15.6410658,229.038107 L15.6410658,214.087089 C15.6410658,212.022784 17.3181935,210.349334 19.3870354,210.349334 L19.3870354,210.349334 L45.6088222,210.349334 L45.6088222,128.11873 C45.6088222,86.832632 79.1513761,53.3636364 120.528213,53.3636364 Z M127.196732,102.757591 L88.7629092,147.515389 C88.2964287,148.07476 88.1943941,148.852554 88.5008413,149.513094 C88.8072884,150.173633 89.467352,150.598656 90.1961627,150.604732 L114.146582,150.604732 L109.658236,181.912586 C109.563884,182.728615 110.009795,183.511624 110.76022,183.847645 C111.510646,184.183665 112.392531,183.995207 112.939632,183.381908 L151.373454,138.624109 C151.839935,138.064739 151.94197,137.286944 151.635522,136.626405 C151.329075,135.965865 150.669012,135.540842 149.940201,135.534766 L125.989782,135.534766 L130.478128,104.226913 C130.572479,103.410884 130.126568,102.627874 129.376143,102.291854 C128.625718,101.955833 127.743833,102.144291 127.196732,102.757591 Z" id="形状结合" fill="url(#linearGradient-13)"></path>
                    <polygon id="路径" fill="#005FE8" fill-rule="nonzero" points="109.487461 8.28056426 131.568966 8.28056426 131.568966 37.7225705 109.487461 37.7225705"></polygon>
                    <polygon id="路径" fill="#005FE8" fill-rule="nonzero" points="50.6034483 29.5218485 69.8385669 18.4012539 84.645768 44.0831671 65.4106494 55.2037618"></polygon>
                    <polygon id="路径" fill="#005FE8" fill-rule="nonzero" points="10.1206897 77.1990684 21.2412843 57.9639498 46.9231975 72.771151 35.8026029 92.0062696"></polygon>
                    <polygon id="路径" fill="#005FE8" fill-rule="nonzero" points="192.293103 72.7711511 217.975017 57.9639498 229.095611 77.1990683 203.413698 92.0062696"></polygon>
                    <polygon id="路径" fill="#005FE8" fill-rule="nonzero" points="154.570533 44.0831671 169.377734 18.4012539 188.612853 29.5218485 173.805652 55.2037618 154.570533 44.0831671"></polygon>
                </g>
            </g>
        </g>
    </g>
</svg>