<?xml version="1.0" encoding="UTF-8"?>
<svg width="594px" height="360px" viewBox="0 0 594 360" version="1.1" xmlns="http://www.w3.org/2000/svg" xmlns:xlink="http://www.w3.org/1999/xlink">
    <title>编组 2</title>
    <defs>
        <linearGradient x1="93.9944314%" y1="49.6766206%" x2="8.6904401%" y2="50.3073314%" id="linearGradient-1">
            <stop stop-color="#0098F5" offset="0%"></stop>
            <stop stop-color="#005FE8" offset="100%"></stop>
        </linearGradient>
        <linearGradient x1="0%" y1="44.9243779%" x2="94.2678881%" y2="44.9243779%" id="linearGradient-2">
            <stop stop-color="#B0C8FF" stop-opacity="0" offset="0%"></stop>
            <stop stop-color="#739DFF" offset="100%"></stop>
        </linearGradient>
        <linearGradient x1="93.9944314%" y1="0.0764893621%" x2="8.6904401%" y2="97.4460207%" id="linearGradient-3">
            <stop stop-color="#0098F5" offset="0%"></stop>
            <stop stop-color="#005FE8" offset="100%"></stop>
        </linearGradient>
        <linearGradient x1="93.9944314%" y1="49.6025025%" x2="8.6904401%" y2="50.3777714%" id="linearGradient-4">
            <stop stop-color="#0098F5" offset="0%"></stop>
            <stop stop-color="#005FE8" offset="100%"></stop>
        </linearGradient>
        <linearGradient x1="50%" y1="100%" x2="50%" y2="-161.145401%" id="linearGradient-5">
            <stop stop-color="#FFFFFF" offset="0%"></stop>
            <stop stop-color="#005FE8" offset="100%"></stop>
        </linearGradient>
        <linearGradient x1="86.0185901%" y1="50%" x2="-42.0049924%" y2="50%" id="linearGradient-6">
            <stop stop-color="#4A02BC" offset="0%"></stop>
            <stop stop-color="#FFFFFF" offset="100%"></stop>
        </linearGradient>
    </defs>
    <g id="网站-pc" stroke="none" stroke-width="1" fill="none" fill-rule="evenodd">
        <g id="Console" transform="translate(-300.000000, -1686.000000)">
            <g id="编组-2" transform="translate(300.000000, 1686.000000)">
                <rect id="矩形" stroke="#005FE8" fill="#0078EE" opacity="0.1" x="131.690706" y="48.6248863" width="409.723218" height="260.409747" rx="7"></rect>
                <rect id="矩形备份-136" stroke="#005FE8" fill="#FFFFFF" x="138.919514" y="40.5116959" width="409.723218" height="260.409747" rx="7"></rect>
                <rect id="矩形" fill="url(#linearGradient-1)" x="138.419514" y="40.0116959" width="410.723218" height="33.0309004" rx="5"></rect>
                <ellipse id="椭圆形" fill="#FFFFFF" cx="155.702609" cy="57.0285278" rx="3.8125509" ry="3.80963358"></ellipse>
                <ellipse id="椭圆形备份" fill="#FFFFFF" cx="169.046537" cy="57.0285278" rx="3.8125509" ry="3.80963358"></ellipse>
                <ellipse id="椭圆形备份-2" fill="#FFFFFF" cx="182.390465" cy="57.0285278" rx="3.8125509" ry="3.80963358"></ellipse>
                <rect id="矩形" fill="url(#linearGradient-2)" opacity="0.283022926" x="152.320915" y="88.9885483" width="384.184179" height="59.4444978" rx="3"></rect>
                <rect id="矩形备份-8" fill="url(#linearGradient-2)" opacity="0.283022926" x="152.320915" y="155.705272" width="384.184179" height="59.4444978" rx="3"></rect>
                <rect id="矩形备份-55" fill="url(#linearGradient-2)" opacity="0.283022926" x="152.320915" y="222.421996" width="384.184179" height="59.4444978" rx="3"></rect>
                <ellipse id="椭圆形备份-6" fill="url(#linearGradient-3)" cx="541.016447" cy="296.975698" rx="33.813528" ry="33.7876543"></ellipse>
                <rect id="矩形" fill="#DEE8FF" x="162.698719" y="99.6524036" width="142.640329" height="12.1303134"></rect>
                <rect id="矩形备份-9" fill="#DEE8FF" x="162.698719" y="166.369127" width="142.640329" height="12.1303134"></rect>
                <rect id="矩形备份-56" fill="#DEE8FF" x="162.698719" y="233.085851" width="142.640329" height="12.1303134"></rect>
                <rect id="矩形备份-49" fill="#DEE8FF" x="162.698719" y="189.618895" width="90.0353851" height="6.06515672"></rect>
                <rect id="矩形备份-50" fill="#DEE8FF" x="315.455384" y="189.618895" width="51.9479774" height="6.06515672"></rect>
                <rect id="矩形备份-51" fill="#DEE8FF" x="374.787096" y="189.618895" width="51.9479774" height="6.06515672"></rect>
                <rect id="矩形备份-44" fill="#DEE8FF" x="162.698719" y="125.934749" width="90.0353851" height="6.06515672"></rect>
                <rect id="矩形备份-60" fill="#DEE8FF" x="162.698719" y="254.3139" width="90.0353851" height="6.06515672"></rect>
                <rect id="矩形备份-46" fill="#DEE8FF" x="315.455384" y="125.934749" width="51.9479774" height="6.06515672"></rect>
                <rect id="矩形备份-61" fill="#DEE8FF" x="315.455384" y="254.3139" width="51.9479774" height="6.06515672"></rect>
                <rect id="矩形备份-48" fill="#DEE8FF" x="374.787096" y="125.934749" width="51.9479774" height="6.06515672"></rect>
                <rect id="矩形备份-62" fill="#DEE8FF" x="374.787096" y="254.3139" width="51.9479774" height="6.06515672"></rect>
                <g id="链接" transform="translate(522.889346, 278.633829)" fill="#FFFFFF" fill-rule="nonzero">
                    <rect id="矩形" opacity="0" x="0.330508168" y="0.55889353" width="36.483017" height="36.4551007"></rect>
                    <path d="M15.5355957,27.075463 L12.9167185,29.6158694 C11.4866957,31.0433685 9.16817072,31.0433685 7.73814796,29.6158694 C6.30812519,28.1883703 6.30812516,25.8739369 7.7381479,24.4464378 L14.4554938,17.7261767 C15.8248549,16.3547924 18.030983,16.296326 19.4713093,17.5932485 L19.6488603,17.7409465 C20.2331268,18.3119461 21.1704733,18.3020271 21.7424824,17.7187918 C22.3144915,17.1355564 22.3045549,16.1998641 21.7202885,15.6288644 C21.636781,15.5210819 21.5478931,15.4175624 21.453962,15.3186985 C18.8329721,13.0424185 14.8928709,13.1845027 12.4432492,15.6436343 L5.63712785,22.3638953 C3.23420805,24.9747823 3.319837,29.0123243 5.83129854,31.5193537 C8.34276008,34.026383 12.3874399,34.1118609 15.0029427,31.7131817 L17.5626361,29.2170847 C18.0869611,28.646088 18.0803165,27.7677471 17.5474126,27.2047201 C17.0145088,26.6416932 16.1364069,26.585276 15.5355957,27.075463 Z M31.3524298,6.04326126 C28.7614236,3.47289788 24.5776212,3.47289788 21.986615,6.04326126 L19.4269215,8.53935822 C18.9025965,9.1103549 18.9092412,9.98869582 19.442145,10.5517228 C19.9750489,11.1147498 20.8531508,11.1711669 21.453962,10.6809799 L24.0136555,8.14057349 C25.4436783,6.71307437 27.7622033,6.71307438 29.1922261,8.14057351 C30.6222489,9.56807264 30.6222489,11.882506 29.1922261,13.3100051 L22.4748802,20.0302662 C21.1055191,21.4016505 18.899391,21.4601169 17.4590647,20.1631945 L17.2815137,20.0154964 C16.6972473,19.4444968 15.7599007,19.4544158 15.1878916,20.0376511 C14.6158825,20.6208865 14.625819,21.5565788 15.2100855,22.1275785 C15.3175601,22.2373014 15.4311776,22.3408561 15.5503915,22.4377444 C18.1739801,24.7066778 22.1083598,24.5647999 24.5611044,22.1128087 L31.2932462,15.3925476 C33.8845988,12.8223866 33.9110371,8.64590797 31.3524298,6.04326126 L31.3524298,6.04326126 Z" id="形状"></path>
                </g>
                <polyline id="路径-8" stroke="#4A02BC" points="43.6016545 47.2928891 118.347348 47.2928891 194.872701 123.759686"></polyline>
                <g id="参数配置" transform="translate(74.745693, 131.594022)" fill="#005FE8" fill-rule="nonzero">
                    <rect id="矩形" opacity="0" x="0" y="0" width="33.813528" height="33.7876543"></rect>
                    <path d="M30.9879423,8.88108167 L11.1316861,8.88108167 C10.5531582,8.88108167 10.0857599,8.40550293 10.0857599,7.81684952 C10.0857599,7.22819611 10.5531582,6.75261737 11.1316861,6.75261737 L30.9879423,6.75261737 C31.5664703,6.75261737 32.0338686,7.22819611 32.0338686,7.81684952 C32.0338686,8.40550293 31.5664703,8.88108167 30.9879423,8.88108167 Z M10.2622599,12.0771039 L3.84288756,12.0771039 C3.26435961,12.0771039 2.79696131,11.6015251 2.79696131,11.0128717 L2.79696131,4.62082734 C2.79696131,4.03217393 3.26435961,3.55659519 3.84288756,3.55659519 L10.2622599,3.55659519 C10.8407879,3.55659519 11.3081862,4.03217393 11.3081862,4.62082734 L11.3081862,11.0161974 C11.3081862,11.6015251 10.8407879,12.0771039 10.2622599,12.0771039 Z M4.88881382,9.94863955 L9.21633369,9.94863955 L9.21633369,5.68505949 L4.88881382,5.68505949 L4.88881382,9.94863955 Z M30.8637386,27.9241857 L11.0042139,27.9241857 C10.4256859,27.9241857 9.95828762,27.448607 9.95828762,26.8599536 C9.95828762,26.2713002 10.4256859,25.7957214 11.0042139,25.7957214 L30.8604701,25.7957214 C31.438998,25.7957214 31.9063963,26.2713002 31.9063963,26.8599536 C31.9063963,27.448607 31.438998,27.9241857 30.8637386,27.9241857 Z M10.1380562,31.1202079 L3.7154153,31.1202079 C3.13688734,31.1202079 2.66948905,30.6446292 2.66948905,30.0559758 L2.66948905,23.6639314 C2.66948905,23.075278 3.13688734,22.5996993 3.7154153,22.5996993 L10.1347877,22.5996993 C10.7133156,22.5996993 11.180731,23.075278 11.180731,23.6639314 L11.180731,30.0593015 C11.1839825,30.6446292 10.7165842,31.1202079 10.1380562,31.1202079 L10.1380562,31.1202079 Z M4.76134156,28.9917436 L9.08886143,28.9917436 L9.08886143,24.7281636 L4.76134156,24.7281636 L4.76134156,28.9917436 Z M23.6697271,18.9181212 L3.81020237,18.9181212 C3.23167441,18.9181212 2.76427612,18.4425424 2.76427612,17.853889 C2.76427612,17.2652356 3.23167441,16.7896569 3.81020237,16.7896569 L23.6664586,16.7896569 C24.2449865,16.7896569 24.7123848,17.2652356 24.7123848,17.853889 C24.7123848,18.4425424 24.2449865,18.9181212 23.6697271,18.9181212 Z M30.9585257,22.1141433 L24.5358848,22.1141433 C23.9573568,22.1141433 23.4899585,21.6385646 23.4899585,21.0499112 L23.4899585,14.6578668 C23.4899585,14.0692134 23.9573568,13.5936347 24.5358848,13.5936347 L30.9552571,13.5936347 C31.5337851,13.5936347 32.0012003,14.0692134 32.0012003,14.6578668 L32.0012003,21.0499112 C32.0044519,21.6385646 31.5337851,22.1141433 30.9585257,22.1141433 Z M25.581811,19.985679 L29.9093309,19.985679 L29.9093309,15.722099 L25.581811,15.722099 L25.581811,19.985679 Z" id="形状"></path>
                </g>
                <g id="系统-位置配置" transform="translate(385.296253, 0.000000)" fill="#005FE8" fill-rule="nonzero">
                    <rect id="矩形" opacity="0" x="0" y="0" width="60.5084185" height="60.4621182"></rect>
                    <polygon id="路径" points="60.5084185 0 34.0480871 60.4621182 27.0744918 33.4083434 0 26.4642692"></polygon>
                </g>
                <rect id="矩形备份-10" stroke="#005FE8" fill="#0078EE" opacity="0.1" x="2.52876301" y="205.115075" width="193.154153" height="126.148278" rx="7"></rect>
                <rect id="矩形备份-10" stroke="#005FE8" fill="#FFFFFF" x="9.75757079" y="197.891033" width="193.154153" height="126.148278" rx="7"></rect>
                <rect id="矩形备份-11" fill="url(#linearGradient-4)" x="9.25757079" y="197.391033" width="194.154153" height="17.3112679" rx="5"></rect>
                <ellipse id="椭圆形备份-3" fill="#FFFFFF" cx="18.510964" cy="206.345137" rx="2.38958957" ry="2.38776109"></ellipse>
                <ellipse id="椭圆形备份-4" fill="#FFFFFF" cx="25.9846978" cy="206.345137" rx="2.38958957" ry="2.38776109"></ellipse>
                <ellipse id="椭圆形备份-5" fill="#FFFFFF" cx="34.3482613" cy="206.345137" rx="2.38958957" ry="2.38776109"></ellipse>
                <path d="M191.493019,316.725314 L18.4508088,316.725314 L18.4508088,274.224677 C22.9671123,274.803316 28.2662631,272.416649 34.3482613,267.064677 C42.5468094,259.850207 48.53446,244.200485 60.311746,244.200485 C80.43474,244.200485 81.5858787,269.783577 105.405544,269.783577 C129.225209,269.783577 136.520789,227.63475 152.110927,227.63475 C167.701065,227.63475 170.288662,254.481415 191.493019,254.481415 C191.493019,254.481415 191.493019,275.229381 191.493019,316.725314 Z" id="路径-3备份-2" fill="url(#linearGradient-5)"></path>
                <path d="M18.4508088,275.328179 C22.9671123,275.931565 28.2662631,273.442821 34.3482613,267.861946 C42.5468094,260.338912 48.53446,244.019852 60.311746,244.019852 C80.43474,244.019852 81.5858787,270.697133 105.405544,270.697133 C129.225209,270.697133 136.520789,226.745601 152.110927,226.745601 C167.701065,226.745601 170.288662,254.740497 191.493019,254.740497" id="路径-3" stroke="#4A02BC" stroke-width="3"></path>
                <ellipse id="椭圆形备份-26" fill="#4A02BC" cx="588.216107" cy="148.494275" rx="5.78389294" ry="5.77946718"></ellipse>
                <ellipse id="椭圆形备份-25" fill="#FF9D00" cx="376.536893" cy="346.662768" rx="13.3474452" ry="13.337232"></ellipse>
                <ellipse id="椭圆形" fill="url(#linearGradient-6)" cx="43.3621386" cy="47.7747024" rx="43.3621386" ry="43.3289584"></ellipse>
                <g id="集群" transform="translate(18.000000, 19.000000)" fill="#FFFFFF" fill-rule="nonzero">
                    <rect id="矩形" opacity="0" x="0" y="0" width="50" height="50"></rect>
                    <path d="M25,26.5 L14,20.125 L14,7.375 L25,1 L36,7.375 L36,20.125 L25,26.5 Z M16.5625,18.625 L25,23.5 L33.4375,18.625 L33.4375,8.875 L25,4 L16.5625,8.875 L16.5625,18.625 Z M37.9375,49.125 L26.9375,42.75 L26.9375,30 L37.9375,23.625 L48.9375,30 L48.9375,42.75 L37.9375,49.125 Z M29.4375,41.25 L37.875,46.125 L46.375,41.25 L46.375,31.5 L37.9375,26.625 L29.5,31.5 L29.5,41.25 L29.4375,41.25 Z M12.0625,49.125 L1.0625,42.75 L1.0625,30 L12.0625,23.625 L23.125,30 L23.125,42.75 L12.0625,49.125 Z M3.625,41.25 L12.0625,46.125 L20.5625,41.25 L20.5625,31.5 L12.125,26.625 L3.625,31.5 L3.625,41.25 Z" id="形状"></path>
                </g>
            </g>
        </g>
    </g>
</svg>