<?xml version="1.0" encoding="UTF-8"?>
<svg width="62px" height="62px" viewBox="0 0 62 62" version="1.1" xmlns="http://www.w3.org/2000/svg" xmlns:xlink="http://www.w3.org/1999/xlink">
    <title>编组</title>
    <g id="网站-pc" stroke="none" stroke-width="1" fill="none" fill-rule="evenodd">
        <g id="Console" transform="translate(-1409.000000, -1112.000000)">
            <g id="编组" transform="translate(1409.000000, 1112.000000)">
                <path d="M39.1224611,26.5171123 C39.1224611,33.6255238 33.3599894,39.3879955 26.2515779,39.3879955 C19.1431664,39.3879955 13.3806256,33.6255238 13.3806256,26.5171123 C13.3806256,19.4087008 19.1431664,13.6462292 26.2515779,13.6462292 C33.3599894,13.6462292 39.1224611,19.4087008 39.1224611,26.5171123" id="Fill-1" fill="#005FE8"></path>
                <path d="M26.5721789,25.6026745 L36.249854,58.3484349 C36.249854,58.3484349 39.5775107,54.8659858 43.3869129,51.5513381 L52.8668247,62 L58.7485217,56.2566958 L49.6837886,46.5691947 C53.9397846,44.8527771 61.7865221,42.8085068 61.7865221,42.8085068 L26.5721789,25.6026745 Z" id="Fill-3" fill="#424242"></path>
                <path d="M16.9529124,51.2497662 C19.9990779,52.4290811 23.2111073,53.0268691 26.513438,53.0268691 L26.513438,48.5982972 C23.8704109,48.5982972 21.2987946,48.1357882 18.8893055,47.2515269 L16.9529124,51.2497662 Z" id="Fill-5" fill="#424242"></path>
                <path d="M50.9424164,16.1925197 C49.6069252,13.0350863 47.695512,10.1998315 45.2612506,7.76557006 C42.8270584,5.33137783 39.9918036,3.41996467 36.8343702,2.08447345 C33.5641466,0.701305882 30.0918002,0 26.5134449,0 C22.9350896,0 19.462674,0.701305882 16.1925197,2.08447345 C13.0350863,3.41996467 10.1998315,5.33137783 7.76557006,7.76557006 C5.33137783,10.1998315 3.41996467,13.0350863 2.08447345,16.1925197 C0.701305882,19.462674 0,22.9350896 0,26.5134449 C0,30.0918002 0.701305882,33.5642158 2.08447345,36.8343702 C3.41996467,39.9918036 5.33137783,42.8270584 7.76557006,45.2612506 C9.37293408,46.8686146 11.156057,48.2463848 13.0904434,49.3825211 L15.0267673,45.384351 C13.5437493,44.4779469 12.1573295,43.3900406 10.8970548,42.1297659 C6.72575521,37.9585355 4.42857192,32.4125103 4.42857192,26.5134449 C4.42857192,20.6143795 6.72575521,15.0683544 10.8970548,10.8970548 C15.0684236,6.72575521 20.6143795,4.42857192 26.5134449,4.42857192 C32.4125103,4.42857192 37.9584663,6.72575521 42.1298351,10.8970548 C46.3011346,15.0683544 48.5983179,20.6143795 48.5983179,26.5134449 L53.0268898,26.5134449 C53.0268898,22.9350896 52.325584,19.462674 50.9424164,16.1925197" id="Fill-7" fill="#424242"></path>
            </g>
        </g>
    </g>
</svg>