<?xml version="1.0" encoding="UTF-8"?>
<svg width="63px" height="62px" viewBox="0 0 63 62" version="1.1" xmlns="http://www.w3.org/2000/svg" xmlns:xlink="http://www.w3.org/1999/xlink">
    <title>编组</title>
    <g id="网站-pc" stroke="none" stroke-width="1" fill="none" fill-rule="evenodd">
        <g id="Console" transform="translate(-929.000000, -812.000000)">
            <g id="编组" transform="translate(929.000000, 812.000000)">
                <polygon id="Fill-1" fill="#005FE8" points="10.4403387 46.6228621 51.6351636 46.6228621 51.6351636 15.5446446 10.4403387 15.5446446"></polygon>
                <polygon id="Fill-2" fill="#424242" points="51.6351716 20.7242423 51.6351716 25.9040262 57.138606 25.9040262 57.138606 56.8202971 20.7997527 56.8202971 20.7997527 25.9040262 36.4197943 25.9040262 36.4197943 20.7242423 15.6199688 20.7242423 15.6199688 62 62.3183089 62 62.3183089 20.7242423"></polygon>
                <polygon id="Fill-3" fill="#424242" points="0 0 0 41.4432078 10.4403387 41.4432078 10.4403387 36.2635049 5.17970293 36.2635049 5.17970293 5.17970293 41.4376234 5.17970293 41.4376234 36.2635049 25.5652331 36.2635049 25.5652331 41.4432078 46.6173263 41.4432078 46.6173263 0"></polygon>
            </g>
        </g>
    </g>
</svg>