<?xml version="1.0" encoding="UTF-8"?>
<svg width="63px" height="62px" viewBox="0 0 63 62" version="1.1" xmlns="http://www.w3.org/2000/svg" xmlns:xlink="http://www.w3.org/1999/xlink">
    <title>infini_qingliang备份</title>
    <g id="网站-pc" stroke="none" stroke-width="1" fill="none" fill-rule="evenodd">
        <g id="Console" transform="translate(-444.000000, -811.000000)" fill-rule="nonzero">
            <g id="infini_qingliang备份" transform="translate(444.000000, 811.000000)">
                <g id="编组" transform="translate(4.592593, 0.000000)" fill="#424242">
                    <path d="M28.9333333,0 C12.9504487,0 0,12.9504487 0,28.9333333 C0,44.9162179 12.9504487,57.8666667 28.9333333,57.8666667 C44.9162179,57.8666667 57.8666667,44.9162179 57.8666667,28.9333333 C57.8666667,12.9504487 44.9162179,0 28.9333333,0 Z M46.2446474,46.2446474 C43.998141,48.4911538 41.3760577,50.2577564 38.461859,51.4957692 C35.4433333,52.7685577 32.2439744,53.4153846 28.9333333,53.4153846 C25.6226923,53.4153846 22.4233333,52.7685577 19.4048077,51.4957692 C16.490609,50.2647115 13.8685256,48.498109 11.6220192,46.2446474 C9.37551282,43.9911859 7.60891026,41.3760577 6.37089744,38.461859 C5.09810897,35.4433333 4.45128205,32.2439744 4.45128205,28.9333333 C4.45128205,25.6226923 5.09810897,22.4233333 6.37089744,19.4048077 C7.60195513,16.490609 9.36855769,13.8685256 11.6220192,11.6220192 C13.8754808,9.37551282 16.490609,7.60891026 19.4048077,6.37089744 C22.4233333,5.09810897 25.6226923,4.45128205 28.9333333,4.45128205 C32.2439744,4.45128205 35.4433333,5.09810897 38.461859,6.37089744 C41.3760577,7.60195513 43.998141,9.36855769 46.2446474,11.6220192 C48.4911538,13.8754808 50.2577564,16.490609 51.4957692,19.4048077 C52.7685577,22.4233333 53.4153846,25.6226923 53.4153846,28.9333333 C53.4153846,32.2439744 52.7685577,35.4433333 51.4957692,38.461859 C50.2577564,41.3760577 48.4911538,43.998141 46.2446474,46.2446474 Z" id="形状"></path>
                    <path d="M43.3930449,25.3236218 C44.1441987,27.2015064 44.5615064,29.1837179 44.6380128,31.2146154 L49.0892949,31.0476923 C48.9919231,28.5021154 48.4702885,26.0191346 47.524391,23.6683013 L43.3930449,25.3236218 Z" id="路径"></path>
                    <path d="M32.8003846,9.48679487 L31.520641,13.7502885 C35.7006731,15.0022115 39.2616987,17.7564423 41.5360256,21.5052564 L45.3404808,19.1891987 C42.4888782,14.5014423 38.030641,11.0586538 32.8003846,9.48679487 Z" id="路径"></path>
                </g>
                <circle id="椭圆形" fill="#005FE8" cx="19.9777778" cy="42.0222222" r="19.9777778"></circle>
            </g>
        </g>
    </g>
</svg>