<?xml version="1.0" encoding="UTF-8"?>
<svg width="65px" height="62px" viewBox="0 0 65 62" version="1.1" xmlns="http://www.w3.org/2000/svg" xmlns:xlink="http://www.w3.org/1999/xlink">
    <title>编组</title>
    <g id="网站-pc" stroke="none" stroke-width="1" fill="none" fill-rule="evenodd">
        <g id="Console" transform="translate(-448.000000, -1112.000000)">
            <g id="编组" transform="translate(448.000000, 1112.000000)">
                <polygon id="Fill-1" fill="#005FE8" points="41.8180038 43.2215712 41.8180038 31.752622 29.772194 26.0181474 17.7263843 31.752622 17.7263843 43.2215712 29.772194 48.9560458"></polygon>
                <path d="M34.9614798,0 L29.7118692,12.0785786 L18.6534268,17.254047 L0,9.19850624 L0,29.6129174 L0.0116160863,29.6182235 L0.0116160863,48.0912425 L29.8281018,62 L59.6445875,48.0912425 L59.6445875,25.9500499 L64.9456817,13.3179863 L34.9614798,0 Z M33.8590989,13.9106935 L37.3086463,6.06388385 L58.9788137,15.6890303 L55.49492,24.0142506 L33.8590989,13.9106935 Z M4.58899941,16.1789853 L13.088963,19.8496686 L4.58899941,23.8146977 L4.58899941,16.1789853 Z M32.0827698,23.0534856 L24.2903119,19.6883341 L29.8281018,17.1049738 L52.833187,27.836445 L32.0827698,37.2377308 L32.0827698,23.0534856 Z M6.97474276,27.7656729 L18.7258481,22.2839557 L27.4936987,26.0703696 L27.4936987,37.1868925 L6.97474276,27.7656729 Z M4.6006872,45.1681476 L4.6006872,31.8154564 L27.5018013,42.2690736 L27.5018013,55.8510749 L4.6006872,45.1681476 Z M32.0908724,42.2721569 L55.0555164,31.8678005 L55.0555164,45.1681476 L32.0908724,55.8806888 L32.0908724,42.2721569 Z" id="Fill-2" fill="#424242"></path>
            </g>
        </g>
    </g>
</svg>