<?xml version="1.0" encoding="UTF-8"?>
<svg width="84px" height="84px" viewBox="0 0 84 84" version="1.1" xmlns="http://www.w3.org/2000/svg" xmlns:xlink="http://www.w3.org/1999/xlink">
    <title>PingjiaIcon01</title>
    <defs>
        <polygon id="path-1" points="0 0 49 0 49 76 0 76"></polygon>
        <polygon id="path-3" points="0 0 57 0 57 83 0 83"></polygon>
    </defs>
    <g id="网站-pc" stroke="none" stroke-width="1" fill="none" fill-rule="evenodd">
        <g id="首页" transform="translate(-340.000000, -4028.000000)">
            <g id="PingjiaIcon01" transform="translate(340.000000, 4028.000000)">
                <g id="编组" transform="translate(23.000000, 7.000000)">
                    <mask id="mask-2" fill="white">
                        <use xlink:href="#path-1"></use>
                    </mask>
                    <g id="Clip-2"></g>
                    <path d="M49.0001451,7.64870943 L49.0001451,26.2468755 C49.0001451,33.0833754 44.1721907,41.3946834 38.2208824,44.8096865 C29.0758529,50.0638704 19.9242922,55.3122821 10.778537,60.5657445 L0,76 L0,35.7818989 C0,28.9461205 4.82795441,20.6348125 10.778537,17.2133156 C19.9242922,11.9656254 29.0758529,6.71721376 38.2208824,1.46302983 C41.1395706,-0.208755967 43.7817745,-0.399961507 45.7215192,0.645535954 C47.745443,1.73793289 49.0001451,4.1615533 49.0001451,7.64870943" id="Fill-1" fill="#005FE8" mask="url(#mask-2)"></path>
                </g>
                <g id="编组" transform="translate(12.000000, 1.000000)">
                    <mask id="mask-4" fill="white">
                        <use xlink:href="#path-3"></use>
                    </mask>
                    <g id="Clip-4"></g>
                    <path d="M45.9991555,0.793707909 C49.6702181,2.90943919 53.3354721,5.03098092 57,7.14671219 C55.0599131,6.09429385 52.4162543,6.28676512 49.4959588,7.96961763 C40.3451672,13.2585827 31.1885669,18.5417373 22.0385014,23.8241655 C16.0839158,27.2683117 11.2533027,35.634638 11.2533027,42.5156672 L11.2533027,83 L-0.000217824128,76.503187 L-0.000217824128,36.0130438 C-0.000217824128,29.1370987 4.83039526,20.7714987 10.7849808,17.3273525 C19.9415811,12.0449243 29.0916466,6.75595921 38.2424383,1.47280463 C41.2222723,-0.246363216 43.9203872,-0.4083296 45.8670088,0.715266791 C45.9091215,0.739961217 45.9570428,0.763929336 45.9991555,0.793707909" id="Fill-3" fill="#4B95FF" mask="url(#mask-4)"></path>
                </g>
                <path d="M52.7057705,31.0216311 C53.1156105,28.5501735 53.4017666,26.7683744 53.5649707,25.673333 C53.9755425,22.9154241 52.9099586,21.182213 50.7970873,22.3911096 C48.8913315,23.4810747 47.9347943,25.1845529 47.3705325,27.819179 L47.3558954,27.894599 C47.0170455,29.9584982 46.4996226,31.7040376 45.8138725,33.133393 C45.0915296,34.6417943 44.0105767,35.9101568 42.8600974,36.5998153 L42.319255,36.9232514 C41.0304547,37.6948567 40,39.5796332 40,41.1670806 L40,50.7439788 C40,52.6961983 41.285141,53.5432237 42.8718071,52.6360073 L53.0490115,46.8141582 C55.1391952,45.6175898 57.0054308,42.9365514 57.7146003,40.1097493 L59.8289353,31.6815567 C60.3668503,29.5364359 59.5940092,27.9533396 58.1017526,28.1440654 C57.7892497,28.183951 57.459914,28.3021575 57.1276509,28.492158 L52.7057705,31.0216311 Z" id="Fill-5" fill="#FFFFFF" opacity="0.704775856"></path>
                <rect id="矩形" fill-opacity="0" fill="#FFFFFF" x="0" y="0" width="84" height="84"></rect>
            </g>
        </g>
    </g>
</svg>