<?xml version="1.0" encoding="UTF-8"?>
<svg width="84px" height="84px" viewBox="0 0 84 84" version="1.1" xmlns="http://www.w3.org/2000/svg" xmlns:xlink="http://www.w3.org/1999/xlink">
    <title>PingjiaIcon02</title>
    <defs>
        <polygon id="path-1" points="0 0 60.3428571 0 60.3428571 72.2285714 0 72.2285714"></polygon>
        <polygon id="path-3" points="0 0 52.1142857 0 52.1142857 65.8285714 0 65.8285714"></polygon>
    </defs>
    <g id="网站-pc" stroke="none" stroke-width="1" fill="none" fill-rule="evenodd">
        <g id="首页" transform="translate(-1000.000000, -4028.000000)">
            <g id="PingjiaIcon02" transform="translate(1000.000000, 4028.000000)">
                <g id="编组" transform="translate(14.657143, 6.000000)">
                    <mask id="mask-2" fill="white">
                        <use xlink:href="#path-1"></use>
                    </mask>
                    <g id="Clip-2"></g>
                    <path d="M56.9972447,65.430927 C53.0793615,67.6929589 49.1545604,69.9673095 45.2366772,72.2285714 C47.214451,70.9990054 48.4297097,68.4698105 48.4297097,64.915079 L48.4297097,45.0687906 C48.4297097,37.7745463 43.3157845,28.9058107 37.0119665,25.2617682 C27.3252559,19.6551937 17.6316273,14.0547785 7.94414808,8.44820396 C4.85257928,6.66429388 2.05387167,6.46026445 0,7.58204132 C3.9240325,5.30076139 7.85498299,3.03334007 11.7859335,0.75821953 C13.8528724,-0.432850345 16.7092299,-0.261157661 19.8576799,1.56124854 C29.5451591,7.16782309 39.2318697,12.7682383 48.9254983,18.3748128 C55.2293163,22.0188553 60.3432415,30.8868209 60.3432415,38.1818352 L60.3432415,58.0281236 C60.3432415,61.6721661 59.0641837,64.2329278 56.9972447,65.430927" id="Fill-1" fill="#1AAEF1" mask="url(#mask-2)"></path>
                </g>
                <g id="编组" transform="translate(11.000000, 13.314286)">
                    <mask id="mask-4" fill="white">
                        <use xlink:href="#path-3"></use>
                    </mask>
                    <g id="Clip-4"></g>
                    <path d="M52.1142857,37.9705585 L52.1142857,57.706977 C52.1142857,61.2429322 50.8940691,63.758223 48.9082264,64.9810295 C48.8572876,65.0124227 48.8063487,65.0384562 48.7546381,65.0698495 C46.6792665,66.2612627 43.8182021,66.0897482 40.6507328,64.2712351 C30.923731,58.7023737 21.1905548,53.126621 11.4635529,47.5569939 L0,50.8012213 L0,8.12167566 C0,4.49766616 1.28350425,1.95021642 3.35887581,0.759568891 C3.40364024,0.73353544 3.44223027,0.708267679 3.4869947,0.689891125 C5.55001745,-0.425718814 8.3601431,-0.222811035 11.4635529,1.55129207 C21.1905548,7.1270447 30.923731,12.6959061 40.6507328,18.2716587 C46.9794969,21.8964339 52.1142857,30.7156483 52.1142857,37.9705585" id="Fill-3" fill="#45E7D8" mask="url(#mask-4)"></path>
                </g>
                <path d="M36.0218619,48.4190646 L31.1152939,45.0216085 C30.4748278,44.5774814 30.0326387,43.5025536 30.2608146,42.9433112 L35.1359101,30.9697675 C35.271242,30.6384222 35.6111454,30.5925317 35.9903894,30.8554301 L44.2180966,36.5528581 C44.8672176,37.0024299 45.3094067,38.0975806 45.0647078,38.649045 L42.2258852,45.0402758 L47.5699215,48.7410762 C48.355948,49.2855403 48.7753195,50.6871465 48.2568095,51.0363813 L35.1540068,59.8699227 C34.516688,60.3000493 33.3356812,58.7273259 33.5835274,57.7791805 L36.0218619,48.4190646 Z" id="Fill-5" fill="#FFFFFF" opacity="0.698079427"></path>
                <rect id="矩形" fill-opacity="0" fill="#FFFFFF" x="0" y="0" width="84" height="84"></rect>
            </g>
        </g>
    </g>
</svg>