<?xml version="1.0" encoding="UTF-8"?>
<svg width="84px" height="84px" viewBox="0 0 84 84" version="1.1" xmlns="http://www.w3.org/2000/svg" xmlns:xlink="http://www.w3.org/1999/xlink">
    <title>PingjiaIcon03</title>
    <defs>
        <polygon id="path-1" points="0 0 60.5169203 0 60.5169203 72.3185962 0 72.3185962"></polygon>
        <polygon id="path-3" points="0 0 52.0523189 0 52.0523189 66.275034 0 66.275034"></polygon>
    </defs>
    <g id="网站-pc" stroke="none" stroke-width="1" fill="none" fill-rule="evenodd">
        <g id="首页" transform="translate(-340.000000, -4208.000000)">
            <g id="PingjiaIcon03" transform="translate(340.000000, 4208.000000)">
                <g id="编组" transform="translate(13.483080, 6.000000)">
                    <mask id="mask-2" fill="white">
                        <use xlink:href="#path-1"></use>
                    </mask>
                    <g id="Clip-2"></g>
                    <path d="M57.16173,65.512472 C53.2325404,67.7773257 49.2964129,70.0545135 45.3672233,72.3185962 C47.3507047,71.0874964 48.5694704,68.5551464 48.5694704,64.9959806 L48.5694704,45.1249348 C48.5694704,37.8215912 43.4407872,28.9417923 37.1187774,25.2932041 C27.4041124,19.6796356 17.6825095,14.0722341 7.96707367,8.45866563 C4.86658307,6.67253019 2.05979882,6.46824625 0,7.59142248 C3.93535666,5.30729677 7.87765126,3.03704694 11.8199459,0.759088287 C13.8928497,-0.433467395 16.7574502,-0.261560532 19.9149861,1.56311904 C29.6304219,7.17668754 39.3450869,12.784089 49.0666898,18.3976575 C55.3886996,22.0462457 60.5173828,30.9252738 60.5173828,38.2293882 L60.5173828,58.100434 C60.5173828,61.7490222 59.2346338,64.3129784 57.16173,65.512472" id="Fill-1" fill="#8140FF" mask="url(#mask-2)"></path>
                </g>
                <g id="编组" transform="translate(10.000000, 12.897161)">
                    <mask id="mask-4" fill="white">
                        <use xlink:href="#path-3"></use>
                    </mask>
                    <g id="Clip-4"></g>
                    <path d="M52.0523189,38.2280824 L52.0523189,58.0983573 C52.0523189,61.658294 50.8335532,64.190644 48.8500717,65.4217438 C48.7991935,65.45335 48.7483152,65.4787892 48.6966661,65.5111662 C46.6237622,66.7106599 43.7660997,66.5379821 40.6016258,64.7071355 C30.8869609,59.1005049 21.165358,53.4869364 11.4499221,47.879535 L0,51.1457654 L0,8.1767585 C0,4.52817024 1.28197809,1.96344318 3.35488192,0.76472044 C3.39959312,0.738510425 3.43813726,0.713071292 3.48284846,0.694570105 C5.54341817,-0.428606124 8.35020242,-0.224322184 11.4499221,1.56181325 C21.165358,7.17538175 30.8869609,12.7820123 40.6016258,18.3955808 C46.9236356,22.0449399 52.0523189,30.923968 52.0523189,38.2280824" id="Fill-3" fill="#A68EFE" mask="url(#mask-4)"></path>
                </g>
                <path d="M29.8967162,41.5429388 C29.8967162,43.1032055 28.6316975,43.6374273 27.0714307,42.7370362 C25.5119348,41.8358742 24.2469162,39.8408296 24.2469162,38.2805628 C24.2469162,36.7210669 25.5119348,36.1860742 27.0714307,37.0872362 C28.6316975,37.9876273 29.8967162,39.982672 29.8967162,41.5429388" id="Fill-5" fill="#FCFFFF" opacity="0.695847284"></path>
                <path d="M36.0256969,47.9067304 C34.4654301,47.0055684 33.2011823,45.0105238 33.2011823,43.450257 C33.2011823,41.8907611 34.4654301,41.3557684 36.0256969,42.2569304 C37.5859637,43.1573215 38.8509823,45.1523662 38.8509823,46.712633 C38.8509823,48.2728997 37.5859637,48.8071215 36.0256969,47.9067304 Z" id="Fill-7" fill="#FCFFFF" opacity="0.695847284"></path>
                <path d="M47.8052485,51.8824042 C47.8052485,53.442671 46.5402298,53.9768928 44.980734,53.0765017 C43.4204672,52.1753397 42.1554485,50.180295 42.1554485,48.6200283 C42.1554485,47.0605324 43.4204672,46.5255397 44.980734,47.4267017 C46.5402298,48.3270928 47.8052485,50.3221375 47.8052485,51.8824042" id="Fill-9" fill="#FCFFFF" opacity="0.7"></path>
                <rect id="矩形" fill-opacity="0" fill="#FFFFFF" x="0" y="0" width="84" height="84"></rect>
            </g>
        </g>
    </g>
</svg>