<?xml version="1.0" encoding="UTF-8"?>
<svg width="84px" height="84px" viewBox="0 0 84 84" version="1.1" xmlns="http://www.w3.org/2000/svg" xmlns:xlink="http://www.w3.org/1999/xlink">
    <title>PingjiaIcon04</title>
    <defs>
        <polygon id="path-1" points="0 0 47.4545455 0 47.4545455 76.9818182 0 76.9818182"></polygon>
    </defs>
    <g id="网站-pc" stroke="none" stroke-width="1" fill="none" fill-rule="evenodd">
        <g id="首页" transform="translate(-1000.000000, -4208.000000)">
            <g id="PingjiaIcon04" transform="translate(1000.000000, 4208.000000)">
                <g id="编组" transform="translate(23.545455, 6.327273)">
                    <mask id="mask-2" fill="white">
                        <use xlink:href="#path-1"></use>
                    </mask>
                    <g id="Clip-2"></g>
                    <path d="M47.4545455,9.57688284 L47.4545455,34.0115111 C47.4545455,42.5671355 41.5180696,52.9715043 34.1902555,57.2493165 C33.1558809,57.8537572 32.1267228,58.4521686 31.0923481,59.0566093 L23.7302536,76.9818182 L16.3681591,67.6589611 C15.3337845,68.2573724 14.2994098,68.8618131 13.2702517,69.4662538 C12.9714158,69.6411045 12.6725799,69.8038965 12.3797058,69.9486005 C9.06940887,71.6285236 6.09222823,71.6925853 3.88486676,70.4023079 C3.8274843,70.3676392 3.77010185,70.3322169 3.71271939,70.2975482 C1.41369504,68.8565374 0,65.8916126 0,61.7185601 L0,37.2899612 C0,28.7283075 5.94243766,18.3246923 13.2702517,14.0461264 C20.2418475,9.97783353 27.2186598,5.90351133 34.1902555,1.83521846 C37.7822482,-0.262989643 41.0403793,-0.501901988 43.4258499,0.811739077 C43.472054,0.835102745 43.5234746,0.864495747 43.5696787,0.893135081 C45.9715443,2.29420148 47.4545455,5.29907063 47.4545455,9.57688284" id="Fill-1" fill="#FF9440" mask="url(#mask-2)"></path>
                </g>
                <path d="M16.9369497,70.481792 C14.502128,69.079149 13,66.0656167 13,61.7882722 L13,37.3261469 C13,28.7608945 19.016064,18.3455718 26.4421194,14.0629456 C33.5071808,9.98932007 40.5775287,5.9104129 47.64259,1.83150573 C51.358261,-0.309807354 54.7189797,-0.50749024 57.1470045,0.894398314 C60.7410854,2.96025992 64.3230829,5.03215764 67.9103668,7.10330085 C65.4936703,5.7881815 62.1911034,6.02660819 58.5509542,8.12717747 C51.486648,12.200803 44.4155449,16.2797102 37.3504835,20.3525813 C29.9251833,24.6352074 23.9023224,35.0512847 23.9023224,43.6225731 L23.9023224,68.0786623 C23.9023224,72.2564109 25.3357255,75.2239178 27.6648168,76.6673046 C24.0888611,74.6074791 20.5129054,72.5476537 16.9369497,70.481792" id="Fill-3" fill="#FFB073"></path>
                <path d="M47.1894737,82.8835726 L36.3811016,76.5992121 L35.7929825,75.8499433 C36.087042,75.7044615 36.3870875,75.5416425 36.687133,75.3675167 C37.7204568,74.762222 38.7590183,74.1576812 39.7975797,73.5591707 L47.1894737,82.8835726 Z" id="Fill-5" fill="#FFB073"></path>
                <path d="M50.4727229,32.4460024 L49.7583984,33.7707208 L49.0433329,33.275346 C46.2593941,31.3570704 41.7311401,33.9827055 38.9353452,39.1387686 L38.9101512,39.1856284 C36.1106514,44.3751628 36.1106514,50.1277583 38.9101512,52.057191 L48.6031786,58.9083879 C49.2308061,59.3479773 50.2541277,58.7626019 50.8943522,57.6000332 L50.9158412,57.5598677 L60.6125736,39.4005883 C63.4113325,34.2103102 63.4113325,28.4577147 60.6125736,26.5290257 C57.8286348,24.6107501 53.3003808,27.2356414 50.5038449,32.3879855 L50.4727229,32.4460024 Z" id="Fill-7" fill="#FFFFFF" opacity="0.703311012"></path>
                <rect id="矩形" fill-opacity="0" fill="#FFFFFF" x="0" y="0" width="84" height="84"></rect>
            </g>
        </g>
    </g>
</svg>