<?xml version="1.0" encoding="UTF-8"?>
<svg width="24px" height="24px" viewBox="0 0 24 24" version="1.1" xmlns="http://www.w3.org/2000/svg" xmlns:xlink="http://www.w3.org/1999/xlink">
    <title>bilibili-fill</title>
    <g id="网站-pc" stroke="none" stroke-width="1" fill="none" fill-rule="evenodd">
        <g id="首页" transform="translate(-1484.000000, -4957.000000)" fill="#FFFFFF" fill-rule="nonzero">
            <g id="页脚" transform="translate(0.000000, 4828.000000)">
                <g id="bilibili-fill" transform="translate(1484.000000, 129.000000)">
                    <rect id="矩形" opacity="0" x="0" y="0" width="24" height="24"></rect>
                    <path d="M18.3187382,2.84546135 C18.5568376,3.08207206 18.6906057,3.40302249 18.6906057,3.73768469 C18.6906057,4.07234689 18.5568376,4.39329732 18.3187382,4.62990803 L17.1581536,5.78253138 L18.3461538,5.78253138 C19.3561924,5.78253134 20.3248477,6.18143332 21.0389577,6.89145508 C21.7530677,7.60147684 22.1541152,8.56443622 22.153846,9.56842475 L22.153846,17.1381929 C22.153846,19.2285266 20.449084,20.9230769 18.3461538,20.9230769 L5.6538461,20.9230769 C3.55091574,20.9230769 1.84615385,19.2285266 1.84615385,17.1381929 L1.84615385,9.56842475 C1.84615385,7.478091 3.55091574,5.78354069 5.6538461,5.78354069 L6.83778456,5.78354069 L5.67923072,4.63091734 C5.3491972,4.31424721 5.21673992,3.84520755 5.33276879,3.40407354 C5.44879766,2.96293953 5.79525595,2.61836164 6.23898258,2.50277822 C6.6827092,2.3871948 7.15465022,2.51859326 7.47341531,2.84647066 L10.1662153,5.52314067 C10.2464307,5.60287557 10.3134461,5.68967557 10.3672614,5.78253138 L13.6296921,5.78253138 C13.6835075,5.68967557 13.7515383,5.60085694 13.8317537,5.52213136 L16.5235383,2.84546135 C16.7615748,2.60878824 17.0844593,2.47582143 17.4211383,2.47582143 C17.7578172,2.47582143 18.0807017,2.60878824 18.3187382,2.84546135 Z M18.3461536,8.31588037 L5.6538461,8.31588037 C4.98932127,8.31563506 4.43710212,8.8249297 4.38766151,9.48364335 L4.38461536,9.57851778 L4.38461536,17.1482859 C4.38461536,17.8134162 4.9024615,18.3584395 5.55941533,18.4058767 L5.6538461,18.409914 L18.3461536,18.409914 C19.0106785,18.4101593 19.5628976,17.9008647 19.6123382,17.242151 L19.6153844,17.1482859 L19.6153844,9.57851778 C19.6153844,8.88209911 19.046769,8.31688977 18.3461536,8.31688975 L18.3461536,8.31588037 Z M8.19230761,10.8391365 C8.89292299,10.8391365 9.46153835,11.4043458 9.46153835,12.1007645 L9.46153835,13.3623925 C9.46153835,14.0591704 8.89328439,14.6240205 8.19230761,14.6240205 C7.49133083,14.6240205 6.92307687,14.0591704 6.92307687,13.3623925 L6.92307687,12.1007645 C6.92307687,11.4043459 7.49169224,10.8391365 8.19230761,10.8391365 L8.19230761,10.8391365 Z M15.8076921,10.8391365 C16.5083075,10.8391365 17.0769229,11.4043458 17.0769229,12.1007645 L17.0769229,13.3623925 C17.0769229,14.0591704 16.5086689,14.6240205 15.8076921,14.6240205 C15.1067153,14.6240205 14.5384614,14.0591704 14.5384614,13.3623925 L14.5384614,12.1007645 C14.5384614,11.4043459 15.1070767,10.8391365 15.8076921,10.8391365 Z" id="形状"></path>
                </g>
            </g>
        </g>
    </g>
</svg>