<?xml version="1.0" encoding="UTF-8"?>
<svg width="16px" height="16px" viewBox="0 0 16 16" version="1.1" xmlns="http://www.w3.org/2000/svg" xmlns:xlink="http://www.w3.org/1999/xlink">
    <title>邮箱</title>
    <g id="网站-pc" stroke="none" stroke-width="1" fill="none" fill-rule="evenodd">
        <g id="首页" transform="translate(-1505.000000, -4901.000000)" fill="#FFFFFF" fill-rule="nonzero">
            <g id="页脚" transform="translate(0.000000, 4828.000000)">
                <g id="邮箱" transform="translate(1505.000000, 73.000000)">
                    <rect id="矩形" opacity="0" x="0" y="0" width="16" height="16"></rect>
                    <path d="M8,0.977875 C4.121875,0.977875 0.977875,4.121875 0.977875,8 C0.977875,11.878125 4.121875,15.022125 8,15.022125 C11.878125,15.022125 15.022125,11.878125 15.022125,8 C15.022125,4.121875 11.878125,0.977875 8,0.977875 Z M11.6253438,10.1148594 C11.6253438,10.5025156 11.2991562,10.8197344 10.9003437,10.8197344 L5.09964062,10.8197344 C4.70084375,10.8197344 4.37464062,10.5025312 4.37464062,10.1148594 L4.37796875,6.63240625 L7.913125,8.50714062 C7.96748489,8.53584578 8.03251511,8.53584578 8.086875,8.50714062 L11.6253438,6.63064062 L11.6253438,10.1148594 L11.6253438,10.1148594 Z M8.00175,7.8451875 L4.378375,5.87870312 C4.38189062,5.49395312 4.7031875,5.18026562 5.09965625,5.18026562 L10.900375,5.18026562 C11.29625,5.18026562 11.6206875,5.49278125 11.625375,5.87675 L8.00178125,7.8451875 L8.00175,7.8451875 Z" id="形状"></path>
                </g>
            </g>
        </g>
    </g>
</svg>