<?xml version="1.0" encoding="UTF-8"?>
<svg width="195px" height="25px" viewBox="0 0 195 25" version="1.1" xmlns="http://www.w3.org/2000/svg" xmlns:xlink="http://www.w3.org/1999/xlink">
    <title>INFINILabs-logo</title>
    <g id="网站-pc" stroke="none" stroke-width="1" fill="none" fill-rule="evenodd">
        <g id="首页" transform="translate(-300.000000, -5172.000000)" fill="#FFFFFF" fill-rule="nonzero">
            <g id="页脚" transform="translate(0.000000, 4828.000000)">
                <g id="INFINILabs-logo" transform="translate(300.000000, 344.000000)">
                    <g id="编组" transform="translate(148.000000, 8.000000)">
                        <polygon id="路径" points="2.43673111 0.953367876 2.43673111 13.8031088 7.4340949 13.8031088 7.4340949 15.7512953 0 15.7512953 0 0.953367876"></polygon>
                        <path d="M14.1660808,3.8134715 C16.1485062,3.8134715 17.5114236,4.76683938 18.2135325,5.72020725 L18.2135325,4.02072539 L20.6502636,4.02072539 L20.6502636,15.7927461 L18.2135325,15.7927461 L18.2135325,14.0518135 C17.470123,15.0466321 16.0659051,16 14.1247803,16 C11.0685413,16 8.63181019,13.5129534 8.63181019,9.86528497 C8.63181019,6.21761658 11.0685413,3.8134715 14.1660808,3.8134715 Z M14.6616872,5.92746114 C12.844464,5.92746114 11.1098418,7.29533679 11.1098418,9.8238342 C11.1098418,12.3523316 12.844464,13.8445596 14.6616872,13.8445596 C16.4789104,13.8445596 18.2135325,12.4352332 18.2135325,9.86528497 C18.2135325,7.37823834 16.5202109,5.92746114 14.6616872,5.92746114 Z" id="形状"></path>
                        <path d="M30.3558875,3.8134715 C33.4534271,3.8134715 35.8488576,6.21761658 35.8488576,9.8238342 C35.8488576,13.4300518 33.4121265,15.9585492 30.3558875,15.9585492 C28.4147627,15.9585492 27.0518453,15.0880829 26.2671353,14.0518135 L26.2671353,15.7512953 L23.8304042,15.7512953 L23.8304042,0 L26.2671353,0 L26.2671353,5.76165803 C27.0518453,4.7253886 28.4973638,3.8134715 30.3558875,3.8134715 Z M29.8189807,5.92746114 C28.0017575,5.92746114 26.2671353,7.33678756 26.2671353,9.86528497 C26.2671353,12.3937824 28.0017575,13.8445596 29.8189807,13.8445596 C31.6362039,13.8445596 33.370826,12.3523316 33.370826,9.8238342 C33.370826,7.29533679 31.6362039,5.92746114 29.8189807,5.92746114 Z" id="形状"></path>
                        <path d="M42.4982425,15.9585492 C39.6898067,15.9585492 37.7073814,14.3005181 37.6247803,12.1450777 L40.1441125,12.1450777 C40.2267135,13.0984456 41.1353251,13.8860104 42.4982425,13.8860104 C43.9024605,13.8860104 44.6458699,13.3056995 44.6458699,12.4766839 C44.6458699,10.1554404 37.831283,11.4818653 37.831283,7.17098446 C37.831283,5.30569948 39.5659051,3.77202073 42.3330404,3.77202073 C44.9762742,3.77202073 46.7108963,5.18134715 46.8760984,7.54404145 L44.4393673,7.54404145 C44.3567663,6.50777202 43.5720562,5.80310881 42.2504394,5.80310881 C40.970123,5.80310881 40.2680141,6.34196891 40.2680141,7.12953368 C40.2680141,9.49222798 46.8760984,8.16580311 47,12.4352332 C47,14.4663212 45.2653779,15.9585492 42.4982425,15.9585492 Z" id="路径"></path>
                    </g>
                    <g id="编组" transform="translate(37.000000, 0.000000)">
                        <polygon id="路径" points="0 24.125 4.99215071 0.75 11.1075353 0.75 6.11538462 24.125"></polygon>
                        <polygon id="路径" points="10.566719 24.125 15.7252747 0 16.3076923 0 29.2872841 13.625 32.032967 0.75 37.6491366 0.75 32.4905808 25 31.9497645 25 18.8869702 11.375 16.1412873 24.125"></polygon>
                        <polygon id="路径" points="37.6075353 24.125 42.599686 0.75 58.4913658 0.75 57.4929356 5.5 47.6750392 5.5 46.6766091 10.1666667 55.4544741 10.1666667 54.4144427 14.875 45.678179 14.875 43.7229199 24.125"></polygon>
                        <polygon id="路径" points="57.6177394 24.125 62.6098901 0.75 68.7252747 0.75 63.733124 24.125"></polygon>
                        <polygon id="路径" points="67.9764521 24.125 73.1350078 0 73.7174254 0 86.6970173 13.625 89.4427002 0.75 95.0588697 0.75 89.900314 25 89.3594976 25 76.8791209 11.375 74.0918367 24.125"></polygon>
                        <polygon id="路径" points="94.8924647 24.125 99.8846154 0.75 106 0.75 101.007849 24.125"></polygon>
                    </g>
                    <polygon id="路径" points="27.2716981 0.0423280423 24.0754717 13.6719577 24.0754717 13.6719577 22.9132075 18.8359788 9.0490566 9.9047619 10.2528302 4.65608466 18.845283 10.2857143 21.2528302 0 4.85660377 0 0 24 5.72830189 24 8.46792453 12.3597884 13.6981132 15.7460317 11.7886792 24 27.8943396 24 33 0.0423280423"></polygon>
                </g>
            </g>
        </g>
    </g>
</svg>