<?xml version="1.0" encoding="UTF-8"?>
<svg width="141px" height="18px" viewBox="0 0 141 18" version="1.1" xmlns="http://www.w3.org/2000/svg" xmlns:xlink="http://www.w3.org/1999/xlink">
    <title>INFINILabs-logo</title>
    <g id="网站-pc" stroke="none" stroke-width="1" fill="none" fill-rule="evenodd">
        <g id="页脚" transform="translate(-24.000000, -1026.000000)" fill="#FFFFFF" fill-rule="nonzero">
            <g id="INFINILabs-logo" transform="translate(24.000000, 1026.000000)">
                <g id="编组" transform="translate(107.142857, 6.000000)">
                    <polygon id="路径" points="1.73311574 0.663952628 1.73311574 9.61287935 5.28747175 9.61287935 5.28747175 10.9696521 0 10.9696521 0 0.663952628"></polygon>
                    <path d="M10.0755712,2.65581051 C11.4855636,2.65581051 12.4549335,3.31976314 12.9543058,3.98371577 L12.9543058,2.80014804 L14.6874215,2.80014804 L14.6874215,10.9985196 L12.9543058,10.9985196 L12.9543058,9.78608438 C12.4255586,10.4789045 11.426814,11.1428571 10.0461963,11.1428571 C7.87245795,11.1428571 6.1393422,9.41080681 6.1393422,6.87046632 C6.1393422,4.33012583 7.87245795,2.65581051 10.0755712,2.65581051 Z M10.4280693,4.12805329 C9.1355762,4.12805329 7.90183279,5.08068098 7.90183279,6.84159882 C7.90183279,8.60251665 9.1355762,9.64174685 10.4280693,9.64174685 C11.7205624,9.64174685 12.9543058,8.66025167 12.9543058,6.87046632 C12.9543058,5.13841599 11.7499372,4.12805329 10.4280693,4.12805329 Z" id="形状"></path>
                    <path d="M21.5905097,2.65581051 C23.7936229,2.65581051 25.4973638,4.33012583 25.4973638,6.84159882 C25.4973638,9.3530718 23.7642481,11.1139896 21.5905097,11.1139896 C20.209892,11.1139896 19.2405222,10.507772 18.6824002,9.78608438 L18.6824002,10.9696521 L16.9492845,10.9696521 L16.9492845,0 L18.6824002,0 L18.6824002,4.01258327 C19.2405222,3.29089563 20.2686417,2.65581051 21.5905097,2.65581051 Z M21.2086367,4.12805329 C19.9161436,4.12805329 18.6824002,5.10954848 18.6824002,6.87046632 C18.6824002,8.63138416 19.9161436,9.64174685 21.2086367,9.64174685 C22.5011298,9.64174685 23.7348732,8.60251665 23.7348732,6.84159882 C23.7348732,5.08068098 22.5011298,4.12805329 21.2086367,4.12805329 Z" id="形状"></path>
                    <path d="M30.2267135,11.1139896 C28.2292242,11.1139896 26.8192317,9.95928942 26.760482,8.45817913 L28.5523475,8.45817913 C28.6110972,9.12213175 29.2573437,9.67061436 30.2267135,9.67061436 C31.2254582,9.67061436 31.7542054,9.26646928 31.7542054,8.68911917 C31.7542054,7.07253886 26.9073563,7.99629904 26.9073563,4.99407846 C26.9073563,3.69504071 28.1410997,2.62694301 30.1092142,2.62694301 C31.9892041,2.62694301 33.2229475,3.60843819 33.3404469,5.25388601 L31.6073312,5.25388601 C31.5485815,4.53219837 30.9904595,4.04145078 30.0504645,4.04145078 C29.1398443,4.04145078 28.640472,4.41672835 28.640472,4.96521095 C28.640472,6.61065877 33.3404469,5.68689859 33.4285714,8.66025167 C33.4285714,10.0747594 32.194828,11.1139896 30.2267135,11.1139896 Z" id="路径"></path>
                </g>
                <g id="编组" transform="translate(26.571429, 0.000000)">
                    <polygon id="路径" points="0 17.37 3.5927338 0.54 7.9938327 0.54 4.4010989 17.37"></polygon>
                    <polygon id="路径" points="7.60461987 17.37 11.3171115 0 11.7362637 0 21.0773716 9.81 23.0533752 0.54 27.0952007 0.54 23.3827091 18 22.9934963 18 13.5925095 8.19 11.6165059 17.37"></polygon>
                    <polygon id="路径" points="27.0652613 17.37 30.6579951 0.54 42.0948643 0.54 41.3763176 3.96 34.3106078 3.96 33.592061 7.32 39.9092846 7.32 39.1607984 10.71 32.8735142 10.71 31.4663602 17.37"></polygon>
                    <polygon id="路径" points="41.4661359 17.37 45.0588697 0.54 49.4599686 0.54 45.8672348 17.37"></polygon>
                    <polygon id="路径" points="48.9210585 17.37 52.6335501 0 53.0527024 0 62.3938103 9.81 64.3698139 0.54 68.4116394 0.54 64.6991478 18 64.309935 18 55.3281005 8.19 53.3221574 17.37"></polygon>
                    <polygon id="路径" points="68.2918816 17.37 71.8846154 0.54 76.2857143 0.54 72.6929805 17.37"></polygon>
                </g>
                <polygon id="路径" points="19.8339623 0.0302343159 17.509434 9.76568405 17.509434 9.76568405 16.6641509 13.4542706 6.58113208 7.07482993 7.45660377 3.32577475 13.7056604 7.34693878 15.4566038 0 3.53207547 0 0 17.1428571 4.16603774 17.1428571 6.15849057 8.82842026 9.96226415 11.2471655 8.57358491 17.1428571 20.2867925 17.1428571 24 0.0302343159"></polygon>
            </g>
        </g>
    </g>
</svg>