<?xml version="1.0" encoding="UTF-8"?>
<svg width="1552px" height="480px" viewBox="0 0 1552 480" version="1.1" xmlns="http://www.w3.org/2000/svg" xmlns:xlink="http://www.w3.org/1999/xlink">
    <title>dingjia-banaenr</title>
    <defs>
        <rect id="path-1" x="0" y="0" width="1552" height="480"></rect>
        <path d="M3.5,0 C1.56767516,0 0,1.56705722 0,3.49960187 L0,3.49960187 C0,5.43373905 1.56767516,7 3.5,7 L3.5,7 C5.43232484,7 7,5.43373905 7,3.49960187 L7,3.49960187 C7,1.56705722 5.43232484,0 3.5,0 Z" id="path-3"></path>
        <linearGradient x1="295.023032%" y1="102.363728%" x2="-4819.65572%" y2="-990.63977%" id="linearGradient-5">
            <stop stop-color="#140B66" offset="0%"></stop>
            <stop stop-color="#2D2AB5" offset="100%"></stop>
        </linearGradient>
        <path d="M0,3.50039813 C0,5.43294278 1.56767516,7 3.5,7 L3.5,7 C5.43232484,7 7,5.43294278 7,3.50039813 L7,3.50039813 C7,1.56705722 5.43232484,0 3.5,0 L3.5,0 C1.56767516,0 0,1.56705722 0,3.50039813" id="path-6"></path>
        <linearGradient x1="212.511721%" y1="84.72885%" x2="-4902.16703%" y2="-1008.27465%" id="linearGradient-8">
            <stop stop-color="#140B66" offset="0%"></stop>
            <stop stop-color="#2D2AB5" offset="100%"></stop>
        </linearGradient>
        <path d="M0,3.49960187 C0,5.43294278 1.56767516,7 3.5,7 L3.5,7 C5.43232484,7 7,5.43294278 7,3.49960187 L7,3.49960187 C7,1.56705722 5.43232484,0 3.5,0 L3.5,0 C1.56767516,0 0,1.56705722 0,3.49960187" id="path-9"></path>
        <linearGradient x1="130.000063%" y1="67.0944227%" x2="-4984.67939%" y2="-1025.90925%" id="linearGradient-11">
            <stop stop-color="#140B66" offset="0%"></stop>
            <stop stop-color="#2D2AB5" offset="100%"></stop>
        </linearGradient>
        <path d="M0,3.49960187 C0,5.43294278 1.56626095,7 3.50039813,7 L3.50039813,7 C5.43294278,7 7,5.43294278 7,3.49960187 L7,3.49960187 C7,1.56705722 5.43294278,0 3.50039813,0 L3.50039813,0 C1.56626095,0 0,1.56705722 0,3.49960187" id="path-12"></path>
        <linearGradient x1="595.447946%" y1="166.544321%" x2="-4519.81053%" y2="-926.458743%" id="linearGradient-14">
            <stop stop-color="#140B66" offset="0%"></stop>
            <stop stop-color="#2D2AB5" offset="100%"></stop>
        </linearGradient>
        <path d="M0,3.50039813 C0,5.43373905 1.56626095,7 3.50039813,7 L3.50039813,7 C5.43294278,7 7,5.43373905 7,3.50039813 L7,3.50039813 C7,1.56705722 5.43294278,0 3.50039813,0 L3.50039813,0 C1.56626095,0 0,1.56705722 0,3.50039813" id="path-15"></path>
        <linearGradient x1="512.927247%" y1="148.920841%" x2="-4602.33123%" y2="-944.082224%" id="linearGradient-17">
            <stop stop-color="#140B66" offset="0%"></stop>
            <stop stop-color="#2D2AB5" offset="100%"></stop>
        </linearGradient>
        <path d="M3.49960187,0 C1.56626095,0 0,1.56705722 0,3.49960187 L0,3.49960187 C0,5.43373905 1.56626095,7 3.49960187,7 L3.49960187,7 C5.43294278,7 7,5.43373905 7,3.49960187 L7,3.49960187 C7,1.56705722 5.43294278,0 3.49960187,0 Z" id="path-18"></path>
        <linearGradient x1="978.361036%" y1="248.371341%" x2="-4136.89744%" y2="-844.631723%" id="linearGradient-20">
            <stop stop-color="#140B66" offset="0%"></stop>
            <stop stop-color="#2D2AB5" offset="100%"></stop>
        </linearGradient>
        <path d="M0,3.50039813 C0,5.43294278 1.56626095,7 3.49960187,7 L3.49960187,7 C5.43294278,7 7,5.43294278 7,3.50039813 L7,3.50039813 C7,1.56705722 5.43294278,0 3.49960187,0 L3.49960187,0 C1.56626095,0 0,1.56705722 0,3.50039813" id="path-21"></path>
        <linearGradient x1="895.839645%" y1="230.736291%" x2="-4219.41884%" y2="-862.266774%" id="linearGradient-23">
            <stop stop-color="#140B66" offset="0%"></stop>
            <stop stop-color="#2D2AB5" offset="100%"></stop>
        </linearGradient>
        <path d="M0,3.49960187 C0,5.43294278 1.56626095,7 3.49960187,7 L3.49960187,7 C5.43294278,7 7,5.43294278 7,3.49960187 L7,3.49960187 C7,1.56705722 5.43294278,0 3.49960187,0 L3.49960187,0 C1.56626095,0 0,1.56705722 0,3.49960187" id="path-24"></path>
        <linearGradient x1="813.318948%" y1="213.101966%" x2="-4301.94023%" y2="-879.901185%" id="linearGradient-26">
            <stop stop-color="#140B66" offset="0%"></stop>
            <stop stop-color="#2D2AB5" offset="100%"></stop>
        </linearGradient>
        <path d="M0,3.49960187 C0,5.43294278 1.56705722,7 3.50039813,7 L3.50039813,7 C5.43294278,7 7,5.43294278 7,3.49960187 L7,3.49960187 C7,1.56705722 5.43294278,0 3.50039813,0 L3.50039813,0 C1.56705722,0 0,1.56705722 0,3.49960187" id="path-27"></path>
        <linearGradient x1="1278.7596%" y1="312.551024%" x2="-3836.50097%" y2="-780.452474%" id="linearGradient-29">
            <stop stop-color="#140B66" offset="0%"></stop>
            <stop stop-color="#2D2AB5" offset="100%"></stop>
        </linearGradient>
        <path d="M0,3.50039813 C0,5.43373905 1.56705722,7 3.50039813,7 L3.50039813,7 C5.43294278,7 7,5.43373905 7,3.50039813 L7,3.50039813 C7,1.56705722 5.43294278,0 3.50039813,0 L3.50039813,0 C1.56705722,0 0,1.56705722 0,3.50039813" id="path-30"></path>
        <linearGradient x1="1196.24307%" y1="294.92839%" x2="-3919.0175%" y2="-798.075107%" id="linearGradient-32">
            <stop stop-color="#140B66" offset="0%"></stop>
            <stop stop-color="#2D2AB5" offset="100%"></stop>
        </linearGradient>
        <path d="M3.50039813,0 C1.56705722,0 0,1.56705722 0,3.49960187 L0,3.49960187 C0,5.43373905 1.56705722,7 3.50039813,7 L3.50039813,7 C5.43373905,7 7,5.43373905 7,3.49960187 L7,3.49960187 C7,1.56705722 5.43373905,0 3.50039813,0 Z" id="path-33"></path>
        <linearGradient x1="1661.70802%" y1="394.383121%" x2="-3453.60705%" y2="-698.632005%" id="linearGradient-35">
            <stop stop-color="#140B66" offset="0%"></stop>
            <stop stop-color="#2D2AB5" offset="100%"></stop>
        </linearGradient>
        <path d="M0,3.50039813 C0,5.43294278 1.56705722,7 3.50039813,7 L3.50039813,7 C5.43373905,7 7,5.43294278 7,3.50039813 L7,3.50039813 C7,1.56705722 5.43373905,0 3.50039813,0 L3.50039813,0 C1.56705722,0 0,1.56705722 0,3.50039813" id="path-36"></path>
        <linearGradient x1="1579.18038%" y1="376.746812%" x2="-3536.13469%" y2="-716.268315%" id="linearGradient-38">
            <stop stop-color="#140B66" offset="0%"></stop>
            <stop stop-color="#2D2AB5" offset="100%"></stop>
        </linearGradient>
        <path d="M0,3.49960187 C0,5.43294278 1.56705722,7 3.50039813,7 L3.50039813,7 C5.43373905,7 7,5.43294278 7,3.49960187 L7,3.49960187 C7,1.56705722 5.43373905,0 3.50039813,0 L3.50039813,0 C1.56705722,0 0,1.56705722 0,3.49960187" id="path-39"></path>
        <linearGradient x1="1496.66315%" y1="359.113149%" x2="-3618.65261%" y2="-733.902152%" id="linearGradient-41">
            <stop stop-color="#140B66" offset="0%"></stop>
            <stop stop-color="#2D2AB5" offset="100%"></stop>
        </linearGradient>
        <path d="M0,3.49960187 C0,5.43294278 1.56705722,7 3.49960187,7 L3.49960187,7 C5.43294278,7 7,5.43294278 7,3.49960187 L7,3.49960187 C7,1.56705722 5.43294278,0 3.49960187,0 L3.49960187,0 C1.56705722,0 0,1.56705722 0,3.49960187" id="path-42"></path>
        <linearGradient x1="1962.07403%" y1="458.558464%" x2="-3153.18653%" y2="-634.445034%" id="linearGradient-44">
            <stop stop-color="#140B66" offset="0%"></stop>
            <stop stop-color="#2D2AB5" offset="100%"></stop>
        </linearGradient>
        <path d="M0,3.50039813 C0,5.43373905 1.56705722,7 3.49960187,7 L3.49960187,7 C5.43294278,7 7,5.43373905 7,3.50039813 L7,3.50039813 C7,1.56705722 5.43294278,0 3.49960187,0 L3.49960187,0 C1.56705722,0 0,1.56705722 0,3.50039813" id="path-45"></path>
        <linearGradient x1="1879.5575%" y1="440.936361%" x2="-3235.70376%" y2="-652.067311%" id="linearGradient-47">
            <stop stop-color="#140B66" offset="0%"></stop>
            <stop stop-color="#2D2AB5" offset="100%"></stop>
        </linearGradient>
        <path d="M3.50039813,0 C1.56705722,0 0,1.56705722 0,3.49960187 L0,3.49960187 C0,5.43373905 1.56705722,7 3.50039813,7 L3.50039813,7 C5.43294278,7 7,5.43373905 7,3.49960187 L7,3.49960187 C7,1.56705722 5.43294278,0 3.50039813,0 Z" id="path-48"></path>
        <linearGradient x1="2345.00475%" y1="540.386785%" x2="-2770.25373%" y2="-552.616279%" id="linearGradient-50">
            <stop stop-color="#140B66" offset="0%"></stop>
            <stop stop-color="#2D2AB5" offset="100%"></stop>
        </linearGradient>
        <path d="M0,3.50039813 C0,5.43294278 1.56705722,7 3.50039813,7 L3.50039813,7 C5.43294278,7 7,5.43294278 7,3.50039813 L7,3.50039813 C7,1.56705722 5.43294278,0 3.50039813,0 L3.50039813,0 C1.56705722,0 0,1.56705722 0,3.50039813" id="path-51"></path>
        <linearGradient x1="2262.47815%" y1="522.75066%" x2="-2852.78033%" y2="-570.252405%" id="linearGradient-53">
            <stop stop-color="#140B66" offset="0%"></stop>
            <stop stop-color="#2D2AB5" offset="100%"></stop>
        </linearGradient>
        <path d="M0,3.49960187 C0,5.43294278 1.56705722,7 3.50039813,7 L3.50039813,7 C5.43294278,7 7,5.43294278 7,3.49960187 L7,3.49960187 C7,1.56705722 5.43294278,0 3.50039813,0 L3.50039813,0 C1.56705722,0 0,1.56705722 0,3.49960187" id="path-54"></path>
        <linearGradient x1="2179.96161%" y1="505.117205%" x2="-2935.29756%" y2="-587.885946%" id="linearGradient-56">
            <stop stop-color="#140B66" offset="0%"></stop>
            <stop stop-color="#2D2AB5" offset="100%"></stop>
        </linearGradient>
        <path d="M0,3.49960187 C0,5.43294278 1.56705722,7 3.49960187,7 L3.49960187,7 C5.43294278,7 7,5.43294278 7,3.49960187 L7,3.49960187 C7,1.56705722 5.43294278,0 3.49960187,0 L3.49960187,0 C1.56705722,0 0,1.56705722 0,3.49960187" id="path-57"></path>
        <linearGradient x1="2645.39818%" y1="604.56777%" x2="-2469.8603%" y2="-488.435294%" id="linearGradient-59">
            <stop stop-color="#140B66" offset="0%"></stop>
            <stop stop-color="#2D2AB5" offset="100%"></stop>
        </linearGradient>
        <path d="M0,3.50039813 C0,5.43373905 1.56705722,7 3.49960187,7 L3.49960187,7 C5.43294278,7 7,5.43373905 7,3.50039813 L7,3.50039813 C7,1.56705722 5.43294278,0 3.49960187,0 L3.49960187,0 C1.56705722,0 0,1.56705722 0,3.50039813" id="path-60"></path>
        <linearGradient x1="2562.87193%" y1="586.943617%" x2="-2552.38725%" y2="-506.059534%" id="linearGradient-62">
            <stop stop-color="#140B66" offset="0%"></stop>
            <stop stop-color="#2D2AB5" offset="100%"></stop>
        </linearGradient>
        <path d="M3.50039813,0 C1.56705722,0 0,1.56705722 0,3.49960187 L0,3.49960187 C0,5.43373905 1.56705722,7 3.50039813,7 L3.50039813,7 C5.43294278,7 7,5.43373905 7,3.49960187 L7,3.49960187 C7,1.56705722 5.43294278,0 3.50039813,0 Z" id="path-63"></path>
        <linearGradient x1="3028.32126%" y1="686.394508%" x2="-2086.9393%" y2="-406.60899%" id="linearGradient-65">
            <stop stop-color="#140B66" offset="0%"></stop>
            <stop stop-color="#2D2AB5" offset="100%"></stop>
        </linearGradient>
        <path d="M0,3.50039813 C0,5.43294278 1.56705722,7 3.50039813,7 L3.50039813,7 C5.43294278,7 7,5.43294278 7,3.50039813 L7,3.50039813 C7,1.56705722 5.43294278,0 3.50039813,0 L3.50039813,0 C1.56705722,0 0,1.56705722 0,3.50039813" id="path-66"></path>
        <linearGradient x1="2945.79466%" y1="668.758394%" x2="-2169.4659%" y2="-424.245104%" id="linearGradient-68">
            <stop stop-color="#140B66" offset="0%"></stop>
            <stop stop-color="#2D2AB5" offset="100%"></stop>
        </linearGradient>
        <path d="M0,3.49960187 C0,5.43294278 1.56705722,7 3.50039813,7 L3.50039813,7 C5.43294278,7 7,5.43294278 7,3.49960187 L7,3.49960187 C7,1.56705722 5.43294278,0 3.50039813,0 L3.50039813,0 C1.56705722,0 0,1.56705722 0,3.49960187" id="path-69"></path>
        <linearGradient x1="2863.27813%" y1="651.124948%" x2="-2251.98313%" y2="-441.878724%" id="linearGradient-71">
            <stop stop-color="#140B66" offset="0%"></stop>
            <stop stop-color="#2D2AB5" offset="100%"></stop>
        </linearGradient>
        <path d="M0,3.49960187 C0,5.43294278 1.56626095,7 3.49960187,7 L3.49960187,7 C5.43294278,7 7,5.43294278 7,3.49960187 L7,3.49960187 C7,1.56705722 5.43294278,0 3.49960187,0 L3.49960187,0 C1.56626095,0 0,1.56705722 0,3.49960187" id="path-72"></path>
        <linearGradient x1="3328.74906%" y1="750.582867%" x2="-1786.566%" y2="-342.43226%" id="linearGradient-74">
            <stop stop-color="#140B66" offset="0%"></stop>
            <stop stop-color="#2D2AB5" offset="100%"></stop>
        </linearGradient>
        <path d="M0,3.50039813 C0,5.43373905 1.56626095,7 3.49960187,7 L3.49960187,7 C5.43294278,7 7,5.43373905 7,3.50039813 L7,3.50039813 C7,1.56705722 5.43294278,0 3.49960187,0 L3.49960187,0 C1.56626095,0 0,1.56705722 0,3.50039813" id="path-75"></path>
        <linearGradient x1="3246.22212%" y1="732.958521%" x2="-1869.09364%" y2="-360.05678%" id="linearGradient-77">
            <stop stop-color="#140B66" offset="0%"></stop>
            <stop stop-color="#2D2AB5" offset="100%"></stop>
        </linearGradient>
        <path d="M3.49960187,0 C1.56626095,0 0,1.56705722 0,3.49960187 L0,3.49960187 C0,5.43373905 1.56626095,7 3.49960187,7 L3.49960187,7 C5.43214651,7 7,5.43373905 7,3.49960187 L7,3.49960187 C7,1.56705722 5.43214651,0 3.49960187,0 Z" id="path-78"></path>
        <linearGradient x1="3711.62432%" y1="832.401921%" x2="-1403.63625%" y2="-260.601577%" id="linearGradient-80">
            <stop stop-color="#140B66" offset="0%"></stop>
            <stop stop-color="#2D2AB5" offset="100%"></stop>
        </linearGradient>
        <path d="M0,3.50039813 C0,5.43294278 1.56626095,7 3.49960187,7 L3.49960187,7 C5.43214651,7 7,5.43294278 7,3.50039813 L7,3.50039813 C7,1.56705722 5.43214651,0 3.49960187,0 L3.49960187,0 C1.56626095,0 0,1.56705722 0,3.50039813" id="path-81"></path>
        <linearGradient x1="3629.09806%" y1="814.766399%" x2="-1486.1632%" y2="-278.237273%" id="linearGradient-83">
            <stop stop-color="#140B66" offset="0%"></stop>
            <stop stop-color="#2D2AB5" offset="100%"></stop>
        </linearGradient>
        <path d="M0,3.49960187 C0,5.43294278 1.56626095,7 3.49960187,7 L3.49960187,7 C5.43214651,7 7,5.43294278 7,3.49960187 L7,3.49960187 C7,1.56705722 5.43214651,0 3.49960187,0 L3.49960187,0 C1.56626095,0 0,1.56705722 0,3.49960187" id="path-84"></path>
        <linearGradient x1="3546.58153%" y1="797.132389%" x2="-1568.67973%" y2="-295.871283%" id="linearGradient-86">
            <stop stop-color="#140B66" offset="0%"></stop>
            <stop stop-color="#2D2AB5" offset="100%"></stop>
        </linearGradient>
        <path d="M0,3.49960187 C0,5.43294278 1.56785349,7 3.50039813,7 L3.50039813,7 C5.43373905,7 7,5.43294278 7,3.49960187 L7,3.49960187 C7,1.56705722 5.43373905,0 3.50039813,0 L3.50039813,0 C1.56785349,0 0,1.56705722 0,3.49960187" id="path-87"></path>
        <linearGradient x1="4012.03877%" y1="896.582564%" x2="-1103.21971%" y2="-196.420501%" id="linearGradient-89">
            <stop stop-color="#140B66" offset="0%"></stop>
            <stop stop-color="#2D2AB5" offset="100%"></stop>
        </linearGradient>
        <path d="M0,3.50039813 C0,5.43373905 1.56785349,7 3.50039813,7 L3.50039813,7 C5.43373905,7 7,5.43373905 7,3.50039813 L7,3.50039813 C7,1.56705722 5.43373905,0 3.50039813,0 L3.50039813,0 C1.56785349,0 0,1.56705722 0,3.50039813" id="path-90"></path>
        <linearGradient x1="3929.51251%" y1="878.958454%" x2="-1185.74666%" y2="-214.044697%" id="linearGradient-92">
            <stop stop-color="#140B66" offset="0%"></stop>
            <stop stop-color="#2D2AB5" offset="100%"></stop>
        </linearGradient>
        <path d="M3.49960187,0 C1.56705722,0 0,1.56705722 0,3.49960187 L0,3.49960187 C0,5.43373905 1.56705722,7 3.49960187,7 L3.49960187,7 C5.43373905,7 7,5.43373905 7,3.49960187 L7,3.49960187 C7,1.56705722 5.43373905,0 3.49960187,0 Z" id="path-93"></path>
        <linearGradient x1="4394.94908%" y1="978.408966%" x2="-720.309401%" y2="-114.594099%" id="linearGradient-95">
            <stop stop-color="#140B66" offset="0%"></stop>
            <stop stop-color="#2D2AB5" offset="100%"></stop>
        </linearGradient>
        <path d="M0,3.50039813 C0,5.43294278 1.56705722,7 3.49960187,7 L3.49960187,7 C5.43373905,7 7,5.43294278 7,3.50039813 L7,3.50039813 C7,1.56705722 5.43373905,0 3.49960187,0 L3.49960187,0 C1.56705722,0 0,1.56705722 0,3.50039813" id="path-96"></path>
        <linearGradient x1="4312.42283%" y1="960.773491%" x2="-802.836347%" y2="-132.22966%" id="linearGradient-98">
            <stop stop-color="#140B66" offset="0%"></stop>
            <stop stop-color="#2D2AB5" offset="100%"></stop>
        </linearGradient>
        <path d="M0,3.49960187 C0,5.43294278 1.56705722,7 3.49960187,7 L3.49960187,7 C5.43373905,7 7,5.43294278 7,3.49960187 L7,3.49960187 C7,1.56705722 5.43373905,0 3.49960187,0 L3.49960187,0 C1.56705722,0 0,1.56705722 0,3.49960187" id="path-99"></path>
        <linearGradient x1="4229.9063%" y1="943.139481%" x2="-885.352879%" y2="-149.86367%" id="linearGradient-101">
            <stop stop-color="#140B66" offset="0%"></stop>
            <stop stop-color="#2D2AB5" offset="100%"></stop>
        </linearGradient>
        <path d="M0,3.49960187 C0,5.43294278 1.56767516,7 3.5,7 L3.5,7 C5.43312102,7 7,5.43294278 7,3.49960187 L7,3.49960187 C7,1.56705722 5.43312102,0 3.5,0 L3.5,0 C1.56767516,0 0,1.56705722 0,3.49960187" id="path-102"></path>
        <linearGradient x1="4694.82227%" y1="1042.59048%" x2="-419.856483%" y2="-50.4130167%" id="linearGradient-104">
            <stop stop-color="#140B66" offset="0%"></stop>
            <stop stop-color="#2D2AB5" offset="100%"></stop>
        </linearGradient>
        <path d="M0,3.50039813 C0,5.43373905 1.56767516,7 3.5,7 L3.5,7 C5.43312102,7 7,5.43373905 7,3.50039813 L7,3.50039813 C7,1.56705722 5.43312102,0 3.5,0 L3.5,0 C1.56767516,0 0,1.56705722 0,3.50039813" id="path-105"></path>
        <linearGradient x1="4612.30541%" y1="1024.96637%" x2="-502.374042%" y2="-68.0373006%" id="linearGradient-107">
            <stop stop-color="#140B66" offset="0%"></stop>
            <stop stop-color="#2D2AB5" offset="100%"></stop>
        </linearGradient>
        <path d="M3.50039813,0 C1.56705722,0 0,1.56705722 0,3.49960187 L0,3.49960187 C0,5.43373905 1.56705722,7 3.50039813,7 L3.50039813,7 C5.43294278,7 7,5.43373905 7,3.49960187 L7,3.49960187 C7,1.56705722 5.43294278,0 3.50039813,0 Z" id="path-108"></path>
        <linearGradient x1="5078.3194%" y1="1124.4282%" x2="-36.9956637%" y2="31.4130713%" id="linearGradient-110">
            <stop stop-color="#140B66" offset="0%"></stop>
            <stop stop-color="#2D2AB5" offset="100%"></stop>
        </linearGradient>
        <path d="M0,3.50039813 C0,5.43294278 1.56705722,7 3.50039813,7 L3.50039813,7 C5.43294278,7 7,5.43294278 7,3.50039813 L7,3.50039813 C7,1.56705722 5.43294278,0 3.50039813,0 L3.50039813,0 C1.56705722,0 0,1.56705722 0,3.50039813" id="path-111"></path>
        <linearGradient x1="4995.79245%" y1="1106.79256%" x2="-119.523305%" y2="13.7772597%" id="linearGradient-113">
            <stop stop-color="#140B66" offset="0%"></stop>
            <stop stop-color="#2D2AB5" offset="100%"></stop>
        </linearGradient>
        <path d="M0,3.49960187 C0,5.43294278 1.56705722,7 3.50039813,7 L3.50039813,7 C5.43294278,7 7,5.43294278 7,3.49960187 L7,3.49960187 C7,1.56705722 5.43294278,0 3.50039813,0 L3.50039813,0 C1.56705722,0 0,1.56705722 0,3.49960187" id="path-114"></path>
        <linearGradient x1="4913.27488%" y1="1089.15833%" x2="-202.040877%" y2="-3.85696622%" id="linearGradient-116">
            <stop stop-color="#140B66" offset="0%"></stop>
            <stop stop-color="#2D2AB5" offset="100%"></stop>
        </linearGradient>
        <path d="M3.5,0 C1.56767516,0 0,1.56705722 0,3.49960187 L0,3.49960187 C0,5.43373905 1.56767516,7 3.5,7 L3.5,7 C5.43232484,7 7,5.43373905 7,3.49960187 L7,3.49960187 C7,1.56705722 5.43232484,0 3.5,0 Z" id="path-117"></path>
        <linearGradient x1="295.023032%" y1="102.363728%" x2="-4819.65572%" y2="-990.63977%" id="linearGradient-119">
            <stop stop-color="#3B35DD" offset="0%"></stop>
            <stop stop-color="#3B35DD" offset="100%"></stop>
        </linearGradient>
        <path d="M0,3.50039813 C0,5.43294278 1.56767516,7 3.5,7 L3.5,7 C5.43232484,7 7,5.43294278 7,3.50039813 L7,3.50039813 C7,1.56705722 5.43232484,0 3.5,0 L3.5,0 C1.56767516,0 0,1.56705722 0,3.50039813" id="path-120"></path>
        <linearGradient x1="212.511721%" y1="84.72885%" x2="-4902.16703%" y2="-1008.27465%" id="linearGradient-122">
            <stop stop-color="#3B35DD" offset="0%"></stop>
            <stop stop-color="#3B35DD" offset="100%"></stop>
        </linearGradient>
        <path d="M0,3.49960187 C0,5.43294278 1.56767516,7 3.5,7 L3.5,7 C5.43232484,7 7,5.43294278 7,3.49960187 L7,3.49960187 C7,1.56705722 5.43232484,0 3.5,0 L3.5,0 C1.56767516,0 0,1.56705722 0,3.49960187" id="path-123"></path>
        <linearGradient x1="130.000063%" y1="67.0944227%" x2="-4984.67939%" y2="-1025.90925%" id="linearGradient-125">
            <stop stop-color="#3B35DD" offset="0%"></stop>
            <stop stop-color="#3B35DD" offset="100%"></stop>
        </linearGradient>
        <path d="M0,3.49960187 C0,5.43294278 1.56626095,7 3.50039813,7 L3.50039813,7 C5.43294278,7 7,5.43294278 7,3.49960187 L7,3.49960187 C7,1.56705722 5.43294278,0 3.50039813,0 L3.50039813,0 C1.56626095,0 0,1.56705722 0,3.49960187" id="path-126"></path>
        <linearGradient x1="595.447946%" y1="166.544321%" x2="-4519.81053%" y2="-926.458743%" id="linearGradient-128">
            <stop stop-color="#3B35DD" offset="0%"></stop>
            <stop stop-color="#3B35DD" offset="100%"></stop>
        </linearGradient>
        <path d="M0,3.50039813 C0,5.43373905 1.56626095,7 3.50039813,7 L3.50039813,7 C5.43294278,7 7,5.43373905 7,3.50039813 L7,3.50039813 C7,1.56705722 5.43294278,0 3.50039813,0 L3.50039813,0 C1.56626095,0 0,1.56705722 0,3.50039813" id="path-129"></path>
        <linearGradient x1="512.927247%" y1="148.920841%" x2="-4602.33123%" y2="-944.082224%" id="linearGradient-131">
            <stop stop-color="#3B35DD" offset="0%"></stop>
            <stop stop-color="#3B35DD" offset="100%"></stop>
        </linearGradient>
        <path d="M3.49960187,0 C1.56626095,0 0,1.56705722 0,3.49960187 L0,3.49960187 C0,5.43373905 1.56626095,7 3.49960187,7 L3.49960187,7 C5.43294278,7 7,5.43373905 7,3.49960187 L7,3.49960187 C7,1.56705722 5.43294278,0 3.49960187,0 Z" id="path-132"></path>
        <linearGradient x1="978.361036%" y1="248.371341%" x2="-4136.89744%" y2="-844.631723%" id="linearGradient-134">
            <stop stop-color="#3B35DD" offset="0%"></stop>
            <stop stop-color="#3B35DD" offset="100%"></stop>
        </linearGradient>
        <path d="M0,3.50039813 C0,5.43294278 1.56626095,7 3.49960187,7 L3.49960187,7 C5.43294278,7 7,5.43294278 7,3.50039813 L7,3.50039813 C7,1.56705722 5.43294278,0 3.49960187,0 L3.49960187,0 C1.56626095,0 0,1.56705722 0,3.50039813" id="path-135"></path>
        <linearGradient x1="895.839645%" y1="230.736291%" x2="-4219.41884%" y2="-862.266774%" id="linearGradient-137">
            <stop stop-color="#3B35DD" offset="0%"></stop>
            <stop stop-color="#3B35DD" offset="100%"></stop>
        </linearGradient>
        <path d="M0,3.49960187 C0,5.43294278 1.56626095,7 3.49960187,7 L3.49960187,7 C5.43294278,7 7,5.43294278 7,3.49960187 L7,3.49960187 C7,1.56705722 5.43294278,0 3.49960187,0 L3.49960187,0 C1.56626095,0 0,1.56705722 0,3.49960187" id="path-138"></path>
        <linearGradient x1="813.318948%" y1="213.101966%" x2="-4301.94023%" y2="-879.901185%" id="linearGradient-140">
            <stop stop-color="#3B35DD" offset="0%"></stop>
            <stop stop-color="#3B35DD" offset="100%"></stop>
        </linearGradient>
        <path d="M0,3.49960187 C0,5.43294278 1.56705722,7 3.50039813,7 L3.50039813,7 C5.43294278,7 7,5.43294278 7,3.49960187 L7,3.49960187 C7,1.56705722 5.43294278,0 3.50039813,0 L3.50039813,0 C1.56705722,0 0,1.56705722 0,3.49960187" id="path-141"></path>
        <linearGradient x1="1278.7596%" y1="312.551024%" x2="-3836.50097%" y2="-780.452474%" id="linearGradient-143">
            <stop stop-color="#3B35DD" offset="0%"></stop>
            <stop stop-color="#3B35DD" offset="100%"></stop>
        </linearGradient>
        <path d="M0,3.50039813 C0,5.43373905 1.56705722,7 3.50039813,7 L3.50039813,7 C5.43294278,7 7,5.43373905 7,3.50039813 L7,3.50039813 C7,1.56705722 5.43294278,0 3.50039813,0 L3.50039813,0 C1.56705722,0 0,1.56705722 0,3.50039813" id="path-144"></path>
        <linearGradient x1="1196.24307%" y1="294.92839%" x2="-3919.0175%" y2="-798.075107%" id="linearGradient-146">
            <stop stop-color="#3B35DD" offset="0%"></stop>
            <stop stop-color="#3B35DD" offset="100%"></stop>
        </linearGradient>
        <path d="M3.50039813,0 C1.56705722,0 0,1.56705722 0,3.49960187 L0,3.49960187 C0,5.43373905 1.56705722,7 3.50039813,7 L3.50039813,7 C5.43373905,7 7,5.43373905 7,3.49960187 L7,3.49960187 C7,1.56705722 5.43373905,0 3.50039813,0 Z" id="path-147"></path>
        <linearGradient x1="1661.70802%" y1="394.383121%" x2="-3453.60705%" y2="-698.632005%" id="linearGradient-149">
            <stop stop-color="#3B35DD" offset="0%"></stop>
            <stop stop-color="#3B35DD" offset="100%"></stop>
        </linearGradient>
        <path d="M0,3.50039813 C0,5.43294278 1.56705722,7 3.50039813,7 L3.50039813,7 C5.43373905,7 7,5.43294278 7,3.50039813 L7,3.50039813 C7,1.56705722 5.43373905,0 3.50039813,0 L3.50039813,0 C1.56705722,0 0,1.56705722 0,3.50039813" id="path-150"></path>
        <linearGradient x1="1579.18038%" y1="376.746812%" x2="-3536.13469%" y2="-716.268315%" id="linearGradient-152">
            <stop stop-color="#3B35DD" offset="0%"></stop>
            <stop stop-color="#3B35DD" offset="100%"></stop>
        </linearGradient>
        <path d="M0,3.49960187 C0,5.43294278 1.56705722,7 3.50039813,7 L3.50039813,7 C5.43373905,7 7,5.43294278 7,3.49960187 L7,3.49960187 C7,1.56705722 5.43373905,0 3.50039813,0 L3.50039813,0 C1.56705722,0 0,1.56705722 0,3.49960187" id="path-153"></path>
        <linearGradient x1="1496.66315%" y1="359.113149%" x2="-3618.65261%" y2="-733.902152%" id="linearGradient-155">
            <stop stop-color="#3B35DD" offset="0%"></stop>
            <stop stop-color="#3B35DD" offset="100%"></stop>
        </linearGradient>
        <path d="M0,3.49960187 C0,5.43294278 1.56705722,7 3.49960187,7 L3.49960187,7 C5.43294278,7 7,5.43294278 7,3.49960187 L7,3.49960187 C7,1.56705722 5.43294278,0 3.49960187,0 L3.49960187,0 C1.56705722,0 0,1.56705722 0,3.49960187" id="path-156"></path>
        <linearGradient x1="1962.07403%" y1="458.558464%" x2="-3153.18653%" y2="-634.445034%" id="linearGradient-158">
            <stop stop-color="#3B35DD" offset="0%"></stop>
            <stop stop-color="#3B35DD" offset="100%"></stop>
        </linearGradient>
        <path d="M0,3.50039813 C0,5.43373905 1.56705722,7 3.49960187,7 L3.49960187,7 C5.43294278,7 7,5.43373905 7,3.50039813 L7,3.50039813 C7,1.56705722 5.43294278,0 3.49960187,0 L3.49960187,0 C1.56705722,0 0,1.56705722 0,3.50039813" id="path-159"></path>
        <linearGradient x1="1879.5575%" y1="440.936361%" x2="-3235.70376%" y2="-652.067311%" id="linearGradient-161">
            <stop stop-color="#3B35DD" offset="0%"></stop>
            <stop stop-color="#3B35DD" offset="100%"></stop>
        </linearGradient>
        <path d="M3.50039813,0 C1.56705722,0 0,1.56705722 0,3.49960187 L0,3.49960187 C0,5.43373905 1.56705722,7 3.50039813,7 L3.50039813,7 C5.43294278,7 7,5.43373905 7,3.49960187 L7,3.49960187 C7,1.56705722 5.43294278,0 3.50039813,0 Z" id="path-162"></path>
        <linearGradient x1="2345.00475%" y1="540.386785%" x2="-2770.25373%" y2="-552.616279%" id="linearGradient-164">
            <stop stop-color="#3B35DD" offset="0%"></stop>
            <stop stop-color="#3B35DD" offset="100%"></stop>
        </linearGradient>
        <path d="M0,3.50039813 C0,5.43294278 1.56705722,7 3.50039813,7 L3.50039813,7 C5.43294278,7 7,5.43294278 7,3.50039813 L7,3.50039813 C7,1.56705722 5.43294278,0 3.50039813,0 L3.50039813,0 C1.56705722,0 0,1.56705722 0,3.50039813" id="path-165"></path>
        <linearGradient x1="2262.47815%" y1="522.75066%" x2="-2852.78033%" y2="-570.252405%" id="linearGradient-167">
            <stop stop-color="#3B35DD" offset="0%"></stop>
            <stop stop-color="#3B35DD" offset="100%"></stop>
        </linearGradient>
        <path d="M0,3.49960187 C0,5.43294278 1.56705722,7 3.50039813,7 L3.50039813,7 C5.43294278,7 7,5.43294278 7,3.49960187 L7,3.49960187 C7,1.56705722 5.43294278,0 3.50039813,0 L3.50039813,0 C1.56705722,0 0,1.56705722 0,3.49960187" id="path-168"></path>
        <linearGradient x1="2179.96161%" y1="505.117205%" x2="-2935.29756%" y2="-587.885946%" id="linearGradient-170">
            <stop stop-color="#3B35DD" offset="0%"></stop>
            <stop stop-color="#3B35DD" offset="100%"></stop>
        </linearGradient>
        <path d="M0,3.49960187 C0,5.43294278 1.56705722,7 3.49960187,7 L3.49960187,7 C5.43294278,7 7,5.43294278 7,3.49960187 L7,3.49960187 C7,1.56705722 5.43294278,0 3.49960187,0 L3.49960187,0 C1.56705722,0 0,1.56705722 0,3.49960187" id="path-171"></path>
        <linearGradient x1="2645.39818%" y1="604.56777%" x2="-2469.8603%" y2="-488.435294%" id="linearGradient-173">
            <stop stop-color="#3B35DD" offset="0%"></stop>
            <stop stop-color="#3B35DD" offset="100%"></stop>
        </linearGradient>
        <path d="M0,3.50039813 C0,5.43373905 1.56705722,7 3.49960187,7 L3.49960187,7 C5.43294278,7 7,5.43373905 7,3.50039813 L7,3.50039813 C7,1.56705722 5.43294278,0 3.49960187,0 L3.49960187,0 C1.56705722,0 0,1.56705722 0,3.50039813" id="path-174"></path>
        <linearGradient x1="2562.87193%" y1="586.943617%" x2="-2552.38725%" y2="-506.059534%" id="linearGradient-176">
            <stop stop-color="#3B35DD" offset="0%"></stop>
            <stop stop-color="#3B35DD" offset="100%"></stop>
        </linearGradient>
        <path d="M3.50039813,0 C1.56705722,0 0,1.56705722 0,3.49960187 L0,3.49960187 C0,5.43373905 1.56705722,7 3.50039813,7 L3.50039813,7 C5.43294278,7 7,5.43373905 7,3.49960187 L7,3.49960187 C7,1.56705722 5.43294278,0 3.50039813,0 Z" id="path-177"></path>
        <linearGradient x1="3028.32126%" y1="686.394508%" x2="-2086.9393%" y2="-406.60899%" id="linearGradient-179">
            <stop stop-color="#3B35DD" offset="0%"></stop>
            <stop stop-color="#3B35DD" offset="100%"></stop>
        </linearGradient>
        <path d="M0,3.50039813 C0,5.43294278 1.56705722,7 3.50039813,7 L3.50039813,7 C5.43294278,7 7,5.43294278 7,3.50039813 L7,3.50039813 C7,1.56705722 5.43294278,0 3.50039813,0 L3.50039813,0 C1.56705722,0 0,1.56705722 0,3.50039813" id="path-180"></path>
        <linearGradient x1="2945.79466%" y1="668.758394%" x2="-2169.4659%" y2="-424.245104%" id="linearGradient-182">
            <stop stop-color="#3B35DD" offset="0%"></stop>
            <stop stop-color="#3B35DD" offset="100%"></stop>
        </linearGradient>
        <path d="M0,3.49960187 C0,5.43294278 1.56705722,7 3.50039813,7 L3.50039813,7 C5.43294278,7 7,5.43294278 7,3.49960187 L7,3.49960187 C7,1.56705722 5.43294278,0 3.50039813,0 L3.50039813,0 C1.56705722,0 0,1.56705722 0,3.49960187" id="path-183"></path>
        <linearGradient x1="2863.27813%" y1="651.124948%" x2="-2251.98313%" y2="-441.878724%" id="linearGradient-185">
            <stop stop-color="#3B35DD" offset="0%"></stop>
            <stop stop-color="#3B35DD" offset="100%"></stop>
        </linearGradient>
        <path d="M0,3.49960187 C0,5.43294278 1.56626095,7 3.49960187,7 L3.49960187,7 C5.43294278,7 7,5.43294278 7,3.49960187 L7,3.49960187 C7,1.56705722 5.43294278,0 3.49960187,0 L3.49960187,0 C1.56626095,0 0,1.56705722 0,3.49960187" id="path-186"></path>
        <linearGradient x1="3328.74906%" y1="750.582867%" x2="-1786.566%" y2="-342.43226%" id="linearGradient-188">
            <stop stop-color="#3B35DD" offset="0%"></stop>
            <stop stop-color="#3B35DD" offset="100%"></stop>
        </linearGradient>
        <path d="M0,3.50039813 C0,5.43373905 1.56626095,7 3.49960187,7 L3.49960187,7 C5.43294278,7 7,5.43373905 7,3.50039813 L7,3.50039813 C7,1.56705722 5.43294278,0 3.49960187,0 L3.49960187,0 C1.56626095,0 0,1.56705722 0,3.50039813" id="path-189"></path>
        <linearGradient x1="3246.22212%" y1="732.958521%" x2="-1869.09364%" y2="-360.05678%" id="linearGradient-191">
            <stop stop-color="#3B35DD" offset="0%"></stop>
            <stop stop-color="#3B35DD" offset="100%"></stop>
        </linearGradient>
        <path d="M3.49960187,0 C1.56626095,0 0,1.56705722 0,3.49960187 L0,3.49960187 C0,5.43373905 1.56626095,7 3.49960187,7 L3.49960187,7 C5.43214651,7 7,5.43373905 7,3.49960187 L7,3.49960187 C7,1.56705722 5.43214651,0 3.49960187,0 Z" id="path-192"></path>
        <linearGradient x1="3711.62432%" y1="832.401921%" x2="-1403.63625%" y2="-260.601577%" id="linearGradient-194">
            <stop stop-color="#3B35DD" offset="0%"></stop>
            <stop stop-color="#3B35DD" offset="100%"></stop>
        </linearGradient>
        <path d="M0,3.50039813 C0,5.43294278 1.56626095,7 3.49960187,7 L3.49960187,7 C5.43214651,7 7,5.43294278 7,3.50039813 L7,3.50039813 C7,1.56705722 5.43214651,0 3.49960187,0 L3.49960187,0 C1.56626095,0 0,1.56705722 0,3.50039813" id="path-195"></path>
        <linearGradient x1="3629.09806%" y1="814.766399%" x2="-1486.1632%" y2="-278.237273%" id="linearGradient-197">
            <stop stop-color="#3B35DD" offset="0%"></stop>
            <stop stop-color="#3B35DD" offset="100%"></stop>
        </linearGradient>
        <path d="M0,3.49960187 C0,5.43294278 1.56626095,7 3.49960187,7 L3.49960187,7 C5.43214651,7 7,5.43294278 7,3.49960187 L7,3.49960187 C7,1.56705722 5.43214651,0 3.49960187,0 L3.49960187,0 C1.56626095,0 0,1.56705722 0,3.49960187" id="path-198"></path>
        <linearGradient x1="3546.58153%" y1="797.132389%" x2="-1568.67973%" y2="-295.871283%" id="linearGradient-200">
            <stop stop-color="#3B35DD" offset="0%"></stop>
            <stop stop-color="#3B35DD" offset="100%"></stop>
        </linearGradient>
        <path d="M0,3.49960187 C0,5.43294278 1.56785349,7 3.50039813,7 L3.50039813,7 C5.43373905,7 7,5.43294278 7,3.49960187 L7,3.49960187 C7,1.56705722 5.43373905,0 3.50039813,0 L3.50039813,0 C1.56785349,0 0,1.56705722 0,3.49960187" id="path-201"></path>
        <linearGradient x1="4012.03877%" y1="896.582564%" x2="-1103.21971%" y2="-196.420501%" id="linearGradient-203">
            <stop stop-color="#3B35DD" offset="0%"></stop>
            <stop stop-color="#3B35DD" offset="100%"></stop>
        </linearGradient>
        <path d="M0,3.50039813 C0,5.43373905 1.56785349,7 3.50039813,7 L3.50039813,7 C5.43373905,7 7,5.43373905 7,3.50039813 L7,3.50039813 C7,1.56705722 5.43373905,0 3.50039813,0 L3.50039813,0 C1.56785349,0 0,1.56705722 0,3.50039813" id="path-204"></path>
        <linearGradient x1="3929.51251%" y1="878.958454%" x2="-1185.74666%" y2="-214.044697%" id="linearGradient-206">
            <stop stop-color="#3B35DD" offset="0%"></stop>
            <stop stop-color="#3B35DD" offset="100%"></stop>
        </linearGradient>
        <path d="M3.49960187,0 C1.56705722,0 0,1.56705722 0,3.49960187 L0,3.49960187 C0,5.43373905 1.56705722,7 3.49960187,7 L3.49960187,7 C5.43373905,7 7,5.43373905 7,3.49960187 L7,3.49960187 C7,1.56705722 5.43373905,0 3.49960187,0 Z" id="path-207"></path>
        <linearGradient x1="4394.94908%" y1="978.408966%" x2="-720.309401%" y2="-114.594099%" id="linearGradient-209">
            <stop stop-color="#3B35DD" offset="0%"></stop>
            <stop stop-color="#3B35DD" offset="100%"></stop>
        </linearGradient>
        <path d="M0,3.50039813 C0,5.43294278 1.56705722,7 3.49960187,7 L3.49960187,7 C5.43373905,7 7,5.43294278 7,3.50039813 L7,3.50039813 C7,1.56705722 5.43373905,0 3.49960187,0 L3.49960187,0 C1.56705722,0 0,1.56705722 0,3.50039813" id="path-210"></path>
        <linearGradient x1="4312.42283%" y1="960.773491%" x2="-802.836347%" y2="-132.22966%" id="linearGradient-212">
            <stop stop-color="#3B35DD" offset="0%"></stop>
            <stop stop-color="#3B35DD" offset="100%"></stop>
        </linearGradient>
        <path d="M0,3.49960187 C0,5.43294278 1.56705722,7 3.49960187,7 L3.49960187,7 C5.43373905,7 7,5.43294278 7,3.49960187 L7,3.49960187 C7,1.56705722 5.43373905,0 3.49960187,0 L3.49960187,0 C1.56705722,0 0,1.56705722 0,3.49960187" id="path-213"></path>
        <linearGradient x1="4229.9063%" y1="943.139481%" x2="-885.352879%" y2="-149.86367%" id="linearGradient-215">
            <stop stop-color="#3B35DD" offset="0%"></stop>
            <stop stop-color="#3B35DD" offset="100%"></stop>
        </linearGradient>
        <path d="M0,3.49960187 C0,5.43294278 1.56767516,7 3.5,7 L3.5,7 C5.43312102,7 7,5.43294278 7,3.49960187 L7,3.49960187 C7,1.56705722 5.43312102,0 3.5,0 L3.5,0 C1.56767516,0 0,1.56705722 0,3.49960187" id="path-216"></path>
        <linearGradient x1="4694.82227%" y1="1042.59048%" x2="-419.856483%" y2="-50.4130167%" id="linearGradient-218">
            <stop stop-color="#3B35DD" offset="0%"></stop>
            <stop stop-color="#3B35DD" offset="100%"></stop>
        </linearGradient>
        <path d="M0,3.50039813 C0,5.43373905 1.56767516,7 3.5,7 L3.5,7 C5.43312102,7 7,5.43373905 7,3.50039813 L7,3.50039813 C7,1.56705722 5.43312102,0 3.5,0 L3.5,0 C1.56767516,0 0,1.56705722 0,3.50039813" id="path-219"></path>
        <linearGradient x1="4612.30541%" y1="1024.96637%" x2="-502.374042%" y2="-68.0373006%" id="linearGradient-221">
            <stop stop-color="#3B35DD" offset="0%"></stop>
            <stop stop-color="#3B35DD" offset="100%"></stop>
        </linearGradient>
        <path d="M3.50039813,0 C1.56705722,0 0,1.56705722 0,3.49960187 L0,3.49960187 C0,5.43373905 1.56705722,7 3.50039813,7 L3.50039813,7 C5.43294278,7 7,5.43373905 7,3.49960187 L7,3.49960187 C7,1.56705722 5.43294278,0 3.50039813,0 Z" id="path-222"></path>
        <linearGradient x1="5078.3194%" y1="1124.4282%" x2="-36.9956637%" y2="31.4130713%" id="linearGradient-224">
            <stop stop-color="#3B35DD" offset="0%"></stop>
            <stop stop-color="#3B35DD" offset="100%"></stop>
        </linearGradient>
        <path d="M0,3.50039813 C0,5.43294278 1.56705722,7 3.50039813,7 L3.50039813,7 C5.43294278,7 7,5.43294278 7,3.50039813 L7,3.50039813 C7,1.56705722 5.43294278,0 3.50039813,0 L3.50039813,0 C1.56705722,0 0,1.56705722 0,3.50039813" id="path-225"></path>
        <linearGradient x1="4995.79245%" y1="1106.79256%" x2="-119.523305%" y2="13.7772597%" id="linearGradient-227">
            <stop stop-color="#3B35DD" offset="0%"></stop>
            <stop stop-color="#3B35DD" offset="100%"></stop>
        </linearGradient>
        <path d="M0,3.49960187 C0,5.43294278 1.56705722,7 3.50039813,7 L3.50039813,7 C5.43294278,7 7,5.43294278 7,3.49960187 L7,3.49960187 C7,1.56705722 5.43294278,0 3.50039813,0 L3.50039813,0 C1.56705722,0 0,1.56705722 0,3.49960187" id="path-228"></path>
        <linearGradient x1="4913.27488%" y1="1089.15833%" x2="-202.040877%" y2="-3.85696622%" id="linearGradient-230">
            <stop stop-color="#3B35DD" offset="0%"></stop>
            <stop stop-color="#3B35DD" offset="100%"></stop>
        </linearGradient>
        <linearGradient x1="0.835418132%" y1="32.8689276%" x2="93.2520484%" y2="67.199698%" id="linearGradient-231">
            <stop stop-color="#4339EF" offset="0%"></stop>
            <stop stop-color="#4339EF" offset="30.6059866%"></stop>
            <stop stop-color="#306FF9" offset="100%"></stop>
        </linearGradient>
        <linearGradient x1="0.835418132%" y1="44.4626723%" x2="93.2520484%" y2="55.5595097%" id="linearGradient-232">
            <stop stop-color="#4339EF" offset="0%"></stop>
            <stop stop-color="#4339EF" offset="30.6059866%"></stop>
            <stop stop-color="#306FF9" offset="100%"></stop>
        </linearGradient>
        <linearGradient x1="0.835418132%" y1="45.2449912%" x2="93.2520484%" y2="54.774057%" id="linearGradient-233">
            <stop stop-color="#4339EF" offset="0%"></stop>
            <stop stop-color="#4339EF" offset="30.6059866%"></stop>
            <stop stop-color="#306FF9" offset="100%"></stop>
        </linearGradient>
        <linearGradient x1="0.835418132%" y1="45.6421629%" x2="93.2520484%" y2="54.3752942%" id="linearGradient-234">
            <stop stop-color="#4339EF" offset="0%"></stop>
            <stop stop-color="#4339EF" offset="30.6059866%"></stop>
            <stop stop-color="#306FF9" offset="100%"></stop>
        </linearGradient>
        <linearGradient x1="0.835418132%" y1="46.0542012%" x2="93.2520484%" y2="53.9616053%" id="linearGradient-235">
            <stop stop-color="#4339EF" offset="0%"></stop>
            <stop stop-color="#4339EF" offset="30.6059866%"></stop>
            <stop stop-color="#306FF9" offset="100%"></stop>
        </linearGradient>
        <linearGradient x1="0.835418132%" y1="44.8148009%" x2="93.2520484%" y2="55.2059705%" id="linearGradient-236">
            <stop stop-color="#4339EF" offset="0%"></stop>
            <stop stop-color="#4339EF" offset="30.6059866%"></stop>
            <stop stop-color="#306FF9" offset="100%"></stop>
        </linearGradient>
        <linearGradient x1="0.835418132%" y1="46.438791%" x2="93.2520484%" y2="53.5754749%" id="linearGradient-237">
            <stop stop-color="#4339EF" offset="0%"></stop>
            <stop stop-color="#4339EF" offset="30.6059866%"></stop>
            <stop stop-color="#306FF9" offset="100%"></stop>
        </linearGradient>
    </defs>
    <g id="网站-pc" stroke="none" stroke-width="1" fill="none" fill-rule="evenodd">
        <g id="版本说明" transform="translate(-184.000000, -70.000000)">
            <g id="dingjia-banaenr" transform="translate(184.000000, 70.000000)">
                <mask id="mask-2" fill="white">
                    <use xlink:href="#path-1"></use>
                </mask>
                <g id="蒙版"></g>
                <g id="编组" mask="url(#mask-2)">
                    <g transform="translate(5.000000, 407.956082)">
                        <g transform="translate(330.000000, 0.000000)">
                            <mask id="mask-4" fill="white">
                                <use xlink:href="#path-3"></use>
                            </mask>
                            <g id="Clip-2"></g>
                            <path d="M3.5,0 C1.56767516,0 0,1.56705722 0,3.49960187 L0,3.49960187 C0,5.43373905 1.56767516,7 3.5,7 L3.5,7 C5.43232484,7 7,5.43373905 7,3.49960187 L7,3.49960187 C7,1.56705722 5.43232484,0 3.5,0 Z" id="Fill-1" fill="url(#linearGradient-5)" mask="url(#mask-4)"></path>
                        </g>
                        <g transform="translate(330.000000, 26.000000)">
                            <mask id="mask-7" fill="white">
                                <use xlink:href="#path-6"></use>
                            </mask>
                            <g id="Clip-4"></g>
                            <path d="M0,3.50039813 C0,5.43294278 1.56767516,7 3.5,7 L3.5,7 C5.43232484,7 7,5.43294278 7,3.50039813 L7,3.50039813 C7,1.56705722 5.43232484,0 3.5,0 L3.5,0 C1.56767516,0 0,1.56705722 0,3.50039813" id="Fill-3" fill="url(#linearGradient-8)" mask="url(#mask-7)"></path>
                        </g>
                        <g transform="translate(330.000000, 53.000000)">
                            <mask id="mask-10" fill="white">
                                <use xlink:href="#path-9"></use>
                            </mask>
                            <g id="Clip-6"></g>
                            <path d="M0,3.49960187 C0,5.43294278 1.56767516,7 3.5,7 L3.5,7 C5.43232484,7 7,5.43294278 7,3.49960187 L7,3.49960187 C7,1.56705722 5.43232484,0 3.5,0 L3.5,0 C1.56767516,0 0,1.56705722 0,3.49960187" id="Fill-5" fill="url(#linearGradient-11)" mask="url(#mask-10)"></path>
                        </g>
                        <g transform="translate(307.000000, 13.000000)">
                            <mask id="mask-13" fill="white">
                                <use xlink:href="#path-12"></use>
                            </mask>
                            <g id="Clip-8"></g>
                            <path d="M0,3.49960187 C0,5.43294278 1.56626095,7 3.50039813,7 L3.50039813,7 C5.43294278,7 7,5.43294278 7,3.49960187 L7,3.49960187 C7,1.56705722 5.43294278,0 3.50039813,0 L3.50039813,0 C1.56626095,0 0,1.56705722 0,3.49960187" id="Fill-7" fill="url(#linearGradient-14)" mask="url(#mask-13)"></path>
                        </g>
                        <g transform="translate(307.000000, 40.000000)">
                            <mask id="mask-16" fill="white">
                                <use xlink:href="#path-15"></use>
                            </mask>
                            <g id="Clip-10"></g>
                            <path d="M0,3.50039813 C0,5.43373905 1.56626095,7 3.50039813,7 L3.50039813,7 C5.43294278,7 7,5.43373905 7,3.50039813 L7,3.50039813 C7,1.56705722 5.43294278,0 3.50039813,0 L3.50039813,0 C1.56626095,0 0,1.56705722 0,3.50039813" id="Fill-9" fill="url(#linearGradient-17)" mask="url(#mask-16)"></path>
                        </g>
                        <g transform="translate(283.000000, 0.000000)">
                            <mask id="mask-19" fill="white">
                                <use xlink:href="#path-18"></use>
                            </mask>
                            <g id="Clip-12"></g>
                            <path d="M3.49960187,0 C1.56626095,0 0,1.56705722 0,3.49960187 L0,3.49960187 C0,5.43373905 1.56626095,7 3.49960187,7 L3.49960187,7 C5.43294278,7 7,5.43373905 7,3.49960187 L7,3.49960187 C7,1.56705722 5.43294278,0 3.49960187,0 Z" id="Fill-11" fill="url(#linearGradient-20)" mask="url(#mask-19)"></path>
                        </g>
                        <g transform="translate(283.000000, 26.000000)">
                            <mask id="mask-22" fill="white">
                                <use xlink:href="#path-21"></use>
                            </mask>
                            <g id="Clip-14"></g>
                            <path d="M0,3.50039813 C0,5.43294278 1.56626095,7 3.49960187,7 L3.49960187,7 C5.43294278,7 7,5.43294278 7,3.50039813 L7,3.50039813 C7,1.56705722 5.43294278,0 3.49960187,0 L3.49960187,0 C1.56626095,0 0,1.56705722 0,3.50039813" id="Fill-13" fill="url(#linearGradient-23)" mask="url(#mask-22)"></path>
                        </g>
                        <g transform="translate(283.000000, 53.000000)">
                            <mask id="mask-25" fill="white">
                                <use xlink:href="#path-24"></use>
                            </mask>
                            <g id="Clip-16"></g>
                            <path d="M0,3.49960187 C0,5.43294278 1.56626095,7 3.49960187,7 L3.49960187,7 C5.43294278,7 7,5.43294278 7,3.49960187 L7,3.49960187 C7,1.56705722 5.43294278,0 3.49960187,0 L3.49960187,0 C1.56626095,0 0,1.56705722 0,3.49960187" id="Fill-15" fill="url(#linearGradient-26)" mask="url(#mask-25)"></path>
                        </g>
                        <g transform="translate(260.000000, 13.000000)">
                            <mask id="mask-28" fill="white">
                                <use xlink:href="#path-27"></use>
                            </mask>
                            <g id="Clip-18"></g>
                            <path d="M0,3.49960187 C0,5.43294278 1.56705722,7 3.50039813,7 L3.50039813,7 C5.43294278,7 7,5.43294278 7,3.49960187 L7,3.49960187 C7,1.56705722 5.43294278,0 3.50039813,0 L3.50039813,0 C1.56705722,0 0,1.56705722 0,3.49960187" id="Fill-17" fill="url(#linearGradient-29)" mask="url(#mask-28)"></path>
                        </g>
                        <g transform="translate(260.000000, 40.000000)">
                            <mask id="mask-31" fill="white">
                                <use xlink:href="#path-30"></use>
                            </mask>
                            <g id="Clip-20"></g>
                            <path d="M0,3.50039813 C0,5.43373905 1.56705722,7 3.50039813,7 L3.50039813,7 C5.43294278,7 7,5.43373905 7,3.50039813 L7,3.50039813 C7,1.56705722 5.43294278,0 3.50039813,0 L3.50039813,0 C1.56705722,0 0,1.56705722 0,3.50039813" id="Fill-19" fill="url(#linearGradient-32)" mask="url(#mask-31)"></path>
                        </g>
                        <g transform="translate(236.000000, 0.000000)">
                            <mask id="mask-34" fill="white">
                                <use xlink:href="#path-33"></use>
                            </mask>
                            <g id="Clip-22"></g>
                            <path d="M3.50039813,0 C1.56705722,0 0,1.56705722 0,3.49960187 L0,3.49960187 C0,5.43373905 1.56705722,7 3.50039813,7 L3.50039813,7 C5.43373905,7 7,5.43373905 7,3.49960187 L7,3.49960187 C7,1.56705722 5.43373905,0 3.50039813,0 Z" id="Fill-21" fill="url(#linearGradient-35)" mask="url(#mask-34)"></path>
                        </g>
                        <g transform="translate(236.000000, 26.000000)">
                            <mask id="mask-37" fill="white">
                                <use xlink:href="#path-36"></use>
                            </mask>
                            <g id="Clip-24"></g>
                            <path d="M0,3.50039813 C0,5.43294278 1.56705722,7 3.50039813,7 L3.50039813,7 C5.43373905,7 7,5.43294278 7,3.50039813 L7,3.50039813 C7,1.56705722 5.43373905,0 3.50039813,0 L3.50039813,0 C1.56705722,0 0,1.56705722 0,3.50039813" id="Fill-23" fill="url(#linearGradient-38)" mask="url(#mask-37)"></path>
                        </g>
                        <g transform="translate(236.000000, 53.000000)">
                            <mask id="mask-40" fill="white">
                                <use xlink:href="#path-39"></use>
                            </mask>
                            <g id="Clip-26"></g>
                            <path d="M0,3.49960187 C0,5.43294278 1.56705722,7 3.50039813,7 L3.50039813,7 C5.43373905,7 7,5.43294278 7,3.49960187 L7,3.49960187 C7,1.56705722 5.43373905,0 3.50039813,0 L3.50039813,0 C1.56705722,0 0,1.56705722 0,3.49960187" id="Fill-25" fill="url(#linearGradient-41)" mask="url(#mask-40)"></path>
                        </g>
                        <g transform="translate(212.000000, 13.000000)">
                            <mask id="mask-43" fill="white">
                                <use xlink:href="#path-42"></use>
                            </mask>
                            <g id="Clip-28"></g>
                            <path d="M0,3.49960187 C0,5.43294278 1.56705722,7 3.49960187,7 L3.49960187,7 C5.43294278,7 7,5.43294278 7,3.49960187 L7,3.49960187 C7,1.56705722 5.43294278,0 3.49960187,0 L3.49960187,0 C1.56705722,0 0,1.56705722 0,3.49960187" id="Fill-27" fill="url(#linearGradient-44)" mask="url(#mask-43)"></path>
                        </g>
                        <g transform="translate(212.000000, 40.000000)">
                            <mask id="mask-46" fill="white">
                                <use xlink:href="#path-45"></use>
                            </mask>
                            <g id="Clip-30"></g>
                            <path d="M0,3.50039813 C0,5.43373905 1.56705722,7 3.49960187,7 L3.49960187,7 C5.43294278,7 7,5.43373905 7,3.50039813 L7,3.50039813 C7,1.56705722 5.43294278,0 3.49960187,0 L3.49960187,0 C1.56705722,0 0,1.56705722 0,3.50039813" id="Fill-29" fill="url(#linearGradient-47)" mask="url(#mask-46)"></path>
                        </g>
                        <g transform="translate(189.000000, 0.000000)">
                            <mask id="mask-49" fill="white">
                                <use xlink:href="#path-48"></use>
                            </mask>
                            <g id="Clip-32"></g>
                            <path d="M3.50039813,0 C1.56705722,0 0,1.56705722 0,3.49960187 L0,3.49960187 C0,5.43373905 1.56705722,7 3.50039813,7 L3.50039813,7 C5.43294278,7 7,5.43373905 7,3.49960187 L7,3.49960187 C7,1.56705722 5.43294278,0 3.50039813,0 Z" id="Fill-31" fill="url(#linearGradient-50)" mask="url(#mask-49)"></path>
                        </g>
                        <g transform="translate(189.000000, 26.000000)">
                            <mask id="mask-52" fill="white">
                                <use xlink:href="#path-51"></use>
                            </mask>
                            <g id="Clip-34"></g>
                            <path d="M0,3.50039813 C0,5.43294278 1.56705722,7 3.50039813,7 L3.50039813,7 C5.43294278,7 7,5.43294278 7,3.50039813 L7,3.50039813 C7,1.56705722 5.43294278,0 3.50039813,0 L3.50039813,0 C1.56705722,0 0,1.56705722 0,3.50039813" id="Fill-33" fill="url(#linearGradient-53)" mask="url(#mask-52)"></path>
                        </g>
                        <g transform="translate(189.000000, 53.000000)">
                            <mask id="mask-55" fill="white">
                                <use xlink:href="#path-54"></use>
                            </mask>
                            <g id="Clip-36"></g>
                            <path d="M0,3.49960187 C0,5.43294278 1.56705722,7 3.50039813,7 L3.50039813,7 C5.43294278,7 7,5.43294278 7,3.49960187 L7,3.49960187 C7,1.56705722 5.43294278,0 3.50039813,0 L3.50039813,0 C1.56705722,0 0,1.56705722 0,3.49960187" id="Fill-35" fill="url(#linearGradient-56)" mask="url(#mask-55)"></path>
                        </g>
                        <g transform="translate(165.000000, 13.000000)">
                            <mask id="mask-58" fill="white">
                                <use xlink:href="#path-57"></use>
                            </mask>
                            <g id="Clip-38"></g>
                            <path d="M0,3.49960187 C0,5.43294278 1.56705722,7 3.49960187,7 L3.49960187,7 C5.43294278,7 7,5.43294278 7,3.49960187 L7,3.49960187 C7,1.56705722 5.43294278,0 3.49960187,0 L3.49960187,0 C1.56705722,0 0,1.56705722 0,3.49960187" id="Fill-37" fill="url(#linearGradient-59)" mask="url(#mask-58)"></path>
                        </g>
                        <g transform="translate(165.000000, 40.000000)">
                            <mask id="mask-61" fill="white">
                                <use xlink:href="#path-60"></use>
                            </mask>
                            <g id="Clip-40"></g>
                            <path d="M0,3.50039813 C0,5.43373905 1.56705722,7 3.49960187,7 L3.49960187,7 C5.43294278,7 7,5.43373905 7,3.50039813 L7,3.50039813 C7,1.56705722 5.43294278,0 3.49960187,0 L3.49960187,0 C1.56705722,0 0,1.56705722 0,3.50039813" id="Fill-39" fill="url(#linearGradient-62)" mask="url(#mask-61)"></path>
                        </g>
                        <g transform="translate(142.000000, 0.000000)">
                            <mask id="mask-64" fill="white">
                                <use xlink:href="#path-63"></use>
                            </mask>
                            <g id="Clip-42"></g>
                            <path d="M3.50039813,0 C1.56705722,0 0,1.56705722 0,3.49960187 L0,3.49960187 C0,5.43373905 1.56705722,7 3.50039813,7 L3.50039813,7 C5.43294278,7 7,5.43373905 7,3.49960187 L7,3.49960187 C7,1.56705722 5.43294278,0 3.50039813,0 Z" id="Fill-41" fill="url(#linearGradient-65)" mask="url(#mask-64)"></path>
                        </g>
                        <g transform="translate(142.000000, 26.000000)">
                            <mask id="mask-67" fill="white">
                                <use xlink:href="#path-66"></use>
                            </mask>
                            <g id="Clip-44"></g>
                            <path d="M0,3.50039813 C0,5.43294278 1.56705722,7 3.50039813,7 L3.50039813,7 C5.43294278,7 7,5.43294278 7,3.50039813 L7,3.50039813 C7,1.56705722 5.43294278,0 3.50039813,0 L3.50039813,0 C1.56705722,0 0,1.56705722 0,3.50039813" id="Fill-43" fill="url(#linearGradient-68)" mask="url(#mask-67)"></path>
                        </g>
                        <g transform="translate(142.000000, 53.000000)">
                            <mask id="mask-70" fill="white">
                                <use xlink:href="#path-69"></use>
                            </mask>
                            <g id="Clip-46"></g>
                            <path d="M0,3.49960187 C0,5.43294278 1.56705722,7 3.50039813,7 L3.50039813,7 C5.43294278,7 7,5.43294278 7,3.49960187 L7,3.49960187 C7,1.56705722 5.43294278,0 3.50039813,0 L3.50039813,0 C1.56705722,0 0,1.56705722 0,3.49960187" id="Fill-45" fill="url(#linearGradient-71)" mask="url(#mask-70)"></path>
                        </g>
                        <g transform="translate(118.000000, 13.000000)">
                            <mask id="mask-73" fill="white">
                                <use xlink:href="#path-72"></use>
                            </mask>
                            <g id="Clip-48"></g>
                            <path d="M0,3.49960187 C0,5.43294278 1.56626095,7 3.49960187,7 L3.49960187,7 C5.43294278,7 7,5.43294278 7,3.49960187 L7,3.49960187 C7,1.56705722 5.43294278,0 3.49960187,0 L3.49960187,0 C1.56626095,0 0,1.56705722 0,3.49960187" id="Fill-47" fill="url(#linearGradient-74)" mask="url(#mask-73)"></path>
                        </g>
                        <g transform="translate(118.000000, 40.000000)">
                            <mask id="mask-76" fill="white">
                                <use xlink:href="#path-75"></use>
                            </mask>
                            <g id="Clip-50"></g>
                            <path d="M0,3.50039813 C0,5.43373905 1.56626095,7 3.49960187,7 L3.49960187,7 C5.43294278,7 7,5.43373905 7,3.50039813 L7,3.50039813 C7,1.56705722 5.43294278,0 3.49960187,0 L3.49960187,0 C1.56626095,0 0,1.56705722 0,3.50039813" id="Fill-49" fill="url(#linearGradient-77)" mask="url(#mask-76)"></path>
                        </g>
                        <g transform="translate(94.000000, 0.000000)">
                            <mask id="mask-79" fill="white">
                                <use xlink:href="#path-78"></use>
                            </mask>
                            <g id="Clip-52"></g>
                            <path d="M3.49960187,0 C1.56626095,0 0,1.56705722 0,3.49960187 L0,3.49960187 C0,5.43373905 1.56626095,7 3.49960187,7 L3.49960187,7 C5.43214651,7 7,5.43373905 7,3.49960187 L7,3.49960187 C7,1.56705722 5.43214651,0 3.49960187,0 Z" id="Fill-51" fill="url(#linearGradient-80)" mask="url(#mask-79)"></path>
                        </g>
                        <g transform="translate(94.000000, 26.000000)">
                            <mask id="mask-82" fill="white">
                                <use xlink:href="#path-81"></use>
                            </mask>
                            <g id="Clip-54"></g>
                            <path d="M0,3.50039813 C0,5.43294278 1.56626095,7 3.49960187,7 L3.49960187,7 C5.43214651,7 7,5.43294278 7,3.50039813 L7,3.50039813 C7,1.56705722 5.43214651,0 3.49960187,0 L3.49960187,0 C1.56626095,0 0,1.56705722 0,3.50039813" id="Fill-53" fill="url(#linearGradient-83)" mask="url(#mask-82)"></path>
                        </g>
                        <g transform="translate(94.000000, 53.000000)">
                            <mask id="mask-85" fill="white">
                                <use xlink:href="#path-84"></use>
                            </mask>
                            <g id="Clip-56"></g>
                            <path d="M0,3.49960187 C0,5.43294278 1.56626095,7 3.49960187,7 L3.49960187,7 C5.43214651,7 7,5.43294278 7,3.49960187 L7,3.49960187 C7,1.56705722 5.43214651,0 3.49960187,0 L3.49960187,0 C1.56626095,0 0,1.56705722 0,3.49960187" id="Fill-55" fill="url(#linearGradient-86)" mask="url(#mask-85)"></path>
                        </g>
                        <g transform="translate(71.000000, 13.000000)">
                            <mask id="mask-88" fill="white">
                                <use xlink:href="#path-87"></use>
                            </mask>
                            <g id="Clip-58"></g>
                            <path d="M0,3.49960187 C0,5.43294278 1.56785349,7 3.50039813,7 L3.50039813,7 C5.43373905,7 7,5.43294278 7,3.49960187 L7,3.49960187 C7,1.56705722 5.43373905,0 3.50039813,0 L3.50039813,0 C1.56785349,0 0,1.56705722 0,3.49960187" id="Fill-57" fill="url(#linearGradient-89)" mask="url(#mask-88)"></path>
                        </g>
                        <g transform="translate(71.000000, 40.000000)">
                            <mask id="mask-91" fill="white">
                                <use xlink:href="#path-90"></use>
                            </mask>
                            <g id="Clip-60"></g>
                            <path d="M0,3.50039813 C0,5.43373905 1.56785349,7 3.50039813,7 L3.50039813,7 C5.43373905,7 7,5.43373905 7,3.50039813 L7,3.50039813 C7,1.56705722 5.43373905,0 3.50039813,0 L3.50039813,0 C1.56785349,0 0,1.56705722 0,3.50039813" id="Fill-59" fill="url(#linearGradient-92)" mask="url(#mask-91)"></path>
                        </g>
                        <g transform="translate(47.000000, 0.000000)">
                            <mask id="mask-94" fill="white">
                                <use xlink:href="#path-93"></use>
                            </mask>
                            <g id="Clip-62"></g>
                            <path d="M3.49960187,0 C1.56705722,0 0,1.56705722 0,3.49960187 L0,3.49960187 C0,5.43373905 1.56705722,7 3.49960187,7 L3.49960187,7 C5.43373905,7 7,5.43373905 7,3.49960187 L7,3.49960187 C7,1.56705722 5.43373905,0 3.49960187,0 Z" id="Fill-61" fill="url(#linearGradient-95)" mask="url(#mask-94)"></path>
                        </g>
                        <g transform="translate(47.000000, 26.000000)">
                            <mask id="mask-97" fill="white">
                                <use xlink:href="#path-96"></use>
                            </mask>
                            <g id="Clip-64"></g>
                            <path d="M0,3.50039813 C0,5.43294278 1.56705722,7 3.49960187,7 L3.49960187,7 C5.43373905,7 7,5.43294278 7,3.50039813 L7,3.50039813 C7,1.56705722 5.43373905,0 3.49960187,0 L3.49960187,0 C1.56705722,0 0,1.56705722 0,3.50039813" id="Fill-63" fill="url(#linearGradient-98)" mask="url(#mask-97)"></path>
                        </g>
                        <g transform="translate(47.000000, 53.000000)">
                            <mask id="mask-100" fill="white">
                                <use xlink:href="#path-99"></use>
                            </mask>
                            <g id="Clip-66"></g>
                            <path d="M0,3.49960187 C0,5.43294278 1.56705722,7 3.49960187,7 L3.49960187,7 C5.43373905,7 7,5.43294278 7,3.49960187 L7,3.49960187 C7,1.56705722 5.43373905,0 3.49960187,0 L3.49960187,0 C1.56705722,0 0,1.56705722 0,3.49960187" id="Fill-65" fill="url(#linearGradient-101)" mask="url(#mask-100)"></path>
                        </g>
                        <g transform="translate(23.000000, 13.000000)">
                            <mask id="mask-103" fill="white">
                                <use xlink:href="#path-102"></use>
                            </mask>
                            <g id="Clip-68"></g>
                            <path d="M0,3.49960187 C0,5.43294278 1.56767516,7 3.5,7 L3.5,7 C5.43312102,7 7,5.43294278 7,3.49960187 L7,3.49960187 C7,1.56705722 5.43312102,0 3.5,0 L3.5,0 C1.56767516,0 0,1.56705722 0,3.49960187" id="Fill-67" fill="url(#linearGradient-104)" mask="url(#mask-103)"></path>
                        </g>
                        <g transform="translate(23.000000, 40.000000)">
                            <mask id="mask-106" fill="white">
                                <use xlink:href="#path-105"></use>
                            </mask>
                            <g id="Clip-70"></g>
                            <path d="M0,3.50039813 C0,5.43373905 1.56767516,7 3.5,7 L3.5,7 C5.43312102,7 7,5.43373905 7,3.50039813 L7,3.50039813 C7,1.56705722 5.43312102,0 3.5,0 L3.5,0 C1.56767516,0 0,1.56705722 0,3.50039813" id="Fill-69" fill="url(#linearGradient-107)" mask="url(#mask-106)"></path>
                        </g>
                        <g>
                            <mask id="mask-109" fill="white">
                                <use xlink:href="#path-108"></use>
                            </mask>
                            <g id="Clip-72"></g>
                            <path d="M3.50039813,0 C1.56705722,0 0,1.56705722 0,3.49960187 L0,3.49960187 C0,5.43373905 1.56705722,7 3.50039813,7 L3.50039813,7 C5.43294278,7 7,5.43373905 7,3.49960187 L7,3.49960187 C7,1.56705722 5.43294278,0 3.50039813,0 Z" id="Fill-71" fill="url(#linearGradient-110)" mask="url(#mask-109)"></path>
                        </g>
                        <g transform="translate(0.000000, 26.000000)">
                            <mask id="mask-112" fill="white">
                                <use xlink:href="#path-111"></use>
                            </mask>
                            <g id="Clip-74"></g>
                            <path d="M0,3.50039813 C0,5.43294278 1.56705722,7 3.50039813,7 L3.50039813,7 C5.43294278,7 7,5.43294278 7,3.50039813 L7,3.50039813 C7,1.56705722 5.43294278,0 3.50039813,0 L3.50039813,0 C1.56705722,0 0,1.56705722 0,3.50039813" id="Fill-73" fill="url(#linearGradient-113)" mask="url(#mask-112)"></path>
                        </g>
                        <g transform="translate(0.000000, 53.000000)">
                            <mask id="mask-115" fill="white">
                                <use xlink:href="#path-114"></use>
                            </mask>
                            <g id="Clip-76"></g>
                            <path d="M0,3.49960187 C0,5.43294278 1.56705722,7 3.50039813,7 L3.50039813,7 C5.43294278,7 7,5.43294278 7,3.49960187 L7,3.49960187 C7,1.56705722 5.43294278,0 3.50039813,0 L3.50039813,0 C1.56705722,0 0,1.56705722 0,3.49960187" id="Fill-75" fill="url(#linearGradient-116)" mask="url(#mask-115)"></path>
                        </g>
                    </g>
                </g>
                <g id="编组备份" mask="url(#mask-2)">
                    <g transform="translate(1214.000000, 9.883547)" id="编组">
                        <g transform="translate(330.000000, 0.000000)">
                            <mask id="mask-118" fill="white">
                                <use xlink:href="#path-117"></use>
                            </mask>
                            <g id="Clip-2"></g>
                            <path d="M3.5,0 C1.56767516,0 0,1.56705722 0,3.49960187 L0,3.49960187 C0,5.43373905 1.56767516,7 3.5,7 L3.5,7 C5.43232484,7 7,5.43373905 7,3.49960187 L7,3.49960187 C7,1.56705722 5.43232484,0 3.5,0 Z" id="Fill-1" fill="url(#linearGradient-119)" mask="url(#mask-118)"></path>
                        </g>
                        <g transform="translate(330.000000, 26.000000)">
                            <mask id="mask-121" fill="white">
                                <use xlink:href="#path-120"></use>
                            </mask>
                            <g id="Clip-4"></g>
                            <path d="M0,3.50039813 C0,5.43294278 1.56767516,7 3.5,7 L3.5,7 C5.43232484,7 7,5.43294278 7,3.50039813 L7,3.50039813 C7,1.56705722 5.43232484,0 3.5,0 L3.5,0 C1.56767516,0 0,1.56705722 0,3.50039813" id="Fill-3" fill="url(#linearGradient-122)" mask="url(#mask-121)"></path>
                        </g>
                        <g transform="translate(330.000000, 53.000000)">
                            <mask id="mask-124" fill="white">
                                <use xlink:href="#path-123"></use>
                            </mask>
                            <g id="Clip-6"></g>
                            <path d="M0,3.49960187 C0,5.43294278 1.56767516,7 3.5,7 L3.5,7 C5.43232484,7 7,5.43294278 7,3.49960187 L7,3.49960187 C7,1.56705722 5.43232484,0 3.5,0 L3.5,0 C1.56767516,0 0,1.56705722 0,3.49960187" id="Fill-5" fill="url(#linearGradient-125)" mask="url(#mask-124)"></path>
                        </g>
                        <g transform="translate(307.000000, 13.000000)">
                            <mask id="mask-127" fill="white">
                                <use xlink:href="#path-126"></use>
                            </mask>
                            <g id="Clip-8"></g>
                            <path d="M0,3.49960187 C0,5.43294278 1.56626095,7 3.50039813,7 L3.50039813,7 C5.43294278,7 7,5.43294278 7,3.49960187 L7,3.49960187 C7,1.56705722 5.43294278,0 3.50039813,0 L3.50039813,0 C1.56626095,0 0,1.56705722 0,3.49960187" id="Fill-7" fill="url(#linearGradient-128)" mask="url(#mask-127)"></path>
                        </g>
                        <g transform="translate(307.000000, 40.000000)">
                            <mask id="mask-130" fill="white">
                                <use xlink:href="#path-129"></use>
                            </mask>
                            <g id="Clip-10"></g>
                            <path d="M0,3.50039813 C0,5.43373905 1.56626095,7 3.50039813,7 L3.50039813,7 C5.43294278,7 7,5.43373905 7,3.50039813 L7,3.50039813 C7,1.56705722 5.43294278,0 3.50039813,0 L3.50039813,0 C1.56626095,0 0,1.56705722 0,3.50039813" id="Fill-9" fill="url(#linearGradient-131)" mask="url(#mask-130)"></path>
                        </g>
                        <g transform="translate(283.000000, 0.000000)">
                            <mask id="mask-133" fill="white">
                                <use xlink:href="#path-132"></use>
                            </mask>
                            <g id="Clip-12"></g>
                            <path d="M3.49960187,0 C1.56626095,0 0,1.56705722 0,3.49960187 L0,3.49960187 C0,5.43373905 1.56626095,7 3.49960187,7 L3.49960187,7 C5.43294278,7 7,5.43373905 7,3.49960187 L7,3.49960187 C7,1.56705722 5.43294278,0 3.49960187,0 Z" id="Fill-11" fill="url(#linearGradient-134)" mask="url(#mask-133)"></path>
                        </g>
                        <g transform="translate(283.000000, 26.000000)">
                            <mask id="mask-136" fill="white">
                                <use xlink:href="#path-135"></use>
                            </mask>
                            <g id="Clip-14"></g>
                            <path d="M0,3.50039813 C0,5.43294278 1.56626095,7 3.49960187,7 L3.49960187,7 C5.43294278,7 7,5.43294278 7,3.50039813 L7,3.50039813 C7,1.56705722 5.43294278,0 3.49960187,0 L3.49960187,0 C1.56626095,0 0,1.56705722 0,3.50039813" id="Fill-13" fill="url(#linearGradient-137)" mask="url(#mask-136)"></path>
                        </g>
                        <g transform="translate(283.000000, 53.000000)">
                            <mask id="mask-139" fill="white">
                                <use xlink:href="#path-138"></use>
                            </mask>
                            <g id="Clip-16"></g>
                            <path d="M0,3.49960187 C0,5.43294278 1.56626095,7 3.49960187,7 L3.49960187,7 C5.43294278,7 7,5.43294278 7,3.49960187 L7,3.49960187 C7,1.56705722 5.43294278,0 3.49960187,0 L3.49960187,0 C1.56626095,0 0,1.56705722 0,3.49960187" id="Fill-15" fill="url(#linearGradient-140)" mask="url(#mask-139)"></path>
                        </g>
                        <g transform="translate(260.000000, 13.000000)">
                            <mask id="mask-142" fill="white">
                                <use xlink:href="#path-141"></use>
                            </mask>
                            <g id="Clip-18"></g>
                            <path d="M0,3.49960187 C0,5.43294278 1.56705722,7 3.50039813,7 L3.50039813,7 C5.43294278,7 7,5.43294278 7,3.49960187 L7,3.49960187 C7,1.56705722 5.43294278,0 3.50039813,0 L3.50039813,0 C1.56705722,0 0,1.56705722 0,3.49960187" id="Fill-17" fill="url(#linearGradient-143)" mask="url(#mask-142)"></path>
                        </g>
                        <g transform="translate(260.000000, 40.000000)">
                            <mask id="mask-145" fill="white">
                                <use xlink:href="#path-144"></use>
                            </mask>
                            <g id="Clip-20"></g>
                            <path d="M0,3.50039813 C0,5.43373905 1.56705722,7 3.50039813,7 L3.50039813,7 C5.43294278,7 7,5.43373905 7,3.50039813 L7,3.50039813 C7,1.56705722 5.43294278,0 3.50039813,0 L3.50039813,0 C1.56705722,0 0,1.56705722 0,3.50039813" id="Fill-19" fill="url(#linearGradient-146)" mask="url(#mask-145)"></path>
                        </g>
                        <g transform="translate(236.000000, 0.000000)">
                            <mask id="mask-148" fill="white">
                                <use xlink:href="#path-147"></use>
                            </mask>
                            <g id="Clip-22"></g>
                            <path d="M3.50039813,0 C1.56705722,0 0,1.56705722 0,3.49960187 L0,3.49960187 C0,5.43373905 1.56705722,7 3.50039813,7 L3.50039813,7 C5.43373905,7 7,5.43373905 7,3.49960187 L7,3.49960187 C7,1.56705722 5.43373905,0 3.50039813,0 Z" id="Fill-21" fill="url(#linearGradient-149)" mask="url(#mask-148)"></path>
                        </g>
                        <g transform="translate(236.000000, 26.000000)">
                            <mask id="mask-151" fill="white">
                                <use xlink:href="#path-150"></use>
                            </mask>
                            <g id="Clip-24"></g>
                            <path d="M0,3.50039813 C0,5.43294278 1.56705722,7 3.50039813,7 L3.50039813,7 C5.43373905,7 7,5.43294278 7,3.50039813 L7,3.50039813 C7,1.56705722 5.43373905,0 3.50039813,0 L3.50039813,0 C1.56705722,0 0,1.56705722 0,3.50039813" id="Fill-23" fill="url(#linearGradient-152)" mask="url(#mask-151)"></path>
                        </g>
                        <g transform="translate(236.000000, 53.000000)">
                            <mask id="mask-154" fill="white">
                                <use xlink:href="#path-153"></use>
                            </mask>
                            <g id="Clip-26"></g>
                            <path d="M0,3.49960187 C0,5.43294278 1.56705722,7 3.50039813,7 L3.50039813,7 C5.43373905,7 7,5.43294278 7,3.49960187 L7,3.49960187 C7,1.56705722 5.43373905,0 3.50039813,0 L3.50039813,0 C1.56705722,0 0,1.56705722 0,3.49960187" id="Fill-25" fill="url(#linearGradient-155)" mask="url(#mask-154)"></path>
                        </g>
                        <g transform="translate(212.000000, 13.000000)">
                            <mask id="mask-157" fill="white">
                                <use xlink:href="#path-156"></use>
                            </mask>
                            <g id="Clip-28"></g>
                            <path d="M0,3.49960187 C0,5.43294278 1.56705722,7 3.49960187,7 L3.49960187,7 C5.43294278,7 7,5.43294278 7,3.49960187 L7,3.49960187 C7,1.56705722 5.43294278,0 3.49960187,0 L3.49960187,0 C1.56705722,0 0,1.56705722 0,3.49960187" id="Fill-27" fill="url(#linearGradient-158)" mask="url(#mask-157)"></path>
                        </g>
                        <g transform="translate(212.000000, 40.000000)">
                            <mask id="mask-160" fill="white">
                                <use xlink:href="#path-159"></use>
                            </mask>
                            <g id="Clip-30"></g>
                            <path d="M0,3.50039813 C0,5.43373905 1.56705722,7 3.49960187,7 L3.49960187,7 C5.43294278,7 7,5.43373905 7,3.50039813 L7,3.50039813 C7,1.56705722 5.43294278,0 3.49960187,0 L3.49960187,0 C1.56705722,0 0,1.56705722 0,3.50039813" id="Fill-29" fill="url(#linearGradient-161)" mask="url(#mask-160)"></path>
                        </g>
                        <g transform="translate(189.000000, 0.000000)">
                            <mask id="mask-163" fill="white">
                                <use xlink:href="#path-162"></use>
                            </mask>
                            <g id="Clip-32"></g>
                            <path d="M3.50039813,0 C1.56705722,0 0,1.56705722 0,3.49960187 L0,3.49960187 C0,5.43373905 1.56705722,7 3.50039813,7 L3.50039813,7 C5.43294278,7 7,5.43373905 7,3.49960187 L7,3.49960187 C7,1.56705722 5.43294278,0 3.50039813,0 Z" id="Fill-31" fill="url(#linearGradient-164)" mask="url(#mask-163)"></path>
                        </g>
                        <g transform="translate(189.000000, 26.000000)">
                            <mask id="mask-166" fill="white">
                                <use xlink:href="#path-165"></use>
                            </mask>
                            <g id="Clip-34"></g>
                            <path d="M0,3.50039813 C0,5.43294278 1.56705722,7 3.50039813,7 L3.50039813,7 C5.43294278,7 7,5.43294278 7,3.50039813 L7,3.50039813 C7,1.56705722 5.43294278,0 3.50039813,0 L3.50039813,0 C1.56705722,0 0,1.56705722 0,3.50039813" id="Fill-33" fill="url(#linearGradient-167)" mask="url(#mask-166)"></path>
                        </g>
                        <g transform="translate(189.000000, 53.000000)">
                            <mask id="mask-169" fill="white">
                                <use xlink:href="#path-168"></use>
                            </mask>
                            <g id="Clip-36"></g>
                            <path d="M0,3.49960187 C0,5.43294278 1.56705722,7 3.50039813,7 L3.50039813,7 C5.43294278,7 7,5.43294278 7,3.49960187 L7,3.49960187 C7,1.56705722 5.43294278,0 3.50039813,0 L3.50039813,0 C1.56705722,0 0,1.56705722 0,3.49960187" id="Fill-35" fill="url(#linearGradient-170)" mask="url(#mask-169)"></path>
                        </g>
                        <g transform="translate(165.000000, 13.000000)">
                            <mask id="mask-172" fill="white">
                                <use xlink:href="#path-171"></use>
                            </mask>
                            <g id="Clip-38"></g>
                            <path d="M0,3.49960187 C0,5.43294278 1.56705722,7 3.49960187,7 L3.49960187,7 C5.43294278,7 7,5.43294278 7,3.49960187 L7,3.49960187 C7,1.56705722 5.43294278,0 3.49960187,0 L3.49960187,0 C1.56705722,0 0,1.56705722 0,3.49960187" id="Fill-37" fill="url(#linearGradient-173)" mask="url(#mask-172)"></path>
                        </g>
                        <g transform="translate(165.000000, 40.000000)">
                            <mask id="mask-175" fill="white">
                                <use xlink:href="#path-174"></use>
                            </mask>
                            <g id="Clip-40"></g>
                            <path d="M0,3.50039813 C0,5.43373905 1.56705722,7 3.49960187,7 L3.49960187,7 C5.43294278,7 7,5.43373905 7,3.50039813 L7,3.50039813 C7,1.56705722 5.43294278,0 3.49960187,0 L3.49960187,0 C1.56705722,0 0,1.56705722 0,3.50039813" id="Fill-39" fill="url(#linearGradient-176)" mask="url(#mask-175)"></path>
                        </g>
                        <g transform="translate(142.000000, 0.000000)">
                            <mask id="mask-178" fill="white">
                                <use xlink:href="#path-177"></use>
                            </mask>
                            <g id="Clip-42"></g>
                            <path d="M3.50039813,0 C1.56705722,0 0,1.56705722 0,3.49960187 L0,3.49960187 C0,5.43373905 1.56705722,7 3.50039813,7 L3.50039813,7 C5.43294278,7 7,5.43373905 7,3.49960187 L7,3.49960187 C7,1.56705722 5.43294278,0 3.50039813,0 Z" id="Fill-41" fill="url(#linearGradient-179)" mask="url(#mask-178)"></path>
                        </g>
                        <g transform="translate(142.000000, 26.000000)">
                            <mask id="mask-181" fill="white">
                                <use xlink:href="#path-180"></use>
                            </mask>
                            <g id="Clip-44"></g>
                            <path d="M0,3.50039813 C0,5.43294278 1.56705722,7 3.50039813,7 L3.50039813,7 C5.43294278,7 7,5.43294278 7,3.50039813 L7,3.50039813 C7,1.56705722 5.43294278,0 3.50039813,0 L3.50039813,0 C1.56705722,0 0,1.56705722 0,3.50039813" id="Fill-43" fill="url(#linearGradient-182)" mask="url(#mask-181)"></path>
                        </g>
                        <g transform="translate(142.000000, 53.000000)">
                            <mask id="mask-184" fill="white">
                                <use xlink:href="#path-183"></use>
                            </mask>
                            <g id="Clip-46"></g>
                            <path d="M0,3.49960187 C0,5.43294278 1.56705722,7 3.50039813,7 L3.50039813,7 C5.43294278,7 7,5.43294278 7,3.49960187 L7,3.49960187 C7,1.56705722 5.43294278,0 3.50039813,0 L3.50039813,0 C1.56705722,0 0,1.56705722 0,3.49960187" id="Fill-45" fill="url(#linearGradient-185)" mask="url(#mask-184)"></path>
                        </g>
                        <g transform="translate(118.000000, 13.000000)">
                            <mask id="mask-187" fill="white">
                                <use xlink:href="#path-186"></use>
                            </mask>
                            <g id="Clip-48"></g>
                            <path d="M0,3.49960187 C0,5.43294278 1.56626095,7 3.49960187,7 L3.49960187,7 C5.43294278,7 7,5.43294278 7,3.49960187 L7,3.49960187 C7,1.56705722 5.43294278,0 3.49960187,0 L3.49960187,0 C1.56626095,0 0,1.56705722 0,3.49960187" id="Fill-47" fill="url(#linearGradient-188)" mask="url(#mask-187)"></path>
                        </g>
                        <g transform="translate(118.000000, 40.000000)">
                            <mask id="mask-190" fill="white">
                                <use xlink:href="#path-189"></use>
                            </mask>
                            <g id="Clip-50"></g>
                            <path d="M0,3.50039813 C0,5.43373905 1.56626095,7 3.49960187,7 L3.49960187,7 C5.43294278,7 7,5.43373905 7,3.50039813 L7,3.50039813 C7,1.56705722 5.43294278,0 3.49960187,0 L3.49960187,0 C1.56626095,0 0,1.56705722 0,3.50039813" id="Fill-49" fill="url(#linearGradient-191)" mask="url(#mask-190)"></path>
                        </g>
                        <g transform="translate(94.000000, 0.000000)">
                            <mask id="mask-193" fill="white">
                                <use xlink:href="#path-192"></use>
                            </mask>
                            <g id="Clip-52"></g>
                            <path d="M3.49960187,0 C1.56626095,0 0,1.56705722 0,3.49960187 L0,3.49960187 C0,5.43373905 1.56626095,7 3.49960187,7 L3.49960187,7 C5.43214651,7 7,5.43373905 7,3.49960187 L7,3.49960187 C7,1.56705722 5.43214651,0 3.49960187,0 Z" id="Fill-51" fill="url(#linearGradient-194)" mask="url(#mask-193)"></path>
                        </g>
                        <g transform="translate(94.000000, 26.000000)">
                            <mask id="mask-196" fill="white">
                                <use xlink:href="#path-195"></use>
                            </mask>
                            <g id="Clip-54"></g>
                            <path d="M0,3.50039813 C0,5.43294278 1.56626095,7 3.49960187,7 L3.49960187,7 C5.43214651,7 7,5.43294278 7,3.50039813 L7,3.50039813 C7,1.56705722 5.43214651,0 3.49960187,0 L3.49960187,0 C1.56626095,0 0,1.56705722 0,3.50039813" id="Fill-53" fill="url(#linearGradient-197)" mask="url(#mask-196)"></path>
                        </g>
                        <g transform="translate(94.000000, 53.000000)">
                            <mask id="mask-199" fill="white">
                                <use xlink:href="#path-198"></use>
                            </mask>
                            <g id="Clip-56"></g>
                            <path d="M0,3.49960187 C0,5.43294278 1.56626095,7 3.49960187,7 L3.49960187,7 C5.43214651,7 7,5.43294278 7,3.49960187 L7,3.49960187 C7,1.56705722 5.43214651,0 3.49960187,0 L3.49960187,0 C1.56626095,0 0,1.56705722 0,3.49960187" id="Fill-55" fill="url(#linearGradient-200)" mask="url(#mask-199)"></path>
                        </g>
                        <g transform="translate(71.000000, 13.000000)">
                            <mask id="mask-202" fill="white">
                                <use xlink:href="#path-201"></use>
                            </mask>
                            <g id="Clip-58"></g>
                            <path d="M0,3.49960187 C0,5.43294278 1.56785349,7 3.50039813,7 L3.50039813,7 C5.43373905,7 7,5.43294278 7,3.49960187 L7,3.49960187 C7,1.56705722 5.43373905,0 3.50039813,0 L3.50039813,0 C1.56785349,0 0,1.56705722 0,3.49960187" id="Fill-57" fill="url(#linearGradient-203)" mask="url(#mask-202)"></path>
                        </g>
                        <g transform="translate(71.000000, 40.000000)">
                            <mask id="mask-205" fill="white">
                                <use xlink:href="#path-204"></use>
                            </mask>
                            <g id="Clip-60"></g>
                            <path d="M0,3.50039813 C0,5.43373905 1.56785349,7 3.50039813,7 L3.50039813,7 C5.43373905,7 7,5.43373905 7,3.50039813 L7,3.50039813 C7,1.56705722 5.43373905,0 3.50039813,0 L3.50039813,0 C1.56785349,0 0,1.56705722 0,3.50039813" id="Fill-59" fill="url(#linearGradient-206)" mask="url(#mask-205)"></path>
                        </g>
                        <g transform="translate(47.000000, 0.000000)">
                            <mask id="mask-208" fill="white">
                                <use xlink:href="#path-207"></use>
                            </mask>
                            <g id="Clip-62"></g>
                            <path d="M3.49960187,0 C1.56705722,0 0,1.56705722 0,3.49960187 L0,3.49960187 C0,5.43373905 1.56705722,7 3.49960187,7 L3.49960187,7 C5.43373905,7 7,5.43373905 7,3.49960187 L7,3.49960187 C7,1.56705722 5.43373905,0 3.49960187,0 Z" id="Fill-61" fill="url(#linearGradient-209)" mask="url(#mask-208)"></path>
                        </g>
                        <g transform="translate(47.000000, 26.000000)">
                            <mask id="mask-211" fill="white">
                                <use xlink:href="#path-210"></use>
                            </mask>
                            <g id="Clip-64"></g>
                            <path d="M0,3.50039813 C0,5.43294278 1.56705722,7 3.49960187,7 L3.49960187,7 C5.43373905,7 7,5.43294278 7,3.50039813 L7,3.50039813 C7,1.56705722 5.43373905,0 3.49960187,0 L3.49960187,0 C1.56705722,0 0,1.56705722 0,3.50039813" id="Fill-63" fill="url(#linearGradient-212)" mask="url(#mask-211)"></path>
                        </g>
                        <g transform="translate(47.000000, 53.000000)">
                            <mask id="mask-214" fill="white">
                                <use xlink:href="#path-213"></use>
                            </mask>
                            <g id="Clip-66"></g>
                            <path d="M0,3.49960187 C0,5.43294278 1.56705722,7 3.49960187,7 L3.49960187,7 C5.43373905,7 7,5.43294278 7,3.49960187 L7,3.49960187 C7,1.56705722 5.43373905,0 3.49960187,0 L3.49960187,0 C1.56705722,0 0,1.56705722 0,3.49960187" id="Fill-65" fill="url(#linearGradient-215)" mask="url(#mask-214)"></path>
                        </g>
                        <g transform="translate(23.000000, 13.000000)">
                            <mask id="mask-217" fill="white">
                                <use xlink:href="#path-216"></use>
                            </mask>
                            <g id="Clip-68"></g>
                            <path d="M0,3.49960187 C0,5.43294278 1.56767516,7 3.5,7 L3.5,7 C5.43312102,7 7,5.43294278 7,3.49960187 L7,3.49960187 C7,1.56705722 5.43312102,0 3.5,0 L3.5,0 C1.56767516,0 0,1.56705722 0,3.49960187" id="Fill-67" fill="url(#linearGradient-218)" mask="url(#mask-217)"></path>
                        </g>
                        <g transform="translate(23.000000, 40.000000)">
                            <mask id="mask-220" fill="white">
                                <use xlink:href="#path-219"></use>
                            </mask>
                            <g id="Clip-70"></g>
                            <path d="M0,3.50039813 C0,5.43373905 1.56767516,7 3.5,7 L3.5,7 C5.43312102,7 7,5.43373905 7,3.50039813 L7,3.50039813 C7,1.56705722 5.43312102,0 3.5,0 L3.5,0 C1.56767516,0 0,1.56705722 0,3.50039813" id="Fill-69" fill="url(#linearGradient-221)" mask="url(#mask-220)"></path>
                        </g>
                        <g>
                            <mask id="mask-223" fill="white">
                                <use xlink:href="#path-222"></use>
                            </mask>
                            <g id="Clip-72"></g>
                            <path d="M3.50039813,0 C1.56705722,0 0,1.56705722 0,3.49960187 L0,3.49960187 C0,5.43373905 1.56705722,7 3.50039813,7 L3.50039813,7 C5.43294278,7 7,5.43373905 7,3.49960187 L7,3.49960187 C7,1.56705722 5.43294278,0 3.50039813,0 Z" id="Fill-71" fill="url(#linearGradient-224)" mask="url(#mask-223)"></path>
                        </g>
                        <g transform="translate(0.000000, 26.000000)">
                            <mask id="mask-226" fill="white">
                                <use xlink:href="#path-225"></use>
                            </mask>
                            <g id="Clip-74"></g>
                            <path d="M0,3.50039813 C0,5.43294278 1.56705722,7 3.50039813,7 L3.50039813,7 C5.43294278,7 7,5.43294278 7,3.50039813 L7,3.50039813 C7,1.56705722 5.43294278,0 3.50039813,0 L3.50039813,0 C1.56705722,0 0,1.56705722 0,3.50039813" id="Fill-73" fill="url(#linearGradient-227)" mask="url(#mask-226)"></path>
                        </g>
                        <g transform="translate(0.000000, 53.000000)">
                            <mask id="mask-229" fill="white">
                                <use xlink:href="#path-228"></use>
                            </mask>
                            <g id="Clip-76"></g>
                            <path d="M0,3.49960187 C0,5.43294278 1.56705722,7 3.50039813,7 L3.50039813,7 C5.43294278,7 7,5.43294278 7,3.49960187 L7,3.49960187 C7,1.56705722 5.43294278,0 3.50039813,0 L3.50039813,0 C1.56705722,0 0,1.56705722 0,3.49960187" id="Fill-75" fill="url(#linearGradient-230)" mask="url(#mask-229)"></path>
                        </g>
                    </g>
                </g>
                <polygon id="三角形" fill="#4637F9" mask="url(#mask-2)" transform="translate(1331.853782, 184.000000) rotate(-90.000000) translate(-1331.853782, -184.000000) " points="1331.85378 170 1357.85378 198 1305.85378 198"></polygon>
                <polygon id="三角形" fill="#2563FF" mask="url(#mask-2)" transform="translate(1382.853782, 227.000000) rotate(-90.000000) translate(-1382.853782, -227.000000) " points="1382.85378 213 1408.85378 241 1356.85378 241"></polygon>
                <polygon id="三角形" fill="#4634F9" mask="url(#mask-2)" transform="translate(229.574463, 335.319221) rotate(-270.000000) translate(-229.574463, -335.319221) " points="229.574463 325.896144 247.074463 344.742298 212.074463 344.742298"></polygon>
                <polygon id="三角形" fill="#0C6EFF" mask="url(#mask-2)" transform="translate(166.978309, 335.319221) rotate(-270.000000) translate(-166.978309, -335.319221) " points="166.978309 325.896144 184.478309 344.742298 149.478309 344.742298"></polygon>
                <polygon id="三角形" fill="#3752FD" mask="url(#mask-2)" transform="translate(197.939848, 335.319221) rotate(-270.000000) translate(-197.939848, -335.319221) " points="197.939848 325.896144 215.439848 344.742298 180.439848 344.742298"></polygon>
                <g id="编组-28" mask="url(#mask-2)" stroke="url(#linearGradient-231)" stroke-width="2">
                    <g transform="translate(979.000000, 646.000000) rotate(-90.000000) translate(-979.000000, -646.000000) translate(676.000000, 343.000000)" id="矩形">
                        <rect x="1" y="1" width="604" height="604" rx="302"></rect>
                        <rect x="42" y="43" width="521" height="521" rx="260.5"></rect>
                        <rect x="61" y="61" width="484" height="484" rx="242"></rect>
                        <rect x="80" y="81" width="445" height="445" rx="222.5"></rect>
                        <rect x="21" y="22" width="564" height="564" rx="282"></rect>
                        <rect x="98" y="99" width="410" height="410" rx="205"></rect>
                    </g>
                </g>
                <g id="编组-28" mask="url(#mask-2)" stroke-width="2">
                    <g transform="translate(51.000000, -245.000000)" id="矩形">
                        <rect stroke="url(#linearGradient-232)" x="1" y="1" width="640" height="363" rx="181.5"></rect>
                        <rect stroke="url(#linearGradient-233)" x="24" y="27" width="594" height="312" rx="156"></rect>
                        <rect stroke="url(#linearGradient-234)" x="36" y="39" width="571" height="287" rx="143.5"></rect>
                        <rect stroke="url(#linearGradient-235)" x="48" y="52" width="546" height="261" rx="130.5"></rect>
                        <rect stroke="url(#linearGradient-236)" x="13" y="14" width="616" height="338" rx="169"></rect>
                        <rect stroke="url(#linearGradient-237)" x="61" y="65" width="520" height="236" rx="118"></rect>
                    </g>
                </g>
            </g>
        </g>
    </g>
</svg>