<?xml version="1.0" encoding="UTF-8"?>
<svg width="124px" height="30px" viewBox="0 0 124 30" version="1.1" xmlns="http://www.w3.org/2000/svg" xmlns:xlink="http://www.w3.org/1999/xlink">
    <title>INFINIsearch</title>
    <g id="网站-pc" stroke="none" stroke-width="1" fill="none" fill-rule="evenodd">
        <g id="首页" transform="translate(-1196.000000, -111.000000)">
            <g id="导航-展开" transform="translate(1166.000000, 72.000000)">
                <g id="INFINIsearch" transform="translate(30.000000, 39.000000)">
                    <polygon id="Fill-1" fill="#231815" points="0 29.9912348 7.30985978 29.9931131 10.7765007 15.4705011 17.4181375 19.699689 14.9819339 29.9943653 35.508245 30 42 0.0369388735 34.7020059 0.0287997997 30.6364623 17.1183505 30.6383358 17.1183505 29.1707433 23.55761 11.4971823 12.3914268 13.0247275 5.81192479 23.9835844 12.847215 27.0517895 0.0212868084 6.19698749 0"></polygon>
                    <polygon id="Fill-2" fill="#231815" points="46 12.9733002 48.7610392 1 52 1.02669978 49.2389608 13"></polygon>
                    <polygon id="Fill-3" fill="#231815" points="53.7509728 0 51 12.4448666 53.8815883 12.4698726 55.3350725 5.89391681 61.9636541 12.9974994 62.2341705 13 65 0.487617216 62.1190308 0.463236355 60.6506898 7.10608319 54.0493456 0.00250060111"></polygon>
                    <polygon id="Fill-4" fill="#231815" points="65 12.9733002 67.7129677 1 76 1.06954362 75.4478253 3.5054331 70.3250817 3.46258926 69.7842531 5.84942564 74.3649075 5.88792301 73.8165148 8.3070475 69.2358604 8.26855014 68.1636582 13"></polygon>
                    <polygon id="Fill-5" fill="#231815" points="75 12.9733002 77.7610392 1 81 1.02669978 78.2389608 13"></polygon>
                    <polygon id="Fill-6" fill="#231815" points="81 13.4448932 83.7509728 1 84.0493456 1.00250048 90.6506898 8.10574149 92.1190308 1.4638392 95 1.48821889 92.2341705 14 91.9636541 13.9974995 85.6154935 6.89675899 84.1409622 13.4717734"></polygon>
                    <polygon id="Fill-7" fill="#231815" points="94 12.9733002 96.7610392 1 100 1.02669978 97.2389608 13"></polygon>
                    <g id="编组" transform="translate(47.000000, 14.000000)" fill="#005FE8">
                        <path d="M14.7708371,6.60321704 C13.7759763,6.59451183 12.9834286,7.22874897 12.8101942,8.36167062 L16.7166315,8.39524788 C16.6955959,7.30585231 15.84056,6.61254406 14.7708371,6.60321704" id="Fill-8"></path>
                        <path d="M53.1854573,13.6178799 L51.1066437,13.6004695 L51.1450027,9.0333402 C51.1567579,7.705173 50.4353601,6.98326189 49.3359399,6.97331307 C48.207441,6.96398606 47.474288,7.67346114 47.4631515,9.00162834 L47.4235551,13.5687576 L45.3447414,13.5513472 L45.438783,2.5075374 L47.5175966,2.52494783 L47.4854245,6.33099251 C48.0255449,5.63333165 48.9498745,5.19371825 50.0492947,5.20366707 C51.9053783,5.2192121 53.2460894,6.48457739 53.2262911,8.76720932 L53.1854573,13.6178799 Z M39.9404446,11.8476121 C40.8010487,11.8550737 41.339313,11.4720442 41.5979273,10.7277483 L43.840695,10.7470241 C43.3791489,12.5042341 41.9889422,13.6564316 39.9398259,13.6383993 C37.5640389,13.6185017 35.8849019,11.932177 35.9065562,9.33553555 C35.9288292,6.73889405 37.6358075,5.08241585 40.0122132,5.10293529 C42.0613295,5.12034572 43.4329753,6.20663229 43.862968,8.06022144 L41.620819,8.0409456 C41.3894272,7.33768853 40.84312,6.88563911 39.9818972,6.8781775 C38.823701,6.86885048 38.0441459,7.74185926 38.0305346,9.35418958 C38.0163046,10.9652763 38.7822484,11.8382851 39.9404446,11.8476121 L39.9404446,11.8476121 Z M35.0638943,7.26866861 L34.5138748,7.2636942 C33.2814353,7.25374538 32.5359084,7.72444883 32.5222971,9.32123412 L32.4870315,13.4406666 L30.4082179,13.4232561 L30.478749,5.15578839 L32.5575627,5.17319882 L32.5464262,6.45597454 C33.0729352,5.61032501 33.9391076,5.06562722 35.0824551,5.07557604 L35.0638943,7.26866861 Z M28.3745689,13.4052239 L26.2809066,13.3878135 L26.2908057,12.1790321 C25.7952314,12.8909944 24.8548157,13.5096865 23.5481328,13.4984941 C21.4687005,13.4804618 19.8198795,11.7499893 19.8415338,9.16827104 C19.8644255,6.58655277 21.5417064,4.9449978 23.6347501,4.96240824 C24.9569003,4.97422246 25.8571008,5.6084596 26.34092,6.29865885 L26.3514378,5.12034572 L28.4451001,5.13775615 L28.3745689,13.4052239 Z M18.7977962,9.81618782 L12.7834666,9.76457832 C12.8775081,10.9889047 13.7034653,11.6828348 14.7422535,11.69154 C15.6337923,11.6990016 16.1281292,11.2556574 16.3991174,10.7053634 L18.6412664,10.7252611 C18.1834325,12.2430776 16.8068371,13.4406666 14.7725695,13.4232561 C12.3819338,13.4027367 10.6588695,11.7157903 10.6805238,9.11977056 C10.7027968,6.50820583 12.4097751,4.86665086 14.8449568,4.8871703 C17.2207438,4.90768974 18.8850321,6.54924471 18.8639965,9.01095536 C18.8615217,9.27895164 18.8441983,9.54756973 18.7977962,9.81618782 L18.7977962,9.81618782 Z M3.52965234,0.0178456923 L2.7185438,3.69082494 C3.37126654,3.0087091 4.40263034,2.63314122 5.64249419,2.64433364 C7.76647254,2.66236588 9.21236168,3.76419747 9.32991364,5.64638947 L7.04321863,5.62649184 C7.00424087,4.93940159 6.45978968,4.39719101 5.56825085,4.37542797 C4.75219275,4.33811991 4.14030385,4.73545083 4.13287952,5.58607476 C4.11493738,7.67470474 9.44127866,6.55732812 9.40972524,10.2278202 C9.39611396,11.8693751 8.0770572,13.336204 5.71550015,13.3163063 C3.56244315,13.2970305 1.90867265,12.1491856 1.89629876,10.1786979 L4.1229804,10.1979737 C4.17556944,11.0342962 4.72063933,11.5908082 5.68580281,11.5995134 C6.66581496,11.6082187 7.24924391,11.0902583 7.25543085,10.3434752 C7.2727543,8.29650587 2.86517441,9.18008526 2.09180623,6.52996887 L0,16 L58.0118934,15.9639355 L61.5632,0.0178456923 L3.52965234,0.0178456923 Z" id="Fill-10"></path>
                        <path d="M24.1539585,6.80300174 C23.0403084,6.79305293 21.9786285,7.61880482 21.9656359,9.18636546 C21.9520247,10.7533043 22.9994745,11.6580249 24.1131247,11.6673519 C25.2558535,11.6773008 26.3033033,10.8210806 26.3156772,9.25351998 C26.3292885,7.68658114 25.2979247,6.81295056 24.1539585,6.80300174" id="Fill-12"></path>
                        <polygon id="Fill-14" points="64.2773511 15.9541733 59.9378276 15.9541733 63.4971773 1.77635684e-15 67.8367008 1.77635684e-15"></polygon>
                        <polygon id="Fill-16" points="69.4438217 15.9541733 66.4047942 15.9541733 69.9647625 1.77635684e-15 73.0031714 1.77635684e-15"></polygon>
                        <polygon id="Fill-18" points="73.4406503 15.9541733 71.8320445 15.9541733 75.3913942 1.77635684e-15 77 1.77635684e-15"></polygon>
                    </g>
                </g>
            </g>
        </g>
    </g>
</svg>