<?xml version="1.0" encoding="UTF-8"?>
<svg width="188px" height="24px" viewBox="0 0 188 24" version="1.1" xmlns="http://www.w3.org/2000/svg" xmlns:xlink="http://www.w3.org/1999/xlink">
    <title>INFINILabs-logo</title>
    <g id="网站-移动" stroke="none" stroke-width="1" fill="none" fill-rule="evenodd">
        <g id="菜单" transform="translate(-16.000000, -23.000000)" fill-rule="nonzero">
            <g id="INFINILabs-logo" transform="translate(16.000000, 23.000000)">
                <g id="编组" transform="translate(142.857143, 8.000000)" fill="#005FE8">
                    <polygon id="路径" points="2.31082099 0.88527017 2.31082099 12.8171725 7.04996234 12.8171725 7.04996234 14.6262028 0 14.6262028 0 0.88527017"></polygon>
                    <path d="M13.4340949,3.54108068 C15.3140849,3.54108068 16.606578,4.42635085 17.2724077,5.31162102 L17.2724077,3.73353072 L19.5832287,3.73353072 L19.5832287,14.6646928 L17.2724077,14.6646928 L17.2724077,13.0481125 C16.5674115,13.9718727 15.2357519,14.8571429 13.3949284,14.8571429 C10.4966106,14.8571429 8.18578961,12.5477424 8.18578961,9.16062176 C8.18578961,5.77350111 10.4966106,3.54108068 13.4340949,3.54108068 Z M13.9040924,5.50407106 C12.1807683,5.50407106 10.5357771,6.7742413 10.5357771,9.12213175 C10.5357771,11.4700222 12.1807683,12.8556625 13.9040924,12.8556625 C15.6274165,12.8556625 17.2724077,11.5470022 17.2724077,9.16062176 C17.2724077,6.85122132 15.666583,5.50407106 13.9040924,5.50407106 Z" id="形状"></path>
                    <path d="M28.7873462,3.54108068 C31.7248305,3.54108068 33.9964851,5.77350111 33.9964851,9.12213175 C33.9964851,12.4707624 31.6856641,14.8186528 28.7873462,14.8186528 C26.9465227,14.8186528 25.6540296,14.0103627 24.9098669,13.0481125 L24.9098669,14.6262028 L22.5990459,14.6262028 L22.5990459,0 L24.9098669,0 L24.9098669,5.35011103 C25.6540296,4.38786084 27.0248556,3.54108068 28.7873462,3.54108068 Z M28.2781823,5.50407106 C26.5548581,5.50407106 24.9098669,6.81273131 24.9098669,9.16062176 C24.9098669,11.5085122 26.5548581,12.8556625 28.2781823,12.8556625 C30.0015064,12.8556625 31.6464976,11.4700222 31.6464976,9.12213175 C31.6464976,6.7742413 30.0015064,5.50407106 28.2781823,5.50407106 Z" id="形状"></path>
                    <path d="M40.3022847,14.8186528 C37.6389656,14.8186528 35.7589756,13.2790526 35.6806427,11.2775722 L38.0697966,11.2775722 C38.1481296,12.1628423 39.0097916,12.8941525 40.3022847,12.8941525 C41.6339443,12.8941525 42.3389405,12.3552924 42.3389405,11.5854922 C42.3389405,9.43005181 35.876475,10.6617321 35.876475,6.65877128 C35.876475,4.92672095 37.5214662,3.50259067 40.1456189,3.50259067 C42.6522722,3.50259067 44.2972634,4.81125093 44.4539292,7.00518135 L42.1431082,7.00518135 C42.0647753,6.04293116 41.3206126,5.38860104 40.067286,5.38860104 C38.8531258,5.38860104 38.187296,5.88897113 38.187296,6.62028127 C38.187296,8.8142117 44.4539292,7.58253146 44.5714286,11.5470022 C44.5714286,13.4330126 42.9264374,14.8186528 40.3022847,14.8186528 Z" id="路径"></path>
                </g>
                <g id="编组" transform="translate(35.428571, 0.000000)" fill="#000000">
                    <polygon id="路径" points="0 23.16 4.79031173 0.72 10.6584436 0.72 5.86813187 23.16"></polygon>
                    <polygon id="路径" points="10.1394932 23.16 15.0894819 0 15.6483516 0 28.1031621 13.08 30.7378336 0.72 36.1269343 0.72 31.1769455 24 30.6579951 24 18.123346 10.92 15.4886746 23.16"></polygon>
                    <polygon id="路径" points="36.087015 23.16 40.8773268 0.72 56.1264858 0.72 55.1684234 5.28 45.747477 5.28 44.7894147 9.76 53.2123795 9.76 52.2143978 14.28 43.8313523 14.28 41.9551469 23.16"></polygon>
                    <polygon id="路径" points="55.2881812 23.16 60.0784929 0.72 65.9466248 0.72 61.1563131 23.16"></polygon>
                    <polygon id="路径" points="65.228078 23.16 70.1780668 0 70.7369365 0 83.191747 13.08 85.8264185 0.72 91.2155192 0.72 86.2655304 24 85.74658 24 73.7708006 10.92 71.0962099 23.16"></polygon>
                    <polygon id="路径" points="91.0558421 23.16 95.8461538 0.72 101.714286 0.72 96.923974 23.16"></polygon>
                </g>
                <polygon id="路径" fill="#000000" points="26.445283 0.0403124213 23.3459119 13.0209121 23.3459119 13.0209121 22.2188679 17.9390275 8.77484277 9.43310658 9.94213836 4.43436634 18.2742138 9.79591837 20.608805 0 4.70943396 0 0 22.8571429 5.55471698 22.8571429 8.21132075 11.771227 13.2830189 14.9962207 11.4314465 22.8571429 27.0490566 22.8571429 32 0.0403124213"></polygon>
            </g>
        </g>
    </g>
</svg>