<?xml version="1.0" encoding="UTF-8"?>
<svg width="40px" height="40px" viewBox="0 0 40 40" version="1.1" xmlns="http://www.w3.org/2000/svg" xmlns:xlink="http://www.w3.org/1999/xlink">
    <title>对话技能</title>
    <g id="页面-1" stroke="none" stroke-width="1" fill="none" fill-rule="evenodd">
        <g id="首页" transform="translate(-1145.000000, -7338.000000)" fill="#005FE8" fill-rule="nonzero">
            <g id="编组-17" transform="translate(1085.000000, 7298.000000)">
                <g id="对话技能" transform="translate(60.000000, 40.000000)">
                    <rect id="矩形" opacity="0" x="0" y="0" width="40" height="40"></rect>
                    <path d="M35.7513156,4.00000089 C36.4409405,4.00000089 37,4.55679318 37,5.2437073 L37,26.8665378 C37,27.0230395 36.9407522,27.1737867 36.834081,27.2886981 C36.5999918,27.5408593 36.2049782,27.5562891 35.9518074,27.3231332 L30.6392796,22.4309788 L25.9352513,22.4309788 L25.9352513,29.6988827 L25.9350952,29.7194816 C25.9240911,30.3969124 25.3693241,30.9425882 24.6866058,30.9425882 L8.36068139,30.9425882 L3.04819252,35.8347426 C2.93282109,35.9409884 2.78147048,36.0000009 2.6243422,36.0000009 C2.27951018,36.0000009 2,35.7216043 2,35.3781473 L2,13.7553167 C2,13.0684027 2.55905941,12.5116113 3.2486844,12.5116113 L13.147318,12.5116113 L13.1426354,5.2437073 C13.1421282,5.24351298 13.1419721,5.24331865 13.141894,5.24316316 C13.141894,4.55601588 13.7009144,3.99918559 14.3905785,4.00000089 L35.7513156,4.00000089 Z M23.1257113,15.3099098 L4.80950092,15.3099098 L4.80950092,30.4016929 L6.66024635,28.6974277 C7.04867798,28.3433258 7.55566055,28.1461137 8.08222476,28.1442897 L23.1257113,28.1442509 L23.1257113,15.3099098 Z M18.6621328,22.8110085 C18.8345401,22.8110085 18.9743039,22.950215 18.9743039,23.1219349 L18.9743039,24.9874931 C18.9743039,25.159213 18.8345401,25.2984195 18.6621328,25.2984195 L9.29699959,25.2984195 C9.21420666,25.2984195 9.13480472,25.2656613 9.07626129,25.2073513 C9.01771785,25.1490413 8.98482849,25.0699559 8.98482849,24.9874931 L8.98482849,23.1219349 C8.98482849,23.0394721 9.01771785,22.9603867 9.07626129,22.9020767 C9.13480472,22.8437667 9.21420666,22.8110085 9.29699959,22.8110085 L18.6621328,22.8110085 L18.6621328,22.8110085 Z M34.1904601,6.79830028 L15.9531899,6.79830028 L15.9568189,12.4769818 L24.7017462,12.4770596 C25.3914102,12.4770596 25.9504306,13.0338898 25.9504306,13.7207651 L25.9504306,19.6326025 L30.9128976,19.6326025 L30.942827,19.6328746 C31.4693355,19.640917 31.9739382,19.8441011 32.3581327,20.2027637 L34.1904601,21.8900446 L34.1904601,6.79830028 Z M18.6621328,18.2637103 C18.7449257,18.2637103 18.8243276,18.2964685 18.8828711,18.3547785 C18.9414145,18.4130885 18.9743039,18.4921739 18.9743039,18.5746367 L18.9743039,20.4401949 C18.9743039,20.6119148 18.8345401,20.7511213 18.6621328,20.7511213 L9.29699959,20.7511213 C9.21420666,20.7511213 9.13480472,20.718363 9.07626129,20.660053 C9.01771785,20.601743 8.98482849,20.5226577 8.98482849,20.4401949 L8.98482849,18.5746367 C8.98482849,18.4921739 9.01771783,18.4130885 9.07626127,18.3547785 C9.13480471,18.2964685 9.21420666,18.2637103 9.29699959,18.2637103 L18.6621328,18.2637103 L18.6621328,18.2637103 Z" id="形状"></path>
                </g>
            </g>
        </g>
    </g>
</svg>