<?xml version="1.0" encoding="UTF-8"?>
<svg width="605px" height="360px" viewBox="0 0 605 360" version="1.1" xmlns="http://www.w3.org/2000/svg" xmlns:xlink="http://www.w3.org/1999/xlink">
    <title>编组 5</title>
    <defs>
        <linearGradient x1="-22.5411717%" y1="44.9243779%" x2="94.2678881%" y2="44.9243779%" id="linearGradient-1">
            <stop stop-color="#B0C8FF" stop-opacity="0" offset="0%"></stop>
            <stop stop-color="#739DFF" offset="100%"></stop>
        </linearGradient>
        <linearGradient x1="93.9944314%" y1="49.4883134%" x2="8.6904401%" y2="50.4862938%" id="linearGradient-2">
            <stop stop-color="#0098F5" offset="0%"></stop>
            <stop stop-color="#005FE8" offset="100%"></stop>
        </linearGradient>
        <linearGradient x1="803.22009%" y1="-75.3673318%" x2="803.22009%" y2="90.9364518%" id="linearGradient-3">
            <stop stop-color="#B0C8FF" stop-opacity="0" offset="0%"></stop>
            <stop stop-color="#AEC7FF" stop-opacity="0.0352637085" offset="23.2886398%"></stop>
            <stop stop-color="#739DFF" offset="100%"></stop>
        </linearGradient>
        <linearGradient x1="803.22009%" y1="-75.3673318%" x2="803.22009%" y2="90.9364518%" id="linearGradient-4">
            <stop stop-color="#B0C8FF" stop-opacity="0" offset="0%"></stop>
            <stop stop-color="#AEC7FF" stop-opacity="0.0352637085" offset="23.2886398%"></stop>
            <stop stop-color="#739DFF" offset="100%"></stop>
        </linearGradient>
        <linearGradient x1="803.22009%" y1="-75.3673318%" x2="803.22009%" y2="90.9364518%" id="linearGradient-5">
            <stop stop-color="#B0C8FF" stop-opacity="0" offset="0%"></stop>
            <stop stop-color="#AEC7FF" stop-opacity="0.0352637085" offset="23.2886398%"></stop>
            <stop stop-color="#739DFF" offset="100%"></stop>
        </linearGradient>
        <linearGradient x1="803.22009%" y1="-75.3673318%" x2="803.22009%" y2="90.9364518%" id="linearGradient-6">
            <stop stop-color="#B0C8FF" stop-opacity="0" offset="0%"></stop>
            <stop stop-color="#AEC7FF" stop-opacity="0.0352637085" offset="23.2886398%"></stop>
            <stop stop-color="#739DFF" offset="100%"></stop>
        </linearGradient>
        <linearGradient x1="803.22009%" y1="-75.3673318%" x2="803.22009%" y2="90.9364518%" id="linearGradient-7">
            <stop stop-color="#B0C8FF" stop-opacity="0" offset="0%"></stop>
            <stop stop-color="#AEC7FF" stop-opacity="0.0352637085" offset="23.2886398%"></stop>
            <stop stop-color="#739DFF" offset="100%"></stop>
        </linearGradient>
        <linearGradient x1="803.22009%" y1="-75.3673318%" x2="803.22009%" y2="90.9364518%" id="linearGradient-8">
            <stop stop-color="#B0C8FF" stop-opacity="0" offset="0%"></stop>
            <stop stop-color="#AEC7FF" stop-opacity="0.0352637085" offset="23.2886398%"></stop>
            <stop stop-color="#739DFF" offset="100%"></stop>
        </linearGradient>
        <linearGradient x1="803.22009%" y1="-75.3673318%" x2="803.22009%" y2="90.9364518%" id="linearGradient-9">
            <stop stop-color="#B0C8FF" stop-opacity="0" offset="0%"></stop>
            <stop stop-color="#AEC7FF" stop-opacity="0.0352637085" offset="23.2886398%"></stop>
            <stop stop-color="#739DFF" offset="100%"></stop>
        </linearGradient>
        <linearGradient x1="803.22009%" y1="-75.3673318%" x2="803.22009%" y2="90.9364518%" id="linearGradient-10">
            <stop stop-color="#B0C8FF" stop-opacity="0" offset="0%"></stop>
            <stop stop-color="#AEC7FF" stop-opacity="0.0352637085" offset="23.2886398%"></stop>
            <stop stop-color="#739DFF" offset="100%"></stop>
        </linearGradient>
        <linearGradient x1="803.22009%" y1="-75.3673318%" x2="803.22009%" y2="90.9364518%" id="linearGradient-11">
            <stop stop-color="#B0C8FF" stop-opacity="0" offset="0%"></stop>
            <stop stop-color="#AEC7FF" stop-opacity="0.0352637085" offset="23.2886398%"></stop>
            <stop stop-color="#739DFF" offset="100%"></stop>
        </linearGradient>
        <linearGradient x1="93.9944314%" y1="49.6018935%" x2="8.6904401%" y2="50.3783502%" id="linearGradient-12">
            <stop stop-color="#0098F5" offset="0%"></stop>
            <stop stop-color="#005FE8" offset="100%"></stop>
        </linearGradient>
        <linearGradient x1="226.713192%" y1="-47.5246104%" x2="226.713192%" y2="87.9119722%" id="linearGradient-13">
            <stop stop-color="#B0C8FF" stop-opacity="0" offset="0%"></stop>
            <stop stop-color="#AAC3FF" stop-opacity="0.107650008" offset="10.7847489%"></stop>
            <stop stop-color="#739DFF" offset="100%"></stop>
        </linearGradient>
        <linearGradient x1="226.713192%" y1="-47.5246104%" x2="226.713192%" y2="87.9119722%" id="linearGradient-14">
            <stop stop-color="#B0C8FF" stop-opacity="0" offset="0%"></stop>
            <stop stop-color="#AAC3FF" stop-opacity="0.107650008" offset="10.7847489%"></stop>
            <stop stop-color="#739DFF" offset="100%"></stop>
        </linearGradient>
        <linearGradient x1="226.713192%" y1="-47.5246104%" x2="226.713192%" y2="87.9119722%" id="linearGradient-15">
            <stop stop-color="#B0C8FF" stop-opacity="0" offset="0%"></stop>
            <stop stop-color="#AAC3FF" stop-opacity="0.107650008" offset="10.7847489%"></stop>
            <stop stop-color="#739DFF" offset="100%"></stop>
        </linearGradient>
        <linearGradient x1="226.713192%" y1="-47.5246104%" x2="226.713192%" y2="87.9119722%" id="linearGradient-16">
            <stop stop-color="#B0C8FF" stop-opacity="0" offset="0%"></stop>
            <stop stop-color="#AAC3FF" stop-opacity="0.107650008" offset="10.7847489%"></stop>
            <stop stop-color="#739DFF" offset="100%"></stop>
        </linearGradient>
        <linearGradient x1="-22.5411717%" y1="44.9243779%" x2="94.2678881%" y2="44.9243779%" id="linearGradient-17">
            <stop stop-color="#B0C8FF" stop-opacity="0" offset="0%"></stop>
            <stop stop-color="#739DFF" offset="100%"></stop>
        </linearGradient>
        <linearGradient x1="-22.5411717%" y1="44.9243779%" x2="94.2678881%" y2="44.9243779%" id="linearGradient-18">
            <stop stop-color="#B0C8FF" stop-opacity="0" offset="0%"></stop>
            <stop stop-color="#739DFF" offset="100%"></stop>
        </linearGradient>
        <linearGradient x1="-22.5411717%" y1="44.9243779%" x2="94.2678881%" y2="44.9243779%" id="linearGradient-19">
            <stop stop-color="#B0C8FF" stop-opacity="0" offset="0%"></stop>
            <stop stop-color="#739DFF" offset="100%"></stop>
        </linearGradient>
        <linearGradient x1="-22.5411717%" y1="44.9243779%" x2="94.2678881%" y2="44.9243779%" id="linearGradient-20">
            <stop stop-color="#B0C8FF" stop-opacity="0" offset="0%"></stop>
            <stop stop-color="#739DFF" offset="100%"></stop>
        </linearGradient>
        <linearGradient x1="86.0185901%" y1="50%" x2="-42.0049924%" y2="50%" id="linearGradient-21">
            <stop stop-color="#4A02BC" offset="0%"></stop>
            <stop stop-color="#FFFFFF" offset="100%"></stop>
        </linearGradient>
    </defs>
    <g id="页面-1" stroke="none" stroke-width="1" fill="none" fill-rule="evenodd">
        <g id="首页" transform="translate(-300.000000, -5094.000000)">
            <g id="编组-5" transform="translate(300.000000, 5094.000000)">
                <rect id="矩形备份-137" fill="url(#linearGradient-1)" x="86.5499956" y="335.737793" width="157.176906" height="24.262207"></rect>
                <rect id="矩形备份-33" stroke="#005FE8" fill="#FFFFFF" opacity="0.1" x="398.631783" y="175.248502" width="187.823263" height="139.298849" rx="7"></rect>
                <rect id="矩形备份-33" stroke="#005FE8" fill="#FFFFFF" x="404.431534" y="168.482127" width="187.823263" height="139.298849" rx="7"></rect>
                <rect id="矩形备份-34" fill="url(#linearGradient-2)" x="403.931534" y="167.982127" width="188.823263" height="19.1017212" rx="5"></rect>
                <circle id="椭圆形备份-14" fill="#FFFFFF" cx="413.153055" cy="177.862327" r="2.63472017"></circle>
                <circle id="椭圆形备份-15" fill="#FFFFFF" cx="422.374575" cy="177.862327" r="2.63472017"></circle>
                <circle id="椭圆形备份-16" fill="#FFFFFF" cx="431.596096" cy="177.862327" r="2.63472017"></circle>
                <rect id="矩形" fill="url(#linearGradient-3)" opacity="0.283022926" x="417.51283" y="236.549233" width="8.99069063" height="55.9085639"></rect>
                <rect id="矩形备份-66" fill="url(#linearGradient-4)" opacity="0.283022926" x="473.454905" y="216.506541" width="8.99069063" height="75.9512567"></rect>
                <rect id="矩形备份-70" fill="url(#linearGradient-5)" opacity="0.283022926" x="529.39698" y="254.482169" width="8.99069063" height="37.9756283"></rect>
                <rect id="矩形备份-64" fill="url(#linearGradient-6)" opacity="0.283022926" x="445.483868" y="229.165083" width="8.99069063" height="63.2927139"></rect>
                <rect id="矩形备份-67" fill="url(#linearGradient-7)" opacity="0.283022926" x="501.425943" y="233.384598" width="8.99069063" height="59.0731996"></rect>
                <rect id="矩形备份-71" fill="url(#linearGradient-8)" opacity="0.283022926" x="557.368018" y="268.19559" width="8.99069063" height="24.262207"></rect>
                <rect id="矩形备份-63" fill="url(#linearGradient-5)" opacity="0.283022926" x="431.498349" y="254.482169" width="8.99069063" height="37.9756283"></rect>
                <rect id="矩形备份-68" fill="url(#linearGradient-8)" opacity="0.283022926" x="487.440424" y="268.19559" width="8.99069063" height="24.262207"></rect>
                <rect id="矩形备份-72" fill="url(#linearGradient-7)" opacity="0.283022926" x="543.382499" y="233.384598" width="8.99069063" height="59.0731996"></rect>
                <rect id="矩形备份-65" fill="url(#linearGradient-9)" opacity="0.283022926" x="459.469387" y="237.604112" width="8.99069063" height="54.8536854"></rect>
                <rect id="矩形备份-69" fill="url(#linearGradient-10)" opacity="0.283022926" x="515.411462" y="243.933383" width="8.99069063" height="48.524414"></rect>
                <rect id="矩形备份-73" fill="url(#linearGradient-11)" opacity="0.283022926" x="571.353537" y="223.890691" width="8.99069063" height="68.5671067"></rect>
                <rect id="矩形备份-29" stroke="#005FE8" fill="#FFFFFF" opacity="0.1" x="19.0311931" y="121.193261" width="187.823263" height="139.298849" rx="7"></rect>
                <rect id="矩形备份-29" stroke="#005FE8" fill="#FFFFFF" x="25.797569" y="114.426885" width="187.823263" height="139.298849" rx="7"></rect>
                <rect id="矩形备份-31" stroke="#005FE8" fill="#FFFFFF" opacity="0.1" x="197.66701" y="212.967696" width="213.071014" height="139.298849" rx="7"></rect>
                <rect id="矩形备份-31" stroke="#005FE8" fill="#FFFFFF" x="204.433386" y="206.20132" width="213.071014" height="139.298849" rx="7"></rect>
                <rect id="矩形备份-30" fill="url(#linearGradient-2)" x="25.297569" y="113.926885" width="188.823263" height="19.1017212" rx="5"></rect>
                <circle id="椭圆形备份-14" fill="#FFFFFF" cx="34.8905257" cy="123.945755" r="2.63472017"></circle>
                <circle id="椭圆形备份-15" fill="#FFFFFF" cx="44.1120463" cy="123.945755" r="2.63472017"></circle>
                <circle id="椭圆形备份-16" fill="#FFFFFF" cx="53.3335669" cy="123.945755" r="2.63472017"></circle>
                <rect id="矩形备份-32" fill="url(#linearGradient-12)" x="203.933386" y="205.70132" width="214.071014" height="19.1017212" rx="5"></rect>
                <circle id="椭圆形备份-11" fill="#FFFFFF" cx="213.154906" cy="215.581521" r="2.63472017"></circle>
                <circle id="椭圆形备份-12" fill="#FFFFFF" cx="222.376427" cy="215.581521" r="2.63472017"></circle>
                <circle id="椭圆形备份-13" fill="#FFFFFF" cx="231.597948" cy="215.581521" r="2.63472017"></circle>
                <g id="编组备份" transform="translate(277.348972, 234.183041)" fill-rule="nonzero">
                    <g id="编组" fill="#FFFFFF" fill-opacity="0">
                        <polygon id="路径" points="0 0 145.573242 0 145.573242 98.1037065 0 98.1037065"></polygon>
                    </g>
                    <g id="编组" transform="translate(6.329271, 6.329271)">
                        <polygon id="路径" fill-opacity="0" fill="#FFFFFF" points="0 0 135.024456 0 135.024456 86.498382 0 86.498382"></polygon>
                        <g transform="translate(24.261615, 0.000001)" id="路径" stroke="#FFFFFF">
                            <path d="M43.2506131,15.5697072 C49.6250205,15.5697072 55.804083,17.7697528 60.7441002,21.7982359 L70.5841854,9.73207572 C62.8654089,3.43757104 53.2106242,0 43.2506131,0 L43.2506131,15.5697072 Z" fill="#FF9D00"></path>
                            <path d="M60.7441002,21.7982359 C68.7605177,28.3354608 72.4629303,38.7969039 70.3432221,48.9212706 C68.2235139,59.0456373 60.6354339,67.1433146 50.6698602,69.9158485 L54.8431861,84.9158419 C70.4143944,80.5837578 82.2707687,67.9311377 85.5828127,52.1118154 C88.8948567,36.2924932 83.1098371,19.9464891 70.5841854,9.73207572 L60.7441002,21.7982359 Z" fill="#4A02BC"></path>
                            <path d="M50.6698602,69.9158485 C40.275442,72.8076918 29.1479302,69.3964327 22.1602555,61.1759208 C15.1725807,52.9554089 13.5983205,41.4239193 18.1268706,31.6312914 C22.6554207,21.8386635 32.4614052,15.5697072 43.2506131,15.5697072 L43.2506131,0 C26.3924765,0 11.0706265,9.79524384 3.99476723,25.0962242 C-3.081092,40.3972045 -0.62131046,58.4151562 10.2969308,71.2597055 C21.2151721,84.1042547 38.6019084,89.4343468 54.8431861,84.9158419 L50.6698602,69.9158485 Z" fill="#0067EA"></path>
                        </g>
                    </g>
                </g>
                <path d="M41.5654193,201.045789 C50.7747884,186.920877 61.9029653,179.858421 74.9499499,179.858421 C94.520427,179.858421 95.6399589,196.010634 118.805608,196.010634 C141.971256,196.010634 149.066522,169.399432 164.228601,169.399432 C179.390681,169.399432 181.907231,186.349418 202.529379,186.349418" id="路径-3备份" stroke="#FF9D00" stroke-width="7" stroke-linecap="round"></path>
                <rect id="矩形备份-76" fill="url(#linearGradient-13)" opacity="0.283022926" transform="translate(246.892156, 256.313503) rotate(-270.000000) translate(-246.892156, -256.313503) " x="240.562884" y="228.359221" width="12.6585428" height="55.9085639"></rect>
                <polygon id="矩形备份-77" fill="url(#linearGradient-14)" opacity="0.283022926" transform="translate(250.584231, 295.695636) rotate(-270.000000) translate(-250.584231, -295.695636) " points="244.254959 264.049279 256.913502 264.049279 256.913502 327.341993 244.254959 327.341993"></polygon>
                <polygon id="矩形备份-78" fill="url(#linearGradient-15)" opacity="0.283022926" transform="translate(237.925688, 276.004570) rotate(-270.000000) translate(-237.925688, -276.004570) " points="231.596416 257.016756 244.254959 257.016756 244.254959 294.992384 231.596416 294.992384"></polygon>
                <polygon id="矩形备份-79" fill="url(#linearGradient-16)" opacity="0.283022926" transform="translate(246.364716, 315.386703) rotate(-270.000000) translate(-246.364716, -315.386703) " points="240.035445 287.95986 252.693988 287.95986 252.693988 342.813546 240.035445 342.813546"></polygon>
                <rect id="矩形备份-15" fill="url(#linearGradient-17)" x="137.050123" y="102.323221" width="309.079419" height="24.262207"></rect>
                <rect id="矩形备份-35" fill="#4A02BC" x="301.611179" y="102.323221" width="34.8109926" height="24.262207"></rect>
                <rect id="矩形备份-26" fill="url(#linearGradient-1)" x="227.677263" y="153.045645" width="157.176906" height="24.262207"></rect>
                <rect id="矩形备份-74" fill="url(#linearGradient-18)" x="0" y="56.9634425" width="238.402556" height="23.2073284"></rect>
                <rect id="矩形备份-36" fill="url(#linearGradient-19)" x="461.406549" y="102.255781" width="66.4573496" height="24.262207"></rect>
                <rect id="矩形备份-27" fill="url(#linearGradient-1)" x="359.584545" y="57.0308821" width="157.176906" height="24.262207"></rect>
                <rect id="矩形备份-75" fill="url(#linearGradient-20)" x="548.076443" y="57.0308821" width="43.2500212" height="24.262207"></rect>
                <line x1="319.016675" y1="21.6250106" x2="319.016675" y2="108.827016" id="路径-7" stroke="#4A02BC" stroke-width="2"></line>
                <circle id="椭圆形" fill="url(#linearGradient-21)" cx="319.016675" cy="24.7896463" r="24.7896463"></circle>
                <g id="点击添加" transform="translate(65.730508, 225.223653)" fill="#4A02BC" fill-rule="nonzero">
                    <rect id="矩形" opacity="0" x="0" y="0" width="88.929511" height="88.929511"></rect>
                    <path d="M57.4395253,83.1297603 L33.3795002,83.1297603 C30.5214677,83.1297603 28.1012806,81.599737 26.7434569,78.9309052 C26.6952167,78.8365539 26.6220028,78.6783217 26.5884054,78.5765755 L20.1601455,59.3940407 C19.1861776,57.620076 18.9384186,55.580431 19.4657374,53.623555 C20.0194672,51.5719712 21.3554615,49.860462 23.2264105,48.8028188 C24.4451729,48.1140277 25.8294974,47.7493631 27.2284645,47.7493631 C29.3378299,47.7493631 31.3448757,48.5701035 32.8257705,49.9782452 L32.8197516,32.7993611 C32.8197516,28.2850217 36.5819519,24.6135181 41.2064577,24.6135181 C45.8314127,24.6135181 49.5932537,28.2850217 49.5932537,32.7993611 L49.5932537,46.8136905 C63.8673361,48.0545125 64.0137637,48.0792808 64.1193173,48.0964761 C68.5491554,48.819925 71.5302589,51.9043836 71.5302589,55.7734102 C71.5302589,56.0480001 71.5302589,56.6933129 67.2218749,77.0393355 C65.9343902,81.6273563 63.4747665,83.1297603 57.4395253,83.1297603 L57.4395253,83.1297603 Z M30.7047267,77.0394247 C31.1336786,77.8470682 31.9408269,78.7711584 33.3795002,78.7711584 L57.4395253,78.7711584 C62.1753341,78.7711584 62.387699,78.0183973 62.9560715,76.0064607 C64.453226,68.9089986 66.9114124,57.144934 67.1355454,55.6690803 C67.0695183,53.6975036 65.1770093,52.6862788 63.404607,52.3971665 C63.025153,52.3609049 53.4943355,51.5281367 47.205586,50.9819862 C46.0717156,50.8831801 45.2000674,49.9418946 45.2000674,48.8113719 L45.2000675,32.8008758 C45.2000675,30.6912024 43.4083511,28.9738129 41.2080748,28.9738129 C39.0077984,28.9738129 37.216082,30.6912915 37.216082,32.8008758 L37.2251552,60.2282344 C37.2251552,61.2857886 36.4601385,62.1909016 35.4100822,62.3752386 C34.3655057,62.5601101 33.3298226,61.970125 32.963574,60.9765409 L30.3061383,53.7454366 C29.2983034,52.2138986 27.0482597,51.6620461 25.4048574,52.5916602 C24.5609675,53.0683169 23.9601653,53.8355114 23.7126757,54.7521177 C23.4678812,55.6558943 23.5983185,56.5986945 24.0759598,57.4078525 C24.1535754,57.5387327 24.2166381,57.6783441 24.2649681,57.8219647 L30.7047267,77.0394247 L30.7047267,77.0394247 Z M26.6936894,28.1237604 L17.8793789,27.9371961 C16.54581,27.9096658 15.4713192,28.9865534 15.4660105,30.3845384 C15.4625155,31.7796724 16.5325148,32.959019 17.8612326,32.9869947 L26.675633,33.1739153 C28.0378585,33.2021583 29.1432519,32.069141 29.1467997,30.673918 C29.1548404,29.2780713 28.0561844,28.1520924 26.6936894,28.1237604 L26.6936894,28.1237604 Z M66.4087155,31.4588423 C66.4120316,30.0638866 65.3420323,28.9388877 63.9509705,28.9095757 L55.1970277,28.7266642 C53.8061454,28.6975302 52.7291393,29.7770017 52.7258967,31.1724028 C52.7224018,32.5676259 53.7924908,33.7468833 55.1834629,33.7761955 L63.9376753,33.9589288 C65.3286473,33.9881518 66.4051145,32.8540654 66.4087155,31.4588423 L66.4087155,31.4588423 Z M43.4219199,7.35435974 C43.4243413,5.98773608 42.3571269,4.86487555 40.9634599,4.83360335 C39.6587274,4.80714222 38.5552205,5.88313894 38.552795,7.24985167 L38.5291552,16.3092683 C38.5246773,17.6784757 39.6227043,18.7994652 40.9272572,18.8261045 C42.3184089,18.8551494 43.3956846,17.7803109 43.4003559,16.4112817 L43.4219199,7.35435974 L43.4219199,7.35435974 Z M49.266352,22.5696857 C50.221455,23.5698628 51.78284,23.6024715 52.746477,22.642387 L58.9662348,16.3843752 C59.9277159,15.4266962 59.9327466,13.8485617 58.9761165,12.8178252 C58.0211033,11.8176481 56.4597184,11.7850394 55.4980576,12.7425401 L49.2738979,19.0012648 C48.3154711,19.9653584 48.3123269,21.5409092 49.266352,22.5696857 L49.266352,22.5696857 Z M32.6526624,22.2204344 C33.5838699,21.2314832 33.5869242,19.6559325 32.6626339,18.6542408 L26.4753057,12.1349142 C25.4627097,11.1329551 23.9300712,11.1010593 22.9951806,12.062302 C21.9757573,13.0513423 21.9725233,14.6264475 22.9853889,15.6285848 L29.1726272,22.1477332 C30.1010499,23.1444356 31.6359342,23.1783807 32.6526624,22.2204344 L32.6526624,22.2204344 Z" id="形状"></path>
                </g>
                <circle id="椭圆形备份-29" fill="#FF9D00" cx="26.0912418" cy="326.971563" r="11.5995014"></circle>
                <circle id="椭圆形备份-30" fill="#005FE8" cx="580.534832" cy="329.163329" r="23.7347677"></circle>
            </g>
        </g>
    </g>
</svg>