<?xml version="1.0" encoding="UTF-8"?>
<svg width="32px" height="32px" viewBox="0 0 32 32" version="1.1" xmlns="http://www.w3.org/2000/svg" xmlns:xlink="http://www.w3.org/1999/xlink">
    <title>contact</title>
    <g id="网站-pc" stroke="none" stroke-width="1" fill="none" fill-rule="evenodd">
        <g id="咨询-联系" transform="translate(-1179.000000, -196.000000)" fill="#005FE8" fill-rule="nonzero">
            <g id="contact" transform="translate(1179.000000, 196.000000)">
                <rect id="矩形" opacity="0" x="0" y="0" width="32" height="32"></rect>
                <path d="M16.6383459,4.44104099 C17.0441451,4.44104099 17.45309,4.46305819 17.8683264,4.50709259 C23.0053037,5.07010388 27.1325017,9.34458617 27.525718,14.4966112 C27.6955874,16.7360751 27.198562,18.8371451 26.1982198,20.6362649 C25.7011945,21.5295342 25.7641091,22.627249 26.2737174,23.5110823 L27.1387932,25.0051067 C27.4659491,25.5712633 27.0570042,26.2758137 26.405838,26.2758137 L17.4090498,26.2758137 L17.4310699,26.2443605 C17.1668286,26.2663778 16.9025872,26.2758137 16.6414916,26.2758137 C15.9085365,26.2758137 15.1787271,26.1940355 14.445772,26.0367698 C9.97254367,25.068013 6.42730578,21.4037217 5.81703413,16.8713236 C4.92050103,10.1718039 10.1109558,4.44418631 16.6383459,4.44104099 M16.6383459,1.28 C12.5772082,1.28 8.71425161,3.03508545 6.03723524,6.09233106 C3.3633646,9.14957668 2.1428213,13.2290495 2.68703261,17.2896504 C3.46717369,23.0990461 7.9215276,27.8579068 13.7725857,29.1286139 C14.7257419,29.3362046 15.6914811,29.44 16.6414916,29.44 C16.8145068,29.44 16.9875219,29.4368547 17.1573914,29.4305641 C17.2423261,29.4368547 17.3241151,29.44 17.4090498,29.44 L26.405838,29.44 C27.8339995,29.44 29.1646434,28.6725433 29.8787241,27.4332894 C30.5928049,26.1971808 30.5928049,24.6591221 29.8755784,23.4230135 L29.0545428,22.0013314 C30.3254178,19.6423456 30.8853578,16.9688283 30.6777396,14.254422 C30.1744228,7.63038981 24.8140986,2.08834581 18.211211,1.3680688 C17.6890198,1.30830783 17.1605371,1.28 16.6383459,1.28 L16.6383459,1.28 Z M9.37485494,15.3615727 C9.37485494,15.9268001 9.67644003,16.4490918 10.1660061,16.7317056 C10.6555721,17.0143193 11.2587423,17.0143193 11.7483084,16.7317056 C12.2378744,16.4490918 12.5394595,15.9268001 12.5394595,15.3615727 C12.5394595,14.4878067 11.8310386,13.7794795 10.9571572,13.7794795 C10.0832758,13.7794795 9.37485494,14.4878067 9.37485494,15.3615727 Z M15.0560436,15.3615727 C15.0560436,16.2353386 15.7644645,16.9436658 16.6383459,16.9436658 C17.5122273,16.9436658 18.2206482,16.2353386 18.2206482,15.3615727 C18.2206482,14.4878067 17.5122273,13.7794795 16.6383459,13.7794795 C15.7644645,13.7794795 15.0560436,14.4878067 15.0560436,15.3615727 Z M20.7372323,15.3615727 C20.7372323,16.2353386 21.4456531,16.9436658 22.3195346,16.9436658 C23.193416,16.9436658 23.9018368,16.2353386 23.9018368,15.3615727 C23.9018368,14.4878067 23.193416,13.7794795 22.3195346,13.7794795 C21.4456531,13.7794795 20.7372323,14.4878067 20.7372323,15.3615727 Z" id="形状"></path>
            </g>
        </g>
    </g>
</svg>