<?xml version="1.0" encoding="UTF-8"?>
<svg width="24px" height="24px" viewBox="0 0 24 24" version="1.1" xmlns="http://www.w3.org/2000/svg" xmlns:xlink="http://www.w3.org/1999/xlink">
    <title>docker</title>
    <g id="网站-pc" stroke="none" stroke-width="1" fill="none" fill-rule="evenodd">
        <g id="下载" transform="translate(-298.000000, -671.000000)" fill="#000000" fill-rule="nonzero">
            <g id="docker" transform="translate(298.000000, 671.000000)">
                <rect id="矩形" opacity="0" x="0" y="0" width="24" height="24"></rect>
                <path d="M4.81999999,17.275 C4.13599999,17.275 3.516,16.715 3.516,16.035 C3.516,15.355 4.07599999,14.792 4.821,14.792 C5.56900001,14.792 6.13099999,15.352 6.13099999,16.034 C6.13099999,16.716 5.50899998,17.274 4.82599999,17.274 L4.81999999,17.275 Z M20.832,10.512 C20.697,9.52000001 20.082,8.712 19.272,8.09200001 L18.957,7.842 L18.703,8.15200001 C18.209,8.712 18.013,9.705 18.073,10.447 C18.133,11.009 18.313,11.567 18.627,12.001 C18.373,12.131 18.059,12.251 17.817,12.378 C17.274121,12.5512779 16.7068101,12.6356991 16.137,12.628 L0.0970000078,12.628 L0.0370000078,12.998 C-0.0869990439,14.2068028 0.106721531,15.4270356 0.598999992,16.538 L0.843,16.973 L0.843,17.033 C2.343,19.516 5.013,20.633 7.92100001,20.633 C13.515,20.633 18.103,18.213 20.278,13 C21.703,13.062 23.142,12.69 23.818,11.324 L23.998,11.014 L23.698,10.827 C22.888,10.333 21.778,10.267 20.848,10.517 L20.83,10.519 L20.832,10.512 Z M12.824,9.52000001 L10.396,9.52000001 L10.396,11.94 L12.826,11.94 L12.826,9.51799999 L12.824,9.52099999 L12.824,9.52000001 Z M12.824,6.477 L10.396,6.477 L10.396,8.89699999 L12.826,8.89699999 L12.826,6.48 L12.824,6.477 L12.824,6.477 Z M12.824,3.37300001 L10.396,3.37300001 L10.396,5.793 L12.826,5.793 L12.826,3.37300001 L12.824,3.37300001 Z M15.794,9.52000001 L13.38,9.52000001 L13.38,11.94 L15.8,11.94 L15.8,9.51799999 L15.793,9.52099999 L15.794,9.52000001 Z M6.79600001,9.52000001 L4.383,9.52000001 L4.383,11.94 L6.80500001,11.94 L6.80500001,9.51799999 L6.795,9.52099999 L6.79600001,9.52000001 Z M9.82600001,9.52000001 L7.42600001,9.52000001 L7.42600001,11.94 L9.84,11.94 L9.84,9.51799999 L9.825,9.52099999 L9.82600001,9.52000001 Z M3.79600001,9.52000001 L1.39999999,9.52000001 L1.39999999,11.94 L3.828,11.94 L3.828,9.51799999 L3.798,9.52099999 L3.79600001,9.52000001 Z M9.82600001,6.477 L7.42600001,6.477 L7.42600001,8.89699999 L9.84,8.89699999 L9.84,6.48 L9.825,6.477 L9.82600001,6.477 Z M6.78100001,6.477 L4.38700001,6.477 L4.38700001,8.89699999 L6.79999999,8.89699999 L6.79999999,6.48 L6.78400001,6.477 L6.78100001,6.477 Z" id="形状"></path>
            </g>
        </g>
    </g>
</svg>