<?xml version="1.0" encoding="UTF-8"?>
<svg width="615px" height="360px" viewBox="0 0 615 360" version="1.1" xmlns="http://www.w3.org/2000/svg" xmlns:xlink="http://www.w3.org/1999/xlink">
    <title>编组 19</title>
    <defs>
        <linearGradient x1="0%" y1="44.9243779%" x2="94.2678881%" y2="44.9243779%" id="linearGradient-1">
            <stop stop-color="#B0C8FF" stop-opacity="0" offset="0%"></stop>
            <stop stop-color="#739DFF" offset="100%"></stop>
        </linearGradient>
        <linearGradient x1="93.9929985%" y1="0%" x2="8.69178554%" y2="97.5187142%" id="linearGradient-2">
            <stop stop-color="#0098F5" offset="0%"></stop>
            <stop stop-color="#005FE8" offset="100%"></stop>
        </linearGradient>
        <linearGradient x1="-22.5411717%" y1="44.9243779%" x2="94.2678881%" y2="44.9243779%" id="linearGradient-3">
            <stop stop-color="#B0C8FF" stop-opacity="0" offset="0%"></stop>
            <stop stop-color="#739DFF" offset="100%"></stop>
        </linearGradient>
        <linearGradient x1="86.0185901%" y1="50%" x2="-42.0049924%" y2="50%" id="linearGradient-4">
            <stop stop-color="#4A02BC" offset="0%"></stop>
            <stop stop-color="#FFFFFF" offset="100%"></stop>
        </linearGradient>
        <linearGradient x1="65.0734914%" y1="0%" x2="35.8464066%" y2="97.5187142%" id="linearGradient-5">
            <stop stop-color="#0098F5" offset="0%"></stop>
            <stop stop-color="#005FE8" offset="100%"></stop>
        </linearGradient>
        <linearGradient x1="93.9834837%" y1="0%" x2="8.70071973%" y2="97.5187142%" id="linearGradient-6">
            <stop stop-color="#0098F5" offset="0%"></stop>
            <stop stop-color="#005FE8" offset="100%"></stop>
        </linearGradient>
        <linearGradient x1="-22.5411717%" y1="44.9243779%" x2="94.2678881%" y2="44.9243779%" id="linearGradient-7">
            <stop stop-color="#B0C8FF" stop-opacity="0" offset="0%"></stop>
            <stop stop-color="#739DFF" offset="100%"></stop>
        </linearGradient>
        <linearGradient x1="93.9834837%" y1="0%" x2="8.70071973%" y2="97.5187142%" id="linearGradient-8">
            <stop stop-color="#0098F5" offset="0%"></stop>
            <stop stop-color="#005FE8" offset="100%"></stop>
        </linearGradient>
    </defs>
    <g id="页面-1" stroke="none" stroke-width="1" fill="none" fill-rule="evenodd">
        <g id="gateway" transform="translate(-300.000000, -5416.000000)">
            <g id="编组-19" transform="translate(300.000000, 5416.000000)">
                <ellipse id="椭圆形" fill="url(#linearGradient-1)" opacity="0.1782539" cx="481.265698" cy="254.64455" rx="105.922164" ry="105.35545"></ellipse>
                <ellipse id="椭圆形备份-35" fill="url(#linearGradient-2)" cx="25.1654669" cy="326.204838" rx="25.1654669" ry="25.1658768"></ellipse>
                <ellipse id="椭圆形备份-36" fill="url(#linearGradient-3)" cx="589.834533" cy="280.138488" rx="25.1654669" ry="25.1658768"></ellipse>
                <text id="50%" font-family="LucidaGrande, Lucida Grande" font-size="7.7495" font-weight="normal" fill="#EFEFEF">
                    <tspan x="532.218144" y="286.395455">5</tspan>
                    <tspan x="532.218144" y="295.395455">0</tspan>
                    <tspan x="532.218144" y="304.395455">%</tspan>
                </text>
                <path d="M322.949329,165.818182 L410.211197,78.647979 C387.881081,56.3413193 357.028308,42.5454545 322.949329,42.5454545 L322.949329,42.5454545 L322.949329,165.818182 Z" id="Clip-2"></path>
                <path d="M322.949329,165.818182 L410.211197,78.647979 C387.881081,56.3413193 357.028308,42.5454545 322.949329,42.5454545 L322.949329,42.5454545 L322.949329,165.818182 Z" id="Fill-1" fill="url(#linearGradient-4)"></path>
                <path d="M322.949329,166.255865 L322.949329,332.727273 C368.884012,332.727273 410.469746,314.097414 440.571809,283.969189 L440.571809,283.969189 C470.673873,253.84679 489.292265,212.226025 489.292265,166.255865 L489.292265,166.255865 C489.292265,120.288618 470.673873,78.6707665 440.571809,48.5454545 L440.571809,48.5454545 L322.949329,166.255865 Z" id="Clip-8"></path>
                <path d="M322.949329,165.710411 L322.949329,332.181818 C368.884012,332.181818 410.469746,313.551959 440.571809,283.423734 L440.571809,283.423734 C470.673873,253.301335 489.292265,211.68057 489.292265,165.710411 L489.292265,165.710411 C489.292265,119.743164 470.673873,78.125312 440.571809,48 L440.571809,48 L322.949329,165.710411 Z" id="Fill-7" fill="url(#linearGradient-5)"></path>
                <path d="M205.324791,48.7273714 C175.222201,78.8337075 156.606393,120.425344 156.606393,166.363636 L156.606393,166.363636 L322.949329,166.363636 L322.949329,0 C277.013842,0 235.427381,18.6210353 205.324791,48.7273714" id="Clip-10"></path>
                <path d="M205.324791,48.7273714 C175.222201,78.8337075 156.606393,120.425344 156.606393,166.363636 L156.606393,166.363636 L322.949329,166.363636 L322.949329,0 C277.013842,0 235.427381,18.6210353 205.324791,48.7273714" id="Fill-9" fill="url(#linearGradient-6)"></path>
                <path d="M128.791673,165.818182 C128.791673,219.4411 150.525478,267.985826 185.660629,303.124821 L185.660629,303.124821 C220.79578,338.263817 269.335194,360 322.949329,360 L322.949329,360 L322.949329,165.818182 L128.791673,165.818182 Z" id="Clip-12"></path>
                <path d="M128.791673,165.818182 C128.791673,219.4411 150.525478,267.985826 185.660629,303.124821 L185.660629,303.124821 C220.79578,338.263817 269.335194,360 322.949329,360 L322.949329,360 L322.949329,165.818182 L128.791673,165.818182 Z" id="Fill-11" fill="url(#linearGradient-7)"></path>
                <ellipse id="椭圆形" fill="#FFFFFF" cx="322.949329" cy="165.818182" rx="75.8087478" ry="75.8181818"></ellipse>
                <polyline id="路径-13" stroke="#0063E9" points="196.267907 90.3767315 141.693623 36.4614675 91.6610494 36.4614675"></polyline>
                <polyline id="路径-14" stroke="#0063E9" points="239.900951 284.594769 199.582761 325.783482 66.72572 325.783482"></polyline>
                <polyline id="路径-15" stroke="#0063E9" points="360.602623 63.5037275 413.521311 16.5842963 474.593273 16.5842963"></polyline>
                <polyline id="路径-16" stroke="#0063E9" points="450.05095 241.523158 482.98135 274.762513 551.488416 274.762513"></polyline>
                <g id="加载-2-块" transform="translate(484.482006, 0.000000)" fill="#005FE8" fill-rule="nonzero">
                    <rect id="矩形" opacity="0" x="0" y="0" width="32.413028" height="32.4170616"></rect>
                    <path d="M16.2065139,0 C17.101575,0 17.8271653,0.725680642 17.8271653,1.62085308 L17.8271653,6.48341232 C17.8271653,7.37858473 17.1015749,8.10426533 16.2065139,8.10426533 C15.3114529,8.10426533 14.5858625,7.37858473 14.5858625,6.48341232 L14.5858625,1.62085308 C14.5858625,0.725680642 15.3114529,0 16.2065139,0 Z M16.2065139,24.3127962 C17.101575,24.3127962 17.8271653,25.0384769 17.8271653,25.9336493 L17.8271653,30.7962085 C17.8271653,31.6913809 17.1015749,32.4170615 16.2065139,32.4170615 C15.3114529,32.4170615 14.5858625,31.6913809 14.5858625,30.7962085 L14.5858625,25.9336493 C14.5858625,25.0384769 15.3114529,24.3127962 16.2065139,24.3127962 Z M32.4130279,16.2085308 C32.4130279,17.1037032 31.6874375,17.8293839 30.7923765,17.8293839 L25.9304223,17.8293839 C25.0353613,17.8293839 24.309771,17.1037032 24.309771,16.2085308 C24.309771,15.3133584 25.0353613,14.5876777 25.9304223,14.5876777 L30.7923765,14.5876777 C31.6874375,14.5876777 32.4130279,15.3133584 32.4130279,16.2085308 Z M8.10325692,16.2085308 C8.10325692,17.1037032 7.37766658,17.8293839 6.48260552,17.8293839 L1.62065133,17.8293839 C0.725590305,17.8293839 0,17.1037032 0,16.2085308 C0,15.3133584 0.725590305,14.5876777 1.62065133,14.5876777 L6.48260552,14.5876777 C6.912429,14.5876777 7.32464802,14.7584457 7.62857912,15.0624146 C7.93251021,15.3663835 8.10325692,15.7786538 8.10325692,16.2085308 Z M27.66614,27.6695829 C27.0332758,28.3023347 26.007403,28.3023347 25.3745389,27.6695829 L21.9371373,24.2317536 C21.3229554,23.595765 21.3317391,22.5848294 21.9568791,21.9596116 C22.5820191,21.3343938 23.5928289,21.325609 24.2287383,21.9398673 L27.66614,25.3760758 C27.9704611,25.6800964 28.1414554,26.09264 28.1414554,26.5228294 C28.1414554,26.9530188 27.9704611,27.3655624 27.66614,27.6695829 L27.66614,27.6695829 Z M10.4758906,10.4771943 C9.84302644,11.1099461 8.81715362,11.1099461 8.18428949,10.4771943 L4.74850853,7.04098578 C4.33886391,6.63157974 4.17872503,6.03470295 4.32841464,5.47519314 C4.47810426,4.91568332 4.91488096,4.47854333 5.47421519,4.32843957 C6.03354942,4.17833581 6.630465,4.33807262 7.04010961,4.74747867 L10.4758906,8.18530806 C11.1085636,8.81825094 11.1085636,9.84425143 10.4758906,10.4771943 L10.4758906,10.4771943 Z M4.74850853,27.6695829 C4.11583549,27.0366401 4.11583549,26.0106396 4.74850853,25.3776967 L8.18591014,21.9398673 C8.59281434,21.5185159 9.19537807,21.3495322 9.7620055,21.4978653 C10.3286329,21.6461984 10.7711436,22.0887641 10.9194582,22.6554621 C11.0677729,23.22216 10.8988102,23.8247987 10.4775112,24.2317536 L7.04173026,27.6695829 C6.7377475,27.9739419 6.32525526,28.1449575 5.89511939,28.1449575 C5.46498352,28.1449575 5.05249129,27.9739419 4.74850853,27.6695829 L4.74850853,27.6695829 Z M21.9371373,10.4771943 C21.3044642,9.84425143 21.3044642,8.81825094 21.9371373,8.18530806 L25.3729182,4.74747867 C26.0057264,4.11414421 27.0320739,4.11378138 27.6653296,4.74666828 C28.2985853,5.37955518 28.2989481,6.40603042 27.66614,7.03936493 L24.2287383,10.4771943 C23.5958742,11.1099461 22.5700014,11.1099461 21.9371373,10.4771943 L21.9371373,10.4771943 Z" id="形状"></path>
                </g>
                <g id="224用户" transform="translate(41.788282, 12.796209)" fill="#4A02BC" fill-rule="nonzero">
                    <rect id="矩形" opacity="0" x="0" y="0" width="39.2368233" height="39.2417062"></rect>
                    <path d="M19.164323,5.13090215 C15.5618861,5.34274583 12.5951734,8.27829395 12.3529928,11.8796365 C12.0805396,16.1165101 15.4105232,19.6573258 19.5881391,19.6573258 C23.614392,19.6573258 26.8535579,16.3888805 26.8535579,12.394114 C26.8838305,8.21776718 23.3722114,4.88879509 19.164323,5.13090215 L19.164323,5.13090215 Z M19.6184117,22.0178697 C14.7747991,22.0178697 5.11784652,24.4389403 5.11784652,29.2810815 L5.11784652,32.9126874 C5.11784652,33.5784819 5.66275294,34.1232227 6.32874966,34.1232227 L32.9080737,34.1232227 C33.5740704,34.1232227 34.1189768,33.5784819 34.1189768,32.9126874 L34.1189768,29.2508181 C34.1189768,24.4389403 24.4620242,22.0178697 19.6184117,22.0178697 Z" id="形状"></path>
                </g>
                <g id="曲线" transform="translate(14.493101, 312.227488)" fill="#FFFFFF" fill-rule="nonzero">
                    <rect id="矩形" opacity="0" x="0" y="0" width="27.2951814" height="27.2985782"></rect>
                    <path d="M27.1500063,26.2655509 C27.1500063,26.8360295 26.6900576,27.2985782 26.1227591,27.2985782 L1.88022166,27.2985782 C1.3129231,27.2985782 0.853001171,26.8360295 0.853001171,26.2655509 C0.853001171,25.6950455 1.3129231,25.2325237 1.88022166,25.2325237 L26.1227591,25.2325237 C26.6900844,25.2325237 27.1500063,25.6950455 27.1500063,26.2655509 L27.1500063,26.2655509 Z M2.84722671,25.8028946 L0.85297442,25.3063421 C1.42532884,22.9813851 2.13769555,20.0878866 3.10793741,17.7429147 C4.30526454,14.8491471 5.72876744,13.2244159 7.45984798,12.7758561 C8.43923852,12.5221725 9.48178707,12.6576229 10.55871,13.1785753 C11.61022,13.6872336 12.6874105,14.5492195 13.8518612,15.8137363 C15.5489954,17.6566139 17.1717095,18.4160503 18.4215479,17.9521027 C20.1901594,17.2955386 21.3909374,14.3081798 21.5552124,10.1558945 C21.7169462,6.06709731 25.4947635,4.03448168 25.6554807,3.94995638 L26.6074787,5.78083577 L26.6107958,5.77906026 C26.6032254,5.78309552 25.8482718,6.19165242 25.1000594,6.97129207 C24.1569158,7.95406685 23.6549153,9.0531379 23.6080751,10.2379717 C23.5101147,12.714547 23.0885263,14.8096823 22.3551336,16.4652429 C21.5820432,18.2104133 20.4678835,19.3947361 19.1330319,19.8902932 C18.0870325,20.27862 16.9170979,20.233425 15.7496244,19.7596045 C14.6221696,19.3020057 13.4764978,18.4467452 12.3445489,17.2175504 C11.3722205,16.1616567 10.4717441,15.429122 9.66815803,15.0403917 C9.03120108,14.732259 8.47658226,14.646012 7.97254871,14.7765662 C6.92312527,15.0484622 5.9246081,16.3135709 5.004791,18.536624 C4.09439009,20.7367299 3.40288879,23.5457839 2.84722671,25.8028946 Z M1.88022166,0.853080569 C2.44752023,0.853080569 2.90744216,1.31560238 2.90744216,1.88610782 L2.90744216,26.2655509 C2.90744216,26.8360295 2.44752023,27.2985782 1.88022166,27.2985782 C1.3129231,27.2985782 0.853001171,26.8360295 0.853001171,26.2655509 L0.85297442,1.88610782 C0.85297442,1.31557548 1.3129231,0.853080569 1.88022166,0.853080569 L1.88022166,0.853080569 Z M25.2407405,4.80984396 C25.2407405,5.38036916 25.7006427,5.84287121 26.2679609,5.84287121 C26.8352792,5.84287121 27.2951814,5.38036916 27.2951814,4.80984396 C27.2951814,4.23931876 26.8352792,3.77681671 26.2679609,3.77681671 C25.7006427,3.77681671 25.2407405,4.23931876 25.2407405,4.80984396 Z" id="形状"></path>
                </g>
                <g id="elasticsearch" transform="translate(288.297890, 134.786730)" fill="#008BF3" fill-rule="nonzero">
                    <rect id="矩形" opacity="0" x="0" y="0" width="63.1201071" height="63.1279621"></rect>
                    <path d="M29.2253861,41.023011 L3.97117753,41.023011 C3.02236004,37.9561841 2.54619072,34.7595525 2.55918207,31.5457778 C2.55918207,28.236688 3.0300269,25.0599618 3.97117753,22.0685074 L45.4340915,22.0685074 C47.9184408,22.061488 50.3030462,23.0577131 52.0597534,24.8365711 C53.8164605,26.6154291 54.8002804,29.0301026 54.7934589,31.5457778 C54.8072141,34.049834 53.8363939,36.4565423 52.0951524,38.2346398 C50.3539109,40.0127374 47.9854252,41.0160166 45.5125207,41.023011 L29.2253861,41.023011 Z M28.0489479,44.1997372 L5.12147279,44.1997372 C7.53765081,49.8105957 11.5285069,54.5790015 16.5982818,57.9126052 C21.6799604,61.3297494 27.6480511,63.1445951 33.7481378,63.1278472 C44.5975132,63.1278472 54.0874487,57.5155145 59.7082094,49.09719 C56.7293973,45.9685212 52.6277396,44.1925947 48.3359726,44.1732644 L28.0489479,44.1997372 Z M48.3359726,18.9182911 C52.780295,18.9182911 56.8324714,17.0122554 59.7082094,14.0208383 C53.3533734,4.43035389 42.3455974,-0.895384693 30.9846248,0.123907375 C19.6236523,1.14319944 9.71208346,8.34579515 5.12147279,18.9182911 L27.9705186,18.9182911 L48.3359726,18.9182911 Z" id="形状"></path>
                </g>
            </g>
        </g>
    </g>
</svg>