<?xml version="1.0" encoding="UTF-8"?>
<svg width="223px" height="50px" viewBox="0 0 223 50" version="1.1" xmlns="http://www.w3.org/2000/svg" xmlns:xlink="http://www.w3.org/1999/xlink">
    <title>Gateway-logo</title>
    <g id="网站-pc" stroke="none" stroke-width="1" fill="none" fill-rule="evenodd">
        <g id="关于我们" transform="translate(-489.000000, -1708.000000)" fill-rule="nonzero">
            <g id="Gateway-logo" transform="translate(489.000000, 1708.000000)">
                <g id="编组" transform="translate(75.900000, 0.000000)" fill="#231815">
                    <polygon id="路径" points="0 19.8 4.3 0.5 9.3 0.5 5.1 19.9"></polygon>
                    <polygon id="路径" points="8.8 19.9 13.2 0 13.7 0 24.4 11.4 26.8 0.8 31.5 0.8 27 20.8 26.6 20.8 15.8 9.4 13.5 19.9"></polygon>
                    <polygon id="路径" points="31.2 20.1 35.5 0.8 48.6 0.9 47.7 4.8 39.6 4.7 38.7 8.5 46 8.6 45.1 12.5 37.8 12.4 36.1 20"></polygon>
                    <polygon id="路径" points="47.7 20.2 52 1 57 1 52.7 20.3"></polygon>
                    <polygon id="路径" points="56.3 20.3 60.7 0.4 61.2 0.4 71.9 11.8 74.3 1.2 79 1.2 74.5 21.2 74.1 21.2 63.8 9.8 61.4 20.3"></polygon>
                    <polygon id="路径" points="78.6 20.5 82.9 1.2 87.9 1.2 83.6 20.5"></polygon>
                </g>
                <g id="编组" transform="translate(78.500000, 24.100000)" fill="#005FE8">
                    <path d="M5.5,3.55271368e-15 L4.1,6.4 C5.6,5 7.7,4.2 10,4.3 C13.7,4.3 16.7,6.3 17.8,9.6 L13.9,9.6 C13.1,8.2 11.8,7.4 10,7.4 C7,7.4 4.9,9.5 4.9,12.8 C4.9,16.2 7,18.3 10.1,18.4 C12.7,18.4 14.4,16.9 14.9,14.6 L9.1,14.6 L9.1,12 L18.2,12.1 L18.2,15 C17.5,18.4 14.4,21.5 10,21.5 C6.3,21.5 3.3,19.4 2.1,16.2 L0,25.8 L99.7,25.7 L101.5,21.7 L96.3,8.7 L100.1,8.7 L103.5,18 L107.1,8.7 L110.7,8.7 L103.4,25.6 L113.8,25.6 L119.5,3.55271368e-15 L5.5,3.55271368e-15 L5.5,3.55271368e-15 Z M33.5,21.4 L30.1,21.4 L30.1,19.5 C29.3,20.6 27.8,21.6 25.7,21.6 C22.3,21.6 19.7,18.8 19.7,14.6 C19.7,10.4 22.4,7.8 25.8,7.8 C27.9,7.8 29.4,8.8 30.2,9.9 L30.2,8 L33.6,8 L33.5,21.4 Z M43.7,11 L40.7,11 L40.6,17.4 C40.6,18.3 40.9,18.7 42,18.7 L43.6,18.7 L43.6,21.5 L41.5,21.5 C39,21.5 37.3,20.4 37.3,17.3 L37.4,10.9 L35.8,10.9 L35.8,8.1 L37.4,8.1 L37.4,4.8 L40.8,4.8 L40.8,8.1 L43.8,8.1 L43.7,11 Z M58.4,16 L48.7,15.9 C48.9,17.9 50.2,19 51.9,19 C53.3,19 54.1,18.3 54.6,17.4 L58.2,17.4 C57.5,19.8 55.2,21.8 51.9,21.7 C48,21.7 45.3,19 45.3,14.8 C45.3,10.6 48.1,8 52,8 C55.8,8 58.5,10.7 58.5,14.6 C58.5,15.2 58.5,15.6 58.4,16 Z M75.4,21.8 L71.8,21.8 L69.5,12.5 L67,21.8 L63.4,21.8 L59.5,8.4 L62.9,8.4 L65.2,18.5 L67.8,8.4 L71.4,8.4 L73.8,18.5 L76.2,8.4 L79.4,8.4 L75.4,21.8 Z M94.1,22 L90.7,22 L90.7,20.1 C89.9,21.2 88.4,22.2 86.3,22.2 C82.9,22.2 80.3,19.4 80.3,15.2 C80.3,11 83,8.4 86.4,8.4 C88.5,8.4 90,9.4 90.8,10.5 L90.8,8.6 L94.2,8.6 L94.1,22 Z" id="形状"></path>
                    <path d="M87.3,11.3 C85.5,11.3 83.8,12.6 83.8,15.1 C83.8,17.6 85.5,19.1 87.3,19.1 C89.1,19.1 90.8,17.7 90.9,15.2 C90.8,12.8 89.1,11.4 87.3,11.3 Z" id="路径"></path>
                    <path d="M51.9,10.8 C50.3,10.8 49,11.8 48.7,13.6 L55,13.7 C55,12 53.6,10.9 51.9,10.8 Z" id="路径"></path>
                    <path d="M26.7,10.8 C24.9,10.8 23.2,12.1 23.2,14.6 C23.2,17.1 24.9,18.6 26.7,18.6 C28.5,18.6 30.2,17.2 30.3,14.7 C30.4,12.2 28.5,10.8 26.7,10.8 Z" id="路径"></path>
                </g>
                <g id="编组" transform="translate(195.000000, 24.100000)" fill="#005FE8">
                    <polygon id="路径" points="7 25.7 0 25.7 5.7 -7.10542736e-15 12.8 -7.10542736e-15"></polygon>
                    <polygon id="路径" points="15.3 25.7 10.4 25.7 16.2 -7.10542736e-15 21.1 -7.10542736e-15"></polygon>
                    <polygon id="路径" points="21.8 25.7 19.2 25.7 25 -7.10542736e-15 27.6 -7.10542736e-15"></polygon>
                </g>
                <polygon id="路径" fill="#231815" points="57.3 0.5 48.2 39.3 19 20.9 21.5 10 39.6 21.6 44.7 0.5 10.2 0.4 0 49.9 12.1 49.9 17.8 25.9 28.8 32.9 24.7 49.9 58.6 49.9 69.4 0.5"></polygon>
            </g>
        </g>
    </g>
</svg>