<?xml version="1.0" encoding="UTF-8"?>
<svg width="579px" height="360px" viewBox="0 0 579 360" version="1.1" xmlns="http://www.w3.org/2000/svg" xmlns:xlink="http://www.w3.org/1999/xlink">
    <title>编组 18</title>
    <defs>
        <linearGradient x1="91.1737162%" y1="35.7230878%" x2="18.0619291%" y2="68.0874301%" id="linearGradient-1">
            <stop stop-color="#0098F5" offset="0%"></stop>
            <stop stop-color="#005FE8" offset="100%"></stop>
        </linearGradient>
        <linearGradient x1="0%" y1="44.9243779%" x2="94.2678881%" y2="44.9243779%" id="linearGradient-2">
            <stop stop-color="#B0C8FF" stop-opacity="0" offset="0%"></stop>
            <stop stop-color="#739DFF" offset="100%"></stop>
        </linearGradient>
        <linearGradient x1="93.9944314%" y1="47.5273907%" x2="8.6904401%" y2="52.3499043%" id="linearGradient-3">
            <stop stop-color="#0098F5" offset="0%"></stop>
            <stop stop-color="#005FE8" offset="100%"></stop>
        </linearGradient>
        <linearGradient x1="93.9944314%" y1="47.0741056%" x2="8.6904401%" y2="52.7806948%" id="linearGradient-4">
            <stop stop-color="#0098F5" offset="0%"></stop>
            <stop stop-color="#005FE8" offset="100%"></stop>
        </linearGradient>
        <linearGradient x1="0%" y1="44.9243779%" x2="94.2678881%" y2="44.9243779%" id="linearGradient-5">
            <stop stop-color="#B0C8FF" stop-opacity="0" offset="0%"></stop>
            <stop stop-color="#739DFF" offset="100%"></stop>
        </linearGradient>
        <linearGradient x1="0%" y1="44.9243779%" x2="94.2678881%" y2="44.9243779%" id="linearGradient-6">
            <stop stop-color="#B0C8FF" stop-opacity="0" offset="0%"></stop>
            <stop stop-color="#739DFF" offset="100%"></stop>
        </linearGradient>
        <linearGradient x1="0%" y1="44.9243779%" x2="94.2678881%" y2="44.9243779%" id="linearGradient-7">
            <stop stop-color="#B0C8FF" stop-opacity="0" offset="0%"></stop>
            <stop stop-color="#739DFF" offset="100%"></stop>
        </linearGradient>
        <linearGradient x1="0%" y1="44.9243779%" x2="94.2678881%" y2="44.9243779%" id="linearGradient-8">
            <stop stop-color="#B0C8FF" stop-opacity="0" offset="0%"></stop>
            <stop stop-color="#739DFF" offset="100%"></stop>
        </linearGradient>
        <linearGradient x1="0%" y1="44.9243779%" x2="94.2678881%" y2="44.9243779%" id="linearGradient-9">
            <stop stop-color="#B0C8FF" stop-opacity="0" offset="0%"></stop>
            <stop stop-color="#739DFF" offset="100%"></stop>
        </linearGradient>
        <linearGradient x1="93.9944314%" y1="12.2688934%" x2="8.6904401%" y2="85.8586735%" id="linearGradient-10">
            <stop stop-color="#0098F5" offset="0%"></stop>
            <stop stop-color="#005FE8" offset="100%"></stop>
        </linearGradient>
        <linearGradient x1="93.9944314%" y1="0.45428498%" x2="8.6904401%" y2="97.0869735%" id="linearGradient-11">
            <stop stop-color="#0098F5" offset="0%"></stop>
            <stop stop-color="#005FE8" offset="100%"></stop>
        </linearGradient>
        <linearGradient x1="93.9944314%" y1="12.5622271%" x2="8.6904401%" y2="85.5798967%" id="linearGradient-12">
            <stop stop-color="#0098F5" offset="0%"></stop>
            <stop stop-color="#005FE8" offset="100%"></stop>
        </linearGradient>
    </defs>
    <g id="页面-1" stroke="none" stroke-width="1" fill="none" fill-rule="evenodd">
        <g id="gateway" transform="translate(-1041.000000, -4816.000000)">
            <g id="编组-18" transform="translate(1041.000000, 4816.000000)">
                <ellipse id="椭圆形备份-34" fill="url(#linearGradient-1)" cx="69.7872891" cy="105.622823" rx="29.0016547" ry="28.839779"></ellipse>
                <ellipse id="椭圆形备份-33" fill="#4A02BC" cx="156.836975" cy="353.269676" rx="6.4966282" ry="6.46036662"></ellipse>
                <ellipse id="椭圆形备份-32" fill="#FF9D00" cx="515.975371" cy="90.4794225" rx="14.9922189" ry="14.9085383"></ellipse>
                <ellipse id="椭圆形" fill="url(#linearGradient-2)" opacity="0.1782539" cx="282.98554" cy="180" rx="180.990752" ry="180"></ellipse>
                <rect id="矩形" fill="url(#linearGradient-3)" x="157.086648" y="67.7127072" width="264.826705" height="58.8917585" rx="5"></rect>
                <g id="Gateway-logo" transform="translate(230.000000, 84.000000)" fill="#FFFFFF" fill-rule="nonzero">
                    <g id="编组" transform="translate(40.973115, 0.000000)">
                        <polygon id="路径" points="0 10.6891465 2.28405306 0.269927942 4.9399287 0.269927942 2.70899316 10.7431321"></polygon>
                        <polygon id="路径" points="4.67434114 10.7431321 7.01151171 0 7.27709927 0 12.9606732 6.15435708 14.2354935 0.431884707 16.7320166 0.431884707 14.3417285 11.2290024 14.1292584 11.2290024 8.39256705 5.07464531 7.17086425 10.7431321"></polygon>
                        <polygon id="路径" points="16.572664 10.8511033 18.8567171 0.431884707 25.8151113 0.485870296 25.3370537 2.59130824 21.0345351 2.53732266 20.5564775 4.58877501 24.434056 4.6427606 23.9559983 6.74819855 20.0784199 6.69421296 19.1754222 10.7971177"></polygon>
                        <polygon id="路径" points="25.3370537 10.9050889 27.6211067 0.539855884 30.2769824 0.539855884 27.9929293 10.9590744"></polygon>
                        <polygon id="路径" points="29.9051598 10.9590744 32.2423304 0.215942354 32.5079179 0.215942354 38.1914918 6.37029943 39.4663121 0.647827061 41.9628352 0.647827061 39.5725471 11.4449447 39.3600771 11.4449447 33.8889733 5.29058766 32.6141529 10.9590744"></polygon>
                        <polygon id="路径" points="41.7503652 11.0670456 44.0344182 0.647827061 46.6902939 0.647827061 44.4062408 11.0670456"></polygon>
                    </g>
                    <g id="编组" transform="translate(41.925978, 13.352436)">
                        <path d="M2.93832692,0 L2.19038916,3.31223207 C2.99175105,2.5876813 4.11365769,2.1736523 5.34241259,2.22540592 C7.31910524,2.22540592 8.92182902,3.26047844 9.5094944,4.96834811 L7.4259535,4.96834811 C6.99856049,4.24379734 6.30404685,3.82976833 5.34241259,3.82976833 C3.73968881,3.82976833 2.61778217,4.91659448 2.61778217,6.62446414 C2.61778217,8.38408743 3.73968881,9.47091358 5.39583671,9.5226672 C6.78486398,9.5226672 7.69307412,8.74636281 7.96019475,7.55602941 L4.86159545,7.55602941 L4.86159545,6.21043513 L9.72319091,6.26218876 L9.72319091,7.76304391 C9.34922203,9.5226672 7.69307412,11.1270296 5.34241259,11.1270296 C3.36571993,11.1270296 1.76299615,10.0402035 1.12190664,8.38408743 L0,13.3524355 L53.2638535,13.3006819 L54.2254878,11.2305369 L51.4474332,4.50256547 L53.47755,4.50256547 L55.2939703,9.3156527 L57.2172388,4.50256547 L59.1405073,4.50256547 L55.2405461,13.2489283 L60.7966552,13.2489283 L63.8418304,0 L2.93832692,0 L2.93832692,0 Z M17.8970822,11.075276 L16.0806619,11.075276 L16.0806619,10.0919571 C15.6532689,10.661247 14.851907,11.1787832 13.7300003,11.1787832 C11.9135801,11.1787832 10.5245528,9.72968171 10.5245528,7.55602941 C10.5245528,5.38237711 11.9670042,4.03678284 13.7834245,4.03678284 C14.9053311,4.03678284 15.706693,4.5543191 16.134086,5.12360898 L16.134086,4.14029009 L17.9505063,4.14029009 L17.8970822,11.075276 Z M23.346343,5.69289887 L21.7436192,5.69289887 L21.6901951,9.00513094 C21.6901951,9.47091358 21.8504675,9.67792808 22.4381329,9.67792808 L23.2929189,9.67792808 L23.2929189,11.1270296 L22.1710122,11.1270296 C20.8354091,11.1270296 19.9271989,10.5577397 19.9271989,8.95337732 L19.9806231,5.64114524 L19.1258371,5.64114524 L19.1258371,4.19204371 L19.9806231,4.19204371 L19.9806231,2.48417405 L21.7970434,2.48417405 L21.7970434,4.19204371 L23.3997671,4.19204371 L23.346343,5.69289887 Z M31.1996895,8.28058018 L26.0175493,8.22882655 C26.1243975,9.26389907 26.8189112,9.83318896 27.7271213,9.83318896 C28.4750591,9.83318896 28.9024521,9.47091358 29.1695727,9.00513094 L31.0928413,9.00513094 C30.7188724,10.247218 29.4901175,11.2822905 27.7271213,11.2305369 C25.6435804,11.2305369 24.201129,9.83318896 24.201129,7.65953666 C24.201129,5.48588437 25.6970045,4.14029009 27.7805454,4.14029009 C29.8106622,4.14029009 31.2531136,5.53763799 31.2531136,7.55602941 C31.2531136,7.86655117 31.2531136,8.07356567 31.1996895,8.28058018 Z M40.2817909,11.2822905 L38.3585224,11.2822905 L37.1297675,6.46920326 L35.7941643,11.2822905 L33.8708958,11.2822905 L31.7873549,4.34730459 L33.6037752,4.34730459 L34.8325301,9.57442083 L36.2215573,4.34730459 L38.1448259,4.34730459 L39.4270049,9.57442083 L40.7091839,4.34730459 L42.4187559,4.34730459 L40.2817909,11.2822905 Z M50.2721024,11.3857977 L48.4556822,11.3857977 L48.4556822,10.4024788 C48.0282892,10.9717687 47.2269273,11.489305 46.1050206,11.489305 C44.2886003,11.489305 42.8995731,10.0402035 42.8995731,7.86655117 C42.8995731,5.69289887 44.3420245,4.34730459 46.1584447,4.34730459 C47.2803514,4.34730459 48.0817133,4.86484085 48.5091063,5.43413074 L48.5091063,4.45081184 L50.3255266,4.45081184 L50.2721024,11.3857977 Z" id="形状"></path>
                        <path d="M46.6392619,5.84815975 C45.6776276,5.84815975 44.7694175,6.52095689 44.7694175,7.81479754 C44.7694175,9.10863819 45.6776276,9.88494259 46.6392619,9.88494259 C47.6008961,9.88494259 48.5091063,9.16039182 48.5625304,7.86655117 C48.5091063,6.62446414 47.6008961,5.89991338 46.6392619,5.84815975 Z" id="路径"></path>
                        <path d="M27.7271213,5.58939162 C26.8723353,5.58939162 26.1778217,6.10692788 26.0175493,7.03849315 L29.3832692,7.09024678 C29.3832692,6.21043513 28.6353315,5.64114524 27.7271213,5.58939162 Z" id="路径"></path>
                        <path d="M14.2642416,5.58939162 C13.3026073,5.58939162 12.3943972,6.26218876 12.3943972,7.55602941 C12.3943972,8.84987006 13.3026073,9.62617445 14.2642416,9.62617445 C15.2258759,9.62617445 16.134086,8.90162369 16.1875101,7.60778304 C16.2409343,6.31394238 15.2258759,5.58939162 14.2642416,5.58939162 Z" id="路径"></path>
                    </g>
                    <g id="编组" transform="translate(104.814945, 13.352436)">
                        <polygon id="路径" points="3.62502282 13.3524355 0 13.3524355 2.95180429 0 6.62861315 0"></polygon>
                        <polygon id="路径" points="7.92326416 13.3524355 5.38574818 13.3524355 8.38933852 0 10.9268545 0"></polygon>
                        <polygon id="路径" points="11.2893568 13.3524355 9.94291973 13.3524355 12.9465101 0 14.2929471 0"></polygon>
                    </g>
                    <polygon id="路径" points="30.6824677 0.0539492345 25.8096849 20.9862522 10.1739422 11.0595931 11.5126188 5.17912651 21.2046374 11.4372377 23.9355376 0.0539492345 5.46180054 0 0 26.7048711 6.47919475 26.7048711 9.53137741 13.7570548 15.4215545 17.5335012 13.2261248 26.7048711 31.3785796 26.7048711 37.1616625 0.0539492345"></polygon>
                </g>
                <rect id="矩形备份-5" fill="url(#linearGradient-4)" x="0" y="190.421524" width="157.086648" height="38" rx="5"></rect>
                <rect id="矩形备份-138" fill="url(#linearGradient-4)" x="0" y="280.312661" width="157.086648" height="38" rx="5"></rect>
                <rect id="矩形备份-139" fill="url(#linearGradient-4)" x="211.367898" y="242.522606" width="157.086648" height="38" rx="5"></rect>
                <rect id="矩形备份-85" fill="url(#linearGradient-4)" x="421.913352" y="190.421524" width="157.086648" height="38" rx="5"></rect>
                <rect id="矩形备份-140" fill="url(#linearGradient-4)" x="421.913352" y="280.312661" width="157.086648" height="38" rx="5"></rect>
                <path d="M289.5,126.604466 C289.5,164.810797 119.620749,154.028051 85.0464915,190.421524" id="路径-2" stroke="#4A02BC" fill-opacity="0.15" fill="url(#linearGradient-5)" stroke-dasharray="5"></path>
                <path d="M289.5,126.604466 C289.5,218.887993 119.620749,192.843362 85.0464915,280.748112" id="路径-2" stroke="#4A02BC" fill-opacity="0.15" fill="url(#linearGradient-6)" stroke-dasharray="5"></path>
                <path d="M500.489219,126.604466 C500.489219,164.810797 325.179483,154.028051 289.5,190.421524" id="路径-2" stroke="#4A02BC" fill-opacity="0.15" fill="url(#linearGradient-7)" stroke-dasharray="5" transform="translate(394.994609, 158.512995) scale(-1, 1) translate(-394.994609, -158.512995) "></path>
                <path d="M500.489219,126.604466 C500.489219,218.887993 325.179483,192.843362 289.5,280.748112" id="路径-2" stroke="#4A02BC" fill-opacity="0.15" fill="url(#linearGradient-8)" stroke-dasharray="5" transform="translate(394.994609, 203.676289) scale(-1, 1) translate(-394.994609, -203.676289) "></path>
                <line x1="289.485208" y1="235.281768" x2="289.5" y2="126.604466" id="路径-12" stroke="#4A02BC" fill-opacity="0.15" fill="url(#linearGradient-9)" stroke-dasharray="5"></line>
                <polygon id="多边形备份-3" fill="url(#linearGradient-10)" transform="translate(88.296433, 187.621051) rotate(-132.000000) translate(-88.296433, -187.621051) " points="88.3229711 182.750594 93.9031022 192.460893 82.6897631 192.491509"></polygon>
                <polygon id="多边形备份-34" fill="url(#linearGradient-10)" transform="translate(500.661447, 187.621051) scale(-1, 1) rotate(-132.000000) translate(-500.661447, -187.621051) " points="500.687986 182.750594 506.268117 192.460893 495.054778 192.491509"></polygon>
                <polygon id="多边形备份-36" fill="url(#linearGradient-11)" transform="translate(289.479195, 236.258739) scale(-1, 1) rotate(-180.000000) translate(-289.479195, -236.258739) " points="289.479195 229.794651 295.102866 239.490783 283.855525 239.490783"></polygon>
                <polygon id="多边形备份-33" fill="url(#linearGradient-12)" transform="translate(86.855174, 277.281463) rotate(-152.000000) translate(-86.855174, -277.281463) " points="86.8772968 272.421135 92.4720598 282.11627 81.2382886 282.141791"></polygon>
                <polygon id="多边形备份-35" fill="url(#linearGradient-12)" transform="translate(498.334406, 277.281463) scale(-1, 1) rotate(-152.000000) translate(-498.334406, -277.281463) " points="498.356528 272.421135 503.951291 282.11627 492.71752 282.141791"></polygon>
                <g id="箭头_左右切换" transform="translate(71.721484, 105.517700) rotate(-90.000000) translate(-71.721484, -105.517700) translate(52.459606, 86.361262)" fill="#FFFFFF" fill-rule="nonzero">
                    <rect id="矩形" opacity="0" x="-0.72208073" y="0.53474282" width="37.9980584" height="37.7900552"></rect>
                    <path d="M9.30518469,16.6834891 L5.2776127,16.6834891 L8.49967027,13.6312154 L13.4938595,8.49054392 L15.4270941,10.4182957 L12.3661394,13.4705694 L34.2761309,13.4705694 L34.2761309,16.5228431 L9.30518469,16.5228431 L9.30518469,16.6834891 Z M30.4096618,21.3422227 L34.2761309,21.3422227 L31.0540734,24.3944963 L26.0598841,29.3745218 L24.1266495,27.44677 L27.1876043,24.3944963 L5.2776127,24.3944963 L5.2776127,21.3422227 L30.4096618,21.3422227 Z" id="形状"></path>
                </g>
            </g>
        </g>
    </g>
</svg>