<?xml version="1.0" encoding="UTF-8"?>
<svg width="510px" height="362px" viewBox="0 0 510 362" version="1.1" xmlns="http://www.w3.org/2000/svg" xmlns:xlink="http://www.w3.org/1999/xlink">
    <title>安全审计</title>
    <defs>
        <linearGradient x1="80.5879599%" y1="0%" x2="21.2787478%" y2="97.5187142%" id="linearGradient-1">
            <stop stop-color="#0098F5" offset="0%"></stop>
            <stop stop-color="#005FE8" offset="100%"></stop>
        </linearGradient>
        <linearGradient x1="93.9944314%" y1="48.2021719%" x2="8.6904401%" y2="51.7086096%" id="linearGradient-2">
            <stop stop-color="#0098F5" offset="0%"></stop>
            <stop stop-color="#005FE8" offset="100%"></stop>
        </linearGradient>
        <linearGradient x1="-22.5411717%" y1="44.9243779%" x2="94.2678881%" y2="44.9243779%" id="linearGradient-3">
            <stop stop-color="#B0C8FF" stop-opacity="0" offset="0%"></stop>
            <stop stop-color="#739DFF" offset="100%"></stop>
        </linearGradient>
    </defs>
    <g id="页面-1" stroke="none" stroke-width="1" fill="none" fill-rule="evenodd">
        <g id="首页" transform="translate(-300.000000, -1061.000000)">
            <g id="安全审计" transform="translate(300.000000, 1062.000000)">
                <path d="M255.937359,21.9612789 C251.821994,24.8369102 173.555801,79.0854116 125.443548,79.0854116 L125.443548,244.038885 C125.443548,244.038885 193.163386,335.000979 255.937359,335.174727 L255.937359,335.178632 C255.968625,335.178632 255.997937,335.178632 256.027249,335.178632 C256.058515,335.178632 256.08978,335.178632 256.119092,335.178632 L256.119092,335.174727 C318.893066,335.000979 386.612903,244.038885 386.612903,244.038885 L386.612903,79.0854116 C338.500651,79.0854116 255.937359,21.9612789 255.937359,21.9612789" id="Fill-3" fill="#FFFFFF"></path>
                <path d="M248.739779,27.0959896 C244.624414,29.9716209 166.35822,84.2201223 118.245968,84.2201223 L118.245968,249.173596 C118.245968,249.173596 185.965805,340.13569 248.739779,340.309438 L248.739779,340.313343 C248.771045,340.313343 248.800356,340.313343 248.829668,340.313343 C248.860934,340.313343 248.8922,340.313343 248.921511,340.313343 L248.921511,340.309438 C311.695485,340.13569 379.415323,249.173596 379.415323,249.173596 L379.415323,84.2201223 C331.30307,84.2201223 248.739779,27.0959896 248.739779,27.0959896 Z" id="Stroke-5" fill="url(#linearGradient-1)" opacity="0.0955512637"></path>
                <path d="M255.937359,21.9612789 C251.821994,24.8369102 173.555801,79.0854116 125.443548,79.0854116 L125.443548,244.038885 C125.443548,244.038885 193.163386,335.000979 255.937359,335.174727 L255.937359,335.178632 C255.968625,335.178632 255.997937,335.178632 256.027249,335.178632 C256.058515,335.178632 256.08978,335.178632 256.119092,335.178632 L256.119092,335.174727 C318.893066,335.000979 386.612903,244.038885 386.612903,244.038885 L386.612903,79.0854116 C338.500651,79.0854116 255.937359,21.9612789 255.937359,21.9612789 Z" id="Stroke-5" fill="url(#linearGradient-1)"></path>
                <path d="M288.646148,44.4353561 C305.529158,36.1005461 322.919655,28.6605348 340.96175,23.0657209 C349.982795,20.2884335 359.136469,17.8713711 368.455419,16.2054258 C373.106247,15.3293405 377.805117,14.7138476 382.517435,14.2094904 C387.239359,13.7817784 391.988182,13.5629245 396.742747,13.6353252 C406.21726,13.8912665 415.858951,15.1704181 424.727538,18.990454 C429.139722,20.8947253 433.326908,23.4294301 436.923796,26.6808269 C440.520685,29.9207268 443.488823,33.8754059 445.599452,38.2191382 C446.810502,40.330632 447.454367,42.6721133 448.307801,44.9311819 C448.617238,46.0923429 448.867072,47.2707545 449.149591,48.4414985 L449.549337,50.2024071 L449.766435,51.9901577 L450.19294,55.5637434 L450.281067,59.1507715 C450.436588,61.5478637 450.109541,63.9200878 450.015127,66.3037886 C449.168359,75.8118064 446.568213,85.0210568 443.308648,93.8873735 C436.645321,111.633432 426.855985,127.929236 416.182326,143.420333 C405.318339,158.817555 393.348933,173.398592 380.59325,187.241979 C355.076116,214.926838 326.792596,240.034714 296.565563,262.531043 C266.296239,284.939233 234.131442,305.025213 199.763733,320.750222 C182.565465,328.542789 164.850109,335.310259 146.533147,340.169295 C137.367941,342.5557 128.04705,344.426673 118.601261,345.487126 C109.167008,346.53608 99.5732489,346.793678 90.0757524,345.522178 C80.6051653,344.331155 71.1501265,341.212481 63.2949171,335.422554 C59.5115192,332.385782 56.0550048,328.856531 53.5194679,324.687206 C50.9435538,320.550458 49.2713018,315.9116 48.3161836,311.194118 C46.4194095,301.713165 47.216208,291.996291 49.2491923,282.752599 C51.2937152,273.474415 54.5379061,264.537202 58.4395939,255.942923 C66.2448944,238.727539 76.4264125,222.738286 87.6422095,207.622708 C98.8906905,192.507127 111.386849,178.374423 124.473189,164.862501 L124.665432,165.046435 C111.829009,178.786357 99.7577169,193.22944 88.7072581,208.400573 C77.6952508,223.575534 67.7425178,239.60309 60.2063888,256.720727 C56.4373641,265.267091 53.3392975,274.11998 51.4389849,283.216117 C49.5444429,292.279679 48.9091676,301.703368 50.807909,310.670792 C51.7515133,315.139176 53.4026458,319.444625 55.7997838,323.293965 C58.1680803,327.173966 61.3939063,330.442641 64.9273847,333.278238 C72.2846768,338.675398 81.2744586,341.673394 90.4489717,342.805043 C99.6388585,344.017169 109.023055,343.757673 118.28812,342.710649 C127.564721,341.648295 136.752953,339.779249 145.829712,337.486743 C163.96786,332.767602 181.594765,326.138103 198.725731,318.472008 C232.941536,302.969285 265.292775,283.454303 295.698575,261.36035 C310.864951,250.254934 325.539202,238.473159 339.648266,226.051439 C346.729712,219.871234 353.578547,213.43237 360.360097,206.92453 C367.05706,200.332387 373.611764,193.592712 379.910783,186.621205 C386.265554,179.70143 392.349259,172.538327 398.238796,165.225781 C404.101419,157.890243 409.641067,150.309466 414.957708,142.583081 C425.379513,127.024941 434.84778,110.681261 441.234236,93.1268415 C444.409197,84.3793336 446.9132,75.3252998 447.694576,66.0989619 C447.77168,63.7938249 448.085263,61.4867511 447.922043,59.1873833 L447.824291,55.7344867 L447.399695,52.3199414 L447.188358,50.6107525 L446.803985,48.9399017 C446.540687,47.8285567 446.310073,46.7057119 446.025626,45.6001171 C445.222168,43.4675102 444.63597,41.2409929 443.497968,39.2559588 C441.533436,35.1536488 438.770994,31.4250578 435.397112,28.3556761 C432.02323,25.2728812 428.066746,22.8416286 423.850661,20.9948247 C415.378118,17.2897236 405.990214,15.9722268 396.696427,15.6760307 C392.028382,15.5710479 387.356462,15.7937274 382.692223,16.1371237 C378.033743,16.5763271 373.379099,17.126667 368.759039,17.9337682 C359.505468,19.4655772 350.380645,21.7523388 341.369223,24.399327 C323.354066,29.746955 305.798272,36.6715359 288.763406,44.6748649 L288.646148,44.4353561 Z" id="Fill-103" fill="#FF9D00" transform="translate(248.780922, 179.999962) rotate(4.000000) translate(-248.780922, -179.999962) "></path>
                <path d="M504.858871,196.542235 C504.858871,210.721433 493.350941,222.214996 479.154019,222.214996 C464.957097,222.214996 453.447581,210.721433 453.447581,196.542235 C453.447581,182.363037 464.957097,170.867889 479.154019,170.867889 C493.350941,170.867889 504.858871,182.363037 504.858871,196.542235" id="Fill-105" stroke="#005FE8" fill="#FFFFFF"></path>
                <path d="M76.0887097,304.371318 C76.0887097,321.386356 62.2791932,335.178632 45.2428873,335.178632 C28.2065815,335.178632 14.3951613,321.386356 14.3951613,304.371318 C14.3951613,287.356281 28.2065815,273.562103 45.2428873,273.562103 C62.2791932,273.562103 76.0887097,287.356281 76.0887097,304.371318" id="Fill-105备份-2" stroke="#005FE8" fill="#FFFFFF"></path>
                <path d="M45.2419355,180.111066 C45.2419355,192.58876 35.1149567,202.703096 22.6216658,202.703096 C10.1283748,202.703096 0,192.58876 0,180.111066 C0,167.633372 10.1283748,157.517642 22.6216658,157.517642 C35.1149567,157.517642 45.2419355,167.633372 45.2419355,180.111066" id="Fill-105备份-4" fill="#005FE8"></path>
                <path d="M427.741935,196.028209 C427.741935,200.281969 424.289556,203.730038 420.03048,203.730038 C415.771403,203.730038 412.318548,200.281969 412.318548,196.028209 C412.318548,191.77445 415.771403,188.325906 420.03048,188.325906 C424.289556,188.325906 427.741935,191.77445 427.741935,196.028209" id="Fill-105备份-5" fill="#4A02BC"></path>
                <path d="M227.237903,350.582954 C227.237903,353.985962 224.476,356.744417 221.068739,356.744417 C217.661478,356.744417 214.899194,353.985962 214.899194,350.582954 C214.899194,347.179947 217.661478,344.421111 221.068739,344.421111 C224.476,344.421111 227.237903,347.179947 227.237903,350.582954" id="Fill-105备份-9" fill="#005FE8" opacity="0.363605318"></path>
                <path d="M412.318548,310.532813 C412.318548,324.71201 400.810618,336.205574 386.613696,336.205574 C372.416775,336.205574 360.907258,324.71201 360.907258,310.532813 C360.907258,296.353615 372.416775,284.858467 386.613696,284.858467 C400.810618,284.858467 412.318548,296.353615 412.318548,310.532813" id="Fill-105备份-3" stroke="#005FE8" fill="#FFFFFF"></path>
                <path d="M510,118.494284 C510,126.434635 503.555559,132.87103 495.605283,132.87103 C487.655007,132.87103 481.209677,126.434635 481.209677,118.494284 C481.209677,110.553933 487.655007,104.11665 495.605283,104.11665 C503.555559,104.11665 510,110.553933 510,118.494284" id="Fill-105备份-6" fill="#005FE8" opacity="0.363605318"></path>
                <path d="M162.459677,331.071497 C162.459677,342.414855 153.253333,351.609706 141.895796,351.609706 C130.538259,351.609706 121.330645,342.414855 121.330645,331.071497 C121.330645,319.728139 130.538259,310.532021 141.895796,310.532021 C153.253333,310.532021 162.459677,319.728139 162.459677,331.071497" id="Fill-105备份-7" stroke="#005FE8" fill="#FFFFFF"></path>
                <path d="M85.3427419,97.9555044 C85.3427419,107.030191 77.9776665,114.386072 68.8916367,114.386072 C59.8056069,114.386072 52.4395161,107.030191 52.4395161,97.9555044 C52.4395161,88.8808178 59.8056069,81.5239231 68.8916367,81.5239231 C77.9776665,81.5239231 85.3427419,88.8808178 85.3427419,97.9555044" id="Fill-105备份-8" stroke="#005FE8" fill="#FFFFFF" opacity="0.252353487"></path>
                <path d="M481.209677,55.8513202 C481.209677,72.8663575 467.400161,86.6586338 450.363855,86.6586338 C433.327549,86.6586338 419.516129,72.8663575 419.516129,55.8513202 C419.516129,38.836283 433.327549,25.0421054 450.363855,25.0421054 C467.400161,25.0421054 481.209677,38.836283 481.209677,55.8513202" id="Fill-105备份" stroke="#005FE8" fill="#FFFFFF"></path>
                <path d="M124.666112,36.4782249 L115.670136,35.3674801 L119.942561,22.3517669 C120.224816,21.4940116 119.153694,20.8458763 118.524048,21.4916022 L100.27879,40.2128335 C100.172643,40.323667 100.136456,40.4850985 100.187117,40.629664 C100.237779,40.7742295 100.365638,40.8778348 100.517621,40.8971102 L109.51601,42.007855 L105.241172,55.0259776 C104.96133,55.8813235 106.032451,56.5294588 106.659685,55.8837329 L124.907356,37.1625016 C125.015915,37.0516681 125.049689,36.8902366 124.999028,36.7456711 C124.948367,36.6011056 124.818095,36.4975003 124.666112,36.4782249" id="Fill-137" fill="#4A02BC"></path>
                <rect id="矩形备份-127" fill="url(#linearGradient-2)" x="184.052419" y="160.598468" width="143.951613" height="27.2964152" rx="13.2901427"></rect>
                <g id="编组-4" transform="translate(184.052419, 211.945575)" fill="url(#linearGradient-3)">
                    <polygon id="多边形备份-23" points="18.0923022 0 33.7606956 9.03485765 33.7606956 27.1045729 18.0923022 36.1394306 2.42390889 27.1045729 2.42390889 9.03485765"></polygon>
                    <polygon id="多边形备份-24" points="35.7638532 33.618075 51.4322466 42.6529326 51.4322466 60.7226479 35.7638532 69.7575056 20.0954599 60.7226479 20.0954599 42.6529326"></polygon>
                    <polygon id="多边形备份-25" points="90.0407599 0 105.709153 9.03485765 105.709153 27.1045729 90.0407599 36.1394306 74.3723666 27.1045729 74.3723666 9.03485765"></polygon>
                    <polygon id="多边形备份-26" points="107.712311 33.618075 123.380704 42.6529326 123.380704 60.7226479 107.712311 69.7575056 92.0439176 60.7226479 92.0439176 42.6529326"></polygon>
                    <polygon id="多边形备份-27" points="54.2769067 0 69.9453 9.03485765 69.9453 27.1045729 54.2769067 36.1394306 38.6085133 27.1045729 38.6085133 9.03485765"></polygon>
                    <polygon id="多边形备份-28" points="71.9484577 33.618075 87.616851 42.6529326 87.616851 60.7226479 71.9484577 69.7575056 56.2800643 60.7226479 56.2800643 42.6529326"></polygon>
                    <polygon id="多边形备份-29" points="126.225364 0 141.893758 9.03485765 141.893758 27.1045729 126.225364 36.1394306 110.556971 27.1045729 110.556971 9.03485765"></polygon>
                </g>
                <text id="Elasticsearch-Cluste备份-2" font-family="PingFangSC-Light, PingFang SC" font-size="10" font-weight="300" fill="#FFFFFF">
                    <tspan x="208.267339" y="177.948716">Elasticsearch Cluster</tspan>
                </text>
                <g id="Gateway-logo备份-3" transform="translate(185.080645, 97.954997)" fill="#FFFFFF" fill-rule="nonzero">
                    <g id="编组" transform="translate(49.354839, 0.000000)">
                        <polygon id="路径" points="0 12.4686277 2.71620059 0.314864336 5.87457338 0.314864336 3.22154024 12.5316006"></polygon>
                        <polygon id="路径" points="5.5587361 12.5316006 8.33810415 0 8.65394143 0 15.4128592 7.17890685 16.9288781 0.503782937 19.8977485 0.503782937 17.055213 13.0983564 16.8025432 13.0983564 9.980458 5.91944951 8.52760652 12.5316006"></polygon>
                        <polygon id="路径" points="19.7082462 12.6575463 22.4244468 0.503782937 30.6993835 0.566755804 30.1308764 3.02269762 25.0143125 2.95972476 24.4458054 5.35269371 29.0570296 5.41566657 28.4885225 7.87160839 23.8772982 7.80863552 22.8034515 12.5945734"></polygon>
                        <polygon id="路径" points="30.1308764 12.7205192 32.847077 0.629728671 36.0054497 0.629728671 33.2892491 12.783492"></polygon>
                        <polygon id="路径" points="35.5632776 12.783492 38.3426456 0.251891469 38.6584829 0.251891469 45.4174006 7.43079832 46.9334196 0.755674406 49.90229 0.755674406 47.0597545 13.3502478 46.8070847 13.3502478 40.3008367 6.17134098 38.7848178 12.783492"></polygon>
                        <polygon id="路径" points="49.6496202 12.9094378 52.3658208 0.755674406 55.5241935 0.755674406 52.807993 12.9094378"></polygon>
                    </g>
                    <g id="编组" transform="translate(50.383065, 15.404132)">
                        <path d="M3.50199082,0 L2.61057498,4.0759254 C3.56566338,3.18431672 4.90278715,2.67482604 6.36725604,2.73851238 C8.72314077,2.73851238 10.6333176,4.01223906 11.3337158,6.11388809 L8.8504859,6.11388809 C8.34110541,5.22227941 7.51336213,4.71278874 6.36725604,4.71278874 C4.45707923,4.71278874 3.11995546,6.05020176 3.11995546,8.15185079 C3.11995546,10.3171862 4.45707923,11.6545992 6.4309286,11.7182855 C8.08641517,11.7182855 9.1688487,10.7629905 9.4872115,9.29820481 L5.794203,9.29820481 L5.794203,7.64236012 L11.588406,7.70604645 L11.588406,9.55295015 C11.1426981,11.7182855 9.1688487,13.6925619 6.36725604,13.6925619 C4.01137131,13.6925619 2.10119449,12.3551489 1.33712377,10.3171862 L0,16.4310743 L63.4815427,16.3673879 L64.6276488,13.8199345 L61.3166757,5.54071109 L63.736233,5.54071109 L65.9011,11.4635402 L68.1933122,5.54071109 L70.4855244,5.54071109 L65.8374275,16.3037016 L72.4593737,16.3037016 L76.0887097,0 L3.50199082,0 L3.50199082,0 Z M21.3303077,13.6288755 L19.1654407,13.6288755 L19.1654407,12.4188352 C18.6560602,13.1193849 17.7009718,13.7562482 16.363848,13.7562482 C14.198981,13.7562482 12.5434944,11.9730309 12.5434944,9.29820481 C12.5434944,6.62337877 14.2626535,4.96753408 16.4275206,4.96753408 C17.7646444,4.96753408 18.7197328,5.60439742 19.2291132,6.3049471 L19.2291132,5.09490675 L21.3939803,5.09490675 L21.3303077,13.6288755 Z M27.8249089,7.00549677 L25.9147321,7.00549677 L25.8510595,11.0814222 C25.8510595,11.6545992 26.0420772,11.9093445 26.7424754,11.9093445 L27.7612363,11.9093445 L27.7612363,13.6925619 L26.4241126,13.6925619 C24.8322986,13.6925619 23.749865,12.9920122 23.749865,11.0177358 L23.8135376,6.94181044 L22.7947766,6.94181044 L22.7947766,5.15859308 L23.8135376,5.15859308 L23.8135376,3.05694405 L25.9784046,3.05694405 L25.9784046,5.15859308 L27.8885815,5.15859308 L27.8249089,7.00549677 Z M37.1847753,10.1898135 L31.0085369,10.1261272 C31.135882,11.3998538 31.9636253,12.1004035 33.0460588,12.1004035 C33.9374747,12.1004035 34.4468552,11.6545992 34.765218,11.0814222 L37.0574302,11.0814222 C36.6117222,12.6098942 35.1472533,13.8836209 33.0460588,13.8199345 C30.562829,13.8199345 28.8436699,12.1004035 28.8436699,9.42557748 C28.8436699,6.75075144 30.6265016,5.09490675 33.1097314,5.09490675 C35.5292887,5.09490675 37.2484478,6.81443777 37.2484478,9.29820481 C37.2484478,9.68032282 37.2484478,9.93506815 37.1847753,10.1898135 Z M48.0091105,13.8836209 L45.7168984,13.8836209 L44.2524295,7.96079179 L42.6606155,13.8836209 L40.3684033,13.8836209 L37.8851734,5.34965208 L40.0500405,5.34965208 L41.5145094,11.7819718 L43.169996,5.34965208 L45.4622081,5.34965208 L46.9903496,11.7819718 L48.518491,5.34965208 L50.556013,5.34965208 L48.0091105,13.8836209 Z M59.9158793,14.0109935 L57.7510123,14.0109935 L57.7510123,12.8009532 C57.2416318,13.5015029 56.2865434,14.1383662 54.9494196,14.1383662 C52.7845526,14.1383662 51.129066,12.3551489 51.129066,9.68032282 C51.129066,7.00549677 52.8482251,5.34965208 55.0130922,5.34965208 C56.350216,5.34965208 57.3053044,5.98651543 57.8146848,6.6870651 L57.8146848,5.47702475 L59.9795519,5.47702475 L59.9158793,14.0109935 Z" id="形状"></path>
                        <path d="M55.5861452,7.19655578 C54.4400391,7.19655578 53.3576056,8.02447812 53.3576056,9.61663648 C53.3576056,11.2087948 54.4400391,12.1640899 55.5861452,12.1640899 C56.7322513,12.1640899 57.8146848,11.2724812 57.8783574,9.68032282 C57.8146848,8.15185079 56.7322513,7.26024211 55.5861452,7.19655578 Z" id="路径"></path>
                        <path d="M33.0460588,6.87812411 C32.0272979,6.87812411 31.1995546,7.51498745 31.0085369,8.66134147 L35.0199082,8.7250278 C35.0199082,7.64236012 34.1284924,6.94181044 33.0460588,6.87812411 Z" id="路径"></path>
                        <path d="M17.0005736,6.87812411 C15.8544675,6.87812411 14.772034,7.70604645 14.772034,9.29820481 C14.772034,10.8903632 15.8544675,11.8456582 17.0005736,11.8456582 C18.1466797,11.8456582 19.2291132,10.9540495 19.2927858,9.36189114 C19.3564584,7.76973279 18.1466797,6.87812411 17.0005736,6.87812411 Z" id="路径"></path>
                    </g>
                    <g id="编组" transform="translate(125.443548, 15.404132)">
                        <polygon id="路径" points="4.43329243 16.4310743 0 16.4310743 3.60996669 0 8.10659187 0"></polygon>
                        <polygon id="路径" points="9.68991059 16.4310743 6.58660589 16.4310743 10.2599053 0 13.36321 0"></polygon>
                        <polygon id="路径" points="13.8065393 16.4310743 12.1598878 16.4310743 15.8331872 0 17.4798387 0"></polygon>
                    </g>
                    <polygon id="路径" points="36.5049793 0.0643135482 30.7075044 25.0179703 12.1046179 13.1842774 13.6973308 6.17410063 25.2285721 13.6344722 28.4777064 0.0643135482 6.49826857 0 0 31.8352064 7.70873036 31.8352064 11.3401157 16.3999548 18.3480524 20.9019032 15.7360033 31.8352064 37.33319 31.8352064 44.2137097 0.0643135482"></polygon>
                </g>
                <text id="LDAP/AD" font-family="PingFangSC-Regular, PingFang SC" font-size="10" font-weight="normal" fill="#005FE8">
                    <tspan x="428.419355" y="58.8234274">LDAP/AD </tspan>
                </text>
                <text id="身份-验证" font-family="PingFangSC-Regular, PingFang SC" font-size="12" font-weight="normal" line-spacing="15" fill="#005FE8">
                    <tspan x="467.153226" y="194.541443">身份</tspan>
                    <tspan x="467.153226" y="209.541443">验证</tspan>
                </text>
                <text id="访问-控制" font-family="PingFangSC-Regular, PingFang SC" font-size="12" font-weight="normal" line-spacing="15" fill="#005FE8">
                    <tspan x="33.2419355" y="300.316483">访问</tspan>
                    <tspan x="33.2419355" y="315.316483">控制</tspan>
                </text>
                <text id="审计-日志" font-family="PingFangSC-Regular, PingFang SC" font-size="12" font-weight="normal" line-spacing="15" fill="#005FE8">
                    <tspan x="374.612903" y="307.505078">审计</tspan>
                    <tspan x="374.612903" y="322.505078">日志</tspan>
                </text>
            </g>
        </g>
    </g>
</svg>