<?xml version="1.0" encoding="UTF-8"?>
<svg width="577px" height="360px" viewBox="0 0 577 360" version="1.1" xmlns="http://www.w3.org/2000/svg" xmlns:xlink="http://www.w3.org/1999/xlink">
    <title>编组 16</title>
    <defs>
        <linearGradient x1="-22.5411717%" y1="44.9243779%" x2="94.2678881%" y2="44.9243779%" id="linearGradient-1">
            <stop stop-color="#B0C8FF" stop-opacity="0" offset="0%"></stop>
            <stop stop-color="#739DFF" offset="100%"></stop>
        </linearGradient>
        <linearGradient x1="-22.5411717%" y1="44.9243779%" x2="94.2678881%" y2="44.9243779%" id="linearGradient-2">
            <stop stop-color="#B0C8FF" stop-opacity="0" offset="0%"></stop>
            <stop stop-color="#739DFF" offset="100%"></stop>
        </linearGradient>
        <linearGradient x1="-22.5411717%" y1="44.9243779%" x2="94.2678881%" y2="44.9243779%" id="linearGradient-3">
            <stop stop-color="#B0C8FF" stop-opacity="0" offset="0%"></stop>
            <stop stop-color="#739DFF" offset="100%"></stop>
        </linearGradient>
        <linearGradient x1="-22.5411717%" y1="44.9243779%" x2="94.2678881%" y2="44.9243779%" id="linearGradient-4">
            <stop stop-color="#B0C8FF" stop-opacity="0" offset="0%"></stop>
            <stop stop-color="#739DFF" offset="100%"></stop>
        </linearGradient>
        <linearGradient x1="-22.5411717%" y1="44.9243779%" x2="94.2678881%" y2="44.9243779%" id="linearGradient-5">
            <stop stop-color="#B0C8FF" stop-opacity="0" offset="0%"></stop>
            <stop stop-color="#739DFF" offset="100%"></stop>
        </linearGradient>
        <linearGradient x1="-22.5411717%" y1="44.9243779%" x2="94.2678881%" y2="44.9243779%" id="linearGradient-6">
            <stop stop-color="#B0C8FF" stop-opacity="0" offset="0%"></stop>
            <stop stop-color="#739DFF" offset="100%"></stop>
        </linearGradient>
        <linearGradient x1="-22.5411717%" y1="44.9243779%" x2="94.2678881%" y2="44.9243779%" id="linearGradient-7">
            <stop stop-color="#B0C8FF" stop-opacity="0" offset="0%"></stop>
            <stop stop-color="#739DFF" offset="100%"></stop>
        </linearGradient>
        <linearGradient x1="50%" y1="0%" x2="50%" y2="100%" id="linearGradient-8">
            <stop stop-color="#0063E9" offset="0%"></stop>
            <stop stop-color="#0098F5" offset="100%"></stop>
        </linearGradient>
        <linearGradient x1="93.9944314%" y1="0.626054342%" x2="8.6904401%" y2="96.9237283%" id="linearGradient-9">
            <stop stop-color="#0098F5" offset="0%"></stop>
            <stop stop-color="#005FE8" offset="100%"></stop>
        </linearGradient>
        <linearGradient x1="0%" y1="44.9243779%" x2="86.1800409%" y2="67.653699%" id="linearGradient-10">
            <stop stop-color="#B0C8FF" stop-opacity="0" offset="0%"></stop>
            <stop stop-color="#0074FF" offset="100%"></stop>
        </linearGradient>
        <linearGradient x1="74.0913506%" y1="0%" x2="27.378885%" y2="97.5187142%" id="linearGradient-11">
            <stop stop-color="#0098F5" offset="0%"></stop>
            <stop stop-color="#005FE8" offset="100%"></stop>
        </linearGradient>
        <linearGradient x1="86.0185901%" y1="50%" x2="-42.0049924%" y2="50%" id="linearGradient-12">
            <stop stop-color="#4A02BC" offset="0%"></stop>
            <stop stop-color="#FFFFFF" offset="100%"></stop>
        </linearGradient>
    </defs>
    <g id="页面-1" stroke="none" stroke-width="1" fill="none" fill-rule="evenodd">
        <g id="gateway" transform="translate(-300.000000, -4216.000000)">
            <g id="编组-16" transform="translate(300.000000, 4216.000000)">
                <rect id="矩形备份-141" fill="url(#linearGradient-1)" transform="translate(405.260548, 329.776063) rotate(-180.000000) translate(-405.260548, -329.776063) " x="338.271912" y="320.515452" width="133.977273" height="18.5212225"></rect>
                <rect id="矩形备份-151" fill="url(#linearGradient-2)" transform="translate(411.247857, 227.503336) rotate(-180.000000) translate(-411.247857, -227.503336) " x="337.830931" y="218.242725" width="146.833852" height="18.5212225"></rect>
                <rect id="矩形备份-142" fill="url(#linearGradient-3)" transform="translate(448.835636, 298.928703) rotate(-180.000000) translate(-448.835636, -298.928703) " x="374.268506" y="289.668092" width="149.13426" height="18.5212225"></rect>
                <rect id="矩形备份-150" fill="url(#linearGradient-3)" transform="translate(382.358363, 268.246885) rotate(-180.000000) translate(-382.358363, -268.246885) " x="307.791233" y="258.986274" width="149.13426" height="18.5212225"></rect>
                <rect id="矩形备份-153" fill="url(#linearGradient-4)" transform="translate(298.914130, 298.928703) rotate(-180.000000) translate(-298.914130, -298.928703) " x="238.061857" y="289.668092" width="121.704545" height="18.5212225"></rect>
                <rect id="矩形备份-143" fill="url(#linearGradient-5)" transform="translate(190.099480, 27.230483) rotate(-180.000000) translate(-190.099480, -27.230483) " x="175.476443" y="13.0850997" width="29.2460739" height="28.2907663"></rect>
                <rect id="矩形备份-146" fill="#FF9D00" transform="translate(102.361259, 67.850030) rotate(-180.000000) translate(-102.361259, -67.850030) " x="87.7382216" y="53.7046467" width="29.2460739" height="28.2907663"></rect>
                <rect id="矩形备份-144" fill="url(#linearGradient-5)" transform="translate(102.361259, 27.230483) rotate(-180.000000) translate(-102.361259, -27.230483) " x="87.7382216" y="13.0850997" width="29.2460739" height="28.2907663"></rect>
                <rect id="矩形备份-147" fill="#FF9D00" transform="translate(14.623037, 67.850030) rotate(-180.000000) translate(-14.623037, -67.850030) " x="0" y="53.7046467" width="29.2460739" height="28.2907663"></rect>
                <rect id="矩形备份-145" fill="url(#linearGradient-5)" transform="translate(146.230369, 27.230483) rotate(-180.000000) translate(-146.230369, -27.230483) " x="131.607332" y="13.0850997" width="29.2460739" height="28.2907663"></rect>
                <rect id="矩形备份-148" fill="#FF9D00" transform="translate(58.492148, 67.850030) rotate(-180.000000) translate(-58.492148, -67.850030) " x="43.8691108" y="53.7046467" width="29.2460739" height="28.2907663"></rect>
                <rect id="矩形备份-149" fill="url(#linearGradient-6)" transform="translate(518.968129, 329.476304) rotate(-180.000000) translate(-518.968129, -329.476304) " x="495.604085" y="320.215693" width="46.7280894" height="18.5212225"></rect>
                <rect id="矩形备份-152" fill="url(#linearGradient-7)" transform="translate(521.795492, 227.203577) rotate(-180.000000) translate(-521.795492, -227.203577) " x="500.829582" y="217.942965" width="41.9318182" height="18.5212225"></rect>
                <circle id="椭圆形" stroke="url(#linearGradient-8)" stroke-width="20" opacity="0.112965175" transform="translate(311.377114, 127.215524) rotate(-270.000000) translate(-311.377114, -127.215524) " cx="311.377114" cy="127.215524" r="117.215524"></circle>
                <path d="M227.466559,200.876039 L237.422048,210.831529 L209.147556,239.107241 C213.629134,248.09135 212.124815,259.300723 204.634601,266.790937 L118.398746,353.026793 C109.026163,362.399376 93.8302031,362.399376 84.4576201,353.026793 L84.2656384,352.834811 C74.8930554,343.462228 74.8930554,328.266269 84.2656384,318.893686 L170.501494,232.65783 C178.359816,224.799508 190.311836,223.529895 199.492937,228.848991 L227.466559,200.876039 Z" id="形状结合" fill="url(#linearGradient-9)" opacity="0.112965175"></path>
                <circle id="椭圆形" stroke="url(#linearGradient-8)" stroke-width="20" transform="translate(321.377114, 127.215524) rotate(-270.000000) translate(-321.377114, -127.215524) " cx="321.377114" cy="127.215524" r="117.215524"></circle>
                <circle id="椭圆形" fill="url(#linearGradient-10)" opacity="0.1782539" transform="translate(321.377114, 127.215524) rotate(-90.000000) translate(-321.377114, -127.215524) " cx="321.377114" cy="127.215524" r="106.599569"></circle>
                <path d="M237.466559,200.876039 L247.422048,210.831529 L219.147556,239.107241 C223.629134,248.09135 222.124815,259.300723 214.634601,266.790937 L128.398746,353.026793 C119.026163,362.399376 103.830203,362.399376 94.4576201,353.026793 L94.2656384,352.834811 C84.8930554,343.462228 84.8930554,328.266269 94.2656384,318.893686 L180.501494,232.65783 C188.359816,224.799508 200.311836,223.529895 209.492937,228.848991 L237.466559,200.876039 Z" id="形状结合" fill="url(#linearGradient-9)"></path>
                <g id="lighting" transform="translate(500.706818, 27.060596)" fill="url(#linearGradient-11)">
                    <polygon id="路径" points="38.5385592 37.447192 56.7373233 0 19.7575849 0 0 56.1006621 36.2472804 56.1006621 22.8940077 102.851214 22.8940077 102.851214 76.1098983 37.447192"></polygon>
                </g>
                <ellipse id="椭圆形备份-31" fill="url(#linearGradient-12)" cx="58.7525273" cy="212.186996" rx="40.1163119" ry="40.1119734"></ellipse>
                <g id="数据库" transform="translate(33.188773, 186.291924)" fill="#FFFFFF" fill-rule="nonzero">
                    <rect id="矩形" opacity="0" x="0.186571245" y="0.182267974" width="53.4826312" height="53.4826312"></rect>
                    <path d="M49.5551539,9.4733044 C49.5551539,3.40120974 37.4520178,0.182267974 25.4938294,0.182267974 C14.1879059,0.182267974 2.8095085,3.03542088 1.50497886,8.44909567 C1.28755727,8.74172674 1.21508338,9.1075156 1.21508338,9.4733044 L1.21508338,45.3937681 C1.21508338,45.8327147 1.3600311,46.2716613 1.72240046,46.6374502 C1.93982206,46.8569235 7.52030997,52.6363871 25.711251,52.6363871 C43.6847705,52.6363871 48.5405198,47.1495545 49.0478368,46.4911346 C49.3377323,46.1985035 49.4102062,45.759557 49.4102061,45.3206104 L49.4102061,10.7169864 C49.48268,10.2780398 49.5551539,9.91225099 49.5551539,9.4733044 Z M45.641565,33.3958943 C45.5690911,33.3958943 45.5690911,33.4690521 45.4966172,33.4690521 C45.4966172,33.4690521 45.4241434,33.4690521 45.4241434,33.5422098 C45.3516695,33.6153676 45.2791956,33.6153676 45.2067218,33.6885253 L45.1342479,33.7616831 C45.061774,33.7616831 45.061774,33.8348409 44.9893002,33.8348409 C44.9893002,33.8348409 44.9168263,33.9079987 44.8443524,33.9079987 C44.7718786,33.9079987 44.7718786,33.9811565 44.6994047,33.9811564 C44.6269308,33.9811564 44.6269308,34.0543142 44.554457,34.0543142 C44.4819831,34.0543142 44.4095093,34.127472 44.3370354,34.127472 C44.2645615,34.127472 44.2645615,34.2006298 44.1920876,34.2006297 C44.1196137,34.2737875 44.0471399,34.2737875 43.974666,34.3469453 C43.9021921,34.3469453 43.9021921,34.4201031 43.8297183,34.4201031 C43.6847706,34.4932608 43.6122967,34.5664186 43.4673489,34.6395763 C43.394875,34.6395763 43.394875,34.7127341 43.3224012,34.7127341 C43.2499273,34.7858919 43.1049796,34.7858919 43.0325057,34.8590496 C42.9600318,34.8590496 42.887558,34.9322074 42.8150841,34.9322074 C42.7426102,35.0053652 42.5976625,35.0053652 42.5251886,35.0785229 C42.4527147,35.0785229 42.3802409,35.1516807 42.307767,35.1516807 C42.2352931,35.2248385 42.0903454,35.2248385 42.0178715,35.2979962 C41.9453976,35.2979962 41.8729238,35.371154 41.8004499,35.371154 C41.6555022,35.4443118 41.5105544,35.4443118 41.3656067,35.5174695 C41.2931329,35.5174695 41.2931329,35.5174695 41.220659,35.5906273 C41.0032374,35.6637851 40.8582896,35.7369428 40.6408681,35.8101006 C40.5683942,35.8101006 40.4959203,35.8832584 40.4234464,35.8832584 C40.2784987,35.9564162 40.1335509,35.9564162 39.9886032,36.0295739 C39.9161293,36.0295739 39.8436555,36.1027317 39.6987077,36.1027317 C39.55376,36.1758894 39.4088123,36.1758894 39.2638645,36.2490472 C39.1913907,36.2490472 39.0464429,36.322205 38.9739691,36.322205 C38.8290213,36.3953627 38.6840736,36.3953627 38.466652,36.4685205 C38.3941781,36.4685205 38.3217043,36.5416783 38.1767565,36.5416783 C37.9593349,36.6148361 37.7419133,36.6148361 37.5244917,36.6879938 L37.3795439,36.6879938 C37.0896485,36.7611516 36.799753,36.8343093 36.5098575,36.8343094 C36.4373836,36.8343094 36.2924359,36.8343094 36.219962,36.9074671 C36.0025404,36.9806249 35.7851188,36.9806249 35.5676972,37.0537827 C35.4227495,37.0537827 35.3502756,37.1269405 35.2053279,37.1269404 C34.9879063,37.1269404 34.7704847,37.2000982 34.6255369,37.2000982 C34.4805892,37.2000982 34.4081153,37.2000982 34.2631676,37.273256 C34.045746,37.273256 33.8283244,37.3464137 33.6109027,37.3464137 C33.465955,37.3464137 33.3934811,37.3464137 33.2485334,37.4195715 C32.958638,37.4927293 32.5962686,37.4927293 32.3063731,37.4927293 L32.2338992,37.4927293 C31.8715299,37.4927293 31.5091606,37.565887 31.1467912,37.565887 L30.7844219,37.565887 C30.4945264,37.565887 30.2046309,37.6390448 29.9872093,37.6390448 L29.5523661,37.6390448 C29.2624706,37.6390448 29.045049,37.6390448 28.7551535,37.7122025 L22.3774531,37.7122025 C22.0875576,37.7122025 21.7976621,37.7122025 21.5802405,37.6390448 L21.1453973,37.6390448 C20.8555018,37.6390448 20.5656063,37.565887 20.2757109,37.565887 L19.9133415,37.565887 C19.5509722,37.565887 19.116129,37.4927293 18.7537596,37.4927293 L18.6088119,37.4927293 C18.3189164,37.4927293 17.9565471,37.4195715 17.6666516,37.4195715 C17.5217039,37.4195715 17.44923,37.4195715 17.3042823,37.3464137 C17.0868607,37.3464137 16.7969652,37.273256 16.5795436,37.273256 C16.4345959,37.273256 16.362122,37.273256 16.2171742,37.2000982 C15.9997526,37.2000982 15.782331,37.1269404 15.5649094,37.1269404 C15.4199617,37.1269404 15.3474878,37.1269404 15.2025401,37.0537827 C14.9851185,36.9806249 14.695223,36.9806249 14.4778013,36.9074671 C14.4053275,36.9074671 14.3328536,36.9074671 14.2603797,36.8343094 C13.9704843,36.7611516 13.6805888,36.6879939 13.3906934,36.6879938 C13.3182195,36.6879938 13.2457456,36.6879938 13.2457456,36.614836 C13.028324,36.5416783 12.8109024,36.5416783 12.5934808,36.4685205 C12.5210069,36.4685205 12.4485331,36.3953627 12.3035853,36.3953627 C12.1586376,36.322205 11.941216,36.322205 11.7962682,36.2490472 C11.7237944,36.2490472 11.6513205,36.1758894 11.5063728,36.1758894 C11.361425,36.1027317 11.1440034,36.1027317 10.9990557,36.0295739 C10.9265818,36.0295739 10.854108,35.9564162 10.781634,35.9564162 C10.5642124,35.8832584 10.4192647,35.8101006 10.2018431,35.8101006 L10.0568954,35.8101006 L9.40463057,35.5906273 C9.33215668,35.5906273 9.33215668,35.5906273 9.2596828,35.5174695 C9.11473509,35.4443117 8.96978732,35.371154 8.8248396,35.371154 C8.75236572,35.371154 8.67989189,35.2979962 8.60741801,35.2979962 C8.46247029,35.2248384 8.31752253,35.2248384 8.24504864,35.1516807 C8.17257476,35.1516807 8.10010093,35.0785229 8.10010093,35.0785229 C7.95515321,35.0053652 7.88267933,35.0053652 7.73773157,34.9322074 C7.66525768,34.9322074 7.66525768,34.8590496 7.5927838,34.8590496 L7.1579406,34.6395763 L6.72309741,34.4201031 C6.72309741,34.4201031 6.65062353,34.4201031 6.65062353,34.3469453 C6.57814964,34.2737875 6.43320193,34.2737875 6.36072805,34.2006297 C6.28825416,34.2006297 6.28825416,34.1274719 6.21578033,34.127472 C6.14330645,34.0543142 6.07083262,34.0543142 5.99835873,33.9811564 L5.92588485,33.9079987 C5.92588485,33.9811565 5.85341097,33.9079987 5.78093709,33.8348409 C5.78093709,33.8348409 5.7084632,33.8348409 5.70846325,33.7616831 C5.49104166,33.6153676 5.34609389,33.5422098 5.20114618,33.4690521 C5.20114618,33.4690521 5.12867229,33.4690521 5.12867229,33.3958943 C5.05619841,33.3958943 5.05619841,33.3227365 4.98372453,33.3227365 C4.98372453,33.3227365 4.91125064,33.3227365 4.9112507,33.2495788 C4.9112507,33.2495788 4.83877681,33.2495788 4.83877681,33.176421 L4.83877681,25.933802 C4.83877681,25.933802 4.9112507,26.0069598 4.98372453,26.0069598 L5.41856777,26.2264331 C5.49104166,26.2264331 5.56351549,26.2995909 5.63598937,26.2995909 C5.78093709,26.3727487 5.99835873,26.4459064 6.14330645,26.5190642 C6.21578033,26.5190642 6.21578033,26.5922219 6.28825416,26.5922219 C6.50567576,26.6653797 6.79557124,26.8116952 7.01299289,26.884853 C7.08546677,26.884853 7.1579406,26.9580108 7.23041449,26.9580108 C7.44783609,27.0311686 7.59278385,27.1043263 7.81020545,27.1774841 C7.88267933,27.2506419 8.02762705,27.2506419 8.17257476,27.3237996 C8.38999636,27.3969574 8.53494412,27.4701151 8.75236572,27.5432729 C8.89731344,27.6164307 8.96978732,27.6164307 9.11473509,27.6895885 L9.76699988,27.9090618 C9.91194759,27.9090618 9.98442147,27.9822195 10.1293692,27.9822195 C10.4917386,28.0553773 10.7816341,28.2016928 11.1440034,28.2748506 L11.2889512,28.2748506 C11.5788466,28.3480084 11.941216,28.4211661 12.2311114,28.4943239 C12.3760592,28.4943239 12.5210069,28.5674817 12.6659546,28.5674817 C12.9558501,28.6406395 13.1732717,28.7137972 13.4631672,28.7137972 C13.6081149,28.7137972 13.7530627,28.786955 13.9704843,28.786955 C14.2603797,28.8601128 14.5502752,28.8601128 14.8401707,28.9332705 C14.9851184,28.9332705 15.1300662,29.0064283 15.3474878,29.0064283 C15.7098571,29.079586 16.0722265,29.079586 16.3621219,29.1527438 C16.5070697,29.1527438 16.5795435,29.1527438 16.7244913,29.2259016 C17.2318084,29.2990593 17.6666516,29.3722171 18.1739687,29.3722171 C18.3189164,29.3722171 18.4638641,29.3722171 18.6088119,29.4453749 C18.9711813,29.5185326 19.4060245,29.5185326 19.7683938,29.5185326 C19.9858154,29.5185326 20.1307631,29.5185326 20.3481847,29.5916904 C20.7105541,29.5916904 21.0729234,29.6648482 21.4352928,29.6648481 L22.0875576,29.6648481 C22.449927,29.6648481 22.8847702,29.6648481 23.3196134,29.7380059 L28.1753626,29.7380059 C28.537732,29.7380059 28.9725752,29.7380059 29.3349445,29.6648481 L29.9872093,29.6648481 C30.3495787,29.6648481 30.711948,29.5916904 31.0743174,29.5916904 C31.291739,29.5916904 31.4366867,29.5916904 31.6541083,29.5185326 C32.0164777,29.5185326 32.378847,29.4453749 32.7412163,29.4453749 C32.886164,29.4453749 33.0311118,29.4453749 33.1760596,29.3722171 C33.6833766,29.2990593 34.1182198,29.2990593 34.6255369,29.2259016 L34.7704847,29.2259016 C35.2053279,29.1527438 35.5676972,29.079586 36.0025404,29.079586 C36.1474881,29.079586 36.2924359,29.0064283 36.4373836,29.0064283 C36.7272791,28.9332705 37.0171746,28.9332705 37.3070701,28.8601127 C37.4520178,28.8601127 37.5969655,28.7869549 37.7419133,28.786955 C38.0318088,28.7137972 38.2492304,28.7137972 38.466652,28.6406394 C38.6115997,28.6406394 38.7565475,28.5674816 38.9014952,28.5674817 C39.1913907,28.4943239 39.4088123,28.4211662 39.6262339,28.4211661 C39.7711816,28.4211661 39.8436554,28.3480083 39.9886032,28.3480083 C40.3509726,28.2748506 40.6408681,28.2016928 41.0032374,28.0553773 C41.0757113,28.0553773 41.1481851,28.0553773 41.1481851,27.9822195 C41.4380806,27.9090618 41.6555022,27.835904 41.9453977,27.7627462 C42.0178716,27.7627462 42.1628193,27.6895885 42.2352932,27.6895885 C42.4527148,27.6164307 42.5976625,27.5432729 42.8150841,27.4701152 C42.887558,27.3969574 43.0325057,27.3969574 43.1049796,27.3237996 C43.2499273,27.2506418 43.4673489,27.1774841 43.6122966,27.1043263 C43.6847705,27.0311685 43.8297182,27.0311685 43.9021921,26.9580108 C44.0471398,26.884853 44.2645615,26.8116953 44.4095092,26.7385375 C44.4819831,26.7385375 44.5544569,26.6653797 44.6269308,26.6653797 C44.8443524,26.5922219 45.061774,26.4459064 45.2791956,26.3727487 C45.3516695,26.3727487 45.3516695,26.2995909 45.4241434,26.2995909 C45.5690911,26.2264331 45.7865127,26.1532754 45.9314605,26.0801176 L46.0039343,26.0801176 L46.0039343,33.3227365 C45.7865127,33.3227365 45.7140388,33.3958943 45.641565,33.3958943 C45.7140389,33.3958943 45.641565,33.3958943 45.641565,33.3958943 L45.641565,33.3958943 Z M45.7865127,21.6906515 C45.7865127,21.7638093 45.7140388,21.7638093 45.7865127,21.6906515 C45.7140388,21.7638093 45.7140388,21.7638093 45.641565,21.7638093 L45.4966172,21.9101248 C45.4241434,21.9832826 45.3516695,21.9832826 45.2791956,22.0564404 C45.2791956,22.0564404 45.2067218,22.0564404 45.2067218,22.1295982 C45.1342479,22.2027559 45.061774,22.2027559 44.9893002,22.2759137 L44.9168263,22.3490715 C44.8443524,22.3490715 44.7718786,22.4222292 44.7718786,22.495387 C44.6994047,22.495387 44.6994047,22.5685447 44.6269308,22.5685447 C44.5544569,22.6417025 44.4819831,22.6417025 44.4095092,22.7148603 C44.3370353,22.7148603 44.3370353,22.788018 44.2645615,22.788018 C44.1920876,22.8611758 44.1196138,22.8611758 43.974666,22.9343336 C43.974666,22.9343336 43.9021921,22.9343336 43.9021921,23.0074913 C43.7572444,23.0806491 43.6847705,23.1538068 43.5398228,23.2269647 C43.4673489,23.2269647 43.4673489,23.3001225 43.394875,23.3001224 C43.3224012,23.3732802 43.1774534,23.3732802 43.1049796,23.446438 C43.0325057,23.446438 42.9600318,23.5195957 42.9600318,23.5195957 C42.887558,23.5927535 42.7426103,23.5927535 42.6701364,23.6659113 C42.5976625,23.6659113 42.5251887,23.739069 42.4527148,23.739069 C42.3802409,23.8122268 42.2352932,23.8122268 42.0903454,23.8853845 C42.0178715,23.8853845 41.9453977,23.9585423 41.8729238,23.9585423 C41.7279761,24.0317001 41.5830283,24.0317001 41.4380806,24.1048578 C41.3656067,24.1048578 41.3656067,24.1048578 41.2931329,24.1780156 C41.0757113,24.2511734 40.9307635,24.3243311 40.7133419,24.3974889 C40.640868,24.3974889 40.5683942,24.4706467 40.4959203,24.4706467 C40.3509726,24.5438045 40.2060248,24.5438045 40.0610771,24.6169622 C39.9886032,24.6169622 39.9161294,24.69012 39.7711816,24.69012 C39.6262339,24.7632778 39.4812861,24.7632778 39.3363384,24.8364355 C39.2638645,24.8364355 39.1189168,24.9095933 39.0464429,24.9095933 C38.9014952,24.9827511 38.7565475,24.9827511 38.5391259,25.0559088 C38.466652,25.0559088 38.3941781,25.1290666 38.2492304,25.1290666 C38.0318088,25.2022244 37.8143872,25.2022244 37.5969655,25.2753821 L37.4520178,25.2753821 C37.1621223,25.3485399 36.8722269,25.4216976 36.5823314,25.4216976 C36.5098575,25.4216976 36.3649098,25.4216976 36.2924359,25.4948554 C36.0750143,25.5680132 35.8575927,25.5680132 35.6401711,25.6411709 C35.4952233,25.6411709 35.4227495,25.7143287 35.2778017,25.7143287 C35.0603801,25.7143287 34.8429586,25.7874865 34.6980108,25.7874865 C34.5530631,25.7874865 34.4805892,25.7874865 34.3356414,25.8606443 C34.1182198,25.8606443 33.9007982,25.9338021 33.6833766,25.933802 C33.5384289,25.933802 33.465955,25.933802 33.3210073,26.0069598 C33.0311118,26.0801176 32.6687424,26.0801176 32.3063731,26.0801176 L32.2338992,26.0801176 C31.8715299,26.0801176 31.5091606,26.1532754 31.0743174,26.1532754 L30.711948,26.1532754 C30.4220525,26.1532754 30.2046309,26.2264331 29.9147354,26.2264331 L29.4798922,26.2264331 C29.1899968,26.2264331 28.9725752,26.2264331 28.6826797,26.2995909 L22.3049792,26.2995909 C22.0150837,26.2995909 21.7251883,26.2995909 21.5077667,26.2264331 L21.0729235,26.2264331 C20.783028,26.2264331 20.4931325,26.1532753 20.203237,26.1532754 L19.8408677,26.1532754 C19.4784983,26.1532754 19.0436551,26.0801176 18.6812858,26.0801176 L18.536338,26.0801176 C18.2464425,26.0801176 17.8840732,26.0069598 17.5941777,26.0069598 C17.44923,26.0069598 17.3767561,26.0069598 17.2318084,25.933802 C17.0143868,25.933802 16.7969652,25.8606442 16.5070697,25.8606443 C16.362122,25.8606443 16.2896481,25.8606443 16.1447003,25.7874865 C15.9272787,25.7874865 15.7098571,25.7143287 15.4924356,25.7143287 C15.3474878,25.7143287 15.275014,25.7143287 15.1300662,25.6411709 C14.9126446,25.5680132 14.695223,25.5680132 14.4053275,25.4948554 C14.3328536,25.4948554 14.2603798,25.4948554 14.1879059,25.4216976 C13.8980104,25.3485399 13.608115,25.2753821 13.3182195,25.2753821 C13.2457456,25.2753821 13.1732718,25.2753821 13.1007979,25.2022244 C12.8833763,25.1290666 12.6659547,25.1290666 12.448533,25.0559088 C12.3760592,25.0559088 12.2311114,24.9827511 12.1586376,24.9827511 C12.0136898,24.9095933 11.7962682,24.9095933 11.6513205,24.8364355 C11.5788466,24.8364355 11.4338989,24.7632777 11.361425,24.7632778 C11.2164773,24.69012 10.9990556,24.69012 10.8541079,24.6169622 C10.781634,24.6169622 10.7091602,24.5438044 10.6366863,24.5438045 C10.4192647,24.4706467 10.274317,24.4706467 10.1293692,24.3974889 C10.0568954,24.3974889 10.0568954,24.3974889 9.98442147,24.3243311 L9.33215668,24.1048578 C9.2596828,24.1048578 9.18720897,24.0317001 9.18720892,24.0317001 C9.0422612,23.9585423 8.89731344,23.9585423 8.75236572,23.8853845 C8.67989184,23.8853845 8.60741801,23.8122268 8.53494412,23.8122268 C8.38999641,23.739069 8.31752253,23.739069 8.17257476,23.6659113 C8.10010088,23.6659113 8.02762705,23.5927535 7.95515316,23.5927535 C7.81020545,23.5195957 7.73773157,23.5195957 7.5927838,23.446438 C7.52030992,23.446438 7.44783609,23.3732802 7.44783609,23.3732802 C7.30288837,23.3001224 7.1579406,23.2269647 7.08546672,23.2269647 L7.01299289,23.2269647 L6.57814964,23.0074913 C6.50567576,23.0074913 6.50567576,22.9343335 6.43320193,22.9343336 C6.36072805,22.8611758 6.28825422,22.8611758 6.14330645,22.788018 C6.07083257,22.788018 6.07083257,22.7148603 5.99835873,22.7148603 C5.92588485,22.6417025 5.85341102,22.6417025 5.78093709,22.5685447 C5.7084632,22.5685447 5.7084632,22.495387 5.63598937,22.495387 C5.92588485,22.3490715 5.85341097,22.2759137 5.78093709,22.2759137 L5.70846325,22.2027559 C5.63598937,22.1295981 5.56351554,22.1295981 5.4910416,22.0564404 C5.4910416,22.0564404 5.41856772,22.0564404 5.41856777,21.9832826 C5.34609389,21.9101248 5.27362006,21.9101248 5.20114618,21.8369671 L5.12867229,21.7638093 C5.05619841,21.7638093 5.05619841,21.6906515 4.98372453,21.6906515 L4.9112507,21.6174938 L4.83877681,21.6174938 L4.83877681,14.4480326 C4.9112507,14.4480326 4.9112507,14.5211903 4.98372453,14.5211903 C5.20114612,14.6675058 5.34609389,14.7406636 5.56351549,14.8869792 C5.63598937,14.960137 5.7084632,14.960137 5.78093709,15.0332947 L6.65062353,15.4722413 C6.72309741,15.4722413 6.79557124,15.5453991 6.86804512,15.5453991 C7.08546672,15.6185569 7.3753622,15.7648724 7.5927838,15.8380301 C7.66525768,15.9111879 7.8102054,15.9111879 7.88267928,15.9843457 C8.10010088,16.0575035 8.38999636,16.203819 8.60741801,16.2769768 C8.67989189,16.2769768 8.75236572,16.3501346 8.8248396,16.3501345 C9.18720897,16.49645 9.47710445,16.5696078 9.83947376,16.7159234 C9.91194764,16.7159234 10.0568954,16.7890811 10.1293692,16.7890811 C10.4192647,16.8622389 10.7091602,16.9353967 10.9265818,17.0085544 C11.0715295,17.0085544 11.1440034,17.0817122 11.2889512,17.0817122 L12.1586376,17.3011855 C12.2311114,17.3011855 12.3035853,17.3743433 12.448533,17.3743432 C12.8109024,17.447501 13.2457456,17.5206588 13.608115,17.5938166 C13.7530627,17.5938166 13.8255366,17.6669744 13.9704843,17.6669743 C14.2603797,17.7401321 14.5502752,17.8132898 14.8401707,17.8132899 C14.9851184,17.8132899 15.1300662,17.8864477 15.2750139,17.8864477 C15.6373833,17.9596054 15.9272787,17.9596054 16.2896481,18.0327632 C16.362122,18.0327632 16.5070697,18.0327632 16.5795436,18.105921 C17.0143868,18.1790787 17.3767561,18.2522365 17.8115993,18.2522365 C17.9565471,18.2522365 18.1014948,18.2522365 18.2464425,18.3253942 C18.536338,18.3253942 18.8262335,18.398552 19.1886029,18.398552 C19.3335506,18.398552 19.4784983,18.398552 19.6234461,18.4717098 C19.9858154,18.4717098 20.3481847,18.5448675 20.7105541,18.5448675 L20.9279757,18.5448675 C21.3628189,18.5448675 21.7976621,18.6180253 22.2325053,18.6180253 L26.9433068,18.6180253 C34.2631675,18.4717098 41.4380806,17.0817122 45.641565,14.5943481 L45.641565,21.6906515 L45.7865127,21.6906515 Z M25.4938294,3.84015632 C38.7565475,3.84015632 45.9314605,7.57120245 45.9314605,9.4733044 L45.9314605,9.76593548 C45.7865128,10.2048821 45.4241434,10.5706709 44.8443524,11.0096175 C44.7718786,11.0096175 44.7718786,11.0827753 44.6994047,11.0827753 C44.554457,11.1559331 44.4095092,11.3022486 44.2645615,11.3754064 C43.1774534,12.0338263 41.5105544,12.7654039 39.4088123,13.350666 C39.3363384,13.350666 39.2638645,13.4238238 39.1913907,13.4238238 C38.8290213,13.4969816 38.466652,13.6432971 38.1042826,13.7164549 C37.886861,13.7896127 37.5969655,13.8627704 37.3070701,13.8627705 C37.1621223,13.9359282 36.9447007,13.9359282 36.799753,14.009086 C36.3649098,14.0822438 36.0025404,14.1554015 35.5676972,14.2285593 C35.4952233,14.2285593 35.4227495,14.2285593 35.3502756,14.301717 C34.8429586,14.3748748 34.3356415,14.4480326 33.7558505,14.5211903 L33.6109027,14.5211903 L31.8715299,14.7406636 L31.7265821,14.7406636 C31.1467912,14.8138214 30.5670002,14.8138214 29.9147354,14.8869792 L29.6973138,14.8869792 C29.045049,14.9601369 28.4652581,14.9601369 27.8129932,14.9601369 L25.5663033,14.9601369 L25.4938294,14.9601369 C14.3328536,14.9601369 7.44783609,12.3264573 5.56351549,10.3511976 C5.20114612,9.98540877 5.05619841,9.61961997 5.05619841,9.32698889 C5.05619841,7.5712025 12.2311114,3.84015632 25.4938294,3.84015632 L25.4938294,3.84015632 Z M45.7865127,44.5890327 C44.4095092,45.6863992 39.1189168,48.9784987 25.711251,48.9784987 C12.2311114,48.9784987 6.50567581,45.6863992 4.9112507,44.5158749 L4.9112507,37.4927293 C4.9112507,37.4927293 4.98372458,37.4927293 4.98372453,37.565887 C5.05619841,37.6390448 5.20114612,37.7122025 5.34609389,37.7853603 C5.41856777,37.7853603 5.4910416,37.8585181 5.56351549,37.8585181 C5.7084632,37.9316759 5.92588485,38.0048336 6.14330645,38.0779914 C6.21578033,38.0779914 6.21578033,38.1511492 6.28825416,38.1511492 C6.50567576,38.224307 6.79557124,38.3706225 7.01299289,38.4437803 C7.08546677,38.4437803 7.1579406,38.516938 7.23041449,38.516938 C7.44783609,38.5900958 7.59278385,38.6632535 7.81020545,38.7364113 C7.88267933,38.8095691 8.02762705,38.8095691 8.10010093,38.8095691 C8.31752253,38.8827268 8.46247029,38.9558846 8.67989184,39.0290424 C8.82483955,39.1022001 8.89731344,39.1022001 9.0422612,39.1753579 L9.69452605,39.3948312 C9.76699993,39.3948312 9.91194764,39.467989 9.98442147,39.467989 C10.3467908,39.5411468 10.6366863,39.6874623 11.0715295,39.7606201 L11.2164773,39.7606201 C11.5063728,39.8337778 11.8687421,39.9069356 12.2311114,39.9800934 C12.3760592,39.9800934 12.5210069,40.0532511 12.5934808,40.0532511 C12.8833763,40.1264089 13.1007979,40.1995666 13.3906934,40.1995667 C13.5356411,40.1995667 13.6805888,40.2727244 13.8255366,40.2727244 C14.115432,40.3458822 14.4053275,40.3458822 14.695223,40.4190399 C14.8401707,40.4190399 14.9851185,40.4921977 15.1300662,40.4921977 C15.4924356,40.5653555 15.8548049,40.5653555 16.2171742,40.6385132 C16.3621219,40.6385132 16.4345958,40.6385132 16.5795436,40.711671 C17.0868607,40.7848288 17.5217039,40.8579865 18.0290209,40.8579865 C18.1739687,40.8579865 18.3189164,40.8579865 18.4638641,40.9311443 C18.8262335,41.0043021 19.2610767,41.0043021 19.6234461,41.0043021 C19.8408677,41.0043021 19.9858154,41.0043021 20.203237,41.0774599 C20.5656064,41.0774599 20.9279757,41.1506177 21.2903451,41.1506176 L21.9426099,41.1506176 C22.3049792,41.1506176 22.7398224,41.1506176 23.1746657,41.2237754 L28.0304148,41.2237754 C28.465258,41.2237754 28.8276274,41.2237754 29.1899968,41.1506176 L29.7697877,41.1506176 C30.1321571,41.1506176 30.4945264,41.0774598 30.8568958,41.0774599 C31.0743174,41.0774599 31.2192651,41.0774599 31.4366867,41.0043021 C31.799056,41.0043021 32.1614253,40.9311443 32.5237947,40.9311443 C32.6687424,40.9311443 32.8136902,40.9311443 32.958638,40.8579865 C33.465955,40.7848287 33.9007982,40.7848287 34.4081153,40.711671 L34.5530631,40.711671 C34.9879063,40.6385132 35.4227495,40.5653555 35.7851188,40.5653555 C35.9300665,40.5653555 36.0750143,40.4921977 36.219962,40.4921977 C36.5098575,40.4190399 36.799753,40.4190399 37.0896485,40.3458822 C37.2345962,40.3458822 37.3795439,40.2727244 37.5244917,40.2727244 C37.8143871,40.1995667 38.0318087,40.1995667 38.3217042,40.1264089 C38.4666519,40.1264089 38.6115997,40.0532511 38.7565475,40.0532511 C39.0464429,39.9800933 39.2638645,39.9069356 39.55376,39.9069356 C39.6262339,39.9069356 39.7711816,39.8337778 39.8436555,39.8337778 C40.2060249,39.76062 40.4959203,39.6874623 40.8582897,39.5411467 C40.9307635,39.5411467 40.9307635,39.5411467 41.0032374,39.467989 C41.2931329,39.3948312 41.5830283,39.3216735 41.8004499,39.2485157 C41.8729238,39.2485157 42.0178715,39.1753579 42.0903454,39.1753579 C42.307767,39.1022001 42.4527148,39.0290424 42.6701364,38.9558846 C42.7426103,38.9558846 42.887558,38.8827268 42.9600318,38.8095691 C43.1049796,38.7364113 43.3224012,38.6632536 43.4673489,38.5900958 C43.5398228,38.5900958 43.6122966,38.516938 43.7572444,38.516938 C43.974666,38.4437802 44.1196138,38.3706225 44.2645615,38.2974647 C44.3370354,38.2974647 44.4095092,38.2243069 44.4819831,38.2243069 C44.6994047,38.1511491 44.9168263,38.0048336 45.1342479,37.9316758 C45.1342479,37.9316758 45.2067218,37.9316758 45.2067218,37.8585181 C45.4241434,37.7853603 45.5690911,37.7122026 45.7140388,37.565887 L45.7865127,37.565887 L45.7865127,44.5890327 L45.7865127,44.5890327 Z" id="形状"></path>
                </g>
            </g>
        </g>
    </g>
</svg>