<?xml version="1.0" encoding="UTF-8"?>
<svg width="600px" height="360px" viewBox="0 0 600 360" version="1.1" xmlns="http://www.w3.org/2000/svg" xmlns:xlink="http://www.w3.org/1999/xlink">
    <title>编组 21</title>
    <defs>
        <linearGradient x1="0%" y1="44.9243779%" x2="94.2678881%" y2="44.9243779%" id="linearGradient-1">
            <stop stop-color="#B0C8FF" stop-opacity="0" offset="0%"></stop>
            <stop stop-color="#739DFF" offset="100%"></stop>
        </linearGradient>
        <linearGradient x1="50%" y1="0%" x2="50%" y2="100%" id="linearGradient-2">
            <stop stop-color="#0063E9" offset="0%"></stop>
            <stop stop-color="#0098F5" offset="100%"></stop>
        </linearGradient>
        <linearGradient x1="93.9944314%" y1="0%" x2="8.6904401%" y2="97.5187142%" id="linearGradient-3">
            <stop stop-color="#0098F5" offset="0%"></stop>
            <stop stop-color="#005FE8" offset="100%"></stop>
        </linearGradient>
        <linearGradient x1="86.0185901%" y1="50%" x2="-42.0049924%" y2="50%" id="linearGradient-4">
            <stop stop-color="#4A02BC" offset="0%"></stop>
            <stop stop-color="#FFFFFF" offset="100%"></stop>
        </linearGradient>
        <path d="M0.030988039,27.1935904 L0,45.1906127 C-0.0123461344,49.1947275 3.25628866,52.4526768 7.29255738,52.4557475 L7.29255738,52.4557475 L47.6026245,52.5325222 C51.6419885,52.5386547 54.9199092,49.2960587 54.9199092,45.2950145 L54.9199092,45.2950145 L54.9571001,27.2949215 C54.9849105,12.2457138 42.7151488,0.0276363431 27.5450928,0 L27.5450928,0 C27.526521,0 27.5079492,0 27.4893775,0 L27.4893775,0 C12.3471792,-0.00307005908 0.0588457219,12.1628065 0.030988039,27.1935904" id="path-5"></path>
        <linearGradient x1="-0.000474084252%" y1="49.9941266%" x2="100.004023%" y2="49.9941266%" id="linearGradient-7">
            <stop stop-color="#360072" offset="0%"></stop>
            <stop stop-color="#4164DF" offset="100%"></stop>
        </linearGradient>
        <linearGradient x1="-22.5411717%" y1="44.9243779%" x2="94.2678881%" y2="44.9243779%" id="linearGradient-8">
            <stop stop-color="#B0C8FF" stop-opacity="0" offset="0%"></stop>
            <stop stop-color="#739DFF" offset="100%"></stop>
        </linearGradient>
        <polygon id="path-9" points="85.8400427 53.3407148 62.8689609 53.3407148 0 0 148.707447 0"></polygon>
        <linearGradient x1="-22.5411717%" y1="44.9243779%" x2="94.2678881%" y2="44.9243779%" id="linearGradient-11">
            <stop stop-color="#B0C8FF" stop-opacity="0" offset="0%"></stop>
            <stop stop-color="#739DFF" offset="100%"></stop>
        </linearGradient>
        <polygon id="path-12" points="0 0 175.377805 0 175.377805 26.6971981 0 26.6971981"></polygon>
        <linearGradient x1="-22.5411717%" y1="44.9243779%" x2="94.2678881%" y2="44.9243779%" id="linearGradient-14">
            <stop stop-color="#B0C8FF" stop-opacity="0" offset="0%"></stop>
            <stop stop-color="#739DFF" offset="100%"></stop>
        </linearGradient>
        <linearGradient x1="91.1737162%" y1="35.56549%" x2="18.0619291%" y2="68.2870909%" id="linearGradient-15">
            <stop stop-color="#0098F5" offset="0%"></stop>
            <stop stop-color="#005FE8" offset="100%"></stop>
        </linearGradient>
    </defs>
    <g id="页面-1" stroke="none" stroke-width="1" fill="none" fill-rule="evenodd">
        <g id="gateway" transform="translate(-1020.000000, -6016.000000)">
            <g id="编组-21" transform="translate(1020.000000, 6016.000000)">
                <ellipse id="椭圆形" fill="url(#linearGradient-1)" opacity="0.1782539" transform="translate(294.023647, 180.000000) rotate(-270.000000) translate(-294.023647, -180.000000) " cx="294.023647" cy="180" rx="180" ry="179.014672"></ellipse>
                <ellipse id="椭圆形备份-38" fill="#4A02BC" cx="55.4750192" cy="129.781205" rx="5.25079545" ry="5.25022759"></ellipse>
                <ellipse id="椭圆形备份-37" fill="#FF9D00" cx="508.824788" cy="347.534096" rx="12.1172203" ry="12.1159098"></ellipse>
                <rect id="矩形" stroke="url(#linearGradient-2)" stroke-width="5" x="2.5" y="254.464728" width="595" height="63" rx="31.5"></rect>
                <circle id="椭圆形" fill="url(#linearGradient-3)" cx="37.2614815" cy="286.418061" r="23.5733333"></circle>
                <circle id="椭圆形备份-7" fill="url(#linearGradient-3)" cx="561.071556" cy="286.418061" r="23.5733333"></circle>
                <rect id="矩形备份-157" fill="url(#linearGradient-3)" x="135.775223" y="104.566441" width="61.4226413" height="61.4226413" rx="10"></rect>
                <rect id="矩形备份-158" fill="url(#linearGradient-3)" x="50.1068025" y="187.002091" width="61.4226413" height="61.4226413" rx="10"></rect>
                <rect id="矩形备份-159" fill="url(#linearGradient-4)" x="139.816186" y="187.002091" width="61.4226413" height="61.4226413" rx="10"></rect>
                <rect id="矩形备份-160" fill="url(#linearGradient-3)" x="228.717378" y="187.002091" width="61.4226413" height="61.4226413" rx="10"></rect>
                <rect id="矩形备份-161" fill="url(#linearGradient-3)" x="318.426762" y="187.002091" width="61.4226413" height="61.4226413" rx="10"></rect>
                <path d="M151.130884,43.1106948 L181.743633,43.1437998 L181.842204,11.9614383 C181.846483,10.4526144 179.791634,9.22645616 177.252535,9.22390962 L155.836252,9.19970858 C153.297153,9.1958977 151.233733,10.4182361 151.229448,11.9283333 L151.130884,43.1106948 Z" id="Fill-5" fill="#3E85FF"></path>
                <g id="编组" transform="translate(139.007994, 31.829103)">
                    <mask id="mask-6" fill="white">
                        <use xlink:href="#path-5"></use>
                    </mask>
                    <g id="Clip-8"></g>
                    <path d="M0.030988039,27.1935904 L0,45.1906127 C-0.0123461344,49.1947275 3.25628866,52.4526768 7.29255738,52.4557475 L7.29255738,52.4557475 L47.6026245,52.5325222 C51.6419885,52.5386547 54.9199092,49.2960587 54.9199092,45.2950145 L54.9199092,45.2950145 L54.9571001,27.2949215 C54.9849105,12.2457138 42.7151488,0.0276363431 27.5450928,0 L27.5450928,0 C27.526521,0 27.5079492,0 27.4893775,0 L27.4893775,0 C12.3471792,-0.00307005908 0.0588457219,12.1628065 0.030988039,27.1935904" id="Fill-7" fill="url(#linearGradient-7)" mask="url(#mask-6)"></path>
                </g>
                <g id="编组-20" transform="translate(103.447517, 72.238735)" fill="#007AEE">
                    <path d="M116.546076,72.3763486 C115.316221,72.3763486 114.095521,71.8628301 113.231875,70.8661789 L86.3520551,39.884911 L110.576852,3.99027418 C111.925726,1.99393316 114.644836,1.46218327 116.655939,2.80523157 C118.663991,4.14827986 119.198048,6.85868501 117.849174,8.8580646 L97.3566681,39.219464 L119.857226,65.159743 C121.441085,66.9889626 121.236617,69.7419077 119.405567,71.3128488 C118.578542,72.026913 117.559258,72.3763486 116.546076,72.3763486" id="Fill-23备份" transform="translate(103.637922, 37.219968) scale(-1, 1) rotate(8.000000) translate(-103.637922, -37.219968) "></path>
                    <path d="M34.9186189,72.3763486 C33.6887634,72.3763486 32.4680631,71.8628301 31.6044177,70.8661789 L4.72459759,39.884911 L28.9493946,3.99027418 C30.2982684,1.99393316 33.0173783,1.46218327 35.028482,2.80523157 C37.0365339,4.14827986 37.5705903,6.85868501 36.2217165,8.8580646 L15.7292106,39.219464 L38.2297684,65.159743 C39.8136271,66.9889626 39.6091598,69.7419077 37.7781093,71.3128488 C36.9510849,72.026913 35.9318002,72.3763486 34.9186189,72.3763486" id="Fill-23备份-2" transform="translate(22.010464, 37.219968) rotate(8.000000) translate(-22.010464, -37.219968) "></path>
                </g>
                <g id="编组" transform="translate(393.855861, 43.143800)">
                    <polygon id="Fill-1" fill="url(#linearGradient-8)" points="75.1619163 119.612512 98.5995032 119.612512 98.5995032 80.0110722 75.1619163 80.0110722"></polygon>
                    <g transform="translate(12.122890, 26.670357)">
                        <mask id="mask-10" fill="white">
                            <use xlink:href="#path-9"></use>
                        </mask>
                        <g id="Clip-3"></g>
                        <polygon id="Fill-2" fill="url(#linearGradient-11)" mask="url(#mask-10)" points="85.8400427 53.3407148 62.8689609 53.3407148 0 0 148.707447 0"></polygon>
                    </g>
                    <g>
                        <g>
                            <mask id="mask-13" fill="white">
                                <use xlink:href="#path-12"></use>
                            </mask>
                            <g id="Clip-5"></g>
                            <path d="M162.026373,26.6971981 L13.3501914,26.6971981 C5.97633174,26.6971981 0,20.7207226 0,13.3501498 C0,5.97802617 5.97633174,0 13.3501914,0 L162.026373,0 C169.398681,0 175.378115,5.97802617 175.378115,13.3501498 C175.378115,20.7207226 169.398681,26.6971981 162.026373,26.6971981" id="Fill-4" fill="#3E85FF" mask="url(#mask-13)"></path>
                        </g>
                        <path d="M54.5629936,120.02496 L120.811399,120.02496 C130.257508,120.02496 137.915217,127.680865 137.915217,137.124751 L137.915217,208.513703 L37.462278,208.513703 L37.462278,137.124751 C37.462278,127.680865 45.116884,120.02496 54.5629936,120.02496" id="Fill-6" fill="url(#linearGradient-14)"></path>
                    </g>
                </g>
                <ellipse id="椭圆形备份-17" fill="url(#linearGradient-15)" cx="302.199522" cy="52.9396825" rx="26.7708235" ry="26.7679283"></ellipse>
                <g id="修复" transform="translate(286.743396, 37.486451)" fill="#FFFFFF" fill-rule="nonzero">
                    <rect id="矩形" opacity="0" x="0" y="0" width="30.7113207" height="30.7113207"></rect>
                    <path d="M1.36942626,6.28876745 C0.467513057,7.99625414 -0.00278816051,9.90077899 0,11.8343254 C0,18.3704152 5.26707914,23.668636 11.7647359,23.6686361 C13.7765036,23.6686361 15.6694476,23.1609441 17.3247443,22.2662702 L25.0306381,30.0177437 C25.4719282,30.4618239 26.0705534,30.7113207 26.6947583,30.7113207 C27.3189632,30.7113207 27.9175883,30.4618239 28.3588784,30.0177437 L30.0224103,28.3443722 C30.9409574,27.4201129 30.9409574,25.9218885 30.0224103,24.9976291 L22.2588693,17.1881675 C23.0965933,15.5294636 23.531999,13.6948093 23.5294594,11.8343254 C23.5294594,5.29823563 18.2623927,0 11.7647359,0 C9.89696674,-0.0029583004 8.0555667,0.443377054 6.39413965,1.30178892 L12.7306197,7.67574864 C14.0896454,9.06558831 14.0803487,11.2977565 12.709794,12.676093 C11.3392393,14.0544294 9.12019441,14.0632549 7.73884754,12.6958632 L1.36942626,6.28876745 Z" id="路径"></path>
                </g>
            </g>
        </g>
    </g>
</svg>