<?xml version="1.0" encoding="UTF-8"?>
<svg width="16px" height="16px" viewBox="0 0 16 16" version="1.1" xmlns="http://www.w3.org/2000/svg" xmlns:xlink="http://www.w3.org/1999/xlink">
    <title>语言</title>
    <g id="页面-1" stroke="none" stroke-width="1" fill="none" fill-rule="evenodd">
        <g id="首页" transform="translate(-1532.000000, -8044.000000)" fill="#FFFFFF" fill-rule="nonzero">
            <g id="页脚" transform="translate(0.000000, 7698.000000)">
                <g id="语言" transform="translate(1532.000000, 346.000000)">
                    <rect id="矩形" opacity="0" x="0" y="0" width="16" height="16"></rect>
                    <path d="M8,0 C12.4183333,0 16,3.58166667 16,8 C16,12.4183333 12.4183333,16 8,16 C3.58166667,16 0,12.4183333 0,8 C0,3.58166667 3.58166667,0 8,0 Z M10.6523333,8.66666667 L5.34766667,8.66666667 C5.495,12.0696667 6.751,14.6666667 8,14.6666667 C9.24866667,14.6666667 10.505,12.0696667 10.6523333,8.66666667 Z M4.013,8.66666667 L1.36633333,8.667 C1.611,11.129 3.195,13.197 5.37966667,14.132 C4.594,12.7923333 4.09733334,10.8453333 4.013,8.667 L4.013,8.66666667 Z M14.6336667,8.667 L11.987,8.667 C11.9026667,10.8456667 11.406,12.7923333 10.6203333,14.1316667 C12.805,13.1973333 14.389,11.129 14.6336667,8.667 L14.6336667,8.667 Z M5.38,1.86833333 L5.306,1.90033333 C3.159,2.84966667 1.608,4.899 1.36666667,7.33333333 L4.01333333,7.33333333 C4.09766666,5.15466666 4.59433333,3.20766666 5.38,1.86833333 Z M8,1.33333333 L7.95,1.33466667 C6.718,1.40266667 5.49333333,3.976 5.34766667,7.33333333 L10.6523333,7.33333333 C10.505,3.93066667 9.249,1.33333333 8,1.33333333 Z M10.6203333,1.868 L10.6693333,1.953 C11.4266667,3.289 11.9043333,5.2 11.9866667,7.33333333 L14.6333333,7.33333333 C14.389,4.871 12.8046667,2.803 10.62,1.868 L10.6203333,1.868 Z" id="形状"></path>
                </g>
            </g>
        </g>
    </g>
</svg>