<?xml version="1.0" encoding="UTF-8"?>
<svg width="212px" height="50px" viewBox="0 0 212 50" version="1.1" xmlns="http://www.w3.org/2000/svg" xmlns:xlink="http://www.w3.org/1999/xlink">
    <title>INFINIConsole-logo</title>
    <g id="网站-pc" stroke="none" stroke-width="1" fill="none" fill-rule="evenodd">
        <g id="关于我们" transform="translate(-1214.000000, -1708.000000)" fill-rule="nonzero">
            <g id="INFINIConsole-logo" transform="translate(1214.000000, 1708.000000)">
                <polyline id="路径" fill="#231815" points="50 31.6 48.2 39.3 19 20.9 21.5 10.1 39.6 21.7 44.7 0.6 10.2 0.5 0 49.9 12.1 49.9 17.8 26 28.8 33 24.7 49.9 58.6 49.9 69.4 0.6 57.3 0.6 50 31.6"></polyline>
                <g id="编组" transform="translate(75.900000, 0.000000)" fill="#231815">
                    <polygon id="路径" points="0 19.8 4.3 0.5 9.3 0.5 5.1 19.9"></polygon>
                    <polygon id="路径" points="8.8 19.9 13.2 0 13.7 0 24.4 11.4 26.8 0.8 31.5 0.8 27 20.8 26.6 20.8 15.8 9.4 13.5 19.9"></polygon>
                    <polygon id="路径" points="31.2 20.1 35.5 0.8 48.6 0.9 47.7 4.8 39.6 4.7 38.7 8.5 46 8.6 45.1 12.5 37.8 12.4 36.1 20"></polygon>
                    <polygon id="路径" points="47.7 20.2 52 1 57 1 52.7 20.3"></polygon>
                    <polygon id="路径" points="56.3 20.3 60.7 0.4 61.2 0.4 71.9 11.8 74.3 1.2 79 1.2 74.5 21.2 74.1 21.2 63.8 9.8 61.4 20.3"></polygon>
                    <polygon id="路径" points="78.6 20.5 82.9 1.2 87.9 1.2 83.6 20.5"></polygon>
                </g>
                <g id="编组" transform="translate(78.200000, 24.200000)" fill="#4A02BC">
                    <path d="M91.4,11.5 C89.8,11.5 88.5,12.5 88.2,14.3 L94.5,14.4 C94.5,12.6 93.1,11.5 91.4,11.5 Z" id="路径"></path>
                    <path d="M70.1,11.5 C68.3,11.5 66.7,12.7 66.7,15.4 C66.7,18 68.2,19.4 70,19.4 C71.8,19.4 73.5,18.1 73.5,15.5 C73.5,12.8 71.9,11.5 70.1,11.5 Z" id="路径"></path>
                    <path d="M26.6,11.1 C24.8,11.1 23.2,12.3 23.2,15 C23.2,17.6 24.7,19 26.5,19 C28.3,19 30,17.7 30,15.1 C30,12.4 28.4,11.1 26.6,11.1 Z" id="路径"></path>
                    <path d="M5.8,0 L4.3,6.8 C5.8,5.4 7.9,4.6 10.2,4.6 C13.9,4.6 16.9,6.6 18,10.1 L14.1,10.1 C13.3,8.5 11.9,7.7 10.1,7.7 C7.2,7.7 5.1,9.8 5,13.2 C5,16.6 7,18.8 10,18.8 C11.8,18.8 13.2,18 14.1,16.4 L18,16.4 C16.8,19.8 13.8,21.7 10,21.7 C6.3,21.7 3.3,19.6 2.1,16.3 L1.42108547e-14,25.7 L103,25.6 L108.7,0 L5.8,0 L5.8,0 Z M26.5,21.9 C22.7,21.9 19.8,19.2 19.8,15 C19.8,10.8 22.9,8.2 26.7,8.2 C30.5,8.2 33.5,10.9 33.5,15.1 C33.4,19.3 30.3,21.9 26.5,21.9 Z M48.3,21.9 L44.9,21.9 L45,14.6 C45,12.5 43.9,11.3 42.1,11.3 C40.3,11.3 39.1,12.4 39.1,14.6 L39,21.9 L35.6,21.9 L35.7,8.6 L39.1,8.6 L39.1,10.3 C40,9.2 41.4,8.5 43.1,8.5 C46.2,8.5 48.4,10.6 48.4,14.2 L48.3,21.9 Z M56.3,22.1 C53,22.1 50.7,20.1 50.5,17.6 L53.9,17.6 C54,18.6 54.9,19.4 56.3,19.4 C57.6,19.4 58.3,18.8 58.4,18 C58.4,15.6 50.9,17.1 50.9,12.2 C50.9,10 52.9,8.2 56.2,8.3 C59.4,8.3 61.3,10.1 61.5,12.7 L58.3,12.7 C58.2,11.7 57.4,11 56.1,11 C54.9,11 54.2,11.5 54.2,12.3 C54.2,14.7 61.6,13.3 61.6,18.1 C61.6,20.5 59.6,22.2 56.3,22.1 Z M70,22.3 C66.2,22.3 63.3,19.6 63.3,15.4 C63.3,11.2 66.4,8.6 70.2,8.6 C74,8.6 77,11.3 77,15.5 C76.9,19.6 73.9,22.3 70,22.3 Z M82.5,22.2 L79.1,22.2 L79.3,4.4 L82.7,4.4 L82.5,22.2 Z M97.9,16.6 L88.2,16.5 C88.4,18.5 89.7,19.6 91.4,19.6 C92.8,19.6 93.6,18.9 94.1,18 L97.7,18 C97,20.4 94.7,22.4 91.4,22.3 C87.5,22.3 84.8,19.6 84.8,15.4 C84.8,11.2 87.6,8.6 91.5,8.6 C95.3,8.6 98,11.3 98,15.2 C98,15.8 98,16.2 97.9,16.6 Z" id="形状"></path>
                </g>
                <g id="编组" transform="translate(183.900000, 24.200000)" fill="#4A02BC">
                    <polygon id="路径" points="7 25.7 -2.84217094e-14 25.7 5.8 0 12.8 0"></polygon>
                    <polygon id="路径" points="15.4 25.7 10.5 25.7 16.2 0 21.1 0"></polygon>
                    <polygon id="路径" points="21.8 25.7 19.2 25.7 25 0 27.6 0"></polygon>
                </g>
            </g>
        </g>
    </g>
</svg>