<svg xml:space="preserve" viewBox="0 0 1024 1024" y="0" x="0" xmlns="http://www.w3.org/2000/svg" id="图层_1" version="1.1"><style>.st2{fill:#231815}.st3{fill:#4a02bc}.st4{fill:#ff9d00}</style><path d="M768 258V128.9H128V768h128v128h643V258H768zM192 704V192.9h512V258H256v446h-64zm643 128H320V322h515v510z" fill="#424242"/><ellipse ry="127.1" rx="255.5" cy="641.8" cx="512.5" fill="#005fe8"/><path transform="rotate(-34.637 318.537 464.55)" fill="#005fe8" d="M286.6 420.7h64v87.7h-64z"/><path transform="rotate(-15.95 436.12 411.41)" fill="#005fe8" d="M404.2 367.5h64v87.8h-64z"/><path transform="rotate(-55.363 705.302 461.545)" fill="#005fe8" d="M661.5 429.6h87.7v64h-87.7z"/><path transform="rotate(-75.191 577.725 409.44)" fill="#005fe8" d="M533.8 377.5h87.8v64h-87.8z"/></svg>