<?xml version="1.0" encoding="UTF-8"?>
<svg width="24px" height="24px" viewBox="0 0 24 24" version="1.1" xmlns="http://www.w3.org/2000/svg" xmlns:xlink="http://www.w3.org/1999/xlink">
    <title>纸飞机</title>
    <g id="网站-pc" stroke="none" stroke-width="1" fill="none" fill-rule="evenodd">
        <g id="支持" transform="translate(-1060.000000, -443.000000)" fill-rule="nonzero">
            <g id="纸飞机" transform="translate(1060.000000, 443.000000)">
                <rect id="矩形" fill="#000000" opacity="0" x="0" y="0" width="24" height="24"></rect>
                <path d="M9.792,22.332 C9.708,22.332 9.612,22.32 9.528,22.284 C9.228,22.176 9.036,21.888 9.048,21.564 L9.18,16.572 C9.18,16.404 9.24,16.248 9.348,16.116 L12.768,11.844 L8.112,16.08 C7.88587758,16.2842194 7.55879519,16.3316227 7.284,16.2 L2.448,13.92 C2.196,13.8 2.028,13.548 2.016,13.272 C2.004,12.996 2.148,12.732 2.388,12.588 L20.832,1.752 C21.084,1.608 21.396,1.62 21.636,1.776 C21.876,1.932 21.996,2.22 21.96,2.508 L19.32,20.088 C19.284,20.316 19.14,20.52 18.948,20.628 C18.744,20.736 18.504,20.748 18.288,20.664 L13.38,18.54 L10.368,22.068 C10.224,22.236 10.008,22.332 9.792,22.332 Z M10.668,16.86 L10.596,19.476 L12.588,17.136 C12.804,16.884 13.152,16.8 13.452,16.932 L17.976,18.888 L20.04,5.208 L19.896,5.352 L10.668,16.86 L10.668,16.86 Z M4.38,13.164 L7.476,14.628 L17.688,5.34 L4.38,13.164 Z" id="形状" fill="#2C2C2C"></path>
            </g>
        </g>
    </g>
</svg>