<?xml version="1.0" encoding="UTF-8"?>
<svg width="2182px" height="218px" viewBox="0 0 2182 218" version="1.1" xmlns="http://www.w3.org/2000/svg" xmlns:xlink="http://www.w3.org/1999/xlink">
    <title>编组 5</title>
    <defs>
        <linearGradient x1="103.663691%" y1="50.6086417%" x2="20.8563691%" y2="50.208594%" id="linearGradient-1">
            <stop stop-color="#FFFFFF" offset="0%"></stop>
            <stop stop-color="#00E059" offset="99.9634643%"></stop>
        </linearGradient>
        <linearGradient x1="103.663691%" y1="50.27586%" x2="9.91664715%" y2="49.8783376%" id="linearGradient-2">
            <stop stop-color="#FFFFFF" offset="0%"></stop>
            <stop stop-color="#D100E8" offset="99.9634643%"></stop>
        </linearGradient>
    </defs>
    <g id="网站-pc" stroke="none" stroke-width="1" fill="none" fill-rule="evenodd">
        <g id="关于我们" transform="translate(56.000000, -1936.000000)">
            <g id="编组-5" transform="translate(-55.632166, 1936.610165)">
                <path d="M34.2974569,217 L2001.11413,217 L2001.11413,-2.27373675e-13 C1684.67777,102.520548 1405.9476,116.821022 1164.92364,42.9014216 C803.387698,-67.9779794 648.81437,108.5 435.571742,108.5 C293.40999,108.5 159.651895,86.6338072 34.2974569,42.9014216 L34.2974569,217 Z" id="路径-18" fill="url(#linearGradient-1)" opacity="0.14360991"></path>
                <path d="M0,181.499929 C207.571055,97.1666431 352.903673,55 435.997854,55 C560.639125,55 855.252187,155.085032 1067.41772,155.085032 C1279.58326,155.085032 1357.89068,70.9287377 1572.2985,70.9287377 C1786.70631,70.9287377 1955.53547,217 2164.14193,217 C2303.21291,217 1581.83226,217 0,217 L0,181.499929 Z" id="路径-19" fill="url(#linearGradient-2)" opacity="0.248296102"></path>
            </g>
        </g>
    </g>
</svg>