<?xml version="1.0" encoding="UTF-8"?>
<svg width="24px" height="24px" viewBox="0 0 24 24" version="1.1" xmlns="http://www.w3.org/2000/svg" xmlns:xlink="http://www.w3.org/1999/xlink">
    <title>文档中心-文件-知识库-06</title>
    <g id="网站-pc" stroke="none" stroke-width="1" fill="none" fill-rule="evenodd">
        <g id="支持" transform="translate(-340.000000, -444.000000)" fill-rule="nonzero">
            <g id="文档中心-文件-知识库-06" transform="translate(340.000000, 444.000000)">
                <rect id="矩形" fill="#000000" opacity="0" x="0" y="0" width="24" height="24"></rect>
                <path d="M16.72,23 L11.64,23 C10.88,23 10.24,22.36 10.24,21.6 L10.24,1.99999999 C10.24,1.23999998 10.88,0.6 11.64,0.6 L16.72,0.6 C17.04,0.6 17.32,0.880000008 17.32,1.2 L17.32,22.4 C17.32,22.72 17.04,23 16.72,23 Z M11.64,1.8 C11.52,1.8 11.44,1.87999999 11.44,1.99999999 L11.44,21.6 C11.44,21.72 11.52,21.8 11.64,21.8 L16.12,21.8 L16.12,1.8 L11.64,1.8 Z" id="形状" fill="#333333"></path>
                <path d="M21.8,23 L16.72,23 C16.4,23 16.12,22.72 16.12,22.4 L16.12,1.2 C16.12,0.880000008 16.4,0.6 16.72,0.6 L21.8,0.6 C22.56,0.6 23.2,1.24000001 23.2,1.99999999 L23.2,21.6 C23.2,22.36 22.56,23 21.8,23 Z M17.32,21.8 L21.8,21.8 C21.92,21.8 22,21.72 22,21.6 L22,1.99999999 C22,1.87999999 21.92,1.8 21.8,1.8 L17.32,1.8 L17.32,21.8 Z M5.68000001,22.92 L5.52,22.92 L2.11999999,22.52 C1.35999998,22.44 0.799999992,21.72 0.880000008,20.96 L3.07999999,1.92 C3.12,1.56 3.27999998,1.24000001 3.6,1.00000001 C3.88000001,0.760000008 4.27999999,0.680000016 4.63999999,0.72 L7.75999999,1.12000001 C8.52,1.2 9.03999998,1.88000002 8.95999999,2.64 L7.03999999,21.68 C6.99999998,22.04 6.79999999,22.4 6.52000001,22.64 C6.32000002,22.8 6,22.92 5.68000001,22.92 Z M4.44,1.87999999 C4.39999999,1.87999999 4.32,1.92 4.32,1.92 C4.27999999,1.92 4.24000001,1.99999999 4.24000001,2.04 L2.08000001,21.08 C2.08000001,21.2 2.16,21.28 2.23999999,21.32 L5.64,21.72 C5.71999999,21.72 5.76,21.68 5.80000001,21.68 C5.84000002,21.68 5.88,21.6 5.88,21.56 L7.8,2.52 C7.8,2.4 7.72000001,2.32000001 7.63999999,2.32000001 L4.44,1.87999999 C4.48000001,1.87999999 4.48000001,1.87999999 4.44,1.87999999 C4.48000001,1.87999999 4.48000001,1.87999999 4.44,1.87999999 Z" id="形状" fill="#333333"></path>
                <path d="M19.64,8.88 C19.32,8.88 19.04,8.59999999 19.04,8.28 L19.04,6.52000001 C19.04,6.20000002 19.32,5.92000001 19.64,5.92000001 C19.96,5.92000001 20.24,6.20000002 20.24,6.52000001 L20.24,8.28 C20.24,8.59999999 20,8.88 19.64,8.88 Z M13.76,8.88 C13.44,8.88 13.16,8.59999999 13.16,8.28 L13.16,6.52000001 C13.16,6.20000002 13.44,5.92000001 13.76,5.92000001 C14.08,5.92000001 14.36,6.20000002 14.36,6.52000001 L14.36,8.28 C14.36,8.59999999 14.08,8.88 13.76,8.88 Z" id="形状" fill="#333333"></path>
            </g>
        </g>
    </g>
</svg>