<?xml version="1.0" encoding="UTF-8"?>
<svg width="42px" height="42px" viewBox="0 0 42 42" version="1.1" xmlns="http://www.w3.org/2000/svg" xmlns:xlink="http://www.w3.org/1999/xlink">
    <title>容灾备份</title>
    <g id="网站-pc" stroke="none" stroke-width="1" fill="none" fill-rule="evenodd">
        <g id="首页" transform="translate(-345.000000, -6649.000000)" fill="#005FE8" fill-rule="nonzero">
            <g id="容灾备份" transform="translate(345.000000, 6649.000000)">
                <rect id="矩形" opacity="0" x="0" y="0" width="42" height="42"></rect>
                <path d="M36.94993,17.7761393 C36.3699974,17.7761393 35.8998601,17.3164011 35.8998601,16.7492963 L35.8998601,10.026843 C35.8998601,9.45973813 36.3699974,9 36.94993,9 C37.5298627,9 38,9.45973813 38,10.026843 L38,16.7492963 C38,17.3164011 37.5298207,17.7761393 36.94993,17.7761393 Z M22.000042,41 L6,31.9667393 L6,17.0252295 C6,16.4581247 6.47013732,15.9983866 7.05006996,15.9983866 C7.6300026,15.9983866 8.10013992,16.4581247 8.10013992,17.0252295 L8.10013992,30.7810642 L22.000042,38.6286499 L35.8998601,30.7810642 L35.8998601,25.5594035 C35.8998601,24.9922987 36.3699974,24.5325605 36.94993,24.5325605 C37.5298627,24.5325605 38,24.9922987 38,25.5594035 L38,31.9667393 L22.000042,41 Z" id="形状"></path>
                <path d="M21.1427668,32 C20.981021,32 20.8168797,31.9647121 20.6625775,31.890156 L9.58870615,26.5413648 C9.06116097,26.286553 8.84885099,25.6697935 9.11450583,25.1637808 C9.38016068,24.657809 10.0231652,24.4541237 10.5507103,24.7089355 L21.6246244,30.0577267 C22.1521696,30.3125385 22.3644796,30.929298 22.0988248,31.4353108 C21.9108558,31.7933193 21.5339767,32 21.1427668,32 L21.1427668,32 Z M21.4009354,19.0155124 C21.0189656,19.0155124 20.6494872,18.8188026 20.4568554,18.4731038 C20.1784097,17.9734921 20.3748917,17.3519318 20.8958062,17.0848513 L36.4261337,9.12134625 C36.9468771,8.85430676 37.595015,9.04268696 37.8734607,9.54238071 C38.1519491,10.0419924 37.9554244,10.6635527 37.4345099,10.9306332 L21.9042251,18.8941382 C21.7494625,18.9737837 21.5765662,19.0155124 21.4009354,19.0155124 L21.4009354,19.0155124 Z" id="形状"></path>
                <path d="M20.9844027,32 C20.4407368,32 20,31.5361532 20,30.9638875 L20,18.0883661 C20,17.5161418 20.4407368,17.0522535 20.9844027,17.0522535 C21.5280686,17.0522535 21.9688054,17.5161418 21.9688054,18.0883661 L21.9688054,30.9638875 C21.9688447,31.5361532 21.5280686,32 20.9844027,32 L20.9844027,32 Z M35.4143679,25.4466713 C33.9886378,25.4466713 32.8287358,24.2257992 32.8287358,22.7251767 C32.8287358,21.2245543 33.9886378,20.0036822 35.4143679,20.0036822 C36.840098,20.0036822 38,21.2245543 38,22.7251767 C38,24.2257992 36.840098,25.4466713 35.4143679,25.4466713 L35.4143679,25.4466713 Z M35.4143679,21.6615036 C34.8571566,21.6615036 34.4037801,22.1386542 34.4037801,22.7252182 C34.4037801,23.3117822 34.8571566,23.7889327 35.4143679,23.7889327 C35.9715792,23.7889327 36.4249557,23.3117407 36.4249557,22.7252182 C36.4249557,22.1386956 35.9716186,21.6615036 35.4143679,21.6615036 L35.4143679,21.6615036 Z M28.1215978,14.6769035 C27.5779319,14.6769035 27.1371951,14.2130152 27.1371951,13.640791 L27.1371951,7.03611251 C27.1371951,6.46388829 27.5779319,6 28.1215978,6 C28.6652637,6 29.1060005,6.46388829 29.1060005,7.03611251 L29.1060005,13.640791 C29.1060005,14.2130566 28.6652243,14.6769035 28.1215978,14.6769035 L28.1215978,14.6769035 Z" id="形状"></path>
                <path d="M13.0300256,17 C12.6625733,17 12.3070978,16.7839544 12.1217254,16.4042747 C11.8538326,15.855553 12.042868,15.1728957 12.5440403,14.8795621 L27.4857819,6.13327414 C27.9867895,5.83998566 28.6103636,6.04688293 28.8782564,6.59569472 C29.1461903,7.14441638 28.9571138,7.82707371 28.4559415,8.12040726 L13.5141999,16.8666952 C13.3653193,16.9541746 13.1989877,17 13.0300256,17 L13.0300256,17 Z" id="路径"></path>
                <path d="M13.035762,27 C12.4637314,27 12,26.5373999 12,25.9667648 L12,14.2843463 C12,13.7137112 12.4637314,13.2511111 13.035762,13.2511111 C13.6077927,13.2511111 14.0715241,13.7137112 14.0715241,14.2843463 L14.0715241,25.9667648 C14.0715241,26.5373999 13.6077927,27 13.035762,27 Z M21.964238,9.76199983 C21.3922073,9.76199983 20.9284759,9.29939977 20.9284759,8.72876463 L20.9284759,2.0332352 C20.9284759,1.46260006 21.3922073,1 21.964238,1 C22.5362686,1 23,1.46260006 23,2.0332352 L23,8.72880596 C23,9.2994411 22.5362686,9.76199983 21.964238,9.76199983 Z" id="形状"></path>
                <path d="M7.09022503,11 C6.69177526,11 6.30791992,10.7950709 6.11653682,10.4400855 C5.8460824,9.93841994 6.06238494,9.3270494 6.59967786,9.07452855 L21.420955,2.10880937 C21.9581608,1.85628853 22.6130369,2.05824826 22.8834913,2.55991378 C23.1539022,3.06157931 22.9375996,3.67294985 22.4003067,3.92547069 L7.57907314,10.8911899 C7.42749572,10.9626964 7.26005123,11 7.09022503,11 L7.09022503,11 Z" id="路径"></path>
            </g>
        </g>
    </g>
</svg>