<?xml version="1.0" encoding="UTF-8"?>
<svg width="24px" height="24px" viewBox="0 0 24 24" version="1.1" xmlns="http://www.w3.org/2000/svg" xmlns:xlink="http://www.w3.org/1999/xlink">
    <title>微信</title>
    <g id="页面-1" stroke="none" stroke-width="1" fill="none" fill-rule="evenodd">
        <g id="首页" transform="translate(-1430.000000, -7827.000000)" fill="#FFFFFF" fill-rule="nonzero">
            <g id="页脚" transform="translate(0.000000, 7698.000000)">
                <g id="微信" transform="translate(1430.000000, 129.000000)">
                    <rect id="矩形" opacity="0" x="0" y="0" width="24" height="24"></rect>
                    <path d="M15.7448898,8.43296506 C15.9997528,8.43296506 16.2511003,8.45171684 16.5,8.47892789 C15.8218669,5.33582899 12.4446646,3 8.59013113,3 C4.28045347,3 0.75,5.92357721 0.75,9.63564632 C0.75,11.7780124 1.92481267,13.5375904 3.88726075,14.9023333 L3.10324503,17.25 L5.84369336,15.8819049 C6.82491741,16.0747917 7.61130284,16.2737021 8.59013113,16.2737021 C8.83603607,16.2737021 9.07951922,16.2616549 9.32183053,16.2423269 C9.16850125,15.7211004 9.07951924,15.1744961 9.07951924,14.607883 C9.07954527,11.199352 12.0207956,8.43296506 15.7448898,8.43296506 Z M11.7271765,6 C12.3426242,6 12.75,6.44636287 12.75,7.12361041 C12.75,7.79804852 12.3426242,8.25 11.7271765,8.25 C11.114199,8.25 10.5,7.79804852 10.5,7.12361041 C10.5,6.44636287 11.1142262,6 11.7271765,6 Z M5.73025213,8.25 C5.11762207,8.25 4.5,7.79804852 4.5,7.12361041 C4.5,6.44636287 5.11762207,6 5.73025213,6 C6.34220396,6 6.75,6.44636287 6.75,7.12361041 C6.75,7.79807875 6.34220396,8.25 5.73025213,8.25 Z M23.25,14.613224 C23.25,11.5206776 20.072631,9 16.5042734,9 C12.7257548,9 9.75,11.5206777 9.75,14.613224 C9.75,17.710262 12.7257548,20.2255393 16.5042734,20.2255393 C17.2947973,20.2255393 18.0926545,20.0324758 18.8867924,19.8382959 L21.0654022,21 L20.4678929,19.0673922 C22.0624204,17.9020792 23.25,16.3575715 23.25,14.613224 Z M14.1661995,13.5 C13.8346487,13.5 13.5,13.1286374 13.5,12.7496979 C13.5,12.3760195 13.8346488,12 14.1661995,12 C14.669954,12 15,12.3760195 15,12.7496979 C15,13.1286374 14.669954,13.5 14.1661995,13.5 Z M18.6636331,13.5 C18.3336367,13.5 18,13.1286374 18,12.7496979 C18,12.3760195 18.3336367,12 18.6636331,12 C19.1648539,12 19.5,12.3760195 19.5,12.7496979 C19.5,13.1286374 19.1648539,13.5 18.6636331,13.5 Z" id="形状"></path>
                </g>
            </g>
        </g>
    </g>
</svg>